<?xml version="1.0" encoding="UTF-8" standalone="no"?><svg xmlns="http://www.w3.org/2000/svg" xmlns:xlink="http://www.w3.org/1999/xlink" clip-rule="evenodd" stroke-miterlimit="4.00" viewBox="0 0 1024 768"><desc>SVG generated by Keynote</desc><defs></defs><g transform="matrix(1.00, 0.00, -0.00, -1.00, 0.0, 768.0)"><g><clipPath id="clip-172"><path d="M 0.0 768.0 L 1024.0 768.0 L 1024.0 0.0 L 0.0 0.0 Z M 0.0 768.0 "></path></clipPath><g clip-path="url(#clip-172)"><image xlink:href="../../06DBE9C8-52A0-453A-A7BF-EBF58CF01F35/assets/E7ABA782A15EA3475B4CFCC80A2FEB63.jpeg" width="1024.00" height="768.00" transform="matrix(1.00, 0.00, -0.00, -1.00, 0.0, 768.0)"></image></g></g><text xml:space="preserve" font-family="Helvetica-Light" font-size="80.0" fill="#FEFFFF" transform="matrix(1.00, 0.00, -0.00, -1.00, 212.0, 622.0)">D</text><text xml:space="preserve" font-family="Helvetica-Light" font-size="80.0" fill="#FEFFFF" transform="matrix(1.00, 0.00, -0.00, -1.00, 269.8, 622.0)">a</text><text xml:space="preserve" font-family="Helvetica-Light" font-size="80.0" fill="#FEFFFF" transform="matrix(1.00, 0.00, -0.00, -1.00, 314.2, 622.0)">t</text><text xml:space="preserve" font-family="Helvetica-Light" font-size="80.0" fill="#FEFFFF" transform="matrix(1.00, 0.00, -0.00, -1.00, 336.5, 622.0)">a</text><text xml:space="preserve" font-family="Helvetica-Light" font-size="80.0" fill="#FEFFFF" transform="matrix(1.00, 0.00, -0.00, -1.00, 381.0, 622.0)"> </text><text xml:space="preserve" font-family="Helvetica-Light" font-size="80.0" fill="#FEFFFF" transform="matrix(1.00, 0.00, -0.00, -1.00, 403.2, 622.0)">A</text><text xml:space="preserve" font-family="Helvetica-Light" font-size="80.0" fill="#FEFFFF" transform="matrix(1.00, 0.00, -0.00, -1.00, 456.6, 622.0)">b</text><text xml:space="preserve" font-family="Helvetica-Light" font-size="80.0" fill="#FEFFFF" transform="matrix(1.00, 0.00, -0.00, -1.00, 505.4, 622.0)">s</text><text xml:space="preserve" font-family="Helvetica-Light" font-size="80.0" fill="#FEFFFF" transform="matrix(1.00, 0.00, -0.00, -1.00, 545.4, 622.0)">t</text><text xml:space="preserve" font-family="Helvetica-Light" font-size="80.0" fill="#FEFFFF" transform="matrix(1.00, 0.00, -0.00, -1.00, 567.7, 622.0)">r</text><text xml:space="preserve" font-family="Helvetica-Light" font-size="80.0" fill="#FEFFFF" transform="matrix(1.00, 0.00, -0.00, -1.00, 594.3, 622.0)">a</text><text xml:space="preserve" font-family="Helvetica-Light" font-size="80.0" fill="#FEFFFF" transform="matrix(1.00, 0.00, -0.00, -1.00, 638.8, 622.0)">c</text><text xml:space="preserve" font-family="Helvetica-Light" font-size="80.0" fill="#FEFFFF" transform="matrix(1.00, 0.00, -0.00, -1.00, 683.3, 622.0)">t</text><text xml:space="preserve" font-family="Helvetica-Light" font-size="80.0" fill="#FEFFFF" transform="matrix(1.00, 0.00, -0.00, -1.00, 705.5, 622.0)">i</text><text xml:space="preserve" font-family="Helvetica-Light" font-size="80.0" fill="#FEFFFF" transform="matrix(1.00, 0.00, -0.00, -1.00, 723.3, 622.0)">o</text><text xml:space="preserve" font-family="Helvetica-Light" font-size="80.0" fill="#FEFFFF" transform="matrix(1.00, 0.00, -0.00, -1.00, 767.8, 622.0)">n</text><text xml:space="preserve" font-family="Helvetica-Light" font-size="26.2" fill="#FEFFFF" transform="matrix(1.00, 0.00, -0.00, -1.00, 69.8, 398.5)">•</text><text xml:space="preserve" font-family="Helvetica-Light" font-size="35.0" fill="#FEFFFF" transform="matrix(1.00, 0.00, -0.00, -1.00, 109.0, 395.0)">W</text><text xml:space="preserve" font-family="Helvetica-Light" font-size="35.0" fill="#FEFFFF" transform="matrix(1.00, 0.00, -0.00, -1.00, 139.5, 395.0)">e</text><text xml:space="preserve" font-family="Helvetica-Light" font-size="35.0" fill="#FEFFFF" transform="matrix(1.00, 0.00, -0.00, -1.00, 158.9, 395.0)"> </text><text xml:space="preserve" font-family="Helvetica-Light" font-size="35.0" fill="#FEFFFF" transform="matrix(1.00, 0.00, -0.00, -1.00, 168.7, 395.0)">c</text><text xml:space="preserve" font-family="Helvetica-Light" font-size="35.0" fill="#FEFFFF" transform="matrix(1.00, 0.00, -0.00, -1.00, 188.1, 395.0)">a</text><text xml:space="preserve" font-family="Helvetica-Light" font-size="35.0" fill="#FEFFFF" transform="matrix(1.00, 0.00, -0.00, -1.00, 207.6, 395.0)">n</text><text xml:space="preserve" font-family="Helvetica-Light" font-size="35.0" fill="#FEFFFF" transform="matrix(1.00, 0.00, -0.00, -1.00, 227.1, 395.0)"> </text><text xml:space="preserve" font-family="Helvetica-Light" font-size="35.0" fill="#FEFFFF" transform="matrix(1.00, 0.00, -0.00, -1.00, 236.8, 395.0)">t</text><text xml:space="preserve" font-family="Helvetica-Light" font-size="35.0" fill="#FEFFFF" transform="matrix(1.00, 0.00, -0.00, -1.00, 246.5, 395.0)">r</text><text xml:space="preserve" font-family="Helvetica-Light" font-size="35.0" fill="#FEFFFF" transform="matrix(1.00, 0.00, -0.00, -1.00, 257.5, 395.0)">e</text><text xml:space="preserve" font-family="Helvetica-Light" font-size="35.0" fill="#FEFFFF" transform="matrix(1.00, 0.00, -0.00, -1.00, 277.0, 395.0)">a</text><text xml:space="preserve" font-family="Helvetica-Light" font-size="35.0" fill="#FEFFFF" transform="matrix(1.00, 0.00, -0.00, -1.00, 296.5, 395.0)">t</text><text xml:space="preserve" font-family="Helvetica-Light" font-size="35.0" fill="#FEFFFF" transform="matrix(1.00, 0.00, -0.00, -1.00, 306.2, 395.0)"> </text><text xml:space="preserve" font-family="Helvetica-Light" font-size="35.0" fill="#FEFFFF" transform="matrix(1.00, 0.00, -0.00, -1.00, 315.9, 395.0)">d</text><text xml:space="preserve" font-family="Helvetica-Light" font-size="35.0" fill="#FEFFFF" transform="matrix(1.00, 0.00, -0.00, -1.00, 337.3, 395.0)">a</text><text xml:space="preserve" font-family="Helvetica-Light" font-size="35.0" fill="#FEFFFF" transform="matrix(1.00, 0.00, -0.00, -1.00, 356.8, 395.0)">t</text><text xml:space="preserve" font-family="Helvetica-Light" font-size="35.0" fill="#FEFFFF" transform="matrix(1.00, 0.00, -0.00, -1.00, 366.5, 395.0)">a</text><text xml:space="preserve" font-family="Helvetica-Light" font-size="35.0" fill="#FEFFFF" transform="matrix(1.00, 0.00, -0.00, -1.00, 386.0, 395.0)"> </text><text xml:space="preserve" font-family="Helvetica-Light" font-size="35.0" fill="#FEFFFF" transform="matrix(1.00, 0.00, -0.00, -1.00, 395.7, 395.0)">a</text><text xml:space="preserve" font-family="Helvetica-Light" font-size="35.0" fill="#FEFFFF" transform="matrix(1.00, 0.00, -0.00, -1.00, 415.1, 395.0)">s</text><text xml:space="preserve" font-family="Helvetica-Light" font-size="35.0" fill="#FEFFFF" transform="matrix(1.00, 0.00, -0.00, -1.00, 432.6, 395.0)"> </text><text xml:space="preserve" font-family="Helvetica-Light" font-size="35.0" fill="#FEFFFF" transform="matrix(1.00, 0.00, -0.00, -1.00, 442.4, 395.0)">a</text><text xml:space="preserve" font-family="Helvetica-Light" font-size="35.0" fill="#FEFFFF" transform="matrix(1.00, 0.00, -0.00, -1.00, 461.8, 395.0)">b</text><text xml:space="preserve" font-family="Helvetica-Light" font-size="35.0" fill="#FEFFFF" transform="matrix(1.00, 0.00, -0.00, -1.00, 483.2, 395.0)">s</text><text xml:space="preserve" font-family="Helvetica-Light" font-size="35.0" fill="#FEFFFF" transform="matrix(1.00, 0.00, -0.00, -1.00, 500.7, 395.0)">t</text><text xml:space="preserve" font-family="Helvetica-Light" font-size="35.0" fill="#FEFFFF" transform="matrix(1.00, 0.00, -0.00, -1.00, 510.5, 395.0)">r</text><text xml:space="preserve" font-family="Helvetica-Light" font-size="35.0" fill="#FEFFFF" transform="matrix(1.00, 0.00, -0.00, -1.00, 522.1, 395.0)">a</text><text xml:space="preserve" font-family="Helvetica-Light" font-size="35.0" fill="#FEFFFF" transform="matrix(1.00, 0.00, -0.00, -1.00, 541.6, 395.0)">c</text><text xml:space="preserve" font-family="Helvetica-Light" font-size="35.0" fill="#FEFFFF" transform="matrix(1.00, 0.00, -0.00, -1.00, 561.0, 395.0)">t</text><text xml:space="preserve" font-family="Helvetica-Light" font-size="35.0" fill="#FEFFFF" transform="matrix(1.00, 0.00, -0.00, -1.00, 570.8, 395.0)"> </text><text xml:space="preserve" font-family="Helvetica-Light" font-size="35.0" fill="#FEFFFF" transform="matrix(1.00, 0.00, -0.00, -1.00, 580.5, 395.0)">d</text><text xml:space="preserve" font-family="Helvetica-Light" font-size="35.0" fill="#FEFFFF" transform="matrix(1.00, 0.00, -0.00, -1.00, 601.9, 395.0)">a</text><text xml:space="preserve" font-family="Helvetica-Light" font-size="35.0" fill="#FEFFFF" transform="matrix(1.00, 0.00, -0.00, -1.00, 621.3, 395.0)">t</text><text xml:space="preserve" font-family="Helvetica-Light" font-size="35.0" fill="#FEFFFF" transform="matrix(1.00, 0.00, -0.00, -1.00, 631.1, 395.0)">a</text><text xml:space="preserve" font-family="Helvetica-Light" font-size="35.0" fill="#FEFFFF" transform="matrix(1.00, 0.00, -0.00, -1.00, 650.5, 395.0)"> </text><text xml:space="preserve" font-family="Helvetica-Light" font-size="35.0" fill="#FEFFFF" transform="matrix(1.00, 0.00, -0.00, -1.00, 660.3, 395.0)">t</text><text xml:space="preserve" font-family="Helvetica-Light" font-size="35.0" fill="#FEFFFF" transform="matrix(1.00, 0.00, -0.00, -1.00, 670.0, 395.0)">y</text><text xml:space="preserve" font-family="Helvetica-Light" font-size="35.0" fill="#FEFFFF" transform="matrix(1.00, 0.00, -0.00, -1.00, 687.5, 395.0)">p</text><text xml:space="preserve" font-family="Helvetica-Light" font-size="35.0" fill="#FEFFFF" transform="matrix(1.00, 0.00, -0.00, -1.00, 708.9, 395.0)">e</text><text xml:space="preserve" font-family="Helvetica-Light" font-size="35.0" fill="#FEFFFF" transform="matrix(1.00, 0.00, -0.00, -1.00, 728.3, 395.0)">s</text><text xml:space="preserve" font-family="Helvetica-Light" font-size="35.0" fill="#FEFFFF" transform="matrix(1.00, 0.00, -0.00, -1.00, 745.8, 395.0)"> </text><text xml:space="preserve" font-family="Helvetica-Light" font-size="26.2" fill="#FEFFFF" transform="matrix(1.00, 0.00, -0.00, -1.00, 69.8, 314.5)">•</text><text xml:space="preserve" font-family="Helvetica-Light" font-size="35.0" fill="#FEFFFF" transform="matrix(1.00, 0.00, -0.00, -1.00, 109.0, 311.0)">C</text><text xml:space="preserve" font-family="Helvetica-Light" font-size="35.0" fill="#FEFFFF" transform="matrix(1.00, 0.00, -0.00, -1.00, 134.3, 311.0)">o</text><text xml:space="preserve" font-family="Helvetica-Light" font-size="35.0" fill="#FEFFFF" transform="matrix(1.00, 0.00, -0.00, -1.00, 153.7, 311.0)">n</text><text xml:space="preserve" font-family="Helvetica-Light" font-size="35.0" fill="#FEFFFF" transform="matrix(1.00, 0.00, -0.00, -1.00, 173.2, 311.0)">s</text><text xml:space="preserve" font-family="Helvetica-Light" font-size="35.0" fill="#FEFFFF" transform="matrix(1.00, 0.00, -0.00, -1.00, 190.7, 311.0)">t</text><text xml:space="preserve" font-family="Helvetica-Light" font-size="35.0" fill="#FEFFFF" transform="matrix(1.00, 0.00, -0.00, -1.00, 200.4, 311.0)">r</text><text xml:space="preserve" font-family="Helvetica-Light" font-size="35.0" fill="#FEFFFF" transform="matrix(1.00, 0.00, -0.00, -1.00, 212.1, 311.0)">u</text><text xml:space="preserve" font-family="Helvetica-Light" font-size="35.0" fill="#FEFFFF" transform="matrix(1.00, 0.00, -0.00, -1.00, 231.5, 311.0)">c</text><text xml:space="preserve" font-family="Helvetica-Light" font-size="35.0" fill="#FEFFFF" transform="matrix(1.00, 0.00, -0.00, -1.00, 251.0, 311.0)">t</text><text xml:space="preserve" font-family="Helvetica-Light" font-size="35.0" fill="#FEFFFF" transform="matrix(1.00, 0.00, -0.00, -1.00, 260.7, 311.0)">o</text><text xml:space="preserve" font-family="Helvetica-Light" font-size="35.0" fill="#FEFFFF" transform="matrix(1.00, 0.00, -0.00, -1.00, 280.2, 311.0)">r</text><text xml:space="preserve" font-family="Helvetica-Light" font-size="35.0" fill="#FEFFFF" transform="matrix(1.00, 0.00, -0.00, -1.00, 291.8, 311.0)">s</text><text xml:space="preserve" font-family="Helvetica-Light" font-size="35.0" fill="#FEFFFF" transform="matrix(1.00, 0.00, -0.00, -1.00, 309.3, 311.0)"> </text><text xml:space="preserve" font-family="Helvetica-Light" font-size="35.0" fill="#FEFFFF" transform="matrix(1.00, 0.00, -0.00, -1.00, 319.1, 311.0)">c</text><text xml:space="preserve" font-family="Helvetica-Light" font-size="35.0" fill="#FEFFFF" transform="matrix(1.00, 0.00, -0.00, -1.00, 338.5, 311.0)">r</text><text xml:space="preserve" font-family="Helvetica-Light" font-size="35.0" fill="#FEFFFF" transform="matrix(1.00, 0.00, -0.00, -1.00, 349.6, 311.0)">e</text><text xml:space="preserve" font-family="Helvetica-Light" font-size="35.0" fill="#FEFFFF" transform="matrix(1.00, 0.00, -0.00, -1.00, 369.0, 311.0)">a</text><text xml:space="preserve" font-family="Helvetica-Light" font-size="35.0" fill="#FEFFFF" transform="matrix(1.00, 0.00, -0.00, -1.00, 388.5, 311.0)">t</text><text xml:space="preserve" font-family="Helvetica-Light" font-size="35.0" fill="#FEFFFF" transform="matrix(1.00, 0.00, -0.00, -1.00, 398.2, 311.0)">e</text><text xml:space="preserve" font-family="Helvetica-Light" font-size="35.0" fill="#FEFFFF" transform="matrix(1.00, 0.00, -0.00, -1.00, 417.7, 311.0)"> </text><text xml:space="preserve" font-family="Helvetica-Light" font-size="35.0" fill="#FEFFFF" transform="matrix(1.00, 0.00, -0.00, -1.00, 427.4, 311.0)">t</text><text xml:space="preserve" font-family="Helvetica-Light" font-size="35.0" fill="#FEFFFF" transform="matrix(1.00, 0.00, -0.00, -1.00, 437.1, 311.0)">h</text><text xml:space="preserve" font-family="Helvetica-Light" font-size="35.0" fill="#FEFFFF" transform="matrix(1.00, 0.00, -0.00, -1.00, 456.6, 311.0)">e</text><text xml:space="preserve" font-family="Helvetica-Light" font-size="35.0" fill="#FEFFFF" transform="matrix(1.00, 0.00, -0.00, -1.00, 476.0, 311.0)">s</text><text xml:space="preserve" font-family="Helvetica-Light" font-size="35.0" fill="#FEFFFF" transform="matrix(1.00, 0.00, -0.00, -1.00, 493.5, 311.0)">e</text><text xml:space="preserve" font-family="Helvetica-Light" font-size="35.0" fill="#FEFFFF" transform="matrix(1.00, 0.00, -0.00, -1.00, 513.0, 311.0)"> </text><text xml:space="preserve" font-family="Helvetica-Light" font-size="35.0" fill="#FEFFFF" transform="matrix(1.00, 0.00, -0.00, -1.00, 522.7, 311.0)">A</text><text xml:space="preserve" font-family="Helvetica-Light" font-size="35.0" fill="#FEFFFF" transform="matrix(1.00, 0.00, -0.00, -1.00, 546.1, 311.0)">D</text><text xml:space="preserve" font-family="Helvetica-Light" font-size="35.0" fill="#FEFFFF" transform="matrix(1.00, 0.00, -0.00, -1.00, 571.3, 311.0)">T</text><text xml:space="preserve" font-family="Helvetica-Light" font-size="35.0" fill="#FEFFFF" transform="matrix(1.00, 0.00, -0.00, -1.00, 586.9, 311.0)">s</text><text xml:space="preserve" font-family="Helvetica-Light" font-size="35.0" fill="#FEFFFF" transform="matrix(1.00, 0.00, -0.00, -1.00, 604.4, 311.0)"> </text><text xml:space="preserve" font-family="Helvetica-Light" font-size="26.2" fill="#FEFFFF" transform="matrix(1.00, 0.00, -0.00, -1.00, 69.8, 230.5)">•</text><text xml:space="preserve" font-family="Helvetica-Light" font-size="35.0" fill="#FEFFFF" transform="matrix(1.00, 0.00, -0.00, -1.00, 109.0, 227.0)">S</text><text xml:space="preserve" font-family="Helvetica-Light" font-size="35.0" fill="#FEFFFF" transform="matrix(1.00, 0.00, -0.00, -1.00, 130.4, 227.0)">e</text><text xml:space="preserve" font-family="Helvetica-Light" font-size="35.0" fill="#FEFFFF" transform="matrix(1.00, 0.00, -0.00, -1.00, 149.8, 227.0)">l</text><text xml:space="preserve" font-family="Helvetica-Light" font-size="35.0" fill="#FEFFFF" transform="matrix(1.00, 0.00, -0.00, -1.00, 157.6, 227.0)">e</text><text xml:space="preserve" font-family="Helvetica-Light" font-size="35.0" fill="#FEFFFF" transform="matrix(1.00, 0.00, -0.00, -1.00, 177.1, 227.0)">c</text><text xml:space="preserve" font-family="Helvetica-Light" font-size="35.0" fill="#FEFFFF" transform="matrix(1.00, 0.00, -0.00, -1.00, 196.5, 227.0)">t</text><text xml:space="preserve" font-family="Helvetica-Light" font-size="35.0" fill="#FEFFFF" transform="matrix(1.00, 0.00, -0.00, -1.00, 206.3, 227.0)">o</text><text xml:space="preserve" font-family="Helvetica-Light" font-size="35.0" fill="#FEFFFF" transform="matrix(1.00, 0.00, -0.00, -1.00, 225.7, 227.0)">r</text><text xml:space="preserve" font-family="Helvetica-Light" font-size="35.0" fill="#FEFFFF" transform="matrix(1.00, 0.00, -0.00, -1.00, 237.4, 227.0)">s</text><text xml:space="preserve" font-family="Helvetica-Light" font-size="35.0" fill="#FEFFFF" transform="matrix(1.00, 0.00, -0.00, -1.00, 254.9, 227.0)"> </text><text xml:space="preserve" font-family="Helvetica-Light" font-size="35.0" fill="#FEFFFF" transform="matrix(1.00, 0.00, -0.00, -1.00, 264.6, 227.0)">a</text><text xml:space="preserve" font-family="Helvetica-Light" font-size="35.0" fill="#FEFFFF" transform="matrix(1.00, 0.00, -0.00, -1.00, 284.1, 227.0)">r</text><text xml:space="preserve" font-family="Helvetica-Light" font-size="35.0" fill="#FEFFFF" transform="matrix(1.00, 0.00, -0.00, -1.00, 295.1, 227.0)">e</text><text xml:space="preserve" font-family="Helvetica-Light" font-size="35.0" fill="#FEFFFF" transform="matrix(1.00, 0.00, -0.00, -1.00, 314.6, 227.0)"> </text><text xml:space="preserve" font-family="Helvetica-Light" font-size="35.0" fill="#FEFFFF" transform="matrix(1.00, 0.00, -0.00, -1.00, 324.3, 227.0)">u</text><text xml:space="preserve" font-family="Helvetica-Light" font-size="35.0" fill="#FEFFFF" transform="matrix(1.00, 0.00, -0.00, -1.00, 343.7, 227.0)">s</text><text xml:space="preserve" font-family="Helvetica-Light" font-size="35.0" fill="#FEFFFF" transform="matrix(1.00, 0.00, -0.00, -1.00, 361.2, 227.0)">e</text><text xml:space="preserve" font-family="Helvetica-Light" font-size="35.0" fill="#FEFFFF" transform="matrix(1.00, 0.00, -0.00, -1.00, 380.7, 227.0)">d</text><text xml:space="preserve" font-family="Helvetica-Light" font-size="35.0" fill="#FEFFFF" transform="matrix(1.00, 0.00, -0.00, -1.00, 402.1, 227.0)"> </text><text xml:space="preserve" font-family="Helvetica-Light" font-size="35.0" fill="#FEFFFF" transform="matrix(1.00, 0.00, -0.00, -1.00, 411.8, 227.0)">t</text><text xml:space="preserve" font-family="Helvetica-Light" font-size="35.0" fill="#FEFFFF" transform="matrix(1.00, 0.00, -0.00, -1.00, 421.6, 227.0)">o</text><text xml:space="preserve" font-family="Helvetica-Light" font-size="35.0" fill="#FEFFFF" transform="matrix(1.00, 0.00, -0.00, -1.00, 441.0, 227.0)"> </text><text xml:space="preserve" font-family="Helvetica-Light" font-size="35.0" fill="#FEFFFF" transform="matrix(1.00, 0.00, -0.00, -1.00, 450.7, 227.0)">r</text><text xml:space="preserve" font-family="Helvetica-Light" font-size="35.0" fill="#FEFFFF" transform="matrix(1.00, 0.00, -0.00, -1.00, 461.8, 227.0)">e</text><text xml:space="preserve" font-family="Helvetica-Light" font-size="35.0" fill="#FEFFFF" transform="matrix(1.00, 0.00, -0.00, -1.00, 481.2, 227.0)">t</text><text xml:space="preserve" font-family="Helvetica-Light" font-size="35.0" fill="#FEFFFF" transform="matrix(1.00, 0.00, -0.00, -1.00, 491.0, 227.0)">r</text><text xml:space="preserve" font-family="Helvetica-Light" font-size="35.0" fill="#FEFFFF" transform="matrix(1.00, 0.00, -0.00, -1.00, 502.6, 227.0)">i</text><text xml:space="preserve" font-family="Helvetica-Light" font-size="35.0" fill="#FEFFFF" transform="matrix(1.00, 0.00, -0.00, -1.00, 510.4, 227.0)">e</text><text xml:space="preserve" font-family="Helvetica-Light" font-size="35.0" fill="#FEFFFF" transform="matrix(1.00, 0.00, -0.00, -1.00, 529.8, 227.0)">v</text><text xml:space="preserve" font-family="Helvetica-Light" font-size="35.0" fill="#FEFFFF" transform="matrix(1.00, 0.00, -0.00, -1.00, 547.3, 227.0)">e</text><text xml:space="preserve" font-family="Helvetica-Light" font-size="35.0" fill="#FEFFFF" transform="matrix(1.00, 0.00, -0.00, -1.00, 566.8, 227.0)"> </text><text xml:space="preserve" font-family="Helvetica-Light" font-size="35.0" fill="#FEFFFF" transform="matrix(1.00, 0.00, -0.00, -1.00, 576.5, 227.0)">i</text><text xml:space="preserve" font-family="Helvetica-Light" font-size="35.0" fill="#FEFFFF" transform="matrix(1.00, 0.00, -0.00, -1.00, 584.3, 227.0)">n</text><text xml:space="preserve" font-family="Helvetica-Light" font-size="35.0" fill="#FEFFFF" transform="matrix(1.00, 0.00, -0.00, -1.00, 603.8, 227.0)">f</text><text xml:space="preserve" font-family="Helvetica-Light" font-size="35.0" fill="#FEFFFF" transform="matrix(1.00, 0.00, -0.00, -1.00, 613.5, 227.0)">o</text><text xml:space="preserve" font-family="Helvetica-Light" font-size="35.0" fill="#FEFFFF" transform="matrix(1.00, 0.00, -0.00, -1.00, 632.9, 227.0)">r</text><text xml:space="preserve" font-family="Helvetica-Light" font-size="35.0" fill="#FEFFFF" transform="matrix(1.00, 0.00, -0.00, -1.00, 645.2, 227.0)">m</text><text xml:space="preserve" font-family="Helvetica-Light" font-size="35.0" fill="#FEFFFF" transform="matrix(1.00, 0.00, -0.00, -1.00, 674.4, 227.0)">a</text><text xml:space="preserve" font-family="Helvetica-Light" font-size="35.0" fill="#FEFFFF" transform="matrix(1.00, 0.00, -0.00, -1.00, 693.8, 227.0)">t</text><text xml:space="preserve" font-family="Helvetica-Light" font-size="35.0" fill="#FEFFFF" transform="matrix(1.00, 0.00, -0.00, -1.00, 703.6, 227.0)">i</text><text xml:space="preserve" font-family="Helvetica-Light" font-size="35.0" fill="#FEFFFF" transform="matrix(1.00, 0.00, -0.00, -1.00, 711.3, 227.0)">o</text><text xml:space="preserve" font-family="Helvetica-Light" font-size="35.0" fill="#FEFFFF" transform="matrix(1.00, 0.00, -0.00, -1.00, 730.8, 227.0)">n</text><text xml:space="preserve" font-family="Helvetica-Light" font-size="35.0" fill="#FEFFFF" transform="matrix(1.00, 0.00, -0.00, -1.00, 750.3, 227.0)"> </text><text xml:space="preserve" font-family="Helvetica-Light" font-size="35.0" fill="#FEFFFF" transform="matrix(1.00, 0.00, -0.00, -1.00, 760.0, 227.0)">f</text><text xml:space="preserve" font-family="Helvetica-Light" font-size="35.0" fill="#FEFFFF" transform="matrix(1.00, 0.00, -0.00, -1.00, 769.7, 227.0)">r</text><text xml:space="preserve" font-family="Helvetica-Light" font-size="35.0" fill="#FEFFFF" transform="matrix(1.00, 0.00, -0.00, -1.00, 780.8, 227.0)">o</text><text xml:space="preserve" font-family="Helvetica-Light" font-size="35.0" fill="#FEFFFF" transform="matrix(1.00, 0.00, -0.00, -1.00, 800.2, 227.0)">m</text><text xml:space="preserve" font-family="Helvetica-Light" font-size="35.0" fill="#FEFFFF" transform="matrix(1.00, 0.00, -0.00, -1.00, 829.4, 227.0)"> </text><text xml:space="preserve" font-family="Helvetica-Light" font-size="35.0" fill="#FEFFFF" transform="matrix(1.00, 0.00, -0.00, -1.00, 839.1, 227.0)">A</text><text xml:space="preserve" font-family="Helvetica-Light" font-size="35.0" fill="#FEFFFF" transform="matrix(1.00, 0.00, -0.00, -1.00, 862.4, 227.0)">D</text><text xml:space="preserve" font-family="Helvetica-Light" font-size="35.0" fill="#FEFFFF" transform="matrix(1.00, 0.00, -0.00, -1.00, 887.7, 227.0)">T</text><text xml:space="preserve" font-family="Helvetica-Light" font-size="35.0" fill="#FEFFFF" transform="matrix(1.00, 0.00, -0.00, -1.00, 903.3, 227.0)">s</text><text xml:space="preserve" font-family="Helvetica-Light" font-size="18.0" fill="#FEFFFF" transform="matrix(1.00, 0.00, -0.00, -1.00, 501.0, 18.0)">5</text><text xml:space="preserve" font-family="Helvetica-Light" font-size="18.0" fill="#FEFFFF" transform="matrix(1.00, 0.00, -0.00, -1.00, 511.0, 18.0)">0</text></g></svg>