<?xml version="1.0" encoding="UTF-8" standalone="no"?><svg xmlns="http://www.w3.org/2000/svg" xmlns:xlink="http://www.w3.org/1999/xlink" clip-rule="evenodd" stroke-miterlimit="4.00" viewBox="0 0 1024 768"><desc>SVG generated by Keynote</desc><defs></defs><g transform="matrix(1.00, 0.00, -0.00, -1.00, 0.0, 768.0)"><g><clipPath id="clip-54"><path d="M 0.0 768.0 L 1024.0 768.0 L 1024.0 0.0 L 0.0 0.0 Z M 0.0 768.0 "></path></clipPath><g clip-path="url(#clip-54)"><image xlink:href="../../06DBE9C8-52A0-453A-A7BF-EBF58CF01F35/assets/E7ABA782A15EA3475B4CFCC80A2FEB63.jpeg" width="1024.00" height="768.00" transform="matrix(1.00, 0.00, -0.00, -1.00, 0.0, 768.0)"></image></g></g><text xml:space="preserve" font-family="Helvetica-Light" font-size="80.0" fill="#FEFFFF" transform="matrix(1.00, 0.00, -0.00, -1.00, 245.0, 622.0)">T</text><text xml:space="preserve" font-family="Helvetica-Light" font-size="80.0" fill="#FEFFFF" transform="matrix(1.00, 0.00, -0.00, -1.00, 282.1, 622.0)">r</text><text xml:space="preserve" font-family="Helvetica-Light" font-size="80.0" fill="#FEFFFF" transform="matrix(1.00, 0.00, -0.00, -1.00, 307.3, 622.0)">e</text><text xml:space="preserve" font-family="Helvetica-Light" font-size="80.0" fill="#FEFFFF" transform="matrix(1.00, 0.00, -0.00, -1.00, 351.8, 622.0)">e</text><text xml:space="preserve" font-family="Helvetica-Light" font-size="80.0" fill="#FEFFFF" transform="matrix(1.00, 0.00, -0.00, -1.00, 396.3, 622.0)"> </text><text xml:space="preserve" font-family="Helvetica-Light" font-size="80.0" fill="#FEFFFF" transform="matrix(1.00, 0.00, -0.00, -1.00, 418.5, 622.0)">R</text><text xml:space="preserve" font-family="Helvetica-Light" font-size="80.0" fill="#FEFFFF" transform="matrix(1.00, 0.00, -0.00, -1.00, 471.9, 622.0)">e</text><text xml:space="preserve" font-family="Helvetica-Light" font-size="80.0" fill="#FEFFFF" transform="matrix(1.00, 0.00, -0.00, -1.00, 516.4, 622.0)">c</text><text xml:space="preserve" font-family="Helvetica-Light" font-size="80.0" fill="#FEFFFF" transform="matrix(1.00, 0.00, -0.00, -1.00, 560.8, 622.0)">u</text><text xml:space="preserve" font-family="Helvetica-Light" font-size="80.0" fill="#FEFFFF" transform="matrix(1.00, 0.00, -0.00, -1.00, 605.3, 622.0)">r</text><text xml:space="preserve" font-family="Helvetica-Light" font-size="80.0" fill="#FEFFFF" transform="matrix(1.00, 0.00, -0.00, -1.00, 632.0, 622.0)">s</text><text xml:space="preserve" font-family="Helvetica-Light" font-size="80.0" fill="#FEFFFF" transform="matrix(1.00, 0.00, -0.00, -1.00, 672.0, 622.0)">i</text><text xml:space="preserve" font-family="Helvetica-Light" font-size="80.0" fill="#FEFFFF" transform="matrix(1.00, 0.00, -0.00, -1.00, 689.7, 622.0)">o</text><text xml:space="preserve" font-family="Helvetica-Light" font-size="80.0" fill="#FEFFFF" transform="matrix(1.00, 0.00, -0.00, -1.00, 734.2, 622.0)">n</text><text xml:space="preserve" font-family="Helvetica-Light" font-size="22.5" fill="#FEFFFF" transform="matrix(1.00, 0.00, -0.00, -1.00, 79.0, 529.2)">•</text><text xml:space="preserve" font-family="Helvetica-Light" font-size="30.0" fill="#FEFFFF" transform="matrix(1.00, 0.00, -0.00, -1.00, 115.0, 526.0)">R</text><text xml:space="preserve" font-family="Helvetica-Light" font-size="30.0" fill="#FEFFFF" transform="matrix(1.00, 0.00, -0.00, -1.00, 135.0, 526.0)">e</text><text xml:space="preserve" font-family="Helvetica-Light" font-size="30.0" fill="#FEFFFF" transform="matrix(1.00, 0.00, -0.00, -1.00, 151.7, 526.0)">c</text><text xml:space="preserve" font-family="Helvetica-Light" font-size="30.0" fill="#FEFFFF" transform="matrix(1.00, 0.00, -0.00, -1.00, 168.4, 526.0)">u</text><text xml:space="preserve" font-family="Helvetica-Light" font-size="30.0" fill="#FEFFFF" transform="matrix(1.00, 0.00, -0.00, -1.00, 185.1, 526.0)">r</text><text xml:space="preserve" font-family="Helvetica-Light" font-size="30.0" fill="#FEFFFF" transform="matrix(1.00, 0.00, -0.00, -1.00, 195.0, 526.0)">s</text><text xml:space="preserve" font-family="Helvetica-Light" font-size="30.0" fill="#FEFFFF" transform="matrix(1.00, 0.00, -0.00, -1.00, 210.0, 526.0)">i</text><text xml:space="preserve" font-family="Helvetica-Light" font-size="30.0" fill="#FEFFFF" transform="matrix(1.00, 0.00, -0.00, -1.00, 216.7, 526.0)">v</text><text xml:space="preserve" font-family="Helvetica-Light" font-size="30.0" fill="#FEFFFF" transform="matrix(1.00, 0.00, -0.00, -1.00, 231.7, 526.0)">e</text><text xml:space="preserve" font-family="Helvetica-Light" font-size="30.0" fill="#FEFFFF" transform="matrix(1.00, 0.00, -0.00, -1.00, 248.4, 526.0)"> </text><text xml:space="preserve" font-family="Helvetica-Light" font-size="30.0" fill="#FEFFFF" transform="matrix(1.00, 0.00, -0.00, -1.00, 256.7, 526.0)">f</text><text xml:space="preserve" font-family="Helvetica-Light" font-size="30.0" fill="#FEFFFF" transform="matrix(1.00, 0.00, -0.00, -1.00, 265.1, 526.0)">u</text><text xml:space="preserve" font-family="Helvetica-Light" font-size="30.0" fill="#FEFFFF" transform="matrix(1.00, 0.00, -0.00, -1.00, 281.7, 526.0)">n</text><text xml:space="preserve" font-family="Helvetica-Light" font-size="30.0" fill="#FEFFFF" transform="matrix(1.00, 0.00, -0.00, -1.00, 298.4, 526.0)">c</text><text xml:space="preserve" font-family="Helvetica-Light" font-size="30.0" fill="#FEFFFF" transform="matrix(1.00, 0.00, -0.00, -1.00, 315.1, 526.0)">t</text><text xml:space="preserve" font-family="Helvetica-Light" font-size="30.0" fill="#FEFFFF" transform="matrix(1.00, 0.00, -0.00, -1.00, 323.4, 526.0)">i</text><text xml:space="preserve" font-family="Helvetica-Light" font-size="30.0" fill="#FEFFFF" transform="matrix(1.00, 0.00, -0.00, -1.00, 330.1, 526.0)">o</text><text xml:space="preserve" font-family="Helvetica-Light" font-size="30.0" fill="#FEFFFF" transform="matrix(1.00, 0.00, -0.00, -1.00, 346.8, 526.0)">n</text><text xml:space="preserve" font-family="Helvetica-Light" font-size="30.0" fill="#FEFFFF" transform="matrix(1.00, 0.00, -0.00, -1.00, 363.5, 526.0)">s</text><text xml:space="preserve" font-family="Helvetica-Light" font-size="30.0" fill="#FEFFFF" transform="matrix(1.00, 0.00, -0.00, -1.00, 378.5, 526.0)"> </text><text xml:space="preserve" font-family="Helvetica-Light" font-size="30.0" fill="#FEFFFF" transform="matrix(1.00, 0.00, -0.00, -1.00, 386.8, 526.0)">t</text><text xml:space="preserve" font-family="Helvetica-Light" font-size="30.0" fill="#FEFFFF" transform="matrix(1.00, 0.00, -0.00, -1.00, 395.1, 526.0)">h</text><text xml:space="preserve" font-family="Helvetica-Light" font-size="30.0" fill="#FEFFFF" transform="matrix(1.00, 0.00, -0.00, -1.00, 411.8, 526.0)">a</text><text xml:space="preserve" font-family="Helvetica-Light" font-size="30.0" fill="#FEFFFF" transform="matrix(1.00, 0.00, -0.00, -1.00, 428.5, 526.0)">t</text><text xml:space="preserve" font-family="Helvetica-Light" font-size="30.0" fill="#FEFFFF" transform="matrix(1.00, 0.00, -0.00, -1.00, 436.8, 526.0)"> </text><text xml:space="preserve" font-family="Helvetica-Light" font-size="30.0" fill="#FEFFFF" transform="matrix(1.00, 0.00, -0.00, -1.00, 445.2, 526.0)">m</text><text xml:space="preserve" font-family="Helvetica-Light" font-size="30.0" fill="#FEFFFF" transform="matrix(1.00, 0.00, -0.00, -1.00, 470.2, 526.0)">a</text><text xml:space="preserve" font-family="Helvetica-Light" font-size="30.0" fill="#FEFFFF" transform="matrix(1.00, 0.00, -0.00, -1.00, 486.8, 526.0)">k</text><text xml:space="preserve" font-family="Helvetica-Light" font-size="30.0" fill="#FEFFFF" transform="matrix(1.00, 0.00, -0.00, -1.00, 501.8, 526.0)">e</text><text xml:space="preserve" font-family="Helvetica-Light" font-size="30.0" fill="#FEFFFF" transform="matrix(1.00, 0.00, -0.00, -1.00, 518.5, 526.0)"> </text><text xml:space="preserve" font-family="Helvetica-Light" font-size="30.0" fill="#FEFFFF" transform="matrix(1.00, 0.00, -0.00, -1.00, 526.9, 526.0)">m</text><text xml:space="preserve" font-family="Helvetica-Light" font-size="30.0" fill="#FEFFFF" transform="matrix(1.00, 0.00, -0.00, -1.00, 551.9, 526.0)">o</text><text xml:space="preserve" font-family="Helvetica-Light" font-size="30.0" fill="#FEFFFF" transform="matrix(1.00, 0.00, -0.00, -1.00, 568.5, 526.0)">r</text><text xml:space="preserve" font-family="Helvetica-Light" font-size="30.0" fill="#FEFFFF" transform="matrix(1.00, 0.00, -0.00, -1.00, 578.0, 526.0)">e</text><text xml:space="preserve" font-family="Helvetica-Light" font-size="30.0" fill="#FEFFFF" transform="matrix(1.00, 0.00, -0.00, -1.00, 594.7, 526.0)"> </text><text xml:space="preserve" font-family="Helvetica-Light" font-size="30.0" fill="#FEFFFF" transform="matrix(1.00, 0.00, -0.00, -1.00, 603.0, 526.0)">t</text><text xml:space="preserve" font-family="Helvetica-Light" font-size="30.0" fill="#FEFFFF" transform="matrix(1.00, 0.00, -0.00, -1.00, 611.3, 526.0)">h</text><text xml:space="preserve" font-family="Helvetica-Light" font-size="30.0" fill="#FEFFFF" transform="matrix(1.00, 0.00, -0.00, -1.00, 628.0, 526.0)">a</text><text xml:space="preserve" font-family="Helvetica-Light" font-size="30.0" fill="#FEFFFF" transform="matrix(1.00, 0.00, -0.00, -1.00, 644.7, 526.0)">n</text><text xml:space="preserve" font-family="Helvetica-Light" font-size="30.0" fill="#FEFFFF" transform="matrix(1.00, 0.00, -0.00, -1.00, 661.4, 526.0)"> </text><text xml:space="preserve" font-family="Helvetica-Light" font-size="30.0" fill="#FEFFFF" transform="matrix(1.00, 0.00, -0.00, -1.00, 669.7, 526.0)">o</text><text xml:space="preserve" font-family="Helvetica-Light" font-size="30.0" fill="#FEFFFF" transform="matrix(1.00, 0.00, -0.00, -1.00, 686.4, 526.0)">n</text><text xml:space="preserve" font-family="Helvetica-Light" font-size="30.0" fill="#FEFFFF" transform="matrix(1.00, 0.00, -0.00, -1.00, 703.1, 526.0)">e</text><text xml:space="preserve" font-family="Helvetica-Light" font-size="30.0" fill="#FEFFFF" transform="matrix(1.00, 0.00, -0.00, -1.00, 719.8, 526.0)"> </text><text xml:space="preserve" font-family="Helvetica-Light" font-size="30.0" fill="#FEFFFF" transform="matrix(1.00, 0.00, -0.00, -1.00, 728.1, 526.0)">r</text><text xml:space="preserve" font-family="Helvetica-Light" font-size="30.0" fill="#FEFFFF" transform="matrix(1.00, 0.00, -0.00, -1.00, 737.6, 526.0)">e</text><text xml:space="preserve" font-family="Helvetica-Light" font-size="30.0" fill="#FEFFFF" transform="matrix(1.00, 0.00, -0.00, -1.00, 754.2, 526.0)">c</text><text xml:space="preserve" font-family="Helvetica-Light" font-size="30.0" fill="#FEFFFF" transform="matrix(1.00, 0.00, -0.00, -1.00, 770.9, 526.0)">u</text><text xml:space="preserve" font-family="Helvetica-Light" font-size="30.0" fill="#FEFFFF" transform="matrix(1.00, 0.00, -0.00, -1.00, 787.6, 526.0)">r</text><text xml:space="preserve" font-family="Helvetica-Light" font-size="30.0" fill="#FEFFFF" transform="matrix(1.00, 0.00, -0.00, -1.00, 797.6, 526.0)">s</text><text xml:space="preserve" font-family="Helvetica-Light" font-size="30.0" fill="#FEFFFF" transform="matrix(1.00, 0.00, -0.00, -1.00, 812.6, 526.0)">i</text><text xml:space="preserve" font-family="Helvetica-Light" font-size="30.0" fill="#FEFFFF" transform="matrix(1.00, 0.00, -0.00, -1.00, 819.2, 526.0)">v</text><text xml:space="preserve" font-family="Helvetica-Light" font-size="30.0" fill="#FEFFFF" transform="matrix(1.00, 0.00, -0.00, -1.00, 834.2, 526.0)">e</text><text xml:space="preserve" font-family="Helvetica-Light" font-size="30.0" fill="#FEFFFF" transform="matrix(1.00, 0.00, -0.00, -1.00, 850.9, 526.0)"> </text><text xml:space="preserve" font-family="Helvetica-Light" font-size="30.0" fill="#FEFFFF" transform="matrix(1.00, 0.00, -0.00, -1.00, 859.3, 526.0)">c</text><text xml:space="preserve" font-family="Helvetica-Light" font-size="30.0" fill="#FEFFFF" transform="matrix(1.00, 0.00, -0.00, -1.00, 875.9, 526.0)">a</text><text xml:space="preserve" font-family="Helvetica-Light" font-size="30.0" fill="#FEFFFF" transform="matrix(1.00, 0.00, -0.00, -1.00, 892.6, 526.0)">l</text><text xml:space="preserve" font-family="Helvetica-Light" font-size="30.0" fill="#FEFFFF" transform="matrix(1.00, 0.00, -0.00, -1.00, 899.3, 526.0)">l</text><text xml:space="preserve" font-family="Helvetica-Light" font-size="30.0" fill="#FEFFFF" transform="matrix(1.00, 0.00, -0.00, -1.00, 905.9, 526.0)"> </text><text xml:space="preserve" font-family="Helvetica-Light" font-size="30.0" fill="#FEFFFF" transform="matrix(1.00, 0.00, -0.00, -1.00, 914.3, 526.0)">i</text><text xml:space="preserve" font-family="Helvetica-Light" font-size="30.0" fill="#FEFFFF" transform="matrix(1.00, 0.00, -0.00, -1.00, 920.9, 526.0)">n</text><text xml:space="preserve" font-family="Helvetica-Light" font-size="30.0" fill="#FEFFFF" transform="matrix(1.00, 0.00, -0.00, -1.00, 937.6, 526.0)"> </text><text xml:space="preserve" font-family="Helvetica-Light" font-size="30.0" fill="#FEFFFF" transform="matrix(1.00, 0.00, -0.00, -1.00, 115.0, 490.0)">i</text><text xml:space="preserve" font-family="Helvetica-Light" font-size="30.0" fill="#FEFFFF" transform="matrix(1.00, 0.00, -0.00, -1.00, 121.7, 490.0)">t</text><text xml:space="preserve" font-family="Helvetica-Light" font-size="30.0" fill="#FEFFFF" transform="matrix(1.00, 0.00, -0.00, -1.00, 130.0, 490.0)">s</text><text xml:space="preserve" font-family="Helvetica-Light" font-size="30.0" fill="#FEFFFF" transform="matrix(1.00, 0.00, -0.00, -1.00, 145.0, 490.0)"> </text><text xml:space="preserve" font-family="Helvetica-Light" font-size="30.0" fill="#FEFFFF" transform="matrix(1.00, 0.00, -0.00, -1.00, 153.3, 490.0)">r</text><text xml:space="preserve" font-family="Helvetica-Light" font-size="30.0" fill="#FEFFFF" transform="matrix(1.00, 0.00, -0.00, -1.00, 162.8, 490.0)">e</text><text xml:space="preserve" font-family="Helvetica-Light" font-size="30.0" fill="#FEFFFF" transform="matrix(1.00, 0.00, -0.00, -1.00, 179.5, 490.0)">c</text><text xml:space="preserve" font-family="Helvetica-Light" font-size="30.0" fill="#FEFFFF" transform="matrix(1.00, 0.00, -0.00, -1.00, 196.2, 490.0)">u</text><text xml:space="preserve" font-family="Helvetica-Light" font-size="30.0" fill="#FEFFFF" transform="matrix(1.00, 0.00, -0.00, -1.00, 212.8, 490.0)">r</text><text xml:space="preserve" font-family="Helvetica-Light" font-size="30.0" fill="#FEFFFF" transform="matrix(1.00, 0.00, -0.00, -1.00, 222.8, 490.0)">s</text><text xml:space="preserve" font-family="Helvetica-Light" font-size="30.0" fill="#FEFFFF" transform="matrix(1.00, 0.00, -0.00, -1.00, 237.8, 490.0)">i</text><text xml:space="preserve" font-family="Helvetica-Light" font-size="30.0" fill="#FEFFFF" transform="matrix(1.00, 0.00, -0.00, -1.00, 244.5, 490.0)">v</text><text xml:space="preserve" font-family="Helvetica-Light" font-size="30.0" fill="#FEFFFF" transform="matrix(1.00, 0.00, -0.00, -1.00, 259.5, 490.0)">e</text><text xml:space="preserve" font-family="Helvetica-Light" font-size="30.0" fill="#FEFFFF" transform="matrix(1.00, 0.00, -0.00, -1.00, 276.2, 490.0)"> </text><text xml:space="preserve" font-family="Helvetica-Light" font-size="30.0" fill="#FEFFFF" transform="matrix(1.00, 0.00, -0.00, -1.00, 284.5, 490.0)">c</text><text xml:space="preserve" font-family="Helvetica-Light" font-size="30.0" fill="#FEFFFF" transform="matrix(1.00, 0.00, -0.00, -1.00, 301.2, 490.0)">a</text><text xml:space="preserve" font-family="Helvetica-Light" font-size="30.0" fill="#FEFFFF" transform="matrix(1.00, 0.00, -0.00, -1.00, 317.9, 490.0)">s</text><text xml:space="preserve" font-family="Helvetica-Light" font-size="30.0" fill="#FEFFFF" transform="matrix(1.00, 0.00, -0.00, -1.00, 332.9, 490.0)">e</text><text xml:space="preserve" font-family="Helvetica-Light" font-size="30.0" fill="#FEFFFF" transform="matrix(1.00, 0.00, -0.00, -1.00, 349.5, 490.0)">.</text><text xml:space="preserve" font-family="Helvetica-Light" font-size="30.0" fill="#FEFFFF" transform="matrix(1.00, 0.00, -0.00, -1.00, 357.9, 490.0)"> </text><text xml:space="preserve" font-family="Helvetica-Light" font-size="22.5" fill="#FEFFFF" transform="matrix(1.00, 0.00, -0.00, -1.00, 79.0, 415.2)">•</text><text xml:space="preserve" font-family="Helvetica-Light" font-size="30.0" fill="#FEFFFF" transform="matrix(1.00, 0.00, -0.00, -1.00, 115.0, 412.0)">E</text><text xml:space="preserve" font-family="Helvetica-Light" font-size="30.0" fill="#FEFFFF" transform="matrix(1.00, 0.00, -0.00, -1.00, 133.3, 412.0)">x</text><text xml:space="preserve" font-family="Helvetica-Light" font-size="30.0" fill="#FEFFFF" transform="matrix(1.00, 0.00, -0.00, -1.00, 148.3, 412.0)">a</text><text xml:space="preserve" font-family="Helvetica-Light" font-size="30.0" fill="#FEFFFF" transform="matrix(1.00, 0.00, -0.00, -1.00, 165.0, 412.0)">m</text><text xml:space="preserve" font-family="Helvetica-Light" font-size="30.0" fill="#FEFFFF" transform="matrix(1.00, 0.00, -0.00, -1.00, 190.0, 412.0)">p</text><text xml:space="preserve" font-family="Helvetica-Light" font-size="30.0" fill="#FEFFFF" transform="matrix(1.00, 0.00, -0.00, -1.00, 208.3, 412.0)">l</text><text xml:space="preserve" font-family="Helvetica-Light" font-size="30.0" fill="#FEFFFF" transform="matrix(1.00, 0.00, -0.00, -1.00, 215.0, 412.0)">e</text><text xml:space="preserve" font-family="Helvetica-Light" font-size="30.0" fill="#FEFFFF" transform="matrix(1.00, 0.00, -0.00, -1.00, 231.7, 412.0)">:</text><text xml:space="preserve" font-family="Helvetica-Light" font-size="30.0" fill="#FEFFFF" transform="matrix(1.00, 0.00, -0.00, -1.00, 240.0, 412.0)"> </text><text xml:space="preserve" font-family="Helvetica-Light" font-size="30.0" fill="#FEFFFF" transform="matrix(1.00, 0.00, -0.00, -1.00, 248.3, 412.0)">ﬁ</text><text xml:space="preserve" font-family="Helvetica-Light" font-size="30.0" fill="#FEFFFF" transform="matrix(1.00, 0.00, -0.00, -1.00, 263.4, 412.0)">b</text><text xml:space="preserve" font-family="Helvetica-Light" font-size="30.0" fill="#FEFFFF" transform="matrix(1.00, 0.00, -0.00, -1.00, 281.7, 412.0)">o</text><text xml:space="preserve" font-family="Helvetica-Light" font-size="30.0" fill="#FEFFFF" transform="matrix(1.00, 0.00, -0.00, -1.00, 298.4, 412.0)">n</text><text xml:space="preserve" font-family="Helvetica-Light" font-size="30.0" fill="#FEFFFF" transform="matrix(1.00, 0.00, -0.00, -1.00, 315.0, 412.0)">a</text><text xml:space="preserve" font-family="Helvetica-Light" font-size="30.0" fill="#FEFFFF" transform="matrix(1.00, 0.00, -0.00, -1.00, 331.7, 412.0)">c</text><text xml:space="preserve" font-family="Helvetica-Light" font-size="30.0" fill="#FEFFFF" transform="matrix(1.00, 0.00, -0.00, -1.00, 348.4, 412.0)">c</text><text xml:space="preserve" font-family="Helvetica-Light" font-size="30.0" fill="#FEFFFF" transform="matrix(1.00, 0.00, -0.00, -1.00, 365.1, 412.0)">i</text><text xml:space="preserve" font-family="Helvetica-Light" font-size="30.0" fill="#FEFFFF" transform="matrix(1.00, 0.00, -0.00, -1.00, 371.7, 412.0)"> </text><text xml:space="preserve" font-family="Helvetica-Light" font-size="30.0" fill="#FEFFFF" transform="matrix(1.00, 0.00, -0.00, -1.00, 380.1, 412.0)">s</text><text xml:space="preserve" font-family="Helvetica-Light" font-size="30.0" fill="#FEFFFF" transform="matrix(1.00, 0.00, -0.00, -1.00, 395.1, 412.0)">e</text><text xml:space="preserve" font-family="Helvetica-Light" font-size="30.0" fill="#FEFFFF" transform="matrix(1.00, 0.00, -0.00, -1.00, 411.8, 412.0)">q</text><text xml:space="preserve" font-family="Helvetica-Light" font-size="30.0" fill="#FEFFFF" transform="matrix(1.00, 0.00, -0.00, -1.00, 430.1, 412.0)">u</text><text xml:space="preserve" font-family="Helvetica-Light" font-size="30.0" fill="#FEFFFF" transform="matrix(1.00, 0.00, -0.00, -1.00, 446.8, 412.0)">e</text><text xml:space="preserve" font-family="Helvetica-Light" font-size="30.0" fill="#FEFFFF" transform="matrix(1.00, 0.00, -0.00, -1.00, 463.4, 412.0)">n</text><text xml:space="preserve" font-family="Helvetica-Light" font-size="30.0" fill="#FEFFFF" transform="matrix(1.00, 0.00, -0.00, -1.00, 480.1, 412.0)">c</text><text xml:space="preserve" font-family="Helvetica-Light" font-size="30.0" fill="#FEFFFF" transform="matrix(1.00, 0.00, -0.00, -1.00, 496.8, 412.0)">e</text><text xml:space="preserve" font-family="Helvetica-Light" font-size="18.0" fill="#FEFFFF" transform="matrix(1.00, 0.00, -0.00, -1.00, 501.0, 18.0)">1</text><text xml:space="preserve" font-family="Helvetica-Light" font-size="18.0" fill="#FEFFFF" transform="matrix(1.00, 0.00, -0.00, -1.00, 511.0, 18.0)">8</text><text xml:space="preserve" font-family="CourierNewPSMT" font-size="25.0" fill="#F3E99D" transform="matrix(1.00, 0.00, -0.00, -1.00, 116.0, 351.0)">d</text><text xml:space="preserve" font-family="CourierNewPSMT" font-size="25.0" fill="#F3E99D" transform="matrix(1.00, 0.00, -0.00, -1.00, 131.0, 351.0)">e</text><text xml:space="preserve" font-family="CourierNewPSMT" font-size="25.0" fill="#F3E99D" transform="matrix(1.00, 0.00, -0.00, -1.00, 146.0, 351.0)">f</text><text xml:space="preserve" font-family="CourierNewPSMT" font-size="25.0" fill="#000000" transform="matrix(1.00, 0.00, -0.00, -1.00, 161.0, 351.0)"> </text><text xml:space="preserve" font-family="CourierNewPSMT" font-size="25.0" fill="#F66A64" transform="matrix(1.00, 0.00, -0.00, -1.00, 176.0, 351.0)">f</text><text xml:space="preserve" font-family="CourierNewPSMT" font-size="25.0" fill="#F66A64" transform="matrix(1.00, 0.00, -0.00, -1.00, 191.0, 351.0)">i</text><text xml:space="preserve" font-family="CourierNewPSMT" font-size="25.0" fill="#F66A64" transform="matrix(1.00, 0.00, -0.00, -1.00, 206.0, 351.0)">b</text><text xml:space="preserve" font-family="CourierNewPSMT" font-size="25.0" fill="#E4E4E4" transform="matrix(1.00, 0.00, -0.00, -1.00, 221.0, 351.0)">(</text><text xml:space="preserve" font-family="CourierNewPSMT" font-size="25.0" fill="#E4E4E4" transform="matrix(1.00, 0.00, -0.00, -1.00, 236.0, 351.0)">n</text><text xml:space="preserve" font-family="CourierNewPSMT" font-size="25.0" fill="#E4E4E4" transform="matrix(1.00, 0.00, -0.00, -1.00, 251.0, 351.0)">)</text><text xml:space="preserve" font-family="CourierNewPSMT" font-size="25.0" fill="#E4E4E4" transform="matrix(1.00, 0.00, -0.00, -1.00, 266.0, 351.0)">:</text><text xml:space="preserve" font-family="CourierNewPSMT" font-size="25.0" fill="#000000" transform="matrix(1.00, 0.00, -0.00, -1.00, 281.0, 351.0)"> </text><text xml:space="preserve" font-family="CourierNewPSMT" font-size="25.0" fill="#000000" transform="matrix(1.00, 0.00, -0.00, -1.00, 116.0, 322.0)"> </text><text xml:space="preserve" font-family="CourierNewPSMT" font-size="25.0" fill="#000000" transform="matrix(1.00, 0.00, -0.00, -1.00, 131.0, 322.0)"> </text><text xml:space="preserve" font-family="CourierNewPSMT" font-size="25.0" fill="#000000" transform="matrix(1.00, 0.00, -0.00, -1.00, 146.0, 322.0)"> </text><text xml:space="preserve" font-family="CourierNewPSMT" font-size="25.0" fill="#000000" transform="matrix(1.00, 0.00, -0.00, -1.00, 161.0, 322.0)"> </text><text xml:space="preserve" font-family="CourierNewPSMT" font-size="25.0" fill="#F3E99D" transform="matrix(1.00, 0.00, -0.00, -1.00, 176.0, 322.0)">i</text><text xml:space="preserve" font-family="CourierNewPSMT" font-size="25.0" fill="#F3E99D" transform="matrix(1.00, 0.00, -0.00, -1.00, 191.0, 322.0)">f</text><text xml:space="preserve" font-family="CourierNewPSMT" font-size="25.0" fill="#000000" transform="matrix(1.00, 0.00, -0.00, -1.00, 206.0, 322.0)"> </text><text xml:space="preserve" font-family="CourierNewPSMT" font-size="25.0" fill="#E4E4E4" transform="matrix(1.00, 0.00, -0.00, -1.00, 221.0, 322.0)">n</text><text xml:space="preserve" font-family="CourierNewPSMT" font-size="25.0" fill="#000000" transform="matrix(1.00, 0.00, -0.00, -1.00, 236.0, 322.0)"> </text><text xml:space="preserve" font-family="CourierNewPSMT" font-size="25.0" fill="#E4E4E4" transform="matrix(1.00, 0.00, -0.00, -1.00, 251.0, 322.0)">=</text><text xml:space="preserve" font-family="CourierNewPSMT" font-size="25.0" fill="#E4E4E4" transform="matrix(1.00, 0.00, -0.00, -1.00, 266.0, 322.0)">=</text><text xml:space="preserve" font-family="CourierNewPSMT" font-size="25.0" fill="#000000" transform="matrix(1.00, 0.00, -0.00, -1.00, 281.0, 322.0)"> </text><text xml:space="preserve" font-family="CourierNewPSMT" font-size="25.0" fill="#FFB1AF" transform="matrix(1.00, 0.00, -0.00, -1.00, 296.0, 322.0)">0</text><text xml:space="preserve" font-family="CourierNewPSMT" font-size="25.0" fill="#E4E4E4" transform="matrix(1.00, 0.00, -0.00, -1.00, 311.0, 322.0)">:</text><text xml:space="preserve" font-family="CourierNewPSMT" font-size="25.0" fill="#000000" transform="matrix(1.00, 0.00, -0.00, -1.00, 326.0, 322.0)"> </text><text xml:space="preserve" font-family="CourierNewPSMT" font-size="25.0" fill="#000000" transform="matrix(1.00, 0.00, -0.00, -1.00, 116.0, 293.0)"> </text><text xml:space="preserve" font-family="CourierNewPSMT" font-size="25.0" fill="#000000" transform="matrix(1.00, 0.00, -0.00, -1.00, 131.0, 293.0)"> </text><text xml:space="preserve" font-family="CourierNewPSMT" font-size="25.0" fill="#000000" transform="matrix(1.00, 0.00, -0.00, -1.00, 146.0, 293.0)"> </text><text xml:space="preserve" font-family="CourierNewPSMT" font-size="25.0" fill="#000000" transform="matrix(1.00, 0.00, -0.00, -1.00, 161.0, 293.0)"> </text><text xml:space="preserve" font-family="CourierNewPSMT" font-size="25.0" fill="#000000" transform="matrix(1.00, 0.00, -0.00, -1.00, 176.0, 293.0)"> </text><text xml:space="preserve" font-family="CourierNewPSMT" font-size="25.0" fill="#000000" transform="matrix(1.00, 0.00, -0.00, -1.00, 191.0, 293.0)"> </text><text xml:space="preserve" font-family="CourierNewPSMT" font-size="25.0" fill="#000000" transform="matrix(1.00, 0.00, -0.00, -1.00, 206.0, 293.0)"> </text><text xml:space="preserve" font-family="CourierNewPSMT" font-size="25.0" fill="#000000" transform="matrix(1.00, 0.00, -0.00, -1.00, 221.0, 293.0)"> </text><text xml:space="preserve" font-family="CourierNewPSMT" font-size="25.0" fill="#F3E99D" transform="matrix(1.00, 0.00, -0.00, -1.00, 236.0, 293.0)">r</text><text xml:space="preserve" font-family="CourierNewPSMT" font-size="25.0" fill="#F3E99D" transform="matrix(1.00, 0.00, -0.00, -1.00, 251.0, 293.0)">e</text><text xml:space="preserve" font-family="CourierNewPSMT" font-size="25.0" fill="#F3E99D" transform="matrix(1.00, 0.00, -0.00, -1.00, 266.0, 293.0)">t</text><text xml:space="preserve" font-family="CourierNewPSMT" font-size="25.0" fill="#F3E99D" transform="matrix(1.00, 0.00, -0.00, -1.00, 281.0, 293.0)">u</text><text xml:space="preserve" font-family="CourierNewPSMT" font-size="25.0" fill="#F3E99D" transform="matrix(1.00, 0.00, -0.00, -1.00, 296.0, 293.0)">r</text><text xml:space="preserve" font-family="CourierNewPSMT" font-size="25.0" fill="#F3E99D" transform="matrix(1.00, 0.00, -0.00, -1.00, 311.0, 293.0)">n</text><text xml:space="preserve" font-family="CourierNewPSMT" font-size="25.0" fill="#000000" transform="matrix(1.00, 0.00, -0.00, -1.00, 326.0, 293.0)"> </text><text xml:space="preserve" font-family="CourierNewPSMT" font-size="25.0" fill="#FFB1AF" transform="matrix(1.00, 0.00, -0.00, -1.00, 341.0, 293.0)">0</text><text xml:space="preserve" font-family="CourierNewPSMT" font-size="25.0" fill="#000000" transform="matrix(1.00, 0.00, -0.00, -1.00, 356.0, 293.0)"> </text><text xml:space="preserve" font-family="CourierNewPSMT" font-size="25.0" fill="#000000" transform="matrix(1.00, 0.00, -0.00, -1.00, 116.0, 264.0)"> </text><text xml:space="preserve" font-family="CourierNewPSMT" font-size="25.0" fill="#000000" transform="matrix(1.00, 0.00, -0.00, -1.00, 131.0, 264.0)"> </text><text xml:space="preserve" font-family="CourierNewPSMT" font-size="25.0" fill="#000000" transform="matrix(1.00, 0.00, -0.00, -1.00, 146.0, 264.0)"> </text><text xml:space="preserve" font-family="CourierNewPSMT" font-size="25.0" fill="#000000" transform="matrix(1.00, 0.00, -0.00, -1.00, 161.0, 264.0)"> </text><text xml:space="preserve" font-family="CourierNewPSMT" font-size="25.0" fill="#F3E99D" transform="matrix(1.00, 0.00, -0.00, -1.00, 176.0, 264.0)">e</text><text xml:space="preserve" font-family="CourierNewPSMT" font-size="25.0" fill="#F3E99D" transform="matrix(1.00, 0.00, -0.00, -1.00, 191.0, 264.0)">l</text><text xml:space="preserve" font-family="CourierNewPSMT" font-size="25.0" fill="#F3E99D" transform="matrix(1.00, 0.00, -0.00, -1.00, 206.0, 264.0)">i</text><text xml:space="preserve" font-family="CourierNewPSMT" font-size="25.0" fill="#F3E99D" transform="matrix(1.00, 0.00, -0.00, -1.00, 221.0, 264.0)">f</text><text xml:space="preserve" font-family="CourierNewPSMT" font-size="25.0" fill="#000000" transform="matrix(1.00, 0.00, -0.00, -1.00, 236.0, 264.0)"> </text><text xml:space="preserve" font-family="CourierNewPSMT" font-size="25.0" fill="#E4E4E4" transform="matrix(1.00, 0.00, -0.00, -1.00, 251.0, 264.0)">n</text><text xml:space="preserve" font-family="CourierNewPSMT" font-size="25.0" fill="#000000" transform="matrix(1.00, 0.00, -0.00, -1.00, 266.0, 264.0)"> </text><text xml:space="preserve" font-family="CourierNewPSMT" font-size="25.0" fill="#E4E4E4" transform="matrix(1.00, 0.00, -0.00, -1.00, 281.0, 264.0)">=</text><text xml:space="preserve" font-family="CourierNewPSMT" font-size="25.0" fill="#E4E4E4" transform="matrix(1.00, 0.00, -0.00, -1.00, 296.0, 264.0)">=</text><text xml:space="preserve" font-family="CourierNewPSMT" font-size="25.0" fill="#000000" transform="matrix(1.00, 0.00, -0.00, -1.00, 311.0, 264.0)"> </text><text xml:space="preserve" font-family="CourierNewPSMT" font-size="25.0" fill="#FFB1AF" transform="matrix(1.00, 0.00, -0.00, -1.00, 326.0, 264.0)">1</text><text xml:space="preserve" font-family="CourierNewPSMT" font-size="25.0" fill="#E4E4E4" transform="matrix(1.00, 0.00, -0.00, -1.00, 341.0, 264.0)">:</text><text xml:space="preserve" font-family="CourierNewPSMT" font-size="25.0" fill="#000000" transform="matrix(1.00, 0.00, -0.00, -1.00, 356.0, 264.0)"> </text><text xml:space="preserve" font-family="CourierNewPSMT" font-size="25.0" fill="#000000" transform="matrix(1.00, 0.00, -0.00, -1.00, 116.0, 235.0)"> </text><text xml:space="preserve" font-family="CourierNewPSMT" font-size="25.0" fill="#000000" transform="matrix(1.00, 0.00, -0.00, -1.00, 131.0, 235.0)"> </text><text xml:space="preserve" font-family="CourierNewPSMT" font-size="25.0" fill="#000000" transform="matrix(1.00, 0.00, -0.00, -1.00, 146.0, 235.0)"> </text><text xml:space="preserve" font-family="CourierNewPSMT" font-size="25.0" fill="#000000" transform="matrix(1.00, 0.00, -0.00, -1.00, 161.0, 235.0)"> </text><text xml:space="preserve" font-family="CourierNewPSMT" font-size="25.0" fill="#000000" transform="matrix(1.00, 0.00, -0.00, -1.00, 176.0, 235.0)"> </text><text xml:space="preserve" font-family="CourierNewPSMT" font-size="25.0" fill="#000000" transform="matrix(1.00, 0.00, -0.00, -1.00, 191.0, 235.0)"> </text><text xml:space="preserve" font-family="CourierNewPSMT" font-size="25.0" fill="#000000" transform="matrix(1.00, 0.00, -0.00, -1.00, 206.0, 235.0)"> </text><text xml:space="preserve" font-family="CourierNewPSMT" font-size="25.0" fill="#000000" transform="matrix(1.00, 0.00, -0.00, -1.00, 221.0, 235.0)"> </text><text xml:space="preserve" font-family="CourierNewPSMT" font-size="25.0" fill="#F3E99D" transform="matrix(1.00, 0.00, -0.00, -1.00, 236.0, 235.0)">r</text><text xml:space="preserve" font-family="CourierNewPSMT" font-size="25.0" fill="#F3E99D" transform="matrix(1.00, 0.00, -0.00, -1.00, 251.0, 235.0)">e</text><text xml:space="preserve" font-family="CourierNewPSMT" font-size="25.0" fill="#F3E99D" transform="matrix(1.00, 0.00, -0.00, -1.00, 266.0, 235.0)">t</text><text xml:space="preserve" font-family="CourierNewPSMT" font-size="25.0" fill="#F3E99D" transform="matrix(1.00, 0.00, -0.00, -1.00, 281.0, 235.0)">u</text><text xml:space="preserve" font-family="CourierNewPSMT" font-size="25.0" fill="#F3E99D" transform="matrix(1.00, 0.00, -0.00, -1.00, 296.0, 235.0)">r</text><text xml:space="preserve" font-family="CourierNewPSMT" font-size="25.0" fill="#F3E99D" transform="matrix(1.00, 0.00, -0.00, -1.00, 311.0, 235.0)">n</text><text xml:space="preserve" font-family="CourierNewPSMT" font-size="25.0" fill="#000000" transform="matrix(1.00, 0.00, -0.00, -1.00, 326.0, 235.0)"> </text><text xml:space="preserve" font-family="CourierNewPSMT" font-size="25.0" fill="#FFB1AF" transform="matrix(1.00, 0.00, -0.00, -1.00, 341.0, 235.0)">1</text><text xml:space="preserve" font-family="CourierNewPSMT" font-size="25.0" fill="#000000" transform="matrix(1.00, 0.00, -0.00, -1.00, 356.0, 235.0)"> </text><text xml:space="preserve" font-family="CourierNewPSMT" font-size="25.0" fill="#000000" transform="matrix(1.00, 0.00, -0.00, -1.00, 116.0, 206.0)"> </text><text xml:space="preserve" font-family="CourierNewPSMT" font-size="25.0" fill="#000000" transform="matrix(1.00, 0.00, -0.00, -1.00, 131.0, 206.0)"> </text><text xml:space="preserve" font-family="CourierNewPSMT" font-size="25.0" fill="#000000" transform="matrix(1.00, 0.00, -0.00, -1.00, 146.0, 206.0)"> </text><text xml:space="preserve" font-family="CourierNewPSMT" font-size="25.0" fill="#000000" transform="matrix(1.00, 0.00, -0.00, -1.00, 161.0, 206.0)"> </text><text xml:space="preserve" font-family="CourierNewPSMT" font-size="25.0" fill="#F3E99D" transform="matrix(1.00, 0.00, -0.00, -1.00, 176.0, 206.0)">e</text><text xml:space="preserve" font-family="CourierNewPSMT" font-size="25.0" fill="#F3E99D" transform="matrix(1.00, 0.00, -0.00, -1.00, 191.0, 206.0)">l</text><text xml:space="preserve" font-family="CourierNewPSMT" font-size="25.0" fill="#F3E99D" transform="matrix(1.00, 0.00, -0.00, -1.00, 206.0, 206.0)">s</text><text xml:space="preserve" font-family="CourierNewPSMT" font-size="25.0" fill="#F3E99D" transform="matrix(1.00, 0.00, -0.00, -1.00, 221.0, 206.0)">e</text><text xml:space="preserve" font-family="CourierNewPSMT" font-size="25.0" fill="#E4E4E4" transform="matrix(1.00, 0.00, -0.00, -1.00, 236.0, 206.0)">:</text><text xml:space="preserve" font-family="CourierNewPSMT" font-size="25.0" fill="#000000" transform="matrix(1.00, 0.00, -0.00, -1.00, 251.0, 206.0)"> </text><text xml:space="preserve" font-family="CourierNewPSMT" font-size="25.0" fill="#000000" transform="matrix(1.00, 0.00, -0.00, -1.00, 116.0, 177.0)"> </text><text xml:space="preserve" font-family="CourierNewPSMT" font-size="25.0" fill="#000000" transform="matrix(1.00, 0.00, -0.00, -1.00, 131.0, 177.0)"> </text><text xml:space="preserve" font-family="CourierNewPSMT" font-size="25.0" fill="#000000" transform="matrix(1.00, 0.00, -0.00, -1.00, 146.0, 177.0)"> </text><text xml:space="preserve" font-family="CourierNewPSMT" font-size="25.0" fill="#000000" transform="matrix(1.00, 0.00, -0.00, -1.00, 161.0, 177.0)"> </text><text xml:space="preserve" font-family="CourierNewPSMT" font-size="25.0" fill="#000000" transform="matrix(1.00, 0.00, -0.00, -1.00, 176.0, 177.0)"> </text><text xml:space="preserve" font-family="CourierNewPSMT" font-size="25.0" fill="#000000" transform="matrix(1.00, 0.00, -0.00, -1.00, 191.0, 177.0)"> </text><text xml:space="preserve" font-family="CourierNewPSMT" font-size="25.0" fill="#000000" transform="matrix(1.00, 0.00, -0.00, -1.00, 206.0, 177.0)"> </text><text xml:space="preserve" font-family="CourierNewPSMT" font-size="25.0" fill="#000000" transform="matrix(1.00, 0.00, -0.00, -1.00, 221.0, 177.0)"> </text><text xml:space="preserve" font-family="CourierNewPSMT" font-size="25.0" fill="#F3E99D" transform="matrix(1.00, 0.00, -0.00, -1.00, 236.0, 177.0)">r</text><text xml:space="preserve" font-family="CourierNewPSMT" font-size="25.0" fill="#F3E99D" transform="matrix(1.00, 0.00, -0.00, -1.00, 251.0, 177.0)">e</text><text xml:space="preserve" font-family="CourierNewPSMT" font-size="25.0" fill="#F3E99D" transform="matrix(1.00, 0.00, -0.00, -1.00, 266.0, 177.0)">t</text><text xml:space="preserve" font-family="CourierNewPSMT" font-size="25.0" fill="#F3E99D" transform="matrix(1.00, 0.00, -0.00, -1.00, 281.0, 177.0)">u</text><text xml:space="preserve" font-family="CourierNewPSMT" font-size="25.0" fill="#F3E99D" transform="matrix(1.00, 0.00, -0.00, -1.00, 296.0, 177.0)">r</text><text xml:space="preserve" font-family="CourierNewPSMT" font-size="25.0" fill="#F3E99D" transform="matrix(1.00, 0.00, -0.00, -1.00, 311.0, 177.0)">n</text><text xml:space="preserve" font-family="CourierNewPSMT" font-size="25.0" fill="#000000" transform="matrix(1.00, 0.00, -0.00, -1.00, 326.0, 177.0)"> </text><text xml:space="preserve" font-family="CourierNewPSMT" font-size="25.0" fill="#F66A64" transform="matrix(1.00, 0.00, -0.00, -1.00, 341.0, 177.0)">f</text><text xml:space="preserve" font-family="CourierNewPSMT" font-size="25.0" fill="#F66A64" transform="matrix(1.00, 0.00, -0.00, -1.00, 356.0, 177.0)">i</text><text xml:space="preserve" font-family="CourierNewPSMT" font-size="25.0" fill="#F66A64" transform="matrix(1.00, 0.00, -0.00, -1.00, 371.0, 177.0)">b</text><text xml:space="preserve" font-family="CourierNewPSMT" font-size="25.0" fill="#E4E4E4" transform="matrix(1.00, 0.00, -0.00, -1.00, 386.0, 177.0)">(</text><text xml:space="preserve" font-family="CourierNewPSMT" font-size="25.0" fill="#E4E4E4" transform="matrix(1.00, 0.00, -0.00, -1.00, 401.0, 177.0)">n</text><text xml:space="preserve" font-family="CourierNewPSMT" font-size="25.0" fill="#000000" transform="matrix(1.00, 0.00, -0.00, -1.00, 416.0, 177.0)"> </text><text xml:space="preserve" font-family="CourierNewPSMT" font-size="25.0" fill="#E4E4E4" transform="matrix(1.00, 0.00, -0.00, -1.00, 431.1, 177.0)">-</text><text xml:space="preserve" font-family="CourierNewPSMT" font-size="25.0" fill="#000000" transform="matrix(1.00, 0.00, -0.00, -1.00, 446.1, 177.0)"> </text><text xml:space="preserve" font-family="CourierNewPSMT" font-size="25.0" fill="#FFB1AF" transform="matrix(1.00, 0.00, -0.00, -1.00, 461.1, 177.0)">1</text><text xml:space="preserve" font-family="CourierNewPSMT" font-size="25.0" fill="#E4E4E4" transform="matrix(1.00, 0.00, -0.00, -1.00, 476.1, 177.0)">)</text><text xml:space="preserve" font-family="CourierNewPSMT" font-size="25.0" fill="#E4E4E4" transform="matrix(1.00, 0.00, -0.00, -1.00, 491.1, 177.0)"> </text><text xml:space="preserve" font-family="CourierNewPSMT" font-size="25.0" fill="#E4E4E4" transform="matrix(1.00, 0.00, -0.00, -1.00, 506.1, 177.0)">+</text><text xml:space="preserve" font-family="CourierNewPSMT" font-size="25.0" fill="#000000" transform="matrix(1.00, 0.00, -0.00, -1.00, 521.1, 177.0)"> </text><text xml:space="preserve" font-family="CourierNewPSMT" font-size="25.0" fill="#F66A64" transform="matrix(1.00, 0.00, -0.00, -1.00, 536.1, 177.0)">f</text><text xml:space="preserve" font-family="CourierNewPSMT" font-size="25.0" fill="#F66A64" transform="matrix(1.00, 0.00, -0.00, -1.00, 551.1, 177.0)">i</text><text xml:space="preserve" font-family="CourierNewPSMT" font-size="25.0" fill="#F66A64" transform="matrix(1.00, 0.00, -0.00, -1.00, 566.1, 177.0)">b</text><text xml:space="preserve" font-family="CourierNewPSMT" font-size="25.0" fill="#E4E4E4" transform="matrix(1.00, 0.00, -0.00, -1.00, 581.1, 177.0)">(</text><text xml:space="preserve" font-family="CourierNewPSMT" font-size="25.0" fill="#E4E4E4" transform="matrix(1.00, 0.00, -0.00, -1.00, 596.1, 177.0)">n</text><text xml:space="preserve" font-family="CourierNewPSMT" font-size="25.0" fill="#000000" transform="matrix(1.00, 0.00, -0.00, -1.00, 611.1, 177.0)"> </text><text xml:space="preserve" font-family="CourierNewPSMT" font-size="25.0" fill="#E4E4E4" transform="matrix(1.00, 0.00, -0.00, -1.00, 626.1, 177.0)">-</text><text xml:space="preserve" font-family="CourierNewPSMT" font-size="25.0" fill="#000000" transform="matrix(1.00, 0.00, -0.00, -1.00, 641.1, 177.0)"> </text><text xml:space="preserve" font-family="CourierNewPSMT" font-size="25.0" fill="#FFB1AF" transform="matrix(1.00, 0.00, -0.00, -1.00, 656.1, 177.0)">2</text><text xml:space="preserve" font-family="CourierNewPSMT" font-size="25.0" fill="#E4E4E4" transform="matrix(1.00, 0.00, -0.00, -1.00, 671.1, 177.0)">)</text><text xml:space="preserve" font-family="CourierNewPSMT" font-size="25.0" fill="#000000" transform="matrix(1.00, 0.00, -0.00, -1.00, 686.1, 177.0)"> </text></g></svg>