<?xml version="1.0" encoding="UTF-8" standalone="no"?><svg xmlns="http://www.w3.org/2000/svg" xmlns:xlink="http://www.w3.org/1999/xlink" clip-rule="evenodd" stroke-miterlimit="4.00" viewBox="0 0 1024 768"><desc>SVG generated by Keynote</desc><defs></defs><g transform="matrix(1.00, 0.00, -0.00, -1.00, 0.0, 768.0)"><g><clipPath id="clip-27"><path d="M 0.0 768.0 L 1024.0 768.0 L 1024.0 0.0 L 0.0 0.0 Z M 0.0 768.0 "></path></clipPath><g clip-path="url(#clip-27)"><image xlink:href="../../06DBE9C8-52A0-453A-A7BF-EBF58CF01F35/assets/E7ABA782A15EA3475B4CFCC80A2FEB63.jpeg" width="1024.00" height="768.00" transform="matrix(1.00, 0.00, -0.00, -1.00, 0.0, 768.0)"></image></g></g><text xml:space="preserve" font-family="Helvetica-Light" font-size="80.0" fill="#FEFFFF" transform="matrix(1.00, 0.00, -0.00, -1.00, 332.0, 622.0)">R</text><text xml:space="preserve" font-family="Helvetica-Light" font-size="80.0" fill="#FEFFFF" transform="matrix(1.00, 0.00, -0.00, -1.00, 385.4, 622.0)">e</text><text xml:space="preserve" font-family="Helvetica-Light" font-size="80.0" fill="#FEFFFF" transform="matrix(1.00, 0.00, -0.00, -1.00, 429.8, 622.0)">c</text><text xml:space="preserve" font-family="Helvetica-Light" font-size="80.0" fill="#FEFFFF" transform="matrix(1.00, 0.00, -0.00, -1.00, 474.3, 622.0)">u</text><text xml:space="preserve" font-family="Helvetica-Light" font-size="80.0" fill="#FEFFFF" transform="matrix(1.00, 0.00, -0.00, -1.00, 518.8, 622.0)">r</text><text xml:space="preserve" font-family="Helvetica-Light" font-size="80.0" fill="#FEFFFF" transform="matrix(1.00, 0.00, -0.00, -1.00, 545.4, 622.0)">s</text><text xml:space="preserve" font-family="Helvetica-Light" font-size="80.0" fill="#FEFFFF" transform="matrix(1.00, 0.00, -0.00, -1.00, 585.4, 622.0)">i</text><text xml:space="preserve" font-family="Helvetica-Light" font-size="80.0" fill="#FEFFFF" transform="matrix(1.00, 0.00, -0.00, -1.00, 603.2, 622.0)">o</text><text xml:space="preserve" font-family="Helvetica-Light" font-size="80.0" fill="#FEFFFF" transform="matrix(1.00, 0.00, -0.00, -1.00, 647.7, 622.0)">n</text><text xml:space="preserve" font-family="Helvetica-Light" font-size="22.5" fill="#FEFFFF" transform="matrix(1.00, 0.00, -0.00, -1.00, 77.0, 498.2)">•</text><text xml:space="preserve" font-family="Helvetica-Light" font-size="30.0" fill="#FEFFFF" transform="matrix(1.00, 0.00, -0.00, -1.00, 113.0, 495.0)">B</text><text xml:space="preserve" font-family="Helvetica-Light" font-size="30.0" fill="#FEFFFF" transform="matrix(1.00, 0.00, -0.00, -1.00, 133.0, 495.0)">a</text><text xml:space="preserve" font-family="Helvetica-Light" font-size="30.0" fill="#FEFFFF" transform="matrix(1.00, 0.00, -0.00, -1.00, 149.7, 495.0)">s</text><text xml:space="preserve" font-family="Helvetica-Light" font-size="30.0" fill="#FEFFFF" transform="matrix(1.00, 0.00, -0.00, -1.00, 164.7, 495.0)">e</text><text xml:space="preserve" font-family="Helvetica-Light" font-size="30.0" fill="#FEFFFF" transform="matrix(1.00, 0.00, -0.00, -1.00, 181.4, 495.0)"> </text><text xml:space="preserve" font-family="Helvetica-Light" font-size="30.0" fill="#FEFFFF" transform="matrix(1.00, 0.00, -0.00, -1.00, 189.7, 495.0)">c</text><text xml:space="preserve" font-family="Helvetica-Light" font-size="30.0" fill="#FEFFFF" transform="matrix(1.00, 0.00, -0.00, -1.00, 206.4, 495.0)">a</text><text xml:space="preserve" font-family="Helvetica-Light" font-size="30.0" fill="#FEFFFF" transform="matrix(1.00, 0.00, -0.00, -1.00, 223.1, 495.0)">s</text><text xml:space="preserve" font-family="Helvetica-Light" font-size="30.0" fill="#FEFFFF" transform="matrix(1.00, 0.00, -0.00, -1.00, 238.1, 495.0)">e</text><text xml:space="preserve" font-family="Helvetica-Light" font-size="30.0" fill="#FEFFFF" transform="matrix(1.00, 0.00, -0.00, -1.00, 254.8, 495.0)">s</text><text xml:space="preserve" font-family="Helvetica-Light" font-size="30.0" fill="#FEFFFF" transform="matrix(1.00, 0.00, -0.00, -1.00, 269.8, 495.0)"> </text><text xml:space="preserve" font-family="Helvetica-Light" font-size="30.0" fill="#FEFFFF" transform="matrix(1.00, 0.00, -0.00, -1.00, 278.1, 495.0)">a</text><text xml:space="preserve" font-family="Helvetica-Light" font-size="30.0" fill="#FEFFFF" transform="matrix(1.00, 0.00, -0.00, -1.00, 294.8, 495.0)">r</text><text xml:space="preserve" font-family="Helvetica-Light" font-size="30.0" fill="#FEFFFF" transform="matrix(1.00, 0.00, -0.00, -1.00, 304.2, 495.0)">e</text><text xml:space="preserve" font-family="Helvetica-Light" font-size="30.0" fill="#FEFFFF" transform="matrix(1.00, 0.00, -0.00, -1.00, 320.9, 495.0)"> </text><text xml:space="preserve" font-family="Helvetica-Light" font-size="30.0" fill="#FEFFFF" transform="matrix(1.00, 0.00, -0.00, -1.00, 329.2, 495.0)">t</text><text xml:space="preserve" font-family="Helvetica-Light" font-size="30.0" fill="#FEFFFF" transform="matrix(1.00, 0.00, -0.00, -1.00, 337.6, 495.0)">h</text><text xml:space="preserve" font-family="Helvetica-Light" font-size="30.0" fill="#FEFFFF" transform="matrix(1.00, 0.00, -0.00, -1.00, 354.3, 495.0)">e</text><text xml:space="preserve" font-family="Helvetica-Light" font-size="30.0" fill="#FEFFFF" transform="matrix(1.00, 0.00, -0.00, -1.00, 370.9, 495.0)">r</text><text xml:space="preserve" font-family="Helvetica-Light" font-size="30.0" fill="#FEFFFF" transform="matrix(1.00, 0.00, -0.00, -1.00, 380.4, 495.0)">e</text><text xml:space="preserve" font-family="Helvetica-Light" font-size="30.0" fill="#FEFFFF" transform="matrix(1.00, 0.00, -0.00, -1.00, 397.1, 495.0)"> </text><text xml:space="preserve" font-family="Helvetica-Light" font-size="30.0" fill="#FEFFFF" transform="matrix(1.00, 0.00, -0.00, -1.00, 405.4, 495.0)">t</text><text xml:space="preserve" font-family="Helvetica-Light" font-size="30.0" fill="#FEFFFF" transform="matrix(1.00, 0.00, -0.00, -1.00, 413.8, 495.0)">o</text><text xml:space="preserve" font-family="Helvetica-Light" font-size="30.0" fill="#FEFFFF" transform="matrix(1.00, 0.00, -0.00, -1.00, 430.4, 495.0)"> </text><text xml:space="preserve" font-family="Helvetica-Light" font-size="30.0" fill="#FEFFFF" transform="matrix(1.00, 0.00, -0.00, -1.00, 438.8, 495.0)">s</text><text xml:space="preserve" font-family="Helvetica-Light" font-size="30.0" fill="#FEFFFF" transform="matrix(1.00, 0.00, -0.00, -1.00, 453.8, 495.0)">t</text><text xml:space="preserve" font-family="Helvetica-Light" font-size="30.0" fill="#FEFFFF" transform="matrix(1.00, 0.00, -0.00, -1.00, 462.1, 495.0)">o</text><text xml:space="preserve" font-family="Helvetica-Light" font-size="30.0" fill="#FEFFFF" transform="matrix(1.00, 0.00, -0.00, -1.00, 478.8, 495.0)">p</text><text xml:space="preserve" font-family="Helvetica-Light" font-size="30.0" fill="#FEFFFF" transform="matrix(1.00, 0.00, -0.00, -1.00, 497.1, 495.0)"> </text><text xml:space="preserve" font-family="Helvetica-Light" font-size="30.0" fill="#FEFFFF" transform="matrix(1.00, 0.00, -0.00, -1.00, 505.5, 495.0)">t</text><text xml:space="preserve" font-family="Helvetica-Light" font-size="30.0" fill="#FEFFFF" transform="matrix(1.00, 0.00, -0.00, -1.00, 513.8, 495.0)">h</text><text xml:space="preserve" font-family="Helvetica-Light" font-size="30.0" fill="#FEFFFF" transform="matrix(1.00, 0.00, -0.00, -1.00, 530.5, 495.0)">e</text><text xml:space="preserve" font-family="Helvetica-Light" font-size="30.0" fill="#FEFFFF" transform="matrix(1.00, 0.00, -0.00, -1.00, 547.2, 495.0)"> </text><text xml:space="preserve" font-family="Helvetica-Light" font-size="30.0" fill="#FEFFFF" transform="matrix(1.00, 0.00, -0.00, -1.00, 555.5, 495.0)">r</text><text xml:space="preserve" font-family="Helvetica-Light" font-size="30.0" fill="#FEFFFF" transform="matrix(1.00, 0.00, -0.00, -1.00, 564.9, 495.0)">e</text><text xml:space="preserve" font-family="Helvetica-Light" font-size="30.0" fill="#FEFFFF" transform="matrix(1.00, 0.00, -0.00, -1.00, 581.6, 495.0)">c</text><text xml:space="preserve" font-family="Helvetica-Light" font-size="30.0" fill="#FEFFFF" transform="matrix(1.00, 0.00, -0.00, -1.00, 598.3, 495.0)">u</text><text xml:space="preserve" font-family="Helvetica-Light" font-size="30.0" fill="#FEFFFF" transform="matrix(1.00, 0.00, -0.00, -1.00, 615.0, 495.0)">r</text><text xml:space="preserve" font-family="Helvetica-Light" font-size="30.0" fill="#FEFFFF" transform="matrix(1.00, 0.00, -0.00, -1.00, 625.0, 495.0)">s</text><text xml:space="preserve" font-family="Helvetica-Light" font-size="30.0" fill="#FEFFFF" transform="matrix(1.00, 0.00, -0.00, -1.00, 640.0, 495.0)">i</text><text xml:space="preserve" font-family="Helvetica-Light" font-size="30.0" fill="#FEFFFF" transform="matrix(1.00, 0.00, -0.00, -1.00, 646.6, 495.0)">o</text><text xml:space="preserve" font-family="Helvetica-Light" font-size="30.0" fill="#FEFFFF" transform="matrix(1.00, 0.00, -0.00, -1.00, 663.3, 495.0)">n</text><text xml:space="preserve" font-family="Helvetica-Light" font-size="30.0" fill="#FEFFFF" transform="matrix(1.00, 0.00, -0.00, -1.00, 680.0, 495.0)">.</text><text xml:space="preserve" font-family="Helvetica-Light" font-size="30.0" fill="#FEFFFF" transform="matrix(1.00, 0.00, -0.00, -1.00, 688.3, 495.0)"> </text><text xml:space="preserve" font-family="Helvetica-Light" font-size="22.5" fill="#FEFFFF" transform="matrix(1.00, 0.00, -0.00, -1.00, 77.0, 420.2)">•</text><text xml:space="preserve" font-family="Helvetica-Light" font-size="30.0" fill="#FEFFFF" transform="matrix(1.00, 0.00, -0.00, -1.00, 113.0, 417.0)">N</text><text xml:space="preserve" font-family="Helvetica-Light" font-size="30.0" fill="#FEFFFF" transform="matrix(1.00, 0.00, -0.00, -1.00, 134.7, 417.0)">o</text><text xml:space="preserve" font-family="Helvetica-Light" font-size="30.0" fill="#FEFFFF" transform="matrix(1.00, 0.00, -0.00, -1.00, 151.3, 417.0)"> </text><text xml:space="preserve" font-family="Helvetica-Light" font-size="30.0" fill="#FEFFFF" transform="matrix(1.00, 0.00, -0.00, -1.00, 159.7, 417.0)">b</text><text xml:space="preserve" font-family="Helvetica-Light" font-size="30.0" fill="#FEFFFF" transform="matrix(1.00, 0.00, -0.00, -1.00, 178.0, 417.0)">a</text><text xml:space="preserve" font-family="Helvetica-Light" font-size="30.0" fill="#FEFFFF" transform="matrix(1.00, 0.00, -0.00, -1.00, 194.7, 417.0)">s</text><text xml:space="preserve" font-family="Helvetica-Light" font-size="30.0" fill="#FEFFFF" transform="matrix(1.00, 0.00, -0.00, -1.00, 209.7, 417.0)">e</text><text xml:space="preserve" font-family="Helvetica-Light" font-size="30.0" fill="#FEFFFF" transform="matrix(1.00, 0.00, -0.00, -1.00, 226.4, 417.0)"> </text><text xml:space="preserve" font-family="Helvetica-Light" font-size="30.0" fill="#FEFFFF" transform="matrix(1.00, 0.00, -0.00, -1.00, 234.7, 417.0)">c</text><text xml:space="preserve" font-family="Helvetica-Light" font-size="30.0" fill="#FEFFFF" transform="matrix(1.00, 0.00, -0.00, -1.00, 251.4, 417.0)">a</text><text xml:space="preserve" font-family="Helvetica-Light" font-size="30.0" fill="#FEFFFF" transform="matrix(1.00, 0.00, -0.00, -1.00, 268.1, 417.0)">s</text><text xml:space="preserve" font-family="Helvetica-Light" font-size="30.0" fill="#FEFFFF" transform="matrix(1.00, 0.00, -0.00, -1.00, 283.1, 417.0)">e</text><text xml:space="preserve" font-family="Helvetica-Light" font-size="30.0" fill="#FEFFFF" transform="matrix(1.00, 0.00, -0.00, -1.00, 299.8, 417.0)"> </text><text xml:space="preserve" font-family="Helvetica-Light" font-size="30.0" fill="#FEFFFF" transform="matrix(1.00, 0.00, -0.00, -1.00, 308.1, 417.0)">—</text><text xml:space="preserve" font-family="Helvetica-Light" font-size="30.0" fill="#FEFFFF" transform="matrix(1.00, 0.00, -0.00, -1.00, 338.1, 417.0)">&gt;</text><text xml:space="preserve" font-family="Helvetica-Light" font-size="30.0" fill="#FEFFFF" transform="matrix(1.00, 0.00, -0.00, -1.00, 357.9, 417.0)"> </text><text xml:space="preserve" font-family="Helvetica-Light" font-size="30.0" fill="#FEFFFF" transform="matrix(1.00, 0.00, -0.00, -1.00, 366.2, 417.0)">c</text><text xml:space="preserve" font-family="Helvetica-Light" font-size="30.0" fill="#FEFFFF" transform="matrix(1.00, 0.00, -0.00, -1.00, 382.9, 417.0)">o</text><text xml:space="preserve" font-family="Helvetica-Light" font-size="30.0" fill="#FEFFFF" transform="matrix(1.00, 0.00, -0.00, -1.00, 399.6, 417.0)">n</text><text xml:space="preserve" font-family="Helvetica-Light" font-size="30.0" fill="#FEFFFF" transform="matrix(1.00, 0.00, -0.00, -1.00, 416.3, 417.0)">t</text><text xml:space="preserve" font-family="Helvetica-Light" font-size="30.0" fill="#FEFFFF" transform="matrix(1.00, 0.00, -0.00, -1.00, 424.6, 417.0)">i</text><text xml:space="preserve" font-family="Helvetica-Light" font-size="30.0" fill="#FEFFFF" transform="matrix(1.00, 0.00, -0.00, -1.00, 431.3, 417.0)">n</text><text xml:space="preserve" font-family="Helvetica-Light" font-size="30.0" fill="#FEFFFF" transform="matrix(1.00, 0.00, -0.00, -1.00, 448.0, 417.0)">u</text><text xml:space="preserve" font-family="Helvetica-Light" font-size="30.0" fill="#FEFFFF" transform="matrix(1.00, 0.00, -0.00, -1.00, 464.6, 417.0)">e</text><text xml:space="preserve" font-family="Helvetica-Light" font-size="30.0" fill="#FEFFFF" transform="matrix(1.00, 0.00, -0.00, -1.00, 481.3, 417.0)"> </text><text xml:space="preserve" font-family="Helvetica-Light" font-size="30.0" fill="#FEFFFF" transform="matrix(1.00, 0.00, -0.00, -1.00, 489.7, 417.0)">m</text><text xml:space="preserve" font-family="Helvetica-Light" font-size="30.0" fill="#FEFFFF" transform="matrix(1.00, 0.00, -0.00, -1.00, 514.6, 417.0)">a</text><text xml:space="preserve" font-family="Helvetica-Light" font-size="30.0" fill="#FEFFFF" transform="matrix(1.00, 0.00, -0.00, -1.00, 531.3, 417.0)">k</text><text xml:space="preserve" font-family="Helvetica-Light" font-size="30.0" fill="#FEFFFF" transform="matrix(1.00, 0.00, -0.00, -1.00, 546.3, 417.0)">i</text><text xml:space="preserve" font-family="Helvetica-Light" font-size="30.0" fill="#FEFFFF" transform="matrix(1.00, 0.00, -0.00, -1.00, 553.0, 417.0)">n</text><text xml:space="preserve" font-family="Helvetica-Light" font-size="30.0" fill="#FEFFFF" transform="matrix(1.00, 0.00, -0.00, -1.00, 569.7, 417.0)">g</text><text xml:space="preserve" font-family="Helvetica-Light" font-size="30.0" fill="#FEFFFF" transform="matrix(1.00, 0.00, -0.00, -1.00, 588.0, 417.0)"> </text><text xml:space="preserve" font-family="Helvetica-Light" font-size="30.0" fill="#FEFFFF" transform="matrix(1.00, 0.00, -0.00, -1.00, 596.3, 417.0)">r</text><text xml:space="preserve" font-family="Helvetica-Light" font-size="30.0" fill="#FEFFFF" transform="matrix(1.00, 0.00, -0.00, -1.00, 605.8, 417.0)">e</text><text xml:space="preserve" font-family="Helvetica-Light" font-size="30.0" fill="#FEFFFF" transform="matrix(1.00, 0.00, -0.00, -1.00, 622.5, 417.0)">c</text><text xml:space="preserve" font-family="Helvetica-Light" font-size="30.0" fill="#FEFFFF" transform="matrix(1.00, 0.00, -0.00, -1.00, 639.1, 417.0)">u</text><text xml:space="preserve" font-family="Helvetica-Light" font-size="30.0" fill="#FEFFFF" transform="matrix(1.00, 0.00, -0.00, -1.00, 655.8, 417.0)">r</text><text xml:space="preserve" font-family="Helvetica-Light" font-size="30.0" fill="#FEFFFF" transform="matrix(1.00, 0.00, -0.00, -1.00, 665.8, 417.0)">s</text><text xml:space="preserve" font-family="Helvetica-Light" font-size="30.0" fill="#FEFFFF" transform="matrix(1.00, 0.00, -0.00, -1.00, 680.8, 417.0)">i</text><text xml:space="preserve" font-family="Helvetica-Light" font-size="30.0" fill="#FEFFFF" transform="matrix(1.00, 0.00, -0.00, -1.00, 687.5, 417.0)">v</text><text xml:space="preserve" font-family="Helvetica-Light" font-size="30.0" fill="#FEFFFF" transform="matrix(1.00, 0.00, -0.00, -1.00, 702.5, 417.0)">e</text><text xml:space="preserve" font-family="Helvetica-Light" font-size="30.0" fill="#FEFFFF" transform="matrix(1.00, 0.00, -0.00, -1.00, 719.1, 417.0)"> </text><text xml:space="preserve" font-family="Helvetica-Light" font-size="30.0" fill="#FEFFFF" transform="matrix(1.00, 0.00, -0.00, -1.00, 727.5, 417.0)">c</text><text xml:space="preserve" font-family="Helvetica-Light" font-size="30.0" fill="#FEFFFF" transform="matrix(1.00, 0.00, -0.00, -1.00, 744.2, 417.0)">a</text><text xml:space="preserve" font-family="Helvetica-Light" font-size="30.0" fill="#FEFFFF" transform="matrix(1.00, 0.00, -0.00, -1.00, 760.8, 417.0)">l</text><text xml:space="preserve" font-family="Helvetica-Light" font-size="30.0" fill="#FEFFFF" transform="matrix(1.00, 0.00, -0.00, -1.00, 767.5, 417.0)">l</text><text xml:space="preserve" font-family="Helvetica-Light" font-size="30.0" fill="#FEFFFF" transform="matrix(1.00, 0.00, -0.00, -1.00, 774.2, 417.0)">s</text><text xml:space="preserve" font-family="Helvetica-Light" font-size="30.0" fill="#FEFFFF" transform="matrix(1.00, 0.00, -0.00, -1.00, 789.2, 417.0)"> </text><text xml:space="preserve" font-family="Helvetica-Light" font-size="30.0" fill="#FEFFFF" transform="matrix(1.00, 0.00, -0.00, -1.00, 797.5, 417.0)">f</text><text xml:space="preserve" font-family="Helvetica-Light" font-size="30.0" fill="#FEFFFF" transform="matrix(1.00, 0.00, -0.00, -1.00, 805.8, 417.0)">o</text><text xml:space="preserve" font-family="Helvetica-Light" font-size="30.0" fill="#FEFFFF" transform="matrix(1.00, 0.00, -0.00, -1.00, 822.5, 417.0)">r</text><text xml:space="preserve" font-family="Helvetica-Light" font-size="30.0" fill="#FEFFFF" transform="matrix(1.00, 0.00, -0.00, -1.00, 832.0, 417.0)">e</text><text xml:space="preserve" font-family="Helvetica-Light" font-size="30.0" fill="#FEFFFF" transform="matrix(1.00, 0.00, -0.00, -1.00, 848.7, 417.0)">v</text><text xml:space="preserve" font-family="Helvetica-Light" font-size="30.0" fill="#FEFFFF" transform="matrix(1.00, 0.00, -0.00, -1.00, 863.7, 417.0)">e</text><text xml:space="preserve" font-family="Helvetica-Light" font-size="30.0" fill="#FEFFFF" transform="matrix(1.00, 0.00, -0.00, -1.00, 880.3, 417.0)">r</text><text xml:space="preserve" font-family="Helvetica-Light" font-size="18.0" fill="#FEFFFF" transform="matrix(1.00, 0.00, -0.00, -1.00, 506.0, 18.0)">4</text><text xml:space="preserve" font-family="CourierNewPSMT" font-size="30.0" fill="#F3E99D" transform="matrix(1.00, 0.00, -0.00, -1.00, 87.0, 276.0)">d</text><text xml:space="preserve" font-family="CourierNewPSMT" font-size="30.0" fill="#F3E99D" transform="matrix(1.00, 0.00, -0.00, -1.00, 105.0, 276.0)">e</text><text xml:space="preserve" font-family="CourierNewPSMT" font-size="30.0" fill="#F3E99D" transform="matrix(1.00, 0.00, -0.00, -1.00, 123.0, 276.0)">f</text><text xml:space="preserve" font-family="CourierNewPSMT" font-size="30.0" fill="#000000" transform="matrix(1.00, 0.00, -0.00, -1.00, 141.0, 276.0)"> </text><text xml:space="preserve" font-family="CourierNewPSMT" font-size="30.0" fill="#F66A64" transform="matrix(1.00, 0.00, -0.00, -1.00, 159.0, 276.0)">f</text><text xml:space="preserve" font-family="CourierNewPSMT" font-size="30.0" fill="#F66A64" transform="matrix(1.00, 0.00, -0.00, -1.00, 177.0, 276.0)">a</text><text xml:space="preserve" font-family="CourierNewPSMT" font-size="30.0" fill="#F66A64" transform="matrix(1.00, 0.00, -0.00, -1.00, 195.0, 276.0)">c</text><text xml:space="preserve" font-family="CourierNewPSMT" font-size="30.0" fill="#F66A64" transform="matrix(1.00, 0.00, -0.00, -1.00, 213.0, 276.0)">t</text><text xml:space="preserve" font-family="CourierNewPSMT" font-size="30.0" fill="#F66A64" transform="matrix(1.00, 0.00, -0.00, -1.00, 231.0, 276.0)">o</text><text xml:space="preserve" font-family="CourierNewPSMT" font-size="30.0" fill="#F66A64" transform="matrix(1.00, 0.00, -0.00, -1.00, 249.0, 276.0)">r</text><text xml:space="preserve" font-family="CourierNewPSMT" font-size="30.0" fill="#F66A64" transform="matrix(1.00, 0.00, -0.00, -1.00, 267.0, 276.0)">i</text><text xml:space="preserve" font-family="CourierNewPSMT" font-size="30.0" fill="#F66A64" transform="matrix(1.00, 0.00, -0.00, -1.00, 285.1, 276.0)">a</text><text xml:space="preserve" font-family="CourierNewPSMT" font-size="30.0" fill="#F66A64" transform="matrix(1.00, 0.00, -0.00, -1.00, 303.1, 276.0)">l</text><text xml:space="preserve" font-family="CourierNewPSMT" font-size="30.0" fill="#E4E4E4" transform="matrix(1.00, 0.00, -0.00, -1.00, 321.0, 276.0)">(</text><text xml:space="preserve" font-family="CourierNewPSMT" font-size="30.0" fill="#E4E4E4" transform="matrix(1.00, 0.00, -0.00, -1.00, 339.0, 276.0)">n</text><text xml:space="preserve" font-family="CourierNewPSMT" font-size="30.0" fill="#E4E4E4" transform="matrix(1.00, 0.00, -0.00, -1.00, 357.0, 276.0)">)</text><text xml:space="preserve" font-family="CourierNewPSMT" font-size="30.0" fill="#E4E4E4" transform="matrix(1.00, 0.00, -0.00, -1.00, 375.1, 276.0)">:</text><text xml:space="preserve" font-family="CourierNewPSMT" font-size="30.0" fill="#000000" transform="matrix(1.00, 0.00, -0.00, -1.00, 393.0, 276.0)"> </text><text xml:space="preserve" font-family="CourierNewPSMT" font-size="30.0" fill="#000000" transform="matrix(1.00, 0.00, -0.00, -1.00, 87.0, 242.0)"> </text><text xml:space="preserve" font-family="CourierNewPSMT" font-size="30.0" fill="#000000" transform="matrix(1.00, 0.00, -0.00, -1.00, 105.0, 242.0)"> </text><text xml:space="preserve" font-family="CourierNewPSMT" font-size="30.0" fill="#000000" transform="matrix(1.00, 0.00, -0.00, -1.00, 123.0, 242.0)"> </text><text xml:space="preserve" font-family="CourierNewPSMT" font-size="30.0" fill="#000000" transform="matrix(1.00, 0.00, -0.00, -1.00, 141.0, 242.0)"> </text><text xml:space="preserve" font-family="CourierNewPS-BoldMT" font-weight="bold" font-size="30.0" fill="#F3E99D" transform="matrix(1.00, 0.00, -0.00, -1.00, 159.0, 242.0)">i</text><text xml:space="preserve" font-family="CourierNewPS-BoldMT" font-weight="bold" font-size="30.0" fill="#F3E99D" transform="matrix(1.00, 0.00, -0.00, -1.00, 177.0, 242.0)">f</text><text xml:space="preserve" font-family="CourierNewPS-BoldMT" font-weight="bold" font-size="30.0" fill="#000000" transform="matrix(1.00, 0.00, -0.00, -1.00, 195.0, 242.0)"> </text><text xml:space="preserve" font-family="CourierNewPS-BoldMT" font-weight="bold" font-size="30.0" fill="#E4E4E4" transform="matrix(1.00, 0.00, -0.00, -1.00, 213.0, 242.0)">n</text><text xml:space="preserve" font-family="CourierNewPS-BoldMT" font-weight="bold" font-size="30.0" fill="#000000" transform="matrix(1.00, 0.00, -0.00, -1.00, 231.0, 242.0)"> </text><text xml:space="preserve" font-family="CourierNewPS-BoldMT" font-weight="bold" font-size="30.0" fill="#E4E4E4" transform="matrix(1.00, 0.00, -0.00, -1.00, 249.0, 242.0)">=</text><text xml:space="preserve" font-family="CourierNewPS-BoldMT" font-weight="bold" font-size="30.0" fill="#E4E4E4" transform="matrix(1.00, 0.00, -0.00, -1.00, 267.0, 242.0)">=</text><text xml:space="preserve" font-family="CourierNewPS-BoldMT" font-weight="bold" font-size="30.0" fill="#000000" transform="matrix(1.00, 0.00, -0.00, -1.00, 285.0, 242.0)"> </text><text xml:space="preserve" font-family="CourierNewPS-BoldMT" font-weight="bold" font-size="30.0" fill="#FFB1AF" transform="matrix(1.00, 0.00, -0.00, -1.00, 303.0, 242.0)">0</text><text xml:space="preserve" font-family="CourierNewPS-BoldMT" font-weight="bold" font-size="30.0" fill="#000000" transform="matrix(1.00, 0.00, -0.00, -1.00, 321.0, 242.0)"> </text><text xml:space="preserve" font-family="CourierNewPS-BoldMT" font-weight="bold" font-size="30.0" fill="#F3E99D" transform="matrix(1.00, 0.00, -0.00, -1.00, 339.0, 242.0)">o</text><text xml:space="preserve" font-family="CourierNewPS-BoldMT" font-weight="bold" font-size="30.0" fill="#F3E99D" transform="matrix(1.00, 0.00, -0.00, -1.00, 357.0, 242.0)">r</text><text xml:space="preserve" font-family="CourierNewPS-BoldMT" font-weight="bold" font-size="30.0" fill="#000000" transform="matrix(1.00, 0.00, -0.00, -1.00, 375.0, 242.0)"> </text><text xml:space="preserve" font-family="CourierNewPS-BoldMT" font-weight="bold" font-size="30.0" fill="#E4E4E4" transform="matrix(1.00, 0.00, -0.00, -1.00, 393.0, 242.0)">n</text><text xml:space="preserve" font-family="CourierNewPS-BoldMT" font-weight="bold" font-size="30.0" fill="#000000" transform="matrix(1.00, 0.00, -0.00, -1.00, 411.1, 242.0)"> </text><text xml:space="preserve" font-family="CourierNewPS-BoldMT" font-weight="bold" font-size="30.0" fill="#E4E4E4" transform="matrix(1.00, 0.00, -0.00, -1.00, 429.1, 242.0)">=</text><text xml:space="preserve" font-family="CourierNewPS-BoldMT" font-weight="bold" font-size="30.0" fill="#E4E4E4" transform="matrix(1.00, 0.00, -0.00, -1.00, 447.1, 242.0)">=</text><text xml:space="preserve" font-family="CourierNewPS-BoldMT" font-weight="bold" font-size="30.0" fill="#000000" transform="matrix(1.00, 0.00, -0.00, -1.00, 465.1, 242.0)"> </text><text xml:space="preserve" font-family="CourierNewPS-BoldMT" font-weight="bold" font-size="30.0" fill="#FFB1AF" transform="matrix(1.00, 0.00, -0.00, -1.00, 483.1, 242.0)">1</text><text xml:space="preserve" font-family="CourierNewPS-BoldMT" font-weight="bold" font-size="30.0" fill="#E4E4E4" transform="matrix(1.00, 0.00, -0.00, -1.00, 501.1, 242.0)">:</text><text xml:space="preserve" font-family="CourierNewPS-BoldMT" font-weight="bold" font-size="30.0" fill="#000000" transform="matrix(1.00, 0.00, -0.00, -1.00, 519.1, 242.0)"> </text><text xml:space="preserve" font-family="CourierNewPS-BoldMT" font-weight="bold" font-size="30.0" fill="#000000" transform="matrix(1.00, 0.00, -0.00, -1.00, 87.0, 208.0)"> </text><text xml:space="preserve" font-family="CourierNewPS-BoldMT" font-weight="bold" font-size="30.0" fill="#000000" transform="matrix(1.00, 0.00, -0.00, -1.00, 105.0, 208.0)"> </text><text xml:space="preserve" font-family="CourierNewPS-BoldMT" font-weight="bold" font-size="30.0" fill="#000000" transform="matrix(1.00, 0.00, -0.00, -1.00, 123.0, 208.0)"> </text><text xml:space="preserve" font-family="CourierNewPS-BoldMT" font-weight="bold" font-size="30.0" fill="#000000" transform="matrix(1.00, 0.00, -0.00, -1.00, 141.0, 208.0)"> </text><text xml:space="preserve" font-family="CourierNewPS-BoldMT" font-weight="bold" font-size="30.0" fill="#000000" transform="matrix(1.00, 0.00, -0.00, -1.00, 159.0, 208.0)"> </text><text xml:space="preserve" font-family="CourierNewPS-BoldMT" font-weight="bold" font-size="30.0" fill="#000000" transform="matrix(1.00, 0.00, -0.00, -1.00, 177.0, 208.0)"> </text><text xml:space="preserve" font-family="CourierNewPS-BoldMT" font-weight="bold" font-size="30.0" fill="#000000" transform="matrix(1.00, 0.00, -0.00, -1.00, 195.0, 208.0)"> </text><text xml:space="preserve" font-family="CourierNewPS-BoldMT" font-weight="bold" font-size="30.0" fill="#000000" transform="matrix(1.00, 0.00, -0.00, -1.00, 213.0, 208.0)"> </text><text xml:space="preserve" font-family="CourierNewPS-BoldMT" font-weight="bold" font-size="30.0" fill="#F3E99D" transform="matrix(1.00, 0.00, -0.00, -1.00, 231.0, 208.0)">r</text><text xml:space="preserve" font-family="CourierNewPS-BoldMT" font-weight="bold" font-size="30.0" fill="#F3E99D" transform="matrix(1.00, 0.00, -0.00, -1.00, 249.0, 208.0)">e</text><text xml:space="preserve" font-family="CourierNewPS-BoldMT" font-weight="bold" font-size="30.0" fill="#F3E99D" transform="matrix(1.00, 0.00, -0.00, -1.00, 267.0, 208.0)">t</text><text xml:space="preserve" font-family="CourierNewPS-BoldMT" font-weight="bold" font-size="30.0" fill="#F3E99D" transform="matrix(1.00, 0.00, -0.00, -1.00, 285.0, 208.0)">u</text><text xml:space="preserve" font-family="CourierNewPS-BoldMT" font-weight="bold" font-size="30.0" fill="#F3E99D" transform="matrix(1.00, 0.00, -0.00, -1.00, 303.0, 208.0)">r</text><text xml:space="preserve" font-family="CourierNewPS-BoldMT" font-weight="bold" font-size="30.0" fill="#F3E99D" transform="matrix(1.00, 0.00, -0.00, -1.00, 321.1, 208.0)">n</text><text xml:space="preserve" font-family="CourierNewPS-BoldMT" font-weight="bold" font-size="30.0" fill="#000000" transform="matrix(1.00, 0.00, -0.00, -1.00, 339.0, 208.0)"> </text><text xml:space="preserve" font-family="CourierNewPS-BoldMT" font-weight="bold" font-size="30.0" fill="#FFB1AF" transform="matrix(1.00, 0.00, -0.00, -1.00, 357.0, 208.0)">1</text><text xml:space="preserve" font-family="CourierNewPS-BoldMT" font-weight="bold" font-size="30.0" fill="#000000" transform="matrix(1.00, 0.00, -0.00, -1.00, 375.0, 208.0)"> </text><text xml:space="preserve" font-family="CourierNewPSMT" font-size="30.0" fill="#000000" transform="matrix(1.00, 0.00, -0.00, -1.00, 87.0, 174.0)"> </text><text xml:space="preserve" font-family="CourierNewPSMT" font-size="30.0" fill="#000000" transform="matrix(1.00, 0.00, -0.00, -1.00, 105.0, 174.0)"> </text><text xml:space="preserve" font-family="CourierNewPSMT" font-size="30.0" fill="#000000" transform="matrix(1.00, 0.00, -0.00, -1.00, 123.0, 174.0)"> </text><text xml:space="preserve" font-family="CourierNewPSMT" font-size="30.0" fill="#000000" transform="matrix(1.00, 0.00, -0.00, -1.00, 141.0, 174.0)"> </text><text xml:space="preserve" font-family="CourierNewPSMT" font-size="30.0" fill="#F3E99D" transform="matrix(1.00, 0.00, -0.00, -1.00, 159.0, 174.0)">e</text><text xml:space="preserve" font-family="CourierNewPSMT" font-size="30.0" fill="#F3E99D" transform="matrix(1.00, 0.00, -0.00, -1.00, 177.0, 174.0)">l</text><text xml:space="preserve" font-family="CourierNewPSMT" font-size="30.0" fill="#F3E99D" transform="matrix(1.00, 0.00, -0.00, -1.00, 195.0, 174.0)">s</text><text xml:space="preserve" font-family="CourierNewPSMT" font-size="30.0" fill="#F3E99D" transform="matrix(1.00, 0.00, -0.00, -1.00, 213.0, 174.0)">e</text><text xml:space="preserve" font-family="CourierNewPSMT" font-size="30.0" fill="#E4E4E4" transform="matrix(1.00, 0.00, -0.00, -1.00, 231.0, 174.0)">:</text><text xml:space="preserve" font-family="CourierNewPSMT" font-size="30.0" fill="#000000" transform="matrix(1.00, 0.00, -0.00, -1.00, 249.0, 174.0)"> </text><text xml:space="preserve" font-family="CourierNewPSMT" font-size="30.0" fill="#000000" transform="matrix(1.00, 0.00, -0.00, -1.00, 87.0, 140.0)"> </text><text xml:space="preserve" font-family="CourierNewPSMT" font-size="30.0" fill="#000000" transform="matrix(1.00, 0.00, -0.00, -1.00, 105.0, 140.0)"> </text><text xml:space="preserve" font-family="CourierNewPSMT" font-size="30.0" fill="#000000" transform="matrix(1.00, 0.00, -0.00, -1.00, 123.0, 140.0)"> </text><text xml:space="preserve" font-family="CourierNewPSMT" font-size="30.0" fill="#000000" transform="matrix(1.00, 0.00, -0.00, -1.00, 141.0, 140.0)"> </text><text xml:space="preserve" font-family="CourierNewPSMT" font-size="30.0" fill="#000000" transform="matrix(1.00, 0.00, -0.00, -1.00, 159.0, 140.0)"> </text><text xml:space="preserve" font-family="CourierNewPSMT" font-size="30.0" fill="#000000" transform="matrix(1.00, 0.00, -0.00, -1.00, 177.0, 140.0)"> </text><text xml:space="preserve" font-family="CourierNewPSMT" font-size="30.0" fill="#000000" transform="matrix(1.00, 0.00, -0.00, -1.00, 195.0, 140.0)"> </text><text xml:space="preserve" font-family="CourierNewPSMT" font-size="30.0" fill="#000000" transform="matrix(1.00, 0.00, -0.00, -1.00, 213.0, 140.0)"> </text><text xml:space="preserve" font-family="CourierNewPSMT" font-size="30.0" fill="#F3E99D" transform="matrix(1.00, 0.00, -0.00, -1.00, 231.0, 140.0)">r</text><text xml:space="preserve" font-family="CourierNewPSMT" font-size="30.0" fill="#F3E99D" transform="matrix(1.00, 0.00, -0.00, -1.00, 249.0, 140.0)">e</text><text xml:space="preserve" font-family="CourierNewPSMT" font-size="30.0" fill="#F3E99D" transform="matrix(1.00, 0.00, -0.00, -1.00, 267.0, 140.0)">t</text><text xml:space="preserve" font-family="CourierNewPSMT" font-size="30.0" fill="#F3E99D" transform="matrix(1.00, 0.00, -0.00, -1.00, 285.0, 140.0)">u</text><text xml:space="preserve" font-family="CourierNewPSMT" font-size="30.0" fill="#F3E99D" transform="matrix(1.00, 0.00, -0.00, -1.00, 303.0, 140.0)">r</text><text xml:space="preserve" font-family="CourierNewPSMT" font-size="30.0" fill="#F3E99D" transform="matrix(1.00, 0.00, -0.00, -1.00, 321.1, 140.0)">n</text><text xml:space="preserve" font-family="CourierNewPSMT" font-size="30.0" fill="#000000" transform="matrix(1.00, 0.00, -0.00, -1.00, 339.0, 140.0)"> </text><text xml:space="preserve" font-family="CourierNewPSMT" font-size="30.0" fill="#E4E4E4" transform="matrix(1.00, 0.00, -0.00, -1.00, 357.0, 140.0)">n</text><text xml:space="preserve" font-family="CourierNewPSMT" font-size="30.0" fill="#000000" transform="matrix(1.00, 0.00, -0.00, -1.00, 375.0, 140.0)"> </text><text xml:space="preserve" font-family="CourierNewPSMT" font-size="30.0" fill="#E4E4E4" transform="matrix(1.00, 0.00, -0.00, -1.00, 393.0, 140.0)">*</text><text xml:space="preserve" font-family="CourierNewPSMT" font-size="30.0" fill="#000000" transform="matrix(1.00, 0.00, -0.00, -1.00, 411.1, 140.0)"> </text><text xml:space="preserve" font-family="CourierNewPSMT" font-size="30.0" fill="#F66A64" transform="matrix(1.00, 0.00, -0.00, -1.00, 429.1, 140.0)">f</text><text xml:space="preserve" font-family="CourierNewPSMT" font-size="30.0" fill="#F66A64" transform="matrix(1.00, 0.00, -0.00, -1.00, 447.1, 140.0)">a</text><text xml:space="preserve" font-family="CourierNewPSMT" font-size="30.0" fill="#F66A64" transform="matrix(1.00, 0.00, -0.00, -1.00, 465.1, 140.0)">c</text><text xml:space="preserve" font-family="CourierNewPSMT" font-size="30.0" fill="#F66A64" transform="matrix(1.00, 0.00, -0.00, -1.00, 483.1, 140.0)">t</text><text xml:space="preserve" font-family="CourierNewPSMT" font-size="30.0" fill="#F66A64" transform="matrix(1.00, 0.00, -0.00, -1.00, 501.1, 140.0)">o</text><text xml:space="preserve" font-family="CourierNewPSMT" font-size="30.0" fill="#F66A64" transform="matrix(1.00, 0.00, -0.00, -1.00, 519.1, 140.0)">r</text><text xml:space="preserve" font-family="CourierNewPSMT" font-size="30.0" fill="#F66A64" transform="matrix(1.00, 0.00, -0.00, -1.00, 537.1, 140.0)">i</text><text xml:space="preserve" font-family="CourierNewPSMT" font-size="30.0" fill="#F66A64" transform="matrix(1.00, 0.00, -0.00, -1.00, 555.1, 140.0)">a</text><text xml:space="preserve" font-family="CourierNewPSMT" font-size="30.0" fill="#F66A64" transform="matrix(1.00, 0.00, -0.00, -1.00, 573.1, 140.0)">l</text><text xml:space="preserve" font-family="CourierNewPSMT" font-size="30.0" fill="#E4E4E4" transform="matrix(1.00, 0.00, -0.00, -1.00, 591.1, 140.0)">(</text><text xml:space="preserve" font-family="CourierNewPSMT" font-size="30.0" fill="#E4E4E4" transform="matrix(1.00, 0.00, -0.00, -1.00, 609.1, 140.0)">n</text><text xml:space="preserve" font-family="CourierNewPSMT" font-size="30.0" fill="#E4E4E4" transform="matrix(1.00, 0.00, -0.00, -1.00, 627.1, 140.0)">-</text><text xml:space="preserve" font-family="CourierNewPSMT" font-size="30.0" fill="#FFB1AF" transform="matrix(1.00, 0.00, -0.00, -1.00, 645.1, 140.0)">1</text><text xml:space="preserve" font-family="CourierNewPSMT" font-size="30.0" fill="#E4E4E4" transform="matrix(1.00, 0.00, -0.00, -1.00, 663.1, 140.0)">)</text><text xml:space="preserve" font-family="CourierNewPSMT" font-size="30.0" fill="#000000" transform="matrix(1.00, 0.00, -0.00, -1.00, 681.1, 140.0)"> </text></g></svg>