<?xml version="1.0" encoding="UTF-8" standalone="no"?><svg xmlns="http://www.w3.org/2000/svg" xmlns:xlink="http://www.w3.org/1999/xlink" clip-rule="evenodd" stroke-miterlimit="4.00" viewBox="0 0 1024 768"><desc>SVG generated by Keynote</desc><defs></defs><g transform="matrix(1.00, 0.00, -0.00, -1.00, 0.0, 768.0)"><g><clipPath id="clip-168"><path d="M 0.0 768.0 L 1024.0 768.0 L 1024.0 0.0 L 0.0 0.0 Z M 0.0 768.0 "></path></clipPath><g clip-path="url(#clip-168)"><image xlink:href="../../06DBE9C8-52A0-453A-A7BF-EBF58CF01F35/assets/E7ABA782A15EA3475B4CFCC80A2FEB63.jpeg" width="1024.00" height="768.00" transform="matrix(1.00, 0.00, -0.00, -1.00, 0.0, 768.0)"></image></g></g><text xml:space="preserve" font-family="Helvetica-Light" font-size="80.0" fill="#FEFFFF" transform="matrix(1.00, 0.00, -0.00, -1.00, 212.0, 622.0)">D</text><text xml:space="preserve" font-family="Helvetica-Light" font-size="80.0" fill="#FEFFFF" transform="matrix(1.00, 0.00, -0.00, -1.00, 269.8, 622.0)">a</text><text xml:space="preserve" font-family="Helvetica-Light" font-size="80.0" fill="#FEFFFF" transform="matrix(1.00, 0.00, -0.00, -1.00, 314.2, 622.0)">t</text><text xml:space="preserve" font-family="Helvetica-Light" font-size="80.0" fill="#FEFFFF" transform="matrix(1.00, 0.00, -0.00, -1.00, 336.5, 622.0)">a</text><text xml:space="preserve" font-family="Helvetica-Light" font-size="80.0" fill="#FEFFFF" transform="matrix(1.00, 0.00, -0.00, -1.00, 381.0, 622.0)"> </text><text xml:space="preserve" font-family="Helvetica-Light" font-size="80.0" fill="#FEFFFF" transform="matrix(1.00, 0.00, -0.00, -1.00, 403.2, 622.0)">A</text><text xml:space="preserve" font-family="Helvetica-Light" font-size="80.0" fill="#FEFFFF" transform="matrix(1.00, 0.00, -0.00, -1.00, 456.6, 622.0)">b</text><text xml:space="preserve" font-family="Helvetica-Light" font-size="80.0" fill="#FEFFFF" transform="matrix(1.00, 0.00, -0.00, -1.00, 505.4, 622.0)">s</text><text xml:space="preserve" font-family="Helvetica-Light" font-size="80.0" fill="#FEFFFF" transform="matrix(1.00, 0.00, -0.00, -1.00, 545.4, 622.0)">t</text><text xml:space="preserve" font-family="Helvetica-Light" font-size="80.0" fill="#FEFFFF" transform="matrix(1.00, 0.00, -0.00, -1.00, 567.7, 622.0)">r</text><text xml:space="preserve" font-family="Helvetica-Light" font-size="80.0" fill="#FEFFFF" transform="matrix(1.00, 0.00, -0.00, -1.00, 594.3, 622.0)">a</text><text xml:space="preserve" font-family="Helvetica-Light" font-size="80.0" fill="#FEFFFF" transform="matrix(1.00, 0.00, -0.00, -1.00, 638.8, 622.0)">c</text><text xml:space="preserve" font-family="Helvetica-Light" font-size="80.0" fill="#FEFFFF" transform="matrix(1.00, 0.00, -0.00, -1.00, 683.3, 622.0)">t</text><text xml:space="preserve" font-family="Helvetica-Light" font-size="80.0" fill="#FEFFFF" transform="matrix(1.00, 0.00, -0.00, -1.00, 705.5, 622.0)">i</text><text xml:space="preserve" font-family="Helvetica-Light" font-size="80.0" fill="#FEFFFF" transform="matrix(1.00, 0.00, -0.00, -1.00, 723.3, 622.0)">o</text><text xml:space="preserve" font-family="Helvetica-Light" font-size="80.0" fill="#FEFFFF" transform="matrix(1.00, 0.00, -0.00, -1.00, 767.8, 622.0)">n</text><text xml:space="preserve" font-family="Helvetica-Light" font-size="26.2" fill="#FEFFFF" transform="matrix(1.00, 0.00, -0.00, -1.00, 69.8, 482.5)">•</text><text xml:space="preserve" font-family="Helvetica-Light" font-size="35.0" fill="#FEFFFF" transform="matrix(1.00, 0.00, -0.00, -1.00, 109.0, 479.0)">M</text><text xml:space="preserve" font-family="Helvetica-Light" font-size="35.0" fill="#FEFFFF" transform="matrix(1.00, 0.00, -0.00, -1.00, 138.2, 479.0)">o</text><text xml:space="preserve" font-family="Helvetica-Light" font-size="35.0" fill="#FEFFFF" transform="matrix(1.00, 0.00, -0.00, -1.00, 157.6, 479.0)">s</text><text xml:space="preserve" font-family="Helvetica-Light" font-size="35.0" fill="#FEFFFF" transform="matrix(1.00, 0.00, -0.00, -1.00, 175.1, 479.0)">t</text><text xml:space="preserve" font-family="Helvetica-Light" font-size="35.0" fill="#FEFFFF" transform="matrix(1.00, 0.00, -0.00, -1.00, 184.8, 479.0)"> </text><text xml:space="preserve" font-family="Helvetica-Light" font-size="35.0" fill="#FEFFFF" transform="matrix(1.00, 0.00, -0.00, -1.00, 194.6, 479.0)">o</text><text xml:space="preserve" font-family="Helvetica-Light" font-size="35.0" fill="#FEFFFF" transform="matrix(1.00, 0.00, -0.00, -1.00, 214.0, 479.0)">f</text><text xml:space="preserve" font-family="Helvetica-Light" font-size="35.0" fill="#FEFFFF" transform="matrix(1.00, 0.00, -0.00, -1.00, 223.8, 479.0)"> </text><text xml:space="preserve" font-family="Helvetica-Light" font-size="35.0" fill="#FEFFFF" transform="matrix(1.00, 0.00, -0.00, -1.00, 233.5, 479.0)">t</text><text xml:space="preserve" font-family="Helvetica-Light" font-size="35.0" fill="#FEFFFF" transform="matrix(1.00, 0.00, -0.00, -1.00, 243.2, 479.0)">h</text><text xml:space="preserve" font-family="Helvetica-Light" font-size="35.0" fill="#FEFFFF" transform="matrix(1.00, 0.00, -0.00, -1.00, 262.7, 479.0)">e</text><text xml:space="preserve" font-family="Helvetica-Light" font-size="35.0" fill="#FEFFFF" transform="matrix(1.00, 0.00, -0.00, -1.00, 282.1, 479.0)"> </text><text xml:space="preserve" font-family="Helvetica-Light" font-size="35.0" fill="#FEFFFF" transform="matrix(1.00, 0.00, -0.00, -1.00, 291.9, 479.0)">t</text><text xml:space="preserve" font-family="Helvetica-Light" font-size="35.0" fill="#FEFFFF" transform="matrix(1.00, 0.00, -0.00, -1.00, 301.6, 479.0)">i</text><text xml:space="preserve" font-family="Helvetica-Light" font-size="35.0" fill="#FEFFFF" transform="matrix(1.00, 0.00, -0.00, -1.00, 309.4, 479.0)">m</text><text xml:space="preserve" font-family="Helvetica-Light" font-size="35.0" fill="#FEFFFF" transform="matrix(1.00, 0.00, -0.00, -1.00, 338.5, 479.0)">e</text><text xml:space="preserve" font-family="Helvetica-Light" font-size="35.0" fill="#FEFFFF" transform="matrix(1.00, 0.00, -0.00, -1.00, 358.0, 479.0)"> </text><text xml:space="preserve" font-family="Helvetica-Light" font-size="35.0" fill="#FEFFFF" transform="matrix(1.00, 0.00, -0.00, -1.00, 367.7, 479.0)">w</text><text xml:space="preserve" font-family="Helvetica-Light" font-size="35.0" fill="#FEFFFF" transform="matrix(1.00, 0.00, -0.00, -1.00, 393.0, 479.0)">e</text><text xml:space="preserve" font-family="Helvetica-Light" font-size="35.0" fill="#FEFFFF" transform="matrix(1.00, 0.00, -0.00, -1.00, 412.4, 479.0)"> </text><text xml:space="preserve" font-family="Helvetica-Light" font-size="35.0" fill="#FEFFFF" transform="matrix(1.00, 0.00, -0.00, -1.00, 422.2, 479.0)">n</text><text xml:space="preserve" font-family="Helvetica-Light" font-size="35.0" fill="#FEFFFF" transform="matrix(1.00, 0.00, -0.00, -1.00, 441.6, 479.0)">e</text><text xml:space="preserve" font-family="Helvetica-Light" font-size="35.0" fill="#FEFFFF" transform="matrix(1.00, 0.00, -0.00, -1.00, 461.1, 479.0)">e</text><text xml:space="preserve" font-family="Helvetica-Light" font-size="35.0" fill="#FEFFFF" transform="matrix(1.00, 0.00, -0.00, -1.00, 480.6, 479.0)">d</text><text xml:space="preserve" font-family="Helvetica-Light" font-size="35.0" fill="#FEFFFF" transform="matrix(1.00, 0.00, -0.00, -1.00, 501.9, 479.0)"> </text><text xml:space="preserve" font-family="Helvetica-Light" font-size="35.0" fill="#FEFFFF" transform="matrix(1.00, 0.00, -0.00, -1.00, 511.7, 479.0)">t</text><text xml:space="preserve" font-family="Helvetica-Light" font-size="35.0" fill="#FEFFFF" transform="matrix(1.00, 0.00, -0.00, -1.00, 521.4, 479.0)">o</text><text xml:space="preserve" font-family="Helvetica-Light" font-size="35.0" fill="#FEFFFF" transform="matrix(1.00, 0.00, -0.00, -1.00, 540.9, 479.0)"> </text><text xml:space="preserve" font-family="Helvetica-Light" font-size="35.0" fill="#FEFFFF" transform="matrix(1.00, 0.00, -0.00, -1.00, 550.6, 479.0)">w</text><text xml:space="preserve" font-family="Helvetica-Light" font-size="35.0" fill="#FEFFFF" transform="matrix(1.00, 0.00, -0.00, -1.00, 575.9, 479.0)">o</text><text xml:space="preserve" font-family="Helvetica-Light" font-size="35.0" fill="#FEFFFF" transform="matrix(1.00, 0.00, -0.00, -1.00, 595.3, 479.0)">r</text><text xml:space="preserve" font-family="Helvetica-Light" font-size="35.0" fill="#FEFFFF" transform="matrix(1.00, 0.00, -0.00, -1.00, 607.0, 479.0)">k</text><text xml:space="preserve" font-family="Helvetica-Light" font-size="35.0" fill="#FEFFFF" transform="matrix(1.00, 0.00, -0.00, -1.00, 624.5, 479.0)"> </text><text xml:space="preserve" font-family="Helvetica-Light" font-size="35.0" fill="#FEFFFF" transform="matrix(1.00, 0.00, -0.00, -1.00, 634.2, 479.0)">o</text><text xml:space="preserve" font-family="Helvetica-Light" font-size="35.0" fill="#FEFFFF" transform="matrix(1.00, 0.00, -0.00, -1.00, 653.7, 479.0)">n</text><text xml:space="preserve" font-family="Helvetica-Light" font-size="35.0" fill="#FEFFFF" transform="matrix(1.00, 0.00, -0.00, -1.00, 673.1, 479.0)"> </text><text xml:space="preserve" font-family="Helvetica-Light" font-size="35.0" fill="#FEFFFF" transform="matrix(1.00, 0.00, -0.00, -1.00, 682.9, 479.0)">c</text><text xml:space="preserve" font-family="Helvetica-Light" font-size="35.0" fill="#FEFFFF" transform="matrix(1.00, 0.00, -0.00, -1.00, 702.3, 479.0)">o</text><text xml:space="preserve" font-family="Helvetica-Light" font-size="35.0" fill="#FEFFFF" transform="matrix(1.00, 0.00, -0.00, -1.00, 721.8, 479.0)">d</text><text xml:space="preserve" font-family="Helvetica-Light" font-size="35.0" fill="#FEFFFF" transform="matrix(1.00, 0.00, -0.00, -1.00, 743.2, 479.0)">e</text><text xml:space="preserve" font-family="Helvetica-Light" font-size="35.0" fill="#FEFFFF" transform="matrix(1.00, 0.00, -0.00, -1.00, 762.6, 479.0)"> </text><text xml:space="preserve" font-family="Helvetica-Light" font-size="35.0" fill="#FEFFFF" transform="matrix(1.00, 0.00, -0.00, -1.00, 772.4, 479.0)">t</text><text xml:space="preserve" font-family="Helvetica-Light" font-size="35.0" fill="#FEFFFF" transform="matrix(1.00, 0.00, -0.00, -1.00, 782.1, 479.0)">h</text><text xml:space="preserve" font-family="Helvetica-Light" font-size="35.0" fill="#FEFFFF" transform="matrix(1.00, 0.00, -0.00, -1.00, 801.5, 479.0)">a</text><text xml:space="preserve" font-family="Helvetica-Light" font-size="35.0" fill="#FEFFFF" transform="matrix(1.00, 0.00, -0.00, -1.00, 821.0, 479.0)">t</text><text xml:space="preserve" font-family="Helvetica-Light" font-size="35.0" fill="#FEFFFF" transform="matrix(1.00, 0.00, -0.00, -1.00, 830.7, 479.0)"> </text><text xml:space="preserve" font-family="Helvetica-Light" font-size="35.0" fill="#FEFFFF" transform="matrix(1.00, 0.00, -0.00, -1.00, 840.5, 479.0)">w</text><text xml:space="preserve" font-family="Helvetica-Light" font-size="35.0" fill="#FEFFFF" transform="matrix(1.00, 0.00, -0.00, -1.00, 865.7, 479.0)">a</text><text xml:space="preserve" font-family="Helvetica-Light" font-size="35.0" fill="#FEFFFF" transform="matrix(1.00, 0.00, -0.00, -1.00, 885.2, 479.0)">s</text><text xml:space="preserve" font-family="Helvetica-Light" font-size="35.0" fill="#FEFFFF" transform="matrix(1.00, 0.00, -0.00, -1.00, 902.7, 479.0)"> </text><text xml:space="preserve" font-family="Helvetica-Light" font-size="35.0" fill="#FEFFFF" transform="matrix(1.00, 0.00, -0.00, -1.00, 109.0, 437.0)">i</text><text xml:space="preserve" font-family="Helvetica-Light" font-size="35.0" fill="#FEFFFF" transform="matrix(1.00, 0.00, -0.00, -1.00, 116.8, 437.0)">m</text><text xml:space="preserve" font-family="Helvetica-Light" font-size="35.0" fill="#FEFFFF" transform="matrix(1.00, 0.00, -0.00, -1.00, 145.9, 437.0)">p</text><text xml:space="preserve" font-family="Helvetica-Light" font-size="35.0" fill="#FEFFFF" transform="matrix(1.00, 0.00, -0.00, -1.00, 167.3, 437.0)">l</text><text xml:space="preserve" font-family="Helvetica-Light" font-size="35.0" fill="#FEFFFF" transform="matrix(1.00, 0.00, -0.00, -1.00, 175.1, 437.0)">e</text><text xml:space="preserve" font-family="Helvetica-Light" font-size="35.0" fill="#FEFFFF" transform="matrix(1.00, 0.00, -0.00, -1.00, 194.5, 437.0)">m</text><text xml:space="preserve" font-family="Helvetica-Light" font-size="35.0" fill="#FEFFFF" transform="matrix(1.00, 0.00, -0.00, -1.00, 223.7, 437.0)">e</text><text xml:space="preserve" font-family="Helvetica-Light" font-size="35.0" fill="#FEFFFF" transform="matrix(1.00, 0.00, -0.00, -1.00, 243.2, 437.0)">n</text><text xml:space="preserve" font-family="Helvetica-Light" font-size="35.0" fill="#FEFFFF" transform="matrix(1.00, 0.00, -0.00, -1.00, 262.6, 437.0)">t</text><text xml:space="preserve" font-family="Helvetica-Light" font-size="35.0" fill="#FEFFFF" transform="matrix(1.00, 0.00, -0.00, -1.00, 272.3, 437.0)">e</text><text xml:space="preserve" font-family="Helvetica-Light" font-size="35.0" fill="#FEFFFF" transform="matrix(1.00, 0.00, -0.00, -1.00, 291.8, 437.0)">d</text><text xml:space="preserve" font-family="Helvetica-Light" font-size="35.0" fill="#FEFFFF" transform="matrix(1.00, 0.00, -0.00, -1.00, 313.2, 437.0)"> </text><text xml:space="preserve" font-family="Helvetica-Light" font-size="35.0" fill="#FEFFFF" transform="matrix(1.00, 0.00, -0.00, -1.00, 322.9, 437.0)">b</text><text xml:space="preserve" font-family="Helvetica-Light" font-size="35.0" fill="#FEFFFF" transform="matrix(1.00, 0.00, -0.00, -1.00, 344.3, 437.0)">y</text><text xml:space="preserve" font-family="Helvetica-Light" font-size="35.0" fill="#FEFFFF" transform="matrix(1.00, 0.00, -0.00, -1.00, 361.8, 437.0)"> </text><text xml:space="preserve" font-family="Helvetica-Light" font-size="35.0" fill="#FEFFFF" transform="matrix(1.00, 0.00, -0.00, -1.00, 371.5, 437.0)">s</text><text xml:space="preserve" font-family="Helvetica-Light" font-size="35.0" fill="#FEFFFF" transform="matrix(1.00, 0.00, -0.00, -1.00, 389.0, 437.0)">o</text><text xml:space="preserve" font-family="Helvetica-Light" font-size="35.0" fill="#FEFFFF" transform="matrix(1.00, 0.00, -0.00, -1.00, 408.5, 437.0)">m</text><text xml:space="preserve" font-family="Helvetica-Light" font-size="35.0" fill="#FEFFFF" transform="matrix(1.00, 0.00, -0.00, -1.00, 437.6, 437.0)">e</text><text xml:space="preserve" font-family="Helvetica-Light" font-size="35.0" fill="#FEFFFF" transform="matrix(1.00, 0.00, -0.00, -1.00, 457.1, 437.0)">o</text><text xml:space="preserve" font-family="Helvetica-Light" font-size="35.0" fill="#FEFFFF" transform="matrix(1.00, 0.00, -0.00, -1.00, 476.6, 437.0)">n</text><text xml:space="preserve" font-family="Helvetica-Light" font-size="35.0" fill="#FEFFFF" transform="matrix(1.00, 0.00, -0.00, -1.00, 496.0, 437.0)">e</text><text xml:space="preserve" font-family="Helvetica-Light" font-size="35.0" fill="#FEFFFF" transform="matrix(1.00, 0.00, -0.00, -1.00, 515.5, 437.0)"> </text><text xml:space="preserve" font-family="Helvetica-Light" font-size="35.0" fill="#FEFFFF" transform="matrix(1.00, 0.00, -0.00, -1.00, 525.2, 437.0)">e</text><text xml:space="preserve" font-family="Helvetica-Light" font-size="35.0" fill="#FEFFFF" transform="matrix(1.00, 0.00, -0.00, -1.00, 544.7, 437.0)">l</text><text xml:space="preserve" font-family="Helvetica-Light" font-size="35.0" fill="#FEFFFF" transform="matrix(1.00, 0.00, -0.00, -1.00, 552.4, 437.0)">s</text><text xml:space="preserve" font-family="Helvetica-Light" font-size="35.0" fill="#FEFFFF" transform="matrix(1.00, 0.00, -0.00, -1.00, 569.9, 437.0)">e</text><text xml:space="preserve" font-family="Helvetica-Light" font-size="35.0" fill="#FEFFFF" transform="matrix(1.00, 0.00, -0.00, -1.00, 589.4, 437.0)">.</text><text xml:space="preserve" font-family="Helvetica-Light" font-size="35.0" fill="#FEFFFF" transform="matrix(1.00, 0.00, -0.00, -1.00, 599.1, 437.0)"> </text><text xml:space="preserve" font-family="Helvetica-Light" font-size="26.2" fill="#FEFFFF" transform="matrix(1.00, 0.00, -0.00, -1.00, 69.8, 356.5)">•</text><text xml:space="preserve" font-family="Helvetica-Light" font-size="35.0" fill="#FEFFFF" transform="matrix(1.00, 0.00, -0.00, -1.00, 109.0, 353.0)">V</text><text xml:space="preserve" font-family="Helvetica-Light" font-size="35.0" fill="#FEFFFF" transform="matrix(1.00, 0.00, -0.00, -1.00, 129.8, 353.0)">i</text><text xml:space="preserve" font-family="Helvetica-Light" font-size="35.0" fill="#FEFFFF" transform="matrix(1.00, 0.00, -0.00, -1.00, 137.5, 353.0)">a</text><text xml:space="preserve" font-family="Helvetica-Light" font-size="35.0" fill="#FEFFFF" transform="matrix(1.00, 0.00, -0.00, -1.00, 157.0, 353.0)"> </text><text xml:space="preserve" font-family="Helvetica-Light" font-size="35.0" fill="#FEFFFF" transform="matrix(1.00, 0.00, -0.00, -1.00, 166.7, 353.0)">d</text><text xml:space="preserve" font-family="Helvetica-Light" font-size="35.0" fill="#FEFFFF" transform="matrix(1.00, 0.00, -0.00, -1.00, 188.1, 353.0)">a</text><text xml:space="preserve" font-family="Helvetica-Light" font-size="35.0" fill="#FEFFFF" transform="matrix(1.00, 0.00, -0.00, -1.00, 207.6, 353.0)">t</text><text xml:space="preserve" font-family="Helvetica-Light" font-size="35.0" fill="#FEFFFF" transform="matrix(1.00, 0.00, -0.00, -1.00, 217.3, 353.0)">a</text><text xml:space="preserve" font-family="Helvetica-Light" font-size="35.0" fill="#FEFFFF" transform="matrix(1.00, 0.00, -0.00, -1.00, 236.8, 353.0)"> </text><text xml:space="preserve" font-family="Helvetica-Light" font-size="35.0" fill="#FEFFFF" transform="matrix(1.00, 0.00, -0.00, -1.00, 246.5, 353.0)">a</text><text xml:space="preserve" font-family="Helvetica-Light" font-size="35.0" fill="#FEFFFF" transform="matrix(1.00, 0.00, -0.00, -1.00, 265.9, 353.0)">b</text><text xml:space="preserve" font-family="Helvetica-Light" font-size="35.0" fill="#FEFFFF" transform="matrix(1.00, 0.00, -0.00, -1.00, 287.3, 353.0)">s</text><text xml:space="preserve" font-family="Helvetica-Light" font-size="35.0" fill="#FEFFFF" transform="matrix(1.00, 0.00, -0.00, -1.00, 304.8, 353.0)">t</text><text xml:space="preserve" font-family="Helvetica-Light" font-size="35.0" fill="#FEFFFF" transform="matrix(1.00, 0.00, -0.00, -1.00, 314.6, 353.0)">r</text><text xml:space="preserve" font-family="Helvetica-Light" font-size="35.0" fill="#FEFFFF" transform="matrix(1.00, 0.00, -0.00, -1.00, 326.2, 353.0)">a</text><text xml:space="preserve" font-family="Helvetica-Light" font-size="35.0" fill="#FEFFFF" transform="matrix(1.00, 0.00, -0.00, -1.00, 345.7, 353.0)">c</text><text xml:space="preserve" font-family="Helvetica-Light" font-size="35.0" fill="#FEFFFF" transform="matrix(1.00, 0.00, -0.00, -1.00, 365.1, 353.0)">t</text><text xml:space="preserve" font-family="Helvetica-Light" font-size="35.0" fill="#FEFFFF" transform="matrix(1.00, 0.00, -0.00, -1.00, 374.9, 353.0)">i</text><text xml:space="preserve" font-family="Helvetica-Light" font-size="35.0" fill="#FEFFFF" transform="matrix(1.00, 0.00, -0.00, -1.00, 382.6, 353.0)">o</text><text xml:space="preserve" font-family="Helvetica-Light" font-size="35.0" fill="#FEFFFF" transform="matrix(1.00, 0.00, -0.00, -1.00, 402.1, 353.0)">n</text><text xml:space="preserve" font-family="Helvetica-Light" font-size="35.0" fill="#FEFFFF" transform="matrix(1.00, 0.00, -0.00, -1.00, 421.5, 353.0)">,</text><text xml:space="preserve" font-family="Helvetica-Light" font-size="35.0" fill="#FEFFFF" transform="matrix(1.00, 0.00, -0.00, -1.00, 431.3, 353.0)"> </text><text xml:space="preserve" font-family="Helvetica-Light" font-size="35.0" fill="#FEFFFF" transform="matrix(1.00, 0.00, -0.00, -1.00, 441.0, 353.0)">w</text><text xml:space="preserve" font-family="Helvetica-Light" font-size="35.0" fill="#FEFFFF" transform="matrix(1.00, 0.00, -0.00, -1.00, 466.3, 353.0)">e</text><text xml:space="preserve" font-family="Helvetica-Light" font-size="35.0" fill="#FEFFFF" transform="matrix(1.00, 0.00, -0.00, -1.00, 485.7, 353.0)"> </text><text xml:space="preserve" font-family="Helvetica-Light" font-size="35.0" fill="#FEFFFF" transform="matrix(1.00, 0.00, -0.00, -1.00, 495.5, 353.0)">d</text><text xml:space="preserve" font-family="Helvetica-Light" font-size="35.0" fill="#FEFFFF" transform="matrix(1.00, 0.00, -0.00, -1.00, 516.9, 353.0)">o</text><text xml:space="preserve" font-family="Helvetica-Light" font-size="35.0" fill="#FEFFFF" transform="matrix(1.00, 0.00, -0.00, -1.00, 536.3, 353.0)">n</text><text xml:space="preserve" font-family="Helvetica-Light" font-size="35.0" fill="#FEFFFF" transform="matrix(1.00, 0.00, -0.00, -1.00, 555.8, 353.0)">’</text><text xml:space="preserve" font-family="Helvetica-Light" font-size="35.0" fill="#FEFFFF" transform="matrix(1.00, 0.00, -0.00, -1.00, 562.9, 353.0)">t</text><text xml:space="preserve" font-family="Helvetica-Light" font-size="35.0" fill="#FEFFFF" transform="matrix(1.00, 0.00, -0.00, -1.00, 572.6, 353.0)"> </text><text xml:space="preserve" font-family="Helvetica-Light" font-size="35.0" fill="#FEFFFF" transform="matrix(1.00, 0.00, -0.00, -1.00, 582.4, 353.0)">n</text><text xml:space="preserve" font-family="Helvetica-Light" font-size="35.0" fill="#FEFFFF" transform="matrix(1.00, 0.00, -0.00, -1.00, 601.8, 353.0)">e</text><text xml:space="preserve" font-family="Helvetica-Light" font-size="35.0" fill="#FEFFFF" transform="matrix(1.00, 0.00, -0.00, -1.00, 621.3, 353.0)">e</text><text xml:space="preserve" font-family="Helvetica-Light" font-size="35.0" fill="#FEFFFF" transform="matrix(1.00, 0.00, -0.00, -1.00, 640.8, 353.0)">d</text><text xml:space="preserve" font-family="Helvetica-Light" font-size="35.0" fill="#FEFFFF" transform="matrix(1.00, 0.00, -0.00, -1.00, 662.1, 353.0)"> </text><text xml:space="preserve" font-family="Helvetica-Light" font-size="35.0" fill="#FEFFFF" transform="matrix(1.00, 0.00, -0.00, -1.00, 671.9, 353.0)">t</text><text xml:space="preserve" font-family="Helvetica-Light" font-size="35.0" fill="#FEFFFF" transform="matrix(1.00, 0.00, -0.00, -1.00, 681.6, 353.0)">o</text><text xml:space="preserve" font-family="Helvetica-Light" font-size="35.0" fill="#FEFFFF" transform="matrix(1.00, 0.00, -0.00, -1.00, 701.1, 353.0)"> </text><text xml:space="preserve" font-family="Helvetica-Light" font-size="35.0" fill="#FEFFFF" transform="matrix(1.00, 0.00, -0.00, -1.00, 710.8, 353.0)">w</text><text xml:space="preserve" font-family="Helvetica-Light" font-size="35.0" fill="#FEFFFF" transform="matrix(1.00, 0.00, -0.00, -1.00, 736.1, 353.0)">o</text><text xml:space="preserve" font-family="Helvetica-Light" font-size="35.0" fill="#FEFFFF" transform="matrix(1.00, 0.00, -0.00, -1.00, 755.5, 353.0)">r</text><text xml:space="preserve" font-family="Helvetica-Light" font-size="35.0" fill="#FEFFFF" transform="matrix(1.00, 0.00, -0.00, -1.00, 767.2, 353.0)">r</text><text xml:space="preserve" font-family="Helvetica-Light" font-size="35.0" fill="#FEFFFF" transform="matrix(1.00, 0.00, -0.00, -1.00, 779.5, 353.0)">y</text><text xml:space="preserve" font-family="Helvetica-Light" font-size="35.0" fill="#FEFFFF" transform="matrix(1.00, 0.00, -0.00, -1.00, 797.0, 353.0)"> </text><text xml:space="preserve" font-family="Helvetica-Light" font-size="35.0" fill="#FEFFFF" transform="matrix(1.00, 0.00, -0.00, -1.00, 806.7, 353.0)">a</text><text xml:space="preserve" font-family="Helvetica-Light" font-size="35.0" fill="#FEFFFF" transform="matrix(1.00, 0.00, -0.00, -1.00, 826.2, 353.0)">b</text><text xml:space="preserve" font-family="Helvetica-Light" font-size="35.0" fill="#FEFFFF" transform="matrix(1.00, 0.00, -0.00, -1.00, 847.5, 353.0)">o</text><text xml:space="preserve" font-family="Helvetica-Light" font-size="35.0" fill="#FEFFFF" transform="matrix(1.00, 0.00, -0.00, -1.00, 867.0, 353.0)">u</text><text xml:space="preserve" font-family="Helvetica-Light" font-size="35.0" fill="#FEFFFF" transform="matrix(1.00, 0.00, -0.00, -1.00, 886.5, 353.0)">t</text><text xml:space="preserve" font-family="Helvetica-Light" font-size="35.0" fill="#FEFFFF" transform="matrix(1.00, 0.00, -0.00, -1.00, 896.2, 353.0)"> </text><text xml:space="preserve" font-family="Helvetica-Light" font-size="35.0" fill="#FEFFFF" transform="matrix(1.00, 0.00, -0.00, -1.00, 109.0, 311.0)">h</text><text xml:space="preserve" font-family="Helvetica-Light" font-size="35.0" fill="#FEFFFF" transform="matrix(1.00, 0.00, -0.00, -1.00, 128.5, 311.0)">o</text><text xml:space="preserve" font-family="Helvetica-Light" font-size="35.0" fill="#FEFFFF" transform="matrix(1.00, 0.00, -0.00, -1.00, 147.9, 311.0)">w</text><text xml:space="preserve" font-family="Helvetica-Light" font-size="35.0" fill="#FEFFFF" transform="matrix(1.00, 0.00, -0.00, -1.00, 173.2, 311.0)"> </text><text xml:space="preserve" font-family="Helvetica-Light" font-size="35.0" fill="#FEFFFF" transform="matrix(1.00, 0.00, -0.00, -1.00, 182.9, 311.0)">t</text><text xml:space="preserve" font-family="Helvetica-Light" font-size="35.0" fill="#FEFFFF" transform="matrix(1.00, 0.00, -0.00, -1.00, 192.7, 311.0)">h</text><text xml:space="preserve" font-family="Helvetica-Light" font-size="35.0" fill="#FEFFFF" transform="matrix(1.00, 0.00, -0.00, -1.00, 212.1, 311.0)">e</text><text xml:space="preserve" font-family="Helvetica-Light" font-size="35.0" fill="#FEFFFF" transform="matrix(1.00, 0.00, -0.00, -1.00, 231.6, 311.0)"> </text><text xml:space="preserve" font-family="Helvetica-Light" font-size="35.0" fill="#FEFFFF" transform="matrix(1.00, 0.00, -0.00, -1.00, 241.3, 311.0)">i</text><text xml:space="preserve" font-family="Helvetica-Light" font-size="35.0" fill="#FEFFFF" transform="matrix(1.00, 0.00, -0.00, -1.00, 249.1, 311.0)">m</text><text xml:space="preserve" font-family="Helvetica-Light" font-size="35.0" fill="#FEFFFF" transform="matrix(1.00, 0.00, -0.00, -1.00, 278.2, 311.0)">p</text><text xml:space="preserve" font-family="Helvetica-Light" font-size="35.0" fill="#FEFFFF" transform="matrix(1.00, 0.00, -0.00, -1.00, 299.6, 311.0)">l</text><text xml:space="preserve" font-family="Helvetica-Light" font-size="35.0" fill="#FEFFFF" transform="matrix(1.00, 0.00, -0.00, -1.00, 307.4, 311.0)">e</text><text xml:space="preserve" font-family="Helvetica-Light" font-size="35.0" fill="#FEFFFF" transform="matrix(1.00, 0.00, -0.00, -1.00, 326.8, 311.0)">m</text><text xml:space="preserve" font-family="Helvetica-Light" font-size="35.0" fill="#FEFFFF" transform="matrix(1.00, 0.00, -0.00, -1.00, 356.0, 311.0)">e</text><text xml:space="preserve" font-family="Helvetica-Light" font-size="35.0" fill="#FEFFFF" transform="matrix(1.00, 0.00, -0.00, -1.00, 375.5, 311.0)">n</text><text xml:space="preserve" font-family="Helvetica-Light" font-size="35.0" fill="#FEFFFF" transform="matrix(1.00, 0.00, -0.00, -1.00, 394.9, 311.0)">t</text><text xml:space="preserve" font-family="Helvetica-Light" font-size="35.0" fill="#FEFFFF" transform="matrix(1.00, 0.00, -0.00, -1.00, 404.6, 311.0)">a</text><text xml:space="preserve" font-family="Helvetica-Light" font-size="35.0" fill="#FEFFFF" transform="matrix(1.00, 0.00, -0.00, -1.00, 424.1, 311.0)">t</text><text xml:space="preserve" font-family="Helvetica-Light" font-size="35.0" fill="#FEFFFF" transform="matrix(1.00, 0.00, -0.00, -1.00, 433.8, 311.0)">i</text><text xml:space="preserve" font-family="Helvetica-Light" font-size="35.0" fill="#FEFFFF" transform="matrix(1.00, 0.00, -0.00, -1.00, 441.6, 311.0)">o</text><text xml:space="preserve" font-family="Helvetica-Light" font-size="35.0" fill="#FEFFFF" transform="matrix(1.00, 0.00, -0.00, -1.00, 461.1, 311.0)">n</text><text xml:space="preserve" font-family="Helvetica-Light" font-size="35.0" fill="#FEFFFF" transform="matrix(1.00, 0.00, -0.00, -1.00, 480.5, 311.0)"> </text><text xml:space="preserve" font-family="Helvetica-Light" font-size="35.0" fill="#FEFFFF" transform="matrix(1.00, 0.00, -0.00, -1.00, 490.3, 311.0)">o</text><text xml:space="preserve" font-family="Helvetica-Light" font-size="35.0" fill="#FEFFFF" transform="matrix(1.00, 0.00, -0.00, -1.00, 509.7, 311.0)">f</text><text xml:space="preserve" font-family="Helvetica-Light" font-size="35.0" fill="#FEFFFF" transform="matrix(1.00, 0.00, -0.00, -1.00, 519.4, 311.0)"> </text><text xml:space="preserve" font-family="Helvetica-Light" font-size="35.0" fill="#FEFFFF" transform="matrix(1.00, 0.00, -0.00, -1.00, 529.2, 311.0)">t</text><text xml:space="preserve" font-family="Helvetica-Light" font-size="35.0" fill="#FEFFFF" transform="matrix(1.00, 0.00, -0.00, -1.00, 538.9, 311.0)">h</text><text xml:space="preserve" font-family="Helvetica-Light" font-size="35.0" fill="#FEFFFF" transform="matrix(1.00, 0.00, -0.00, -1.00, 558.4, 311.0)">e</text><text xml:space="preserve" font-family="Helvetica-Light" font-size="35.0" fill="#FEFFFF" transform="matrix(1.00, 0.00, -0.00, -1.00, 577.8, 311.0)"> </text><text xml:space="preserve" font-family="Helvetica-Light" font-size="35.0" fill="#FEFFFF" transform="matrix(1.00, 0.00, -0.00, -1.00, 587.6, 311.0)">d</text><text xml:space="preserve" font-family="Helvetica-Light" font-size="35.0" fill="#FEFFFF" transform="matrix(1.00, 0.00, -0.00, -1.00, 608.9, 311.0)">a</text><text xml:space="preserve" font-family="Helvetica-Light" font-size="35.0" fill="#FEFFFF" transform="matrix(1.00, 0.00, -0.00, -1.00, 628.4, 311.0)">t</text><text xml:space="preserve" font-family="Helvetica-Light" font-size="35.0" fill="#FEFFFF" transform="matrix(1.00, 0.00, -0.00, -1.00, 638.1, 311.0)">a</text><text xml:space="preserve" font-family="Helvetica-Light" font-size="35.0" fill="#FEFFFF" transform="matrix(1.00, 0.00, -0.00, -1.00, 657.6, 311.0)">.</text><text xml:space="preserve" font-family="Helvetica-Light" font-size="35.0" fill="#FEFFFF" transform="matrix(1.00, 0.00, -0.00, -1.00, 667.3, 311.0)"> </text><text xml:space="preserve" font-family="Helvetica-Light" font-size="26.2" fill="#FEFFFF" transform="matrix(1.00, 0.00, -0.00, -1.00, 69.8, 230.5)">•</text><text xml:space="preserve" font-family="Helvetica-Light" font-size="35.0" fill="#FEFFFF" transform="matrix(1.00, 0.00, -0.00, -1.00, 109.0, 227.0)">W</text><text xml:space="preserve" font-family="Helvetica-Light" font-size="35.0" fill="#FEFFFF" transform="matrix(1.00, 0.00, -0.00, -1.00, 139.5, 227.0)">e</text><text xml:space="preserve" font-family="Helvetica-Light" font-size="35.0" fill="#FEFFFF" transform="matrix(1.00, 0.00, -0.00, -1.00, 158.9, 227.0)"> </text><text xml:space="preserve" font-family="Helvetica-Light" font-size="35.0" fill="#FEFFFF" transform="matrix(1.00, 0.00, -0.00, -1.00, 168.7, 227.0)">j</text><text xml:space="preserve" font-family="Helvetica-Light" font-size="35.0" fill="#FEFFFF" transform="matrix(1.00, 0.00, -0.00, -1.00, 176.4, 227.0)">u</text><text xml:space="preserve" font-family="Helvetica-Light" font-size="35.0" fill="#FEFFFF" transform="matrix(1.00, 0.00, -0.00, -1.00, 195.9, 227.0)">s</text><text xml:space="preserve" font-family="Helvetica-Light" font-size="35.0" fill="#FEFFFF" transform="matrix(1.00, 0.00, -0.00, -1.00, 213.4, 227.0)">t</text><text xml:space="preserve" font-family="Helvetica-Light" font-size="35.0" fill="#FEFFFF" transform="matrix(1.00, 0.00, -0.00, -1.00, 223.1, 227.0)"> </text><text xml:space="preserve" font-family="Helvetica-Light" font-size="35.0" fill="#FEFFFF" transform="matrix(1.00, 0.00, -0.00, -1.00, 232.9, 227.0)">n</text><text xml:space="preserve" font-family="Helvetica-Light" font-size="35.0" fill="#FEFFFF" transform="matrix(1.00, 0.00, -0.00, -1.00, 252.3, 227.0)">e</text><text xml:space="preserve" font-family="Helvetica-Light" font-size="35.0" fill="#FEFFFF" transform="matrix(1.00, 0.00, -0.00, -1.00, 271.8, 227.0)">e</text><text xml:space="preserve" font-family="Helvetica-Light" font-size="35.0" fill="#FEFFFF" transform="matrix(1.00, 0.00, -0.00, -1.00, 291.2, 227.0)">d</text><text xml:space="preserve" font-family="Helvetica-Light" font-size="35.0" fill="#FEFFFF" transform="matrix(1.00, 0.00, -0.00, -1.00, 312.6, 227.0)"> </text><text xml:space="preserve" font-family="Helvetica-Light" font-size="35.0" fill="#FEFFFF" transform="matrix(1.00, 0.00, -0.00, -1.00, 322.4, 227.0)">t</text><text xml:space="preserve" font-family="Helvetica-Light" font-size="35.0" fill="#FEFFFF" transform="matrix(1.00, 0.00, -0.00, -1.00, 332.1, 227.0)">o</text><text xml:space="preserve" font-family="Helvetica-Light" font-size="35.0" fill="#FEFFFF" transform="matrix(1.00, 0.00, -0.00, -1.00, 351.6, 227.0)"> </text><text xml:space="preserve" font-family="Helvetica-Light" font-size="35.0" fill="#FEFFFF" transform="matrix(1.00, 0.00, -0.00, -1.00, 361.3, 227.0)">k</text><text xml:space="preserve" font-family="Helvetica-Light" font-size="35.0" fill="#FEFFFF" transform="matrix(1.00, 0.00, -0.00, -1.00, 378.8, 227.0)">n</text><text xml:space="preserve" font-family="Helvetica-Light" font-size="35.0" fill="#FEFFFF" transform="matrix(1.00, 0.00, -0.00, -1.00, 398.2, 227.0)">o</text><text xml:space="preserve" font-family="Helvetica-Light" font-size="35.0" fill="#FEFFFF" transform="matrix(1.00, 0.00, -0.00, -1.00, 417.7, 227.0)">w</text><text xml:space="preserve" font-family="Helvetica-Light" font-size="35.0" fill="#FEFFFF" transform="matrix(1.00, 0.00, -0.00, -1.00, 443.0, 227.0)"> </text><text xml:space="preserve" font-family="Helvetica-Light" font-size="35.0" fill="#FEFFFF" transform="matrix(1.00, 0.00, -0.00, -1.00, 452.7, 227.0)">h</text><text xml:space="preserve" font-family="Helvetica-Light" font-size="35.0" fill="#FEFFFF" transform="matrix(1.00, 0.00, -0.00, -1.00, 472.2, 227.0)">o</text><text xml:space="preserve" font-family="Helvetica-Light" font-size="35.0" fill="#FEFFFF" transform="matrix(1.00, 0.00, -0.00, -1.00, 491.6, 227.0)">w</text><text xml:space="preserve" font-family="Helvetica-Light" font-size="35.0" fill="#FEFFFF" transform="matrix(1.00, 0.00, -0.00, -1.00, 516.9, 227.0)"> </text><text xml:space="preserve" font-family="Helvetica-Light" font-size="35.0" fill="#FEFFFF" transform="matrix(1.00, 0.00, -0.00, -1.00, 526.6, 227.0)">t</text><text xml:space="preserve" font-family="Helvetica-Light" font-size="35.0" fill="#FEFFFF" transform="matrix(1.00, 0.00, -0.00, -1.00, 536.3, 227.0)">o</text><text xml:space="preserve" font-family="Helvetica-Light" font-size="35.0" fill="#FEFFFF" transform="matrix(1.00, 0.00, -0.00, -1.00, 555.8, 227.0)"> </text><text xml:space="preserve" font-family="Helvetica-Light" font-size="35.0" fill="#FEFFFF" transform="matrix(1.00, 0.00, -0.00, -1.00, 565.5, 227.0)">u</text><text xml:space="preserve" font-family="Helvetica-Light" font-size="35.0" fill="#FEFFFF" transform="matrix(1.00, 0.00, -0.00, -1.00, 585.0, 227.0)">s</text><text xml:space="preserve" font-family="Helvetica-Light" font-size="35.0" fill="#FEFFFF" transform="matrix(1.00, 0.00, -0.00, -1.00, 602.5, 227.0)">e</text><text xml:space="preserve" font-family="Helvetica-Light" font-size="35.0" fill="#FEFFFF" transform="matrix(1.00, 0.00, -0.00, -1.00, 622.0, 227.0)"> </text><text xml:space="preserve" font-family="Helvetica-Light" font-size="35.0" fill="#FEFFFF" transform="matrix(1.00, 0.00, -0.00, -1.00, 631.7, 227.0)">t</text><text xml:space="preserve" font-family="Helvetica-Light" font-size="35.0" fill="#FEFFFF" transform="matrix(1.00, 0.00, -0.00, -1.00, 641.4, 227.0)">h</text><text xml:space="preserve" font-family="Helvetica-Light" font-size="35.0" fill="#FEFFFF" transform="matrix(1.00, 0.00, -0.00, -1.00, 660.9, 227.0)">e</text><text xml:space="preserve" font-family="Helvetica-Light" font-size="35.0" fill="#FEFFFF" transform="matrix(1.00, 0.00, -0.00, -1.00, 680.3, 227.0)"> </text><text xml:space="preserve" font-family="Helvetica-Light" font-size="35.0" fill="#FEFFFF" transform="matrix(1.00, 0.00, -0.00, -1.00, 690.1, 227.0)">d</text><text xml:space="preserve" font-family="Helvetica-Light" font-size="35.0" fill="#FEFFFF" transform="matrix(1.00, 0.00, -0.00, -1.00, 711.5, 227.0)">a</text><text xml:space="preserve" font-family="Helvetica-Light" font-size="35.0" fill="#FEFFFF" transform="matrix(1.00, 0.00, -0.00, -1.00, 730.9, 227.0)">t</text><text xml:space="preserve" font-family="Helvetica-Light" font-size="35.0" fill="#FEFFFF" transform="matrix(1.00, 0.00, -0.00, -1.00, 740.6, 227.0)">a</text><text xml:space="preserve" font-family="Helvetica-Light" font-size="35.0" fill="#FEFFFF" transform="matrix(1.00, 0.00, -0.00, -1.00, 760.1, 227.0)">.</text><text xml:space="preserve" font-family="Helvetica-Light" font-size="35.0" fill="#FEFFFF" transform="matrix(1.00, 0.00, -0.00, -1.00, 769.8, 227.0)"> </text><text xml:space="preserve" font-family="Helvetica-Light" font-size="26.2" fill="#FEFFFF" transform="matrix(1.00, 0.00, -0.00, -1.00, 69.8, 146.5)">•</text><text xml:space="preserve" font-family="Helvetica-Light" font-size="35.0" fill="#FEFFFF" transform="matrix(1.00, 0.00, -0.00, -1.00, 109.0, 143.0)">W</text><text xml:space="preserve" font-family="Helvetica-Light" font-size="35.0" fill="#FEFFFF" transform="matrix(1.00, 0.00, -0.00, -1.00, 140.1, 143.0)">h</text><text xml:space="preserve" font-family="Helvetica-Light" font-size="35.0" fill="#FEFFFF" transform="matrix(1.00, 0.00, -0.00, -1.00, 159.6, 143.0)">y</text><text xml:space="preserve" font-family="Helvetica-Light" font-size="35.0" fill="#FEFFFF" transform="matrix(1.00, 0.00, -0.00, -1.00, 177.1, 143.0)"> </text><text xml:space="preserve" font-family="Helvetica-Light" font-size="35.0" fill="#FEFFFF" transform="matrix(1.00, 0.00, -0.00, -1.00, 186.8, 143.0)">i</text><text xml:space="preserve" font-family="Helvetica-Light" font-size="35.0" fill="#FEFFFF" transform="matrix(1.00, 0.00, -0.00, -1.00, 194.6, 143.0)">s</text><text xml:space="preserve" font-family="Helvetica-Light" font-size="35.0" fill="#FEFFFF" transform="matrix(1.00, 0.00, -0.00, -1.00, 212.1, 143.0)"> </text><text xml:space="preserve" font-family="Helvetica-Light" font-size="35.0" fill="#FEFFFF" transform="matrix(1.00, 0.00, -0.00, -1.00, 221.8, 143.0)">i</text><text xml:space="preserve" font-family="Helvetica-Light" font-size="35.0" fill="#FEFFFF" transform="matrix(1.00, 0.00, -0.00, -1.00, 229.6, 143.0)">t</text><text xml:space="preserve" font-family="Helvetica-Light" font-size="35.0" fill="#FEFFFF" transform="matrix(1.00, 0.00, -0.00, -1.00, 239.3, 143.0)"> </text><text xml:space="preserve" font-family="Helvetica-Light" font-size="35.0" fill="#FEFFFF" transform="matrix(1.00, 0.00, -0.00, -1.00, 249.0, 143.0)">u</text><text xml:space="preserve" font-family="Helvetica-Light" font-size="35.0" fill="#FEFFFF" transform="matrix(1.00, 0.00, -0.00, -1.00, 268.5, 143.0)">s</text><text xml:space="preserve" font-family="Helvetica-Light" font-size="35.0" fill="#FEFFFF" transform="matrix(1.00, 0.00, -0.00, -1.00, 286.0, 143.0)">e</text><text xml:space="preserve" font-family="Helvetica-Light" font-size="35.0" fill="#FEFFFF" transform="matrix(1.00, 0.00, -0.00, -1.00, 305.5, 143.0)">f</text><text xml:space="preserve" font-family="Helvetica-Light" font-size="35.0" fill="#FEFFFF" transform="matrix(1.00, 0.00, -0.00, -1.00, 315.2, 143.0)">u</text><text xml:space="preserve" font-family="Helvetica-Light" font-size="35.0" fill="#FEFFFF" transform="matrix(1.00, 0.00, -0.00, -1.00, 334.6, 143.0)">l</text><text xml:space="preserve" font-family="Helvetica-Light" font-size="35.0" fill="#FEFFFF" transform="matrix(1.00, 0.00, -0.00, -1.00, 342.4, 143.0)">?</text><text xml:space="preserve" font-family="Helvetica-Light" font-size="18.0" fill="#FEFFFF" transform="matrix(1.00, 0.00, -0.00, -1.00, 501.0, 18.0)">4</text><text xml:space="preserve" font-family="Helvetica-Light" font-size="18.0" fill="#FEFFFF" transform="matrix(1.00, 0.00, -0.00, -1.00, 511.0, 18.0)">8</text></g></svg>