<?xml version="1.0" encoding="UTF-8" standalone="no"?><svg xmlns="http://www.w3.org/2000/svg" xmlns:xlink="http://www.w3.org/1999/xlink" clip-rule="evenodd" stroke-miterlimit="4.00" viewBox="0 0 1024 768"><desc>SVG generated by Keynote</desc><defs></defs><g transform="matrix(1.00, 0.00, -0.00, -1.00, 0.0, 768.0)"><g><clipPath id="clip-14"><path d="M 0.0 768.0 L 1024.0 768.0 L 1024.0 0.0 L 0.0 0.0 Z M 0.0 768.0 "></path></clipPath><g clip-path="url(#clip-14)"><image xlink:href="../../06DBE9C8-52A0-453A-A7BF-EBF58CF01F35/assets/E7ABA782A15EA3475B4CFCC80A2FEB63.jpeg" width="1024.00" height="768.00" transform="matrix(1.00, 0.00, -0.00, -1.00, 0.0, 768.0)"></image></g></g><text xml:space="preserve" font-family="Helvetica-Light" font-size="80.0" fill="#FEFFFF" transform="matrix(1.00, 0.00, -0.00, -1.00, 93.0, 622.0)">H</text><text xml:space="preserve" font-family="Helvetica-Light" font-size="80.0" fill="#FEFFFF" transform="matrix(1.00, 0.00, -0.00, -1.00, 150.8, 622.0)">i</text><text xml:space="preserve" font-family="Helvetica-Light" font-size="80.0" fill="#FEFFFF" transform="matrix(1.00, 0.00, -0.00, -1.00, 168.5, 622.0)">g</text><text xml:space="preserve" font-family="Helvetica-Light" font-size="80.0" fill="#FEFFFF" transform="matrix(1.00, 0.00, -0.00, -1.00, 217.4, 622.0)">h</text><text xml:space="preserve" font-family="Helvetica-Light" font-size="80.0" fill="#FEFFFF" transform="matrix(1.00, 0.00, -0.00, -1.00, 261.9, 622.0)">e</text><text xml:space="preserve" font-family="Helvetica-Light" font-size="80.0" fill="#FEFFFF" transform="matrix(1.00, 0.00, -0.00, -1.00, 306.4, 622.0)">r</text><text xml:space="preserve" font-family="Helvetica-Light" font-size="80.0" fill="#FEFFFF" transform="matrix(1.00, 0.00, -0.00, -1.00, 333.0, 622.0)"> </text><text xml:space="preserve" font-family="Helvetica-Light" font-size="80.0" fill="#FEFFFF" transform="matrix(1.00, 0.00, -0.00, -1.00, 355.2, 622.0)">O</text><text xml:space="preserve" font-family="Helvetica-Light" font-size="80.0" fill="#FEFFFF" transform="matrix(1.00, 0.00, -0.00, -1.00, 417.5, 622.0)">r</text><text xml:space="preserve" font-family="Helvetica-Light" font-size="80.0" fill="#FEFFFF" transform="matrix(1.00, 0.00, -0.00, -1.00, 442.7, 622.0)">d</text><text xml:space="preserve" font-family="Helvetica-Light" font-size="80.0" fill="#FEFFFF" transform="matrix(1.00, 0.00, -0.00, -1.00, 491.6, 622.0)">e</text><text xml:space="preserve" font-family="Helvetica-Light" font-size="80.0" fill="#FEFFFF" transform="matrix(1.00, 0.00, -0.00, -1.00, 536.0, 622.0)">r</text><text xml:space="preserve" font-family="Helvetica-Light" font-size="80.0" fill="#FEFFFF" transform="matrix(1.00, 0.00, -0.00, -1.00, 562.7, 622.0)"> </text><text xml:space="preserve" font-family="Helvetica-Light" font-size="80.0" fill="#FEFFFF" transform="matrix(1.00, 0.00, -0.00, -1.00, 584.9, 622.0)">F</text><text xml:space="preserve" font-family="Helvetica-Light" font-size="80.0" fill="#FEFFFF" transform="matrix(1.00, 0.00, -0.00, -1.00, 629.4, 622.0)">u</text><text xml:space="preserve" font-family="Helvetica-Light" font-size="80.0" fill="#FEFFFF" transform="matrix(1.00, 0.00, -0.00, -1.00, 673.9, 622.0)">n</text><text xml:space="preserve" font-family="Helvetica-Light" font-size="80.0" fill="#FEFFFF" transform="matrix(1.00, 0.00, -0.00, -1.00, 718.4, 622.0)">c</text><text xml:space="preserve" font-family="Helvetica-Light" font-size="80.0" fill="#FEFFFF" transform="matrix(1.00, 0.00, -0.00, -1.00, 762.8, 622.0)">t</text><text xml:space="preserve" font-family="Helvetica-Light" font-size="80.0" fill="#FEFFFF" transform="matrix(1.00, 0.00, -0.00, -1.00, 785.1, 622.0)">i</text><text xml:space="preserve" font-family="Helvetica-Light" font-size="80.0" fill="#FEFFFF" transform="matrix(1.00, 0.00, -0.00, -1.00, 802.8, 622.0)">o</text><text xml:space="preserve" font-family="Helvetica-Light" font-size="80.0" fill="#FEFFFF" transform="matrix(1.00, 0.00, -0.00, -1.00, 847.3, 622.0)">n</text><text xml:space="preserve" font-family="Helvetica-Light" font-size="80.0" fill="#FEFFFF" transform="matrix(1.00, 0.00, -0.00, -1.00, 891.8, 622.0)">s</text><text xml:space="preserve" font-family="Helvetica-Light" font-size="24.4" fill="#FEFFFF" transform="matrix(1.00, 0.00, -0.00, -1.00, 79.0, 460.6)">•</text><text xml:space="preserve" font-family="Helvetica-Light" font-size="32.5" fill="#FEFFFF" transform="matrix(1.00, 0.00, -0.00, -1.00, 112.0, 458.0)">F</text><text xml:space="preserve" font-family="Helvetica-Light" font-size="32.5" fill="#FEFFFF" transform="matrix(1.00, 0.00, -0.00, -1.00, 130.1, 458.0)">u</text><text xml:space="preserve" font-family="Helvetica-Light" font-size="32.5" fill="#FEFFFF" transform="matrix(1.00, 0.00, -0.00, -1.00, 148.2, 458.0)">n</text><text xml:space="preserve" font-family="Helvetica-Light" font-size="32.5" fill="#FEFFFF" transform="matrix(1.00, 0.00, -0.00, -1.00, 166.3, 458.0)">c</text><text xml:space="preserve" font-family="Helvetica-Light" font-size="32.5" fill="#FEFFFF" transform="matrix(1.00, 0.00, -0.00, -1.00, 184.4, 458.0)">t</text><text xml:space="preserve" font-family="Helvetica-Light" font-size="32.5" fill="#FEFFFF" transform="matrix(1.00, 0.00, -0.00, -1.00, 193.4, 458.0)">i</text><text xml:space="preserve" font-family="Helvetica-Light" font-size="32.5" fill="#FEFFFF" transform="matrix(1.00, 0.00, -0.00, -1.00, 200.7, 458.0)">o</text><text xml:space="preserve" font-family="Helvetica-Light" font-size="32.5" fill="#FEFFFF" transform="matrix(1.00, 0.00, -0.00, -1.00, 218.8, 458.0)">n</text><text xml:space="preserve" font-family="Helvetica-Light" font-size="32.5" fill="#FEFFFF" transform="matrix(1.00, 0.00, -0.00, -1.00, 236.9, 458.0)"> </text><text xml:space="preserve" font-family="Helvetica-Light" font-size="32.5" fill="#FEFFFF" transform="matrix(1.00, 0.00, -0.00, -1.00, 245.9, 458.0)">a</text><text xml:space="preserve" font-family="Helvetica-Light" font-size="32.5" fill="#FEFFFF" transform="matrix(1.00, 0.00, -0.00, -1.00, 264.0, 458.0)">r</text><text xml:space="preserve" font-family="Helvetica-Light" font-size="32.5" fill="#FEFFFF" transform="matrix(1.00, 0.00, -0.00, -1.00, 274.8, 458.0)">g</text><text xml:space="preserve" font-family="Helvetica-Light" font-size="32.5" fill="#FEFFFF" transform="matrix(1.00, 0.00, -0.00, -1.00, 294.7, 458.0)">u</text><text xml:space="preserve" font-family="Helvetica-Light" font-size="32.5" fill="#FEFFFF" transform="matrix(1.00, 0.00, -0.00, -1.00, 312.8, 458.0)">m</text><text xml:space="preserve" font-family="Helvetica-Light" font-size="32.5" fill="#FEFFFF" transform="matrix(1.00, 0.00, -0.00, -1.00, 339.9, 458.0)">e</text><text xml:space="preserve" font-family="Helvetica-Light" font-size="32.5" fill="#FEFFFF" transform="matrix(1.00, 0.00, -0.00, -1.00, 358.0, 458.0)">n</text><text xml:space="preserve" font-family="Helvetica-Light" font-size="32.5" fill="#FEFFFF" transform="matrix(1.00, 0.00, -0.00, -1.00, 376.1, 458.0)">t</text><text xml:space="preserve" font-family="Helvetica-Light" font-size="32.5" fill="#FEFFFF" transform="matrix(1.00, 0.00, -0.00, -1.00, 385.2, 458.0)">s</text><text xml:space="preserve" font-family="Helvetica-Light" font-size="32.5" fill="#FEFFFF" transform="matrix(1.00, 0.00, -0.00, -1.00, 401.5, 458.0)"> </text><text xml:space="preserve" font-family="Helvetica-Light" font-size="32.5" fill="#FEFFFF" transform="matrix(1.00, 0.00, -0.00, -1.00, 410.5, 458.0)">c</text><text xml:space="preserve" font-family="Helvetica-Light" font-size="32.5" fill="#FEFFFF" transform="matrix(1.00, 0.00, -0.00, -1.00, 428.6, 458.0)">a</text><text xml:space="preserve" font-family="Helvetica-Light" font-size="32.5" fill="#FEFFFF" transform="matrix(1.00, 0.00, -0.00, -1.00, 446.7, 458.0)">n</text><text xml:space="preserve" font-family="Helvetica-Light" font-size="32.5" fill="#FEFFFF" transform="matrix(1.00, 0.00, -0.00, -1.00, 464.8, 458.0)"> </text><text xml:space="preserve" font-family="Helvetica-Light" font-size="32.5" fill="#FEFFFF" transform="matrix(1.00, 0.00, -0.00, -1.00, 473.9, 458.0)">b</text><text xml:space="preserve" font-family="Helvetica-Light" font-size="32.5" fill="#FEFFFF" transform="matrix(1.00, 0.00, -0.00, -1.00, 493.7, 458.0)">e</text><text xml:space="preserve" font-family="Helvetica-Light" font-size="32.5" fill="#FEFFFF" transform="matrix(1.00, 0.00, -0.00, -1.00, 511.8, 458.0)"> </text><text xml:space="preserve" font-family="Helvetica-Light" font-size="32.5" fill="#FEFFFF" transform="matrix(1.00, 0.00, -0.00, -1.00, 520.9, 458.0)">o</text><text xml:space="preserve" font-family="Helvetica-Light" font-size="32.5" fill="#FEFFFF" transform="matrix(1.00, 0.00, -0.00, -1.00, 539.0, 458.0)">t</text><text xml:space="preserve" font-family="Helvetica-Light" font-size="32.5" fill="#FEFFFF" transform="matrix(1.00, 0.00, -0.00, -1.00, 548.0, 458.0)">h</text><text xml:space="preserve" font-family="Helvetica-Light" font-size="32.5" fill="#FEFFFF" transform="matrix(1.00, 0.00, -0.00, -1.00, 566.1, 458.0)">e</text><text xml:space="preserve" font-family="Helvetica-Light" font-size="32.5" fill="#FEFFFF" transform="matrix(1.00, 0.00, -0.00, -1.00, 584.2, 458.0)">r</text><text xml:space="preserve" font-family="Helvetica-Light" font-size="32.5" fill="#FEFFFF" transform="matrix(1.00, 0.00, -0.00, -1.00, 595.1, 458.0)"> </text><text xml:space="preserve" font-family="Helvetica-Light" font-size="32.5" fill="#FEFFFF" transform="matrix(1.00, 0.00, -0.00, -1.00, 604.1, 458.0)">f</text><text xml:space="preserve" font-family="Helvetica-Light" font-size="32.5" fill="#FEFFFF" transform="matrix(1.00, 0.00, -0.00, -1.00, 613.2, 458.0)">u</text><text xml:space="preserve" font-family="Helvetica-Light" font-size="32.5" fill="#FEFFFF" transform="matrix(1.00, 0.00, -0.00, -1.00, 631.3, 458.0)">n</text><text xml:space="preserve" font-family="Helvetica-Light" font-size="32.5" fill="#FEFFFF" transform="matrix(1.00, 0.00, -0.00, -1.00, 649.4, 458.0)">c</text><text xml:space="preserve" font-family="Helvetica-Light" font-size="32.5" fill="#FEFFFF" transform="matrix(1.00, 0.00, -0.00, -1.00, 667.5, 458.0)">t</text><text xml:space="preserve" font-family="Helvetica-Light" font-size="32.5" fill="#FEFFFF" transform="matrix(1.00, 0.00, -0.00, -1.00, 676.5, 458.0)">i</text><text xml:space="preserve" font-family="Helvetica-Light" font-size="32.5" fill="#FEFFFF" transform="matrix(1.00, 0.00, -0.00, -1.00, 683.7, 458.0)">o</text><text xml:space="preserve" font-family="Helvetica-Light" font-size="32.5" fill="#FEFFFF" transform="matrix(1.00, 0.00, -0.00, -1.00, 701.8, 458.0)">n</text><text xml:space="preserve" font-family="Helvetica-Light" font-size="32.5" fill="#FEFFFF" transform="matrix(1.00, 0.00, -0.00, -1.00, 719.9, 458.0)">s</text><text xml:space="preserve" font-family="Helvetica-Light" font-size="32.5" fill="#FEFFFF" transform="matrix(1.00, 0.00, -0.00, -1.00, 736.2, 458.0)"> </text><text xml:space="preserve" font-family="Helvetica-Light" font-size="24.4" fill="#FEFFFF" transform="matrix(1.00, 0.00, -0.00, -1.00, 79.0, 383.6)">•</text><text xml:space="preserve" font-family="Helvetica-Light" font-size="32.5" fill="#FEFFFF" transform="matrix(1.00, 0.00, -0.00, -1.00, 112.0, 381.0)">P</text><text xml:space="preserve" font-family="Helvetica-Light" font-size="32.5" fill="#FEFFFF" transform="matrix(1.00, 0.00, -0.00, -1.00, 131.9, 381.0)">a</text><text xml:space="preserve" font-family="Helvetica-Light" font-size="32.5" fill="#FEFFFF" transform="matrix(1.00, 0.00, -0.00, -1.00, 150.0, 381.0)">s</text><text xml:space="preserve" font-family="Helvetica-Light" font-size="32.5" fill="#FEFFFF" transform="matrix(1.00, 0.00, -0.00, -1.00, 166.3, 381.0)">s</text><text xml:space="preserve" font-family="Helvetica-Light" font-size="32.5" fill="#FEFFFF" transform="matrix(1.00, 0.00, -0.00, -1.00, 182.5, 381.0)"> </text><text xml:space="preserve" font-family="Helvetica-Light" font-size="32.5" fill="#FEFFFF" transform="matrix(1.00, 0.00, -0.00, -1.00, 191.6, 381.0)">i</text><text xml:space="preserve" font-family="Helvetica-Light" font-size="32.5" fill="#FEFFFF" transform="matrix(1.00, 0.00, -0.00, -1.00, 198.8, 381.0)">n</text><text xml:space="preserve" font-family="Helvetica-Light" font-size="32.5" fill="#FEFFFF" transform="matrix(1.00, 0.00, -0.00, -1.00, 216.9, 381.0)"> </text><text xml:space="preserve" font-family="Helvetica-Light" font-size="32.5" fill="#FEFFFF" transform="matrix(1.00, 0.00, -0.00, -1.00, 226.0, 381.0)">t</text><text xml:space="preserve" font-family="Helvetica-Light" font-size="32.5" fill="#FEFFFF" transform="matrix(1.00, 0.00, -0.00, -1.00, 235.0, 381.0)">h</text><text xml:space="preserve" font-family="Helvetica-Light" font-size="32.5" fill="#FEFFFF" transform="matrix(1.00, 0.00, -0.00, -1.00, 253.1, 381.0)">e</text><text xml:space="preserve" font-family="Helvetica-Light" font-size="32.5" fill="#FEFFFF" transform="matrix(1.00, 0.00, -0.00, -1.00, 271.2, 381.0)"> </text><text xml:space="preserve" font-family="Helvetica-Light" font-size="32.5" fill="#FEFFFF" transform="matrix(1.00, 0.00, -0.00, -1.00, 280.3, 381.0)">n</text><text xml:space="preserve" font-family="Helvetica-Light" font-size="32.5" fill="#FEFFFF" transform="matrix(1.00, 0.00, -0.00, -1.00, 298.3, 381.0)">a</text><text xml:space="preserve" font-family="Helvetica-Light" font-size="32.5" fill="#FEFFFF" transform="matrix(1.00, 0.00, -0.00, -1.00, 316.4, 381.0)">m</text><text xml:space="preserve" font-family="Helvetica-Light" font-size="32.5" fill="#FEFFFF" transform="matrix(1.00, 0.00, -0.00, -1.00, 343.6, 381.0)">e</text><text xml:space="preserve" font-family="Helvetica-Light" font-size="32.5" fill="#FEFFFF" transform="matrix(1.00, 0.00, -0.00, -1.00, 361.7, 381.0)"> </text><text xml:space="preserve" font-family="Helvetica-Light" font-size="32.5" fill="#FEFFFF" transform="matrix(1.00, 0.00, -0.00, -1.00, 370.7, 381.0)">o</text><text xml:space="preserve" font-family="Helvetica-Light" font-size="32.5" fill="#FEFFFF" transform="matrix(1.00, 0.00, -0.00, -1.00, 388.8, 381.0)">f</text><text xml:space="preserve" font-family="Helvetica-Light" font-size="32.5" fill="#FEFFFF" transform="matrix(1.00, 0.00, -0.00, -1.00, 397.9, 381.0)"> </text><text xml:space="preserve" font-family="Helvetica-Light" font-size="32.5" fill="#FEFFFF" transform="matrix(1.00, 0.00, -0.00, -1.00, 406.9, 381.0)">t</text><text xml:space="preserve" font-family="Helvetica-Light" font-size="32.5" fill="#FEFFFF" transform="matrix(1.00, 0.00, -0.00, -1.00, 416.0, 381.0)">h</text><text xml:space="preserve" font-family="Helvetica-Light" font-size="32.5" fill="#FEFFFF" transform="matrix(1.00, 0.00, -0.00, -1.00, 434.0, 381.0)">e</text><text xml:space="preserve" font-family="Helvetica-Light" font-size="32.5" fill="#FEFFFF" transform="matrix(1.00, 0.00, -0.00, -1.00, 452.1, 381.0)"> </text><text xml:space="preserve" font-family="Helvetica-Light" font-size="32.5" fill="#FEFFFF" transform="matrix(1.00, 0.00, -0.00, -1.00, 461.2, 381.0)">f</text><text xml:space="preserve" font-family="Helvetica-Light" font-size="32.5" fill="#FEFFFF" transform="matrix(1.00, 0.00, -0.00, -1.00, 470.2, 381.0)">u</text><text xml:space="preserve" font-family="Helvetica-Light" font-size="32.5" fill="#FEFFFF" transform="matrix(1.00, 0.00, -0.00, -1.00, 488.3, 381.0)">n</text><text xml:space="preserve" font-family="Helvetica-Light" font-size="32.5" fill="#FEFFFF" transform="matrix(1.00, 0.00, -0.00, -1.00, 506.4, 381.0)">c</text><text xml:space="preserve" font-family="Helvetica-Light" font-size="32.5" fill="#FEFFFF" transform="matrix(1.00, 0.00, -0.00, -1.00, 524.5, 381.0)">t</text><text xml:space="preserve" font-family="Helvetica-Light" font-size="32.5" fill="#FEFFFF" transform="matrix(1.00, 0.00, -0.00, -1.00, 533.6, 381.0)">i</text><text xml:space="preserve" font-family="Helvetica-Light" font-size="32.5" fill="#FEFFFF" transform="matrix(1.00, 0.00, -0.00, -1.00, 540.8, 381.0)">o</text><text xml:space="preserve" font-family="Helvetica-Light" font-size="32.5" fill="#FEFFFF" transform="matrix(1.00, 0.00, -0.00, -1.00, 558.9, 381.0)">n</text><text xml:space="preserve" font-family="Helvetica-Light" font-size="32.5" fill="#FEFFFF" transform="matrix(1.00, 0.00, -0.00, -1.00, 577.0, 381.0)"> </text><text xml:space="preserve" font-family="Helvetica-Light" font-size="24.4" fill="#FEFFFF" transform="matrix(1.00, 0.00, -0.00, -1.00, 115.0, 306.5)">•</text><text xml:space="preserve" font-family="Helvetica-Light" font-size="32.5" fill="#FEFFFF" transform="matrix(1.00, 0.00, -0.00, -1.00, 148.0, 304.0)">D</text><text xml:space="preserve" font-family="Helvetica-Light" font-size="32.5" fill="#FEFFFF" transform="matrix(1.00, 0.00, -0.00, -1.00, 171.5, 304.0)">o</text><text xml:space="preserve" font-family="Helvetica-Light" font-size="32.5" fill="#FEFFFF" transform="matrix(1.00, 0.00, -0.00, -1.00, 189.6, 304.0)">n</text><text xml:space="preserve" font-family="Helvetica-Light" font-size="32.5" fill="#FEFFFF" transform="matrix(1.00, 0.00, -0.00, -1.00, 207.7, 304.0)">’</text><text xml:space="preserve" font-family="Helvetica-Light" font-size="32.5" fill="#FEFFFF" transform="matrix(1.00, 0.00, -0.00, -1.00, 214.3, 304.0)">t</text><text xml:space="preserve" font-family="Helvetica-Light" font-size="32.5" fill="#FEFFFF" transform="matrix(1.00, 0.00, -0.00, -1.00, 223.4, 304.0)"> </text><text xml:space="preserve" font-family="Helvetica-Light" font-size="32.5" fill="#FEFFFF" transform="matrix(1.00, 0.00, -0.00, -1.00, 232.4, 304.0)">m</text><text xml:space="preserve" font-family="Helvetica-Light" font-size="32.5" fill="#FEFFFF" transform="matrix(1.00, 0.00, -0.00, -1.00, 259.5, 304.0)">a</text><text xml:space="preserve" font-family="Helvetica-Light" font-size="32.5" fill="#FEFFFF" transform="matrix(1.00, 0.00, -0.00, -1.00, 277.6, 304.0)">k</text><text xml:space="preserve" font-family="Helvetica-Light" font-size="32.5" fill="#FEFFFF" transform="matrix(1.00, 0.00, -0.00, -1.00, 293.9, 304.0)">e</text><text xml:space="preserve" font-family="Helvetica-Light" font-size="32.5" fill="#FEFFFF" transform="matrix(1.00, 0.00, -0.00, -1.00, 312.0, 304.0)"> </text><text xml:space="preserve" font-family="Helvetica-Light" font-size="32.5" fill="#FEFFFF" transform="matrix(1.00, 0.00, -0.00, -1.00, 321.1, 304.0)">a</text><text xml:space="preserve" font-family="Helvetica-Light" font-size="32.5" fill="#FEFFFF" transform="matrix(1.00, 0.00, -0.00, -1.00, 339.2, 304.0)"> </text><text xml:space="preserve" font-family="Helvetica-Light" font-size="32.5" fill="#FEFFFF" transform="matrix(1.00, 0.00, -0.00, -1.00, 348.2, 304.0)">f</text><text xml:space="preserve" font-family="Helvetica-Light" font-size="32.5" fill="#FEFFFF" transform="matrix(1.00, 0.00, -0.00, -1.00, 357.3, 304.0)">u</text><text xml:space="preserve" font-family="Helvetica-Light" font-size="32.5" fill="#FEFFFF" transform="matrix(1.00, 0.00, -0.00, -1.00, 375.4, 304.0)">n</text><text xml:space="preserve" font-family="Helvetica-Light" font-size="32.5" fill="#FEFFFF" transform="matrix(1.00, 0.00, -0.00, -1.00, 393.5, 304.0)">c</text><text xml:space="preserve" font-family="Helvetica-Light" font-size="32.5" fill="#FEFFFF" transform="matrix(1.00, 0.00, -0.00, -1.00, 411.6, 304.0)">t</text><text xml:space="preserve" font-family="Helvetica-Light" font-size="32.5" fill="#FEFFFF" transform="matrix(1.00, 0.00, -0.00, -1.00, 420.6, 304.0)">i</text><text xml:space="preserve" font-family="Helvetica-Light" font-size="32.5" fill="#FEFFFF" transform="matrix(1.00, 0.00, -0.00, -1.00, 427.8, 304.0)">o</text><text xml:space="preserve" font-family="Helvetica-Light" font-size="32.5" fill="#FEFFFF" transform="matrix(1.00, 0.00, -0.00, -1.00, 445.9, 304.0)">n</text><text xml:space="preserve" font-family="Helvetica-Light" font-size="32.5" fill="#FEFFFF" transform="matrix(1.00, 0.00, -0.00, -1.00, 464.0, 304.0)"> </text><text xml:space="preserve" font-family="Helvetica-Light" font-size="32.5" fill="#FEFFFF" transform="matrix(1.00, 0.00, -0.00, -1.00, 473.1, 304.0)">c</text><text xml:space="preserve" font-family="Helvetica-Light" font-size="32.5" fill="#FEFFFF" transform="matrix(1.00, 0.00, -0.00, -1.00, 491.2, 304.0)">a</text><text xml:space="preserve" font-family="Helvetica-Light" font-size="32.5" fill="#FEFFFF" transform="matrix(1.00, 0.00, -0.00, -1.00, 509.3, 304.0)">l</text><text xml:space="preserve" font-family="Helvetica-Light" font-size="32.5" fill="#FEFFFF" transform="matrix(1.00, 0.00, -0.00, -1.00, 516.5, 304.0)">l</text><text xml:space="preserve" font-family="Helvetica-Light" font-size="32.5" fill="#FEFFFF" transform="matrix(1.00, 0.00, -0.00, -1.00, 523.7, 304.0)"> </text><text xml:space="preserve" font-family="Helvetica-Light" font-size="32.5" fill="#FEFFFF" transform="matrix(1.00, 0.00, -0.00, -1.00, 532.8, 304.0)">(</text><text xml:space="preserve" font-family="Helvetica-Light" font-size="32.5" fill="#FEFFFF" transform="matrix(1.00, 0.00, -0.00, -1.00, 543.6, 304.0)">D</text><text xml:space="preserve" font-family="Helvetica-Light" font-size="32.5" fill="#FEFFFF" transform="matrix(1.00, 0.00, -0.00, -1.00, 567.1, 304.0)">e</text><text xml:space="preserve" font-family="Helvetica-Light" font-size="32.5" fill="#FEFFFF" transform="matrix(1.00, 0.00, -0.00, -1.00, 585.2, 304.0)">m</text><text xml:space="preserve" font-family="Helvetica-Light" font-size="32.5" fill="#FEFFFF" transform="matrix(1.00, 0.00, -0.00, -1.00, 612.3, 304.0)">o</text><text xml:space="preserve" font-family="Helvetica-Light" font-size="32.5" fill="#FEFFFF" transform="matrix(1.00, 0.00, -0.00, -1.00, 630.4, 304.0)">)</text></g></svg>