<?xml version="1.0" encoding="UTF-8" standalone="no"?><svg xmlns="http://www.w3.org/2000/svg" xmlns:xlink="http://www.w3.org/1999/xlink" clip-rule="evenodd" stroke-miterlimit="4.00" viewBox="0 0 1024 768"><desc>SVG generated by Keynote</desc><defs></defs><g transform="matrix(1.00, 0.00, -0.00, -1.00, 0.0, 768.0)"><g><clipPath id="clip-163"><path d="M 0.0 768.0 L 1024.0 768.0 L 1024.0 0.0 L 0.0 0.0 Z M 0.0 768.0 "></path></clipPath><g clip-path="url(#clip-163)"><image xlink:href="../../06DBE9C8-52A0-453A-A7BF-EBF58CF01F35/assets/E7ABA782A15EA3475B4CFCC80A2FEB63.jpeg" width="1024.00" height="768.00" transform="matrix(1.00, 0.00, -0.00, -1.00, 0.0, 768.0)"></image></g></g><text xml:space="preserve" font-family="Helvetica-Light" font-size="80.0" fill="#FEFFFF" transform="matrix(1.00, 0.00, -0.00, -1.00, 155.0, 622.0)">L</text><text xml:space="preserve" font-family="Helvetica-Light" font-size="80.0" fill="#FEFFFF" transform="matrix(1.00, 0.00, -0.00, -1.00, 199.5, 622.0)">i</text><text xml:space="preserve" font-family="Helvetica-Light" font-size="80.0" fill="#FEFFFF" transform="matrix(1.00, 0.00, -0.00, -1.00, 217.2, 622.0)">s</text><text xml:space="preserve" font-family="Helvetica-Light" font-size="80.0" fill="#FEFFFF" transform="matrix(1.00, 0.00, -0.00, -1.00, 257.2, 622.0)">t</text><text xml:space="preserve" font-family="Helvetica-Light" font-size="80.0" fill="#FEFFFF" transform="matrix(1.00, 0.00, -0.00, -1.00, 279.5, 622.0)"> </text><text xml:space="preserve" font-family="Helvetica-Light" font-size="80.0" fill="#FEFFFF" transform="matrix(1.00, 0.00, -0.00, -1.00, 301.7, 622.0)">C</text><text xml:space="preserve" font-family="Helvetica-Light" font-size="80.0" fill="#FEFFFF" transform="matrix(1.00, 0.00, -0.00, -1.00, 359.5, 622.0)">o</text><text xml:space="preserve" font-family="Helvetica-Light" font-size="80.0" fill="#FEFFFF" transform="matrix(1.00, 0.00, -0.00, -1.00, 404.0, 622.0)">m</text><text xml:space="preserve" font-family="Helvetica-Light" font-size="80.0" fill="#FEFFFF" transform="matrix(1.00, 0.00, -0.00, -1.00, 470.6, 622.0)">p</text><text xml:space="preserve" font-family="Helvetica-Light" font-size="80.0" fill="#FEFFFF" transform="matrix(1.00, 0.00, -0.00, -1.00, 519.5, 622.0)">r</text><text xml:space="preserve" font-family="Helvetica-Light" font-size="80.0" fill="#FEFFFF" transform="matrix(1.00, 0.00, -0.00, -1.00, 544.7, 622.0)">e</text><text xml:space="preserve" font-family="Helvetica-Light" font-size="80.0" fill="#FEFFFF" transform="matrix(1.00, 0.00, -0.00, -1.00, 589.2, 622.0)">h</text><text xml:space="preserve" font-family="Helvetica-Light" font-size="80.0" fill="#FEFFFF" transform="matrix(1.00, 0.00, -0.00, -1.00, 633.6, 622.0)">e</text><text xml:space="preserve" font-family="Helvetica-Light" font-size="80.0" fill="#FEFFFF" transform="matrix(1.00, 0.00, -0.00, -1.00, 678.1, 622.0)">n</text><text xml:space="preserve" font-family="Helvetica-Light" font-size="80.0" fill="#FEFFFF" transform="matrix(1.00, 0.00, -0.00, -1.00, 722.6, 622.0)">s</text><text xml:space="preserve" font-family="Helvetica-Light" font-size="80.0" fill="#FEFFFF" transform="matrix(1.00, 0.00, -0.00, -1.00, 762.6, 622.0)">i</text><text xml:space="preserve" font-family="Helvetica-Light" font-size="80.0" fill="#FEFFFF" transform="matrix(1.00, 0.00, -0.00, -1.00, 780.4, 622.0)">o</text><text xml:space="preserve" font-family="Helvetica-Light" font-size="80.0" fill="#FEFFFF" transform="matrix(1.00, 0.00, -0.00, -1.00, 824.8, 622.0)">n</text><text xml:space="preserve" font-family="Helvetica-Light" font-size="26.2" fill="#FEFFFF" transform="matrix(1.00, 0.00, -0.00, -1.00, 69.8, 545.5)">•</text><text xml:space="preserve" font-family="Helvetica-Light" font-size="35.0" fill="#FEFFFF" transform="matrix(1.00, 0.00, -0.00, -1.00, 109.0, 542.0)">C</text><text xml:space="preserve" font-family="Helvetica-Light" font-size="35.0" fill="#FEFFFF" transform="matrix(1.00, 0.00, -0.00, -1.00, 134.3, 542.0)">o</text><text xml:space="preserve" font-family="Helvetica-Light" font-size="35.0" fill="#FEFFFF" transform="matrix(1.00, 0.00, -0.00, -1.00, 153.7, 542.0)">m</text><text xml:space="preserve" font-family="Helvetica-Light" font-size="35.0" fill="#FEFFFF" transform="matrix(1.00, 0.00, -0.00, -1.00, 182.9, 542.0)">p</text><text xml:space="preserve" font-family="Helvetica-Light" font-size="35.0" fill="#FEFFFF" transform="matrix(1.00, 0.00, -0.00, -1.00, 204.3, 542.0)">a</text><text xml:space="preserve" font-family="Helvetica-Light" font-size="35.0" fill="#FEFFFF" transform="matrix(1.00, 0.00, -0.00, -1.00, 223.7, 542.0)">c</text><text xml:space="preserve" font-family="Helvetica-Light" font-size="35.0" fill="#FEFFFF" transform="matrix(1.00, 0.00, -0.00, -1.00, 243.2, 542.0)">t</text><text xml:space="preserve" font-family="Helvetica-Light" font-size="35.0" fill="#FEFFFF" transform="matrix(1.00, 0.00, -0.00, -1.00, 252.9, 542.0)"> </text><text xml:space="preserve" font-family="Helvetica-Light" font-size="35.0" fill="#FEFFFF" transform="matrix(1.00, 0.00, -0.00, -1.00, 262.6, 542.0)">w</text><text xml:space="preserve" font-family="Helvetica-Light" font-size="35.0" fill="#FEFFFF" transform="matrix(1.00, 0.00, -0.00, -1.00, 287.9, 542.0)">a</text><text xml:space="preserve" font-family="Helvetica-Light" font-size="35.0" fill="#FEFFFF" transform="matrix(1.00, 0.00, -0.00, -1.00, 307.4, 542.0)">y</text><text xml:space="preserve" font-family="Helvetica-Light" font-size="35.0" fill="#FEFFFF" transform="matrix(1.00, 0.00, -0.00, -1.00, 324.9, 542.0)"> </text><text xml:space="preserve" font-family="Helvetica-Light" font-size="35.0" fill="#FEFFFF" transform="matrix(1.00, 0.00, -0.00, -1.00, 334.6, 542.0)">t</text><text xml:space="preserve" font-family="Helvetica-Light" font-size="35.0" fill="#FEFFFF" transform="matrix(1.00, 0.00, -0.00, -1.00, 344.3, 542.0)">o</text><text xml:space="preserve" font-family="Helvetica-Light" font-size="35.0" fill="#FEFFFF" transform="matrix(1.00, 0.00, -0.00, -1.00, 363.8, 542.0)"> </text><text xml:space="preserve" font-family="Helvetica-Light" font-size="35.0" fill="#FEFFFF" transform="matrix(1.00, 0.00, -0.00, -1.00, 373.5, 542.0)">c</text><text xml:space="preserve" font-family="Helvetica-Light" font-size="35.0" fill="#FEFFFF" transform="matrix(1.00, 0.00, -0.00, -1.00, 393.0, 542.0)">r</text><text xml:space="preserve" font-family="Helvetica-Light" font-size="35.0" fill="#FEFFFF" transform="matrix(1.00, 0.00, -0.00, -1.00, 404.0, 542.0)">e</text><text xml:space="preserve" font-family="Helvetica-Light" font-size="35.0" fill="#FEFFFF" transform="matrix(1.00, 0.00, -0.00, -1.00, 423.5, 542.0)">a</text><text xml:space="preserve" font-family="Helvetica-Light" font-size="35.0" fill="#FEFFFF" transform="matrix(1.00, 0.00, -0.00, -1.00, 442.9, 542.0)">t</text><text xml:space="preserve" font-family="Helvetica-Light" font-size="35.0" fill="#FEFFFF" transform="matrix(1.00, 0.00, -0.00, -1.00, 452.7, 542.0)">e</text><text xml:space="preserve" font-family="Helvetica-Light" font-size="35.0" fill="#FEFFFF" transform="matrix(1.00, 0.00, -0.00, -1.00, 472.1, 542.0)"> </text><text xml:space="preserve" font-family="Helvetica-Light" font-size="35.0" fill="#FEFFFF" transform="matrix(1.00, 0.00, -0.00, -1.00, 481.9, 542.0)">a</text><text xml:space="preserve" font-family="Helvetica-Light" font-size="35.0" fill="#FEFFFF" transform="matrix(1.00, 0.00, -0.00, -1.00, 501.3, 542.0)"> </text><text xml:space="preserve" font-family="Helvetica-Light" font-size="35.0" fill="#FEFFFF" transform="matrix(1.00, 0.00, -0.00, -1.00, 511.0, 542.0)">l</text><text xml:space="preserve" font-family="Helvetica-Light" font-size="35.0" fill="#FEFFFF" transform="matrix(1.00, 0.00, -0.00, -1.00, 518.8, 542.0)">i</text><text xml:space="preserve" font-family="Helvetica-Light" font-size="35.0" fill="#FEFFFF" transform="matrix(1.00, 0.00, -0.00, -1.00, 526.6, 542.0)">s</text><text xml:space="preserve" font-family="Helvetica-Light" font-size="35.0" fill="#FEFFFF" transform="matrix(1.00, 0.00, -0.00, -1.00, 544.1, 542.0)">t</text><text xml:space="preserve" font-family="Helvetica-Light" font-size="35.0" fill="#FEFFFF" transform="matrix(1.00, 0.00, -0.00, -1.00, 553.8, 542.0)"> </text><text xml:space="preserve" font-family="Helvetica-Light" font-size="26.2" fill="#FEFFFF" transform="matrix(1.00, 0.00, -0.00, -1.00, 69.8, 461.5)">•</text><text xml:space="preserve" font-family="Helvetica-Light" font-size="35.0" fill="#FEFFFF" transform="matrix(1.00, 0.00, -0.00, -1.00, 109.0, 458.0)">[</text><text xml:space="preserve" font-family="Helvetica-Light" font-size="35.0" fill="#FEFFFF" transform="matrix(1.00, 0.00, -0.00, -1.00, 120.7, 458.0)">&lt;</text><text xml:space="preserve" font-family="Helvetica-Light" font-size="35.0" fill="#FEFFFF" transform="matrix(1.00, 0.00, -0.00, -1.00, 143.8, 458.0)">m</text><text xml:space="preserve" font-family="Helvetica-Light" font-size="35.0" fill="#FEFFFF" transform="matrix(1.00, 0.00, -0.00, -1.00, 172.9, 458.0)">a</text><text xml:space="preserve" font-family="Helvetica-Light" font-size="35.0" fill="#FEFFFF" transform="matrix(1.00, 0.00, -0.00, -1.00, 192.4, 458.0)">p</text><text xml:space="preserve" font-family="Helvetica-Light" font-size="35.0" fill="#FEFFFF" transform="matrix(1.00, 0.00, -0.00, -1.00, 213.8, 458.0)"> </text><text xml:space="preserve" font-family="Helvetica-Light" font-size="35.0" fill="#FEFFFF" transform="matrix(1.00, 0.00, -0.00, -1.00, 223.5, 458.0)">e</text><text xml:space="preserve" font-family="Helvetica-Light" font-size="35.0" fill="#FEFFFF" transform="matrix(1.00, 0.00, -0.00, -1.00, 242.9, 458.0)">x</text><text xml:space="preserve" font-family="Helvetica-Light" font-size="35.0" fill="#FEFFFF" transform="matrix(1.00, 0.00, -0.00, -1.00, 260.4, 458.0)">p</text><text xml:space="preserve" font-family="Helvetica-Light" font-size="35.0" fill="#FEFFFF" transform="matrix(1.00, 0.00, -0.00, -1.00, 281.8, 458.0)">&gt;</text><text xml:space="preserve" font-family="Helvetica-Light" font-size="35.0" fill="#FEFFFF" transform="matrix(1.00, 0.00, -0.00, -1.00, 304.9, 458.0)"> </text><text xml:space="preserve" font-family="Helvetica-Light" font-size="35.0" fill="#FEFFFF" transform="matrix(1.00, 0.00, -0.00, -1.00, 314.7, 458.0)">f</text><text xml:space="preserve" font-family="Helvetica-Light" font-size="35.0" fill="#FEFFFF" transform="matrix(1.00, 0.00, -0.00, -1.00, 324.4, 458.0)">o</text><text xml:space="preserve" font-family="Helvetica-Light" font-size="35.0" fill="#FEFFFF" transform="matrix(1.00, 0.00, -0.00, -1.00, 343.9, 458.0)">r</text><text xml:space="preserve" font-family="Helvetica-Light" font-size="35.0" fill="#FEFFFF" transform="matrix(1.00, 0.00, -0.00, -1.00, 355.5, 458.0)"> </text><text xml:space="preserve" font-family="Helvetica-Light" font-size="35.0" fill="#FEFFFF" transform="matrix(1.00, 0.00, -0.00, -1.00, 365.2, 458.0)">&lt;</text><text xml:space="preserve" font-family="Helvetica-Light" font-size="35.0" fill="#FEFFFF" transform="matrix(1.00, 0.00, -0.00, -1.00, 388.3, 458.0)">n</text><text xml:space="preserve" font-family="Helvetica-Light" font-size="35.0" fill="#FEFFFF" transform="matrix(1.00, 0.00, -0.00, -1.00, 407.8, 458.0)">a</text><text xml:space="preserve" font-family="Helvetica-Light" font-size="35.0" fill="#FEFFFF" transform="matrix(1.00, 0.00, -0.00, -1.00, 427.3, 458.0)">m</text><text xml:space="preserve" font-family="Helvetica-Light" font-size="35.0" fill="#FEFFFF" transform="matrix(1.00, 0.00, -0.00, -1.00, 456.4, 458.0)">e</text><text xml:space="preserve" font-family="Helvetica-Light" font-size="35.0" fill="#FEFFFF" transform="matrix(1.00, 0.00, -0.00, -1.00, 475.9, 458.0)">&gt;</text><text xml:space="preserve" font-family="Helvetica-Light" font-size="35.0" fill="#FEFFFF" transform="matrix(1.00, 0.00, -0.00, -1.00, 499.0, 458.0)"> </text><text xml:space="preserve" font-family="Helvetica-Light" font-size="35.0" fill="#FEFFFF" transform="matrix(1.00, 0.00, -0.00, -1.00, 508.7, 458.0)">i</text><text xml:space="preserve" font-family="Helvetica-Light" font-size="35.0" fill="#FEFFFF" transform="matrix(1.00, 0.00, -0.00, -1.00, 516.5, 458.0)">n</text><text xml:space="preserve" font-family="Helvetica-Light" font-size="35.0" fill="#FEFFFF" transform="matrix(1.00, 0.00, -0.00, -1.00, 535.9, 458.0)"> </text><text xml:space="preserve" font-family="Helvetica-Light" font-size="35.0" fill="#FEFFFF" transform="matrix(1.00, 0.00, -0.00, -1.00, 545.7, 458.0)">&lt;</text><text xml:space="preserve" font-family="Helvetica-Light" font-size="35.0" fill="#FEFFFF" transform="matrix(1.00, 0.00, -0.00, -1.00, 568.8, 458.0)">i</text><text xml:space="preserve" font-family="Helvetica-Light" font-size="35.0" fill="#FEFFFF" transform="matrix(1.00, 0.00, -0.00, -1.00, 576.5, 458.0)">t</text><text xml:space="preserve" font-family="Helvetica-Light" font-size="35.0" fill="#FEFFFF" transform="matrix(1.00, 0.00, -0.00, -1.00, 586.3, 458.0)">e</text><text xml:space="preserve" font-family="Helvetica-Light" font-size="35.0" fill="#FEFFFF" transform="matrix(1.00, 0.00, -0.00, -1.00, 605.7, 458.0)">r</text><text xml:space="preserve" font-family="Helvetica-Light" font-size="35.0" fill="#FEFFFF" transform="matrix(1.00, 0.00, -0.00, -1.00, 617.4, 458.0)"> </text><text xml:space="preserve" font-family="Helvetica-Light" font-size="35.0" fill="#FEFFFF" transform="matrix(1.00, 0.00, -0.00, -1.00, 627.1, 458.0)">e</text><text xml:space="preserve" font-family="Helvetica-Light" font-size="35.0" fill="#FEFFFF" transform="matrix(1.00, 0.00, -0.00, -1.00, 646.6, 458.0)">x</text><text xml:space="preserve" font-family="Helvetica-Light" font-size="35.0" fill="#FEFFFF" transform="matrix(1.00, 0.00, -0.00, -1.00, 664.1, 458.0)">p</text><text xml:space="preserve" font-family="Helvetica-Light" font-size="35.0" fill="#FEFFFF" transform="matrix(1.00, 0.00, -0.00, -1.00, 685.5, 458.0)">&gt;</text><text xml:space="preserve" font-family="Helvetica-Light" font-size="35.0" fill="#FEFFFF" transform="matrix(1.00, 0.00, -0.00, -1.00, 708.6, 458.0)"> </text><text xml:space="preserve" font-family="Helvetica-Light" font-size="35.0" fill="#FEFFFF" transform="matrix(1.00, 0.00, -0.00, -1.00, 718.3, 458.0)">i</text><text xml:space="preserve" font-family="Helvetica-Light" font-size="35.0" fill="#FEFFFF" transform="matrix(1.00, 0.00, -0.00, -1.00, 726.1, 458.0)">f</text><text xml:space="preserve" font-family="Helvetica-Light" font-size="35.0" fill="#FEFFFF" transform="matrix(1.00, 0.00, -0.00, -1.00, 735.8, 458.0)"> </text><text xml:space="preserve" font-family="Helvetica-Light" font-size="35.0" fill="#FEFFFF" transform="matrix(1.00, 0.00, -0.00, -1.00, 745.5, 458.0)">&lt;</text><text xml:space="preserve" font-family="Helvetica-Light" font-size="35.0" fill="#FEFFFF" transform="matrix(1.00, 0.00, -0.00, -1.00, 768.6, 458.0)">ﬁ</text><text xml:space="preserve" font-family="Helvetica-Light" font-size="35.0" fill="#FEFFFF" transform="matrix(1.00, 0.00, -0.00, -1.00, 786.1, 458.0)">l</text><text xml:space="preserve" font-family="Helvetica-Light" font-size="35.0" fill="#FEFFFF" transform="matrix(1.00, 0.00, -0.00, -1.00, 793.9, 458.0)">t</text><text xml:space="preserve" font-family="Helvetica-Light" font-size="35.0" fill="#FEFFFF" transform="matrix(1.00, 0.00, -0.00, -1.00, 803.6, 458.0)">e</text><text xml:space="preserve" font-family="Helvetica-Light" font-size="35.0" fill="#FEFFFF" transform="matrix(1.00, 0.00, -0.00, -1.00, 823.1, 458.0)">r</text><text xml:space="preserve" font-family="Helvetica-Light" font-size="35.0" fill="#FEFFFF" transform="matrix(1.00, 0.00, -0.00, -1.00, 834.7, 458.0)"> </text><text xml:space="preserve" font-family="Helvetica-Light" font-size="35.0" fill="#FEFFFF" transform="matrix(1.00, 0.00, -0.00, -1.00, 844.5, 458.0)">e</text><text xml:space="preserve" font-family="Helvetica-Light" font-size="35.0" fill="#FEFFFF" transform="matrix(1.00, 0.00, -0.00, -1.00, 863.9, 458.0)">x</text><text xml:space="preserve" font-family="Helvetica-Light" font-size="35.0" fill="#FEFFFF" transform="matrix(1.00, 0.00, -0.00, -1.00, 881.4, 458.0)">p</text><text xml:space="preserve" font-family="Helvetica-Light" font-size="35.0" fill="#FEFFFF" transform="matrix(1.00, 0.00, -0.00, -1.00, 902.8, 458.0)">&gt;</text><text xml:space="preserve" font-family="Helvetica-Light" font-size="35.0" fill="#FEFFFF" transform="matrix(1.00, 0.00, -0.00, -1.00, 925.9, 458.0)">]</text><text xml:space="preserve" font-family="Helvetica-Light" font-size="35.0" fill="#FEFFFF" transform="matrix(1.00, 0.00, -0.00, -1.00, 937.6, 458.0)"> </text><text xml:space="preserve" font-family="Helvetica-Light" font-size="26.2" fill="#FEFFFF" transform="matrix(1.00, 0.00, -0.00, -1.00, 69.8, 377.5)">•</text><text xml:space="preserve" font-family="Helvetica-Light" font-size="35.0" fill="#FEFFFF" transform="matrix(1.00, 0.00, -0.00, -1.00, 109.0, 374.0)">i</text><text xml:space="preserve" font-family="Helvetica-Light" font-size="35.0" fill="#FEFFFF" transform="matrix(1.00, 0.00, -0.00, -1.00, 116.8, 374.0)">f</text><text xml:space="preserve" font-family="Helvetica-Light" font-size="35.0" fill="#FEFFFF" transform="matrix(1.00, 0.00, -0.00, -1.00, 126.5, 374.0)"> </text><text xml:space="preserve" font-family="Helvetica-Light" font-size="35.0" fill="#FEFFFF" transform="matrix(1.00, 0.00, -0.00, -1.00, 136.2, 374.0)">c</text><text xml:space="preserve" font-family="Helvetica-Light" font-size="35.0" fill="#FEFFFF" transform="matrix(1.00, 0.00, -0.00, -1.00, 155.7, 374.0)">l</text><text xml:space="preserve" font-family="Helvetica-Light" font-size="35.0" fill="#FEFFFF" transform="matrix(1.00, 0.00, -0.00, -1.00, 163.5, 374.0)">a</text><text xml:space="preserve" font-family="Helvetica-Light" font-size="35.0" fill="#FEFFFF" transform="matrix(1.00, 0.00, -0.00, -1.00, 182.9, 374.0)">u</text><text xml:space="preserve" font-family="Helvetica-Light" font-size="35.0" fill="#FEFFFF" transform="matrix(1.00, 0.00, -0.00, -1.00, 202.4, 374.0)">s</text><text xml:space="preserve" font-family="Helvetica-Light" font-size="35.0" fill="#FEFFFF" transform="matrix(1.00, 0.00, -0.00, -1.00, 219.9, 374.0)">e</text><text xml:space="preserve" font-family="Helvetica-Light" font-size="35.0" fill="#FEFFFF" transform="matrix(1.00, 0.00, -0.00, -1.00, 239.3, 374.0)"> </text><text xml:space="preserve" font-family="Helvetica-Light" font-size="35.0" fill="#FEFFFF" transform="matrix(1.00, 0.00, -0.00, -1.00, 249.1, 374.0)">i</text><text xml:space="preserve" font-family="Helvetica-Light" font-size="35.0" fill="#FEFFFF" transform="matrix(1.00, 0.00, -0.00, -1.00, 256.8, 374.0)">s</text><text xml:space="preserve" font-family="Helvetica-Light" font-size="35.0" fill="#FEFFFF" transform="matrix(1.00, 0.00, -0.00, -1.00, 274.3, 374.0)"> </text><text xml:space="preserve" font-family="Helvetica-Light" font-size="35.0" fill="#FEFFFF" transform="matrix(1.00, 0.00, -0.00, -1.00, 284.1, 374.0)">o</text><text xml:space="preserve" font-family="Helvetica-Light" font-size="35.0" fill="#FEFFFF" transform="matrix(1.00, 0.00, -0.00, -1.00, 303.5, 374.0)">p</text><text xml:space="preserve" font-family="Helvetica-Light" font-size="35.0" fill="#FEFFFF" transform="matrix(1.00, 0.00, -0.00, -1.00, 324.9, 374.0)">t</text><text xml:space="preserve" font-family="Helvetica-Light" font-size="35.0" fill="#FEFFFF" transform="matrix(1.00, 0.00, -0.00, -1.00, 334.6, 374.0)">i</text><text xml:space="preserve" font-family="Helvetica-Light" font-size="35.0" fill="#FEFFFF" transform="matrix(1.00, 0.00, -0.00, -1.00, 342.4, 374.0)">o</text><text xml:space="preserve" font-family="Helvetica-Light" font-size="35.0" fill="#FEFFFF" transform="matrix(1.00, 0.00, -0.00, -1.00, 361.9, 374.0)">n</text><text xml:space="preserve" font-family="Helvetica-Light" font-size="35.0" fill="#FEFFFF" transform="matrix(1.00, 0.00, -0.00, -1.00, 381.3, 374.0)">a</text><text xml:space="preserve" font-family="Helvetica-Light" font-size="35.0" fill="#FEFFFF" transform="matrix(1.00, 0.00, -0.00, -1.00, 400.8, 374.0)">l</text><text xml:space="preserve" font-family="Helvetica-Light" font-size="18.0" fill="#FEFFFF" transform="matrix(1.00, 0.00, -0.00, -1.00, 501.0, 18.0)">4</text><text xml:space="preserve" font-family="Helvetica-Light" font-size="18.0" fill="#FEFFFF" transform="matrix(1.00, 0.00, -0.00, -1.00, 511.0, 18.0)">6</text><text xml:space="preserve" font-family="Courier" font-size="25.0" fill="#E4E4E4" transform="matrix(1.00, 0.00, -0.00, -1.00, 49.0, 303.0)">n</text><text xml:space="preserve" font-family="Courier" font-size="25.0" fill="#E4E4E4" transform="matrix(1.00, 0.00, -0.00, -1.00, 64.0, 303.0)">u</text><text xml:space="preserve" font-family="Courier" font-size="25.0" fill="#E4E4E4" transform="matrix(1.00, 0.00, -0.00, -1.00, 79.0, 303.0)">m</text><text xml:space="preserve" font-family="Courier" font-size="25.0" fill="#E4E4E4" transform="matrix(1.00, 0.00, -0.00, -1.00, 94.0, 303.0)">s</text><text xml:space="preserve" font-family="Courier" font-size="25.0" fill="#000000" transform="matrix(1.00, 0.00, -0.00, -1.00, 109.0, 303.0)"> </text><text xml:space="preserve" font-family="Courier" font-size="25.0" fill="#E4E4E4" transform="matrix(1.00, 0.00, -0.00, -1.00, 124.0, 303.0)">=</text><text xml:space="preserve" font-family="Courier" font-size="25.0" fill="#E4E4E4" transform="matrix(1.00, 0.00, -0.00, -1.00, 139.0, 303.0)"> </text><text xml:space="preserve" font-family="Courier" font-size="25.0" fill="#E4E4E4" transform="matrix(1.00, 0.00, -0.00, -1.00, 154.0, 303.0)">[</text><text xml:space="preserve" font-family="Courier" font-size="25.0" fill="#FFB1AF" transform="matrix(1.00, 0.00, -0.00, -1.00, 169.0, 303.0)">1</text><text xml:space="preserve" font-family="Courier" font-size="25.0" fill="#E4E4E4" transform="matrix(1.00, 0.00, -0.00, -1.00, 184.0, 303.0)">,</text><text xml:space="preserve" font-family="Courier" font-size="25.0" fill="#000000" transform="matrix(1.00, 0.00, -0.00, -1.00, 199.0, 303.0)"> </text><text xml:space="preserve" font-family="Courier" font-size="25.0" fill="#FFB1AF" transform="matrix(1.00, 0.00, -0.00, -1.00, 214.0, 303.0)">2</text><text xml:space="preserve" font-family="Courier" font-size="25.0" fill="#E4E4E4" transform="matrix(1.00, 0.00, -0.00, -1.00, 229.0, 303.0)">,</text><text xml:space="preserve" font-family="Courier" font-size="25.0" fill="#000000" transform="matrix(1.00, 0.00, -0.00, -1.00, 244.0, 303.0)"> </text><text xml:space="preserve" font-family="Courier" font-size="25.0" fill="#FFB1AF" transform="matrix(1.00, 0.00, -0.00, -1.00, 259.0, 303.0)">3</text><text xml:space="preserve" font-family="Courier" font-size="25.0" fill="#E4E4E4" transform="matrix(1.00, 0.00, -0.00, -1.00, 274.0, 303.0)">,</text><text xml:space="preserve" font-family="Courier" font-size="25.0" fill="#000000" transform="matrix(1.00, 0.00, -0.00, -1.00, 289.0, 303.0)"> </text><text xml:space="preserve" font-family="Courier" font-size="25.0" fill="#FFB1AF" transform="matrix(1.00, 0.00, -0.00, -1.00, 304.0, 303.0)">4</text><text xml:space="preserve" font-family="Courier" font-size="25.0" fill="#E4E4E4" transform="matrix(1.00, 0.00, -0.00, -1.00, 319.0, 303.0)">,</text><text xml:space="preserve" font-family="Courier" font-size="25.0" fill="#000000" transform="matrix(1.00, 0.00, -0.00, -1.00, 334.0, 303.0)"> </text><text xml:space="preserve" font-family="Courier" font-size="25.0" fill="#FFB1AF" transform="matrix(1.00, 0.00, -0.00, -1.00, 349.0, 303.0)">5</text><text xml:space="preserve" font-family="Courier" font-size="25.0" fill="#E4E4E4" transform="matrix(1.00, 0.00, -0.00, -1.00, 364.1, 303.0)">,</text><text xml:space="preserve" font-family="Courier" font-size="25.0" fill="#000000" transform="matrix(1.00, 0.00, -0.00, -1.00, 379.1, 303.0)"> </text><text xml:space="preserve" font-family="Courier" font-size="25.0" fill="#FFB1AF" transform="matrix(1.00, 0.00, -0.00, -1.00, 394.1, 303.0)">6</text><text xml:space="preserve" font-family="Courier" font-size="25.0" fill="#E4E4E4" transform="matrix(1.00, 0.00, -0.00, -1.00, 409.1, 303.0)">,</text><text xml:space="preserve" font-family="Courier" font-size="25.0" fill="#000000" transform="matrix(1.00, 0.00, -0.00, -1.00, 424.1, 303.0)"> </text><text xml:space="preserve" font-family="Courier" font-size="25.0" fill="#FFB1AF" transform="matrix(1.00, 0.00, -0.00, -1.00, 439.1, 303.0)">7</text><text xml:space="preserve" font-family="Courier" font-size="25.0" fill="#E4E4E4" transform="matrix(1.00, 0.00, -0.00, -1.00, 454.1, 303.0)">]</text><text xml:space="preserve" font-family="Courier" font-size="25.0" fill="#E4E4E4" transform="matrix(1.00, 0.00, -0.00, -1.00, 49.0, 273.0)">l</text><text xml:space="preserve" font-family="Courier" font-size="25.0" fill="#E4E4E4" transform="matrix(1.00, 0.00, -0.00, -1.00, 64.0, 273.0)">s</text><text xml:space="preserve" font-family="Courier" font-size="25.0" fill="#E4E4E4" transform="matrix(1.00, 0.00, -0.00, -1.00, 79.0, 273.0)">t</text><text xml:space="preserve" font-family="Courier" font-size="25.0" fill="#000000" transform="matrix(1.00, 0.00, -0.00, -1.00, 94.0, 273.0)"> </text><text xml:space="preserve" font-family="Courier" font-size="25.0" fill="#E4E4E4" transform="matrix(1.00, 0.00, -0.00, -1.00, 109.0, 273.0)">=</text><text xml:space="preserve" font-family="Courier" font-size="25.0" fill="#E4E4E4" transform="matrix(1.00, 0.00, -0.00, -1.00, 124.0, 273.0)"> </text><text xml:space="preserve" font-family="Courier" font-size="25.0" fill="#E4E4E4" transform="matrix(1.00, 0.00, -0.00, -1.00, 139.0, 273.0)">[</text><text xml:space="preserve" font-family="Courier" font-size="25.0" fill="#E4E4E4" transform="matrix(1.00, 0.00, -0.00, -1.00, 154.0, 273.0)">]</text><text xml:space="preserve" font-family="Courier" font-size="25.0" fill="#F3E99D" transform="matrix(1.00, 0.00, -0.00, -1.00, 49.0, 243.0)">f</text><text xml:space="preserve" font-family="Courier" font-size="25.0" fill="#F3E99D" transform="matrix(1.00, 0.00, -0.00, -1.00, 64.0, 243.0)">o</text><text xml:space="preserve" font-family="Courier" font-size="25.0" fill="#F3E99D" transform="matrix(1.00, 0.00, -0.00, -1.00, 79.0, 243.0)">r</text><text xml:space="preserve" font-family="Courier" font-size="25.0" fill="#000000" transform="matrix(1.00, 0.00, -0.00, -1.00, 94.0, 243.0)"> </text><text xml:space="preserve" font-family="Courier" font-size="25.0" fill="#E4E4E4" transform="matrix(1.00, 0.00, -0.00, -1.00, 109.0, 243.0)">x</text><text xml:space="preserve" font-family="Courier" font-size="25.0" fill="#000000" transform="matrix(1.00, 0.00, -0.00, -1.00, 124.0, 243.0)"> </text><text xml:space="preserve" font-family="Courier" font-size="25.0" fill="#F3E99D" transform="matrix(1.00, 0.00, -0.00, -1.00, 139.0, 243.0)">i</text><text xml:space="preserve" font-family="Courier" font-size="25.0" fill="#F3E99D" transform="matrix(1.00, 0.00, -0.00, -1.00, 154.0, 243.0)">n</text><text xml:space="preserve" font-family="Courier" font-size="25.0" fill="#000000" transform="matrix(1.00, 0.00, -0.00, -1.00, 169.0, 243.0)"> </text><text xml:space="preserve" font-family="Courier" font-size="25.0" fill="#E4E4E4" transform="matrix(1.00, 0.00, -0.00, -1.00, 184.0, 243.0)">n</text><text xml:space="preserve" font-family="Courier" font-size="25.0" fill="#E4E4E4" transform="matrix(1.00, 0.00, -0.00, -1.00, 199.0, 243.0)">u</text><text xml:space="preserve" font-family="Courier" font-size="25.0" fill="#E4E4E4" transform="matrix(1.00, 0.00, -0.00, -1.00, 214.0, 243.0)">m</text><text xml:space="preserve" font-family="Courier" font-size="25.0" fill="#E4E4E4" transform="matrix(1.00, 0.00, -0.00, -1.00, 229.0, 243.0)">s</text><text xml:space="preserve" font-family="Courier" font-size="25.0" fill="#E4E4E4" transform="matrix(1.00, 0.00, -0.00, -1.00, 244.0, 243.0)">:</text><text xml:space="preserve" font-family="Courier" font-size="25.0" fill="#000000" transform="matrix(1.00, 0.00, -0.00, -1.00, 49.0, 213.0)"> </text><text xml:space="preserve" font-family="Courier" font-size="25.0" fill="#000000" transform="matrix(1.00, 0.00, -0.00, -1.00, 64.0, 213.0)"> </text><text xml:space="preserve" font-family="Courier" font-size="25.0" fill="#000000" transform="matrix(1.00, 0.00, -0.00, -1.00, 79.0, 213.0)"> </text><text xml:space="preserve" font-family="Courier" font-size="25.0" fill="#000000" transform="matrix(1.00, 0.00, -0.00, -1.00, 94.0, 213.0)"> </text><text xml:space="preserve" font-family="Courier" font-size="25.0" fill="#F3E99D" transform="matrix(1.00, 0.00, -0.00, -1.00, 109.0, 213.0)">i</text><text xml:space="preserve" font-family="Courier" font-size="25.0" fill="#F3E99D" transform="matrix(1.00, 0.00, -0.00, -1.00, 124.0, 213.0)">f</text><text xml:space="preserve" font-family="Courier" font-size="25.0" fill="#000000" transform="matrix(1.00, 0.00, -0.00, -1.00, 139.0, 213.0)"> </text><text xml:space="preserve" font-family="Courier" font-size="25.0" fill="#E4E4E4" transform="matrix(1.00, 0.00, -0.00, -1.00, 154.0, 213.0)">x</text><text xml:space="preserve" font-family="Courier" font-size="25.0" fill="#E4E4E4" transform="matrix(1.00, 0.00, -0.00, -1.00, 169.0, 213.0)"> </text><text xml:space="preserve" font-family="Courier" font-size="25.0" fill="#E4E4E4" transform="matrix(1.00, 0.00, -0.00, -1.00, 184.0, 213.0)">%</text><text xml:space="preserve" font-family="Courier" font-size="25.0" fill="#E4E4E4" transform="matrix(1.00, 0.00, -0.00, -1.00, 199.0, 213.0)"> </text><text xml:space="preserve" font-family="Courier" font-size="25.0" fill="#FFB1AF" transform="matrix(1.00, 0.00, -0.00, -1.00, 214.0, 213.0)">2</text><text xml:space="preserve" font-family="Courier" font-size="25.0" fill="#000000" transform="matrix(1.00, 0.00, -0.00, -1.00, 229.0, 213.0)"> </text><text xml:space="preserve" font-family="Courier" font-size="25.0" fill="#E4E4E4" transform="matrix(1.00, 0.00, -0.00, -1.00, 244.0, 213.0)">=</text><text xml:space="preserve" font-family="Courier" font-size="25.0" fill="#E4E4E4" transform="matrix(1.00, 0.00, -0.00, -1.00, 259.0, 213.0)">=</text><text xml:space="preserve" font-family="Courier" font-size="25.0" fill="#000000" transform="matrix(1.00, 0.00, -0.00, -1.00, 274.0, 213.0)"> </text><text xml:space="preserve" font-family="Courier" font-size="25.0" fill="#FFB1AF" transform="matrix(1.00, 0.00, -0.00, -1.00, 289.0, 213.0)">0</text><text xml:space="preserve" font-family="Courier" font-size="25.0" fill="#E4E4E4" transform="matrix(1.00, 0.00, -0.00, -1.00, 304.0, 213.0)">:</text><text xml:space="preserve" font-family="Courier" font-size="25.0" fill="#E4E4E4" transform="matrix(1.00, 0.00, -0.00, -1.00, 49.0, 183.0)"> </text><text xml:space="preserve" font-family="Courier" font-size="25.0" fill="#E4E4E4" transform="matrix(1.00, 0.00, -0.00, -1.00, 64.0, 183.0)"> </text><text xml:space="preserve" font-family="Courier" font-size="25.0" fill="#E4E4E4" transform="matrix(1.00, 0.00, -0.00, -1.00, 79.0, 183.0)"> </text><text xml:space="preserve" font-family="Courier" font-size="25.0" fill="#E4E4E4" transform="matrix(1.00, 0.00, -0.00, -1.00, 94.0, 183.0)"> </text><text xml:space="preserve" font-family="Courier" font-size="25.0" fill="#E4E4E4" transform="matrix(1.00, 0.00, -0.00, -1.00, 109.0, 183.0)"> </text><text xml:space="preserve" font-family="Courier" font-size="25.0" fill="#E4E4E4" transform="matrix(1.00, 0.00, -0.00, -1.00, 124.0, 183.0)"> </text><text xml:space="preserve" font-family="Courier" font-size="25.0" fill="#E4E4E4" transform="matrix(1.00, 0.00, -0.00, -1.00, 139.0, 183.0)"> </text><text xml:space="preserve" font-family="Courier" font-size="25.0" fill="#E4E4E4" transform="matrix(1.00, 0.00, -0.00, -1.00, 154.0, 183.0)"> </text><text xml:space="preserve" font-family="Courier" font-size="25.0" fill="#E4E4E4" transform="matrix(1.00, 0.00, -0.00, -1.00, 169.0, 183.0)">l</text><text xml:space="preserve" font-family="Courier" font-size="25.0" fill="#E4E4E4" transform="matrix(1.00, 0.00, -0.00, -1.00, 184.0, 183.0)">s</text><text xml:space="preserve" font-family="Courier" font-size="25.0" fill="#E4E4E4" transform="matrix(1.00, 0.00, -0.00, -1.00, 199.0, 183.0)">t</text><text xml:space="preserve" font-family="Courier" font-size="25.0" fill="#000000" transform="matrix(1.00, 0.00, -0.00, -1.00, 214.0, 183.0)"> </text><text xml:space="preserve" font-family="Courier" font-size="25.0" fill="#E4E4E4" transform="matrix(1.00, 0.00, -0.00, -1.00, 229.0, 183.0)">+</text><text xml:space="preserve" font-family="Courier" font-size="25.0" fill="#E4E4E4" transform="matrix(1.00, 0.00, -0.00, -1.00, 244.0, 183.0)">=</text><text xml:space="preserve" font-family="Courier" font-size="25.0" fill="#E4E4E4" transform="matrix(1.00, 0.00, -0.00, -1.00, 259.0, 183.0)"> </text><text xml:space="preserve" font-family="Courier" font-size="25.0" fill="#E4E4E4" transform="matrix(1.00, 0.00, -0.00, -1.00, 274.0, 183.0)">[</text><text xml:space="preserve" font-family="Courier" font-size="25.0" fill="#E4E4E4" transform="matrix(1.00, 0.00, -0.00, -1.00, 289.0, 183.0)">x</text><text xml:space="preserve" font-family="Courier" font-size="25.0" fill="#E4E4E4" transform="matrix(1.00, 0.00, -0.00, -1.00, 304.1, 183.0)">+</text><text xml:space="preserve" font-family="Courier" font-size="25.0" fill="#FFB1AF" transform="matrix(1.00, 0.00, -0.00, -1.00, 319.0, 183.0)">3</text><text xml:space="preserve" font-family="Courier" font-size="25.0" fill="#E4E4E4" transform="matrix(1.00, 0.00, -0.00, -1.00, 334.0, 183.0)">]</text><text xml:space="preserve" font-family="Courier" font-size="25.0" fill="#E4E4E4" transform="matrix(1.00, 0.00, -0.00, -1.00, 49.0, 123.0)">[</text><text xml:space="preserve" font-family="Courier" font-size="25.0" fill="#E4E4E4" transform="matrix(1.00, 0.00, -0.00, -1.00, 64.0, 123.0)">x</text><text xml:space="preserve" font-family="Courier" font-size="25.0" fill="#000000" transform="matrix(1.00, 0.00, -0.00, -1.00, 79.0, 123.0)"> </text><text xml:space="preserve" font-family="Courier" font-size="25.0" fill="#E4E4E4" transform="matrix(1.00, 0.00, -0.00, -1.00, 94.0, 123.0)">+</text><text xml:space="preserve" font-family="Courier" font-size="25.0" fill="#000000" transform="matrix(1.00, 0.00, -0.00, -1.00, 109.0, 123.0)"> </text><text xml:space="preserve" font-family="Courier" font-size="25.0" fill="#FFB1AF" transform="matrix(1.00, 0.00, -0.00, -1.00, 124.0, 123.0)">3</text><text xml:space="preserve" font-family="Courier" font-size="25.0" fill="#000000" transform="matrix(1.00, 0.00, -0.00, -1.00, 139.0, 123.0)"> </text><text xml:space="preserve" font-family="Courier" font-size="25.0" fill="#F3E99D" transform="matrix(1.00, 0.00, -0.00, -1.00, 154.0, 123.0)">f</text><text xml:space="preserve" font-family="Courier" font-size="25.0" fill="#F3E99D" transform="matrix(1.00, 0.00, -0.00, -1.00, 169.0, 123.0)">o</text><text xml:space="preserve" font-family="Courier" font-size="25.0" fill="#F3E99D" transform="matrix(1.00, 0.00, -0.00, -1.00, 184.0, 123.0)">r</text><text xml:space="preserve" font-family="Courier" font-size="25.0" fill="#000000" transform="matrix(1.00, 0.00, -0.00, -1.00, 199.0, 123.0)"> </text><text xml:space="preserve" font-family="Courier" font-size="25.0" fill="#E4E4E4" transform="matrix(1.00, 0.00, -0.00, -1.00, 214.0, 123.0)">x</text><text xml:space="preserve" font-family="Courier" font-size="25.0" fill="#000000" transform="matrix(1.00, 0.00, -0.00, -1.00, 229.0, 123.0)"> </text><text xml:space="preserve" font-family="Courier" font-size="25.0" fill="#F3E99D" transform="matrix(1.00, 0.00, -0.00, -1.00, 244.0, 123.0)">i</text><text xml:space="preserve" font-family="Courier" font-size="25.0" fill="#F3E99D" transform="matrix(1.00, 0.00, -0.00, -1.00, 259.0, 123.0)">n</text><text xml:space="preserve" font-family="Courier" font-size="25.0" fill="#000000" transform="matrix(1.00, 0.00, -0.00, -1.00, 274.0, 123.0)"> </text><text xml:space="preserve" font-family="Courier" font-size="25.0" fill="#E4E4E4" transform="matrix(1.00, 0.00, -0.00, -1.00, 289.0, 123.0)">n</text><text xml:space="preserve" font-family="Courier" font-size="25.0" fill="#E4E4E4" transform="matrix(1.00, 0.00, -0.00, -1.00, 304.0, 123.0)">u</text><text xml:space="preserve" font-family="Courier" font-size="25.0" fill="#E4E4E4" transform="matrix(1.00, 0.00, -0.00, -1.00, 319.0, 123.0)">m</text><text xml:space="preserve" font-family="Courier" font-size="25.0" fill="#E4E4E4" transform="matrix(1.00, 0.00, -0.00, -1.00, 334.1, 123.0)">s</text><text xml:space="preserve" font-family="Courier" font-size="25.0" fill="#000000" transform="matrix(1.00, 0.00, -0.00, -1.00, 349.0, 123.0)"> </text><text xml:space="preserve" font-family="Courier" font-size="25.0" fill="#F3E99D" transform="matrix(1.00, 0.00, -0.00, -1.00, 364.1, 123.0)">i</text><text xml:space="preserve" font-family="Courier" font-size="25.0" fill="#F3E99D" transform="matrix(1.00, 0.00, -0.00, -1.00, 379.1, 123.0)">f</text><text xml:space="preserve" font-family="Courier" font-size="25.0" fill="#000000" transform="matrix(1.00, 0.00, -0.00, -1.00, 394.1, 123.0)"> </text><text xml:space="preserve" font-family="Courier" font-size="25.0" fill="#E4E4E4" transform="matrix(1.00, 0.00, -0.00, -1.00, 409.1, 123.0)">x</text><text xml:space="preserve" font-family="Courier" font-size="25.0" fill="#E4E4E4" transform="matrix(1.00, 0.00, -0.00, -1.00, 424.1, 123.0)"> </text><text xml:space="preserve" font-family="Courier" font-size="25.0" fill="#E4E4E4" transform="matrix(1.00, 0.00, -0.00, -1.00, 439.1, 123.0)">%</text><text xml:space="preserve" font-family="Courier" font-size="25.0" fill="#E4E4E4" transform="matrix(1.00, 0.00, -0.00, -1.00, 454.1, 123.0)"> </text><text xml:space="preserve" font-family="Courier" font-size="25.0" fill="#FFB1AF" transform="matrix(1.00, 0.00, -0.00, -1.00, 469.1, 123.0)">2</text><text xml:space="preserve" font-family="Courier" font-size="25.0" fill="#000000" transform="matrix(1.00, 0.00, -0.00, -1.00, 484.1, 123.0)"> </text><text xml:space="preserve" font-family="Courier" font-size="25.0" fill="#E4E4E4" transform="matrix(1.00, 0.00, -0.00, -1.00, 499.1, 123.0)">=</text><text xml:space="preserve" font-family="Courier" font-size="25.0" fill="#E4E4E4" transform="matrix(1.00, 0.00, -0.00, -1.00, 514.1, 123.0)">=</text><text xml:space="preserve" font-family="Courier" font-size="25.0" fill="#000000" transform="matrix(1.00, 0.00, -0.00, -1.00, 529.1, 123.0)"> </text><text xml:space="preserve" font-family="Courier" font-size="25.0" fill="#FFB1AF" transform="matrix(1.00, 0.00, -0.00, -1.00, 544.1, 123.0)">0</text><text xml:space="preserve" font-family="Courier" font-size="25.0" fill="#E4E4E4" transform="matrix(1.00, 0.00, -0.00, -1.00, 559.1, 123.0)">]</text></g></svg>