<?xml version="1.0" encoding="UTF-8" standalone="no"?><svg xmlns="http://www.w3.org/2000/svg" xmlns:xlink="http://www.w3.org/1999/xlink" clip-rule="evenodd" stroke-miterlimit="4.00" viewBox="0 0 1024 768"><desc>SVG generated by Keynote</desc><defs></defs><g transform="matrix(1.00, 0.00, -0.00, -1.00, 0.0, 768.0)"><g><clipPath id="clip-149"><path d="M 0.0 768.0 L 1024.0 768.0 L 1024.0 0.0 L 0.0 0.0 Z M 0.0 768.0 "></path></clipPath><g clip-path="url(#clip-149)"><image xlink:href="../../06DBE9C8-52A0-453A-A7BF-EBF58CF01F35/assets/E7ABA782A15EA3475B4CFCC80A2FEB63.jpeg" width="1024.00" height="768.00" transform="matrix(1.00, 0.00, -0.00, -1.00, 0.0, 768.0)"></image></g></g><text xml:space="preserve" font-family="Helvetica-Light" font-size="80.0" fill="#FEFFFF" transform="matrix(1.00, 0.00, -0.00, -1.00, 259.0, 622.0)">L</text><text xml:space="preserve" font-family="Helvetica-Light" font-size="80.0" fill="#FEFFFF" transform="matrix(1.00, 0.00, -0.00, -1.00, 303.5, 622.0)">i</text><text xml:space="preserve" font-family="Helvetica-Light" font-size="80.0" fill="#FEFFFF" transform="matrix(1.00, 0.00, -0.00, -1.00, 321.2, 622.0)">s</text><text xml:space="preserve" font-family="Helvetica-Light" font-size="80.0" fill="#FEFFFF" transform="matrix(1.00, 0.00, -0.00, -1.00, 361.2, 622.0)">t</text><text xml:space="preserve" font-family="Helvetica-Light" font-size="80.0" fill="#FEFFFF" transform="matrix(1.00, 0.00, -0.00, -1.00, 383.5, 622.0)"> </text><text xml:space="preserve" font-family="Helvetica-Light" font-size="80.0" fill="#FEFFFF" transform="matrix(1.00, 0.00, -0.00, -1.00, 405.7, 622.0)">O</text><text xml:space="preserve" font-family="Helvetica-Light" font-size="80.0" fill="#FEFFFF" transform="matrix(1.00, 0.00, -0.00, -1.00, 468.0, 622.0)">p</text><text xml:space="preserve" font-family="Helvetica-Light" font-size="80.0" fill="#FEFFFF" transform="matrix(1.00, 0.00, -0.00, -1.00, 516.8, 622.0)">e</text><text xml:space="preserve" font-family="Helvetica-Light" font-size="80.0" fill="#FEFFFF" transform="matrix(1.00, 0.00, -0.00, -1.00, 561.3, 622.0)">r</text><text xml:space="preserve" font-family="Helvetica-Light" font-size="80.0" fill="#FEFFFF" transform="matrix(1.00, 0.00, -0.00, -1.00, 588.0, 622.0)">a</text><text xml:space="preserve" font-family="Helvetica-Light" font-size="80.0" fill="#FEFFFF" transform="matrix(1.00, 0.00, -0.00, -1.00, 632.4, 622.0)">t</text><text xml:space="preserve" font-family="Helvetica-Light" font-size="80.0" fill="#FEFFFF" transform="matrix(1.00, 0.00, -0.00, -1.00, 654.7, 622.0)">o</text><text xml:space="preserve" font-family="Helvetica-Light" font-size="80.0" fill="#FEFFFF" transform="matrix(1.00, 0.00, -0.00, -1.00, 699.2, 622.0)">r</text><text xml:space="preserve" font-family="Helvetica-Light" font-size="80.0" fill="#FEFFFF" transform="matrix(1.00, 0.00, -0.00, -1.00, 725.8, 622.0)">s</text><text xml:space="preserve" font-family="Helvetica-Light" font-size="26.2" fill="#FEFFFF" transform="matrix(1.00, 0.00, -0.00, -1.00, 69.8, 539.5)">•</text><text xml:space="preserve" font-family="Helvetica-Light" font-size="35.0" fill="#FEFFFF" transform="matrix(1.00, 0.00, -0.00, -1.00, 109.0, 536.0)">r</text><text xml:space="preserve" font-family="Helvetica-Light" font-size="35.0" fill="#FEFFFF" transform="matrix(1.00, 0.00, -0.00, -1.00, 120.0, 536.0)">e</text><text xml:space="preserve" font-family="Helvetica-Light" font-size="35.0" fill="#FEFFFF" transform="matrix(1.00, 0.00, -0.00, -1.00, 139.5, 536.0)">d</text><text xml:space="preserve" font-family="Helvetica-Light" font-size="35.0" fill="#FEFFFF" transform="matrix(1.00, 0.00, -0.00, -1.00, 160.9, 536.0)">u</text><text xml:space="preserve" font-family="Helvetica-Light" font-size="35.0" fill="#FEFFFF" transform="matrix(1.00, 0.00, -0.00, -1.00, 180.3, 536.0)">c</text><text xml:space="preserve" font-family="Helvetica-Light" font-size="35.0" fill="#FEFFFF" transform="matrix(1.00, 0.00, -0.00, -1.00, 199.8, 536.0)">e</text><text xml:space="preserve" font-family="Helvetica-Light" font-size="35.0" fill="#FEFFFF" transform="matrix(1.00, 0.00, -0.00, -1.00, 219.3, 536.0)">(</text><text xml:space="preserve" font-family="Helvetica-Light" font-size="35.0" fill="#FEFFFF" transform="matrix(1.00, 0.00, -0.00, -1.00, 230.9, 536.0)">a</text><text xml:space="preserve" font-family="Helvetica-Light" font-size="35.0" fill="#FEFFFF" transform="matrix(1.00, 0.00, -0.00, -1.00, 250.4, 536.0)">c</text><text xml:space="preserve" font-family="Helvetica-Light" font-size="35.0" fill="#FEFFFF" transform="matrix(1.00, 0.00, -0.00, -1.00, 269.8, 536.0)">c</text><text xml:space="preserve" font-family="Helvetica-Light" font-size="35.0" fill="#FEFFFF" transform="matrix(1.00, 0.00, -0.00, -1.00, 289.3, 536.0)">u</text><text xml:space="preserve" font-family="Helvetica-Light" font-size="35.0" fill="#FEFFFF" transform="matrix(1.00, 0.00, -0.00, -1.00, 308.7, 536.0)">m</text><text xml:space="preserve" font-family="Helvetica-Light" font-size="35.0" fill="#FEFFFF" transform="matrix(1.00, 0.00, -0.00, -1.00, 337.9, 536.0)">,</text><text xml:space="preserve" font-family="Helvetica-Light" font-size="35.0" fill="#FEFFFF" transform="matrix(1.00, 0.00, -0.00, -1.00, 347.6, 536.0)"> </text><text xml:space="preserve" font-family="Helvetica-Light" font-size="35.0" fill="#FEFFFF" transform="matrix(1.00, 0.00, -0.00, -1.00, 357.4, 536.0)">l</text><text xml:space="preserve" font-family="Helvetica-Light" font-size="35.0" fill="#FEFFFF" transform="matrix(1.00, 0.00, -0.00, -1.00, 365.1, 536.0)">s</text><text xml:space="preserve" font-family="Helvetica-Light" font-size="35.0" fill="#FEFFFF" transform="matrix(1.00, 0.00, -0.00, -1.00, 382.6, 536.0)">t</text><text xml:space="preserve" font-family="Helvetica-Light" font-size="35.0" fill="#FEFFFF" transform="matrix(1.00, 0.00, -0.00, -1.00, 392.4, 536.0)">,</text><text xml:space="preserve" font-family="Helvetica-Light" font-size="35.0" fill="#FEFFFF" transform="matrix(1.00, 0.00, -0.00, -1.00, 402.1, 536.0)"> </text><text xml:space="preserve" font-family="Helvetica-Light" font-size="35.0" fill="#FEFFFF" transform="matrix(1.00, 0.00, -0.00, -1.00, 411.8, 536.0)">z</text><text xml:space="preserve" font-family="Helvetica-Light" font-size="35.0" fill="#FEFFFF" transform="matrix(1.00, 0.00, -0.00, -1.00, 429.3, 536.0)">e</text><text xml:space="preserve" font-family="Helvetica-Light" font-size="35.0" fill="#FEFFFF" transform="matrix(1.00, 0.00, -0.00, -1.00, 448.8, 536.0)">r</text><text xml:space="preserve" font-family="Helvetica-Light" font-size="35.0" fill="#FEFFFF" transform="matrix(1.00, 0.00, -0.00, -1.00, 459.8, 536.0)">o</text><text xml:space="preserve" font-family="Helvetica-Light" font-size="35.0" fill="#FEFFFF" transform="matrix(1.00, 0.00, -0.00, -1.00, 479.3, 536.0)">_</text><text xml:space="preserve" font-family="Helvetica-Light" font-size="35.0" fill="#FEFFFF" transform="matrix(1.00, 0.00, -0.00, -1.00, 496.8, 536.0)">v</text><text xml:space="preserve" font-family="Helvetica-Light" font-size="35.0" fill="#FEFFFF" transform="matrix(1.00, 0.00, -0.00, -1.00, 514.3, 536.0)">a</text><text xml:space="preserve" font-family="Helvetica-Light" font-size="35.0" fill="#FEFFFF" transform="matrix(1.00, 0.00, -0.00, -1.00, 533.7, 536.0)">l</text><text xml:space="preserve" font-family="Helvetica-Light" font-size="35.0" fill="#FEFFFF" transform="matrix(1.00, 0.00, -0.00, -1.00, 541.5, 536.0)">u</text><text xml:space="preserve" font-family="Helvetica-Light" font-size="35.0" fill="#FEFFFF" transform="matrix(1.00, 0.00, -0.00, -1.00, 561.0, 536.0)">e</text><text xml:space="preserve" font-family="Helvetica-Light" font-size="35.0" fill="#FEFFFF" transform="matrix(1.00, 0.00, -0.00, -1.00, 580.4, 536.0)">)</text><text xml:space="preserve" font-family="Helvetica-Light" font-size="35.0" fill="#FEFFFF" transform="matrix(1.00, 0.00, -0.00, -1.00, 592.1, 536.0)"> </text><text xml:space="preserve" font-family="Helvetica-Light" font-size="26.2" fill="#FEFFFF" transform="matrix(1.00, 0.00, -0.00, -1.00, 105.8, 455.5)">•</text><text xml:space="preserve" font-family="Helvetica-Light" font-size="35.0" fill="#FEFFFF" transform="matrix(1.00, 0.00, -0.00, -1.00, 145.0, 452.0)">I</text><text xml:space="preserve" font-family="Helvetica-Light" font-size="35.0" fill="#FEFFFF" transform="matrix(1.00, 0.00, -0.00, -1.00, 154.7, 452.0)">t</text><text xml:space="preserve" font-family="Helvetica-Light" font-size="35.0" fill="#FEFFFF" transform="matrix(1.00, 0.00, -0.00, -1.00, 164.5, 452.0)">e</text><text xml:space="preserve" font-family="Helvetica-Light" font-size="35.0" fill="#FEFFFF" transform="matrix(1.00, 0.00, -0.00, -1.00, 183.9, 452.0)">r</text><text xml:space="preserve" font-family="Helvetica-Light" font-size="35.0" fill="#FEFFFF" transform="matrix(1.00, 0.00, -0.00, -1.00, 195.6, 452.0)">a</text><text xml:space="preserve" font-family="Helvetica-Light" font-size="35.0" fill="#FEFFFF" transform="matrix(1.00, 0.00, -0.00, -1.00, 215.0, 452.0)">t</text><text xml:space="preserve" font-family="Helvetica-Light" font-size="35.0" fill="#FEFFFF" transform="matrix(1.00, 0.00, -0.00, -1.00, 224.8, 452.0)">e</text><text xml:space="preserve" font-family="Helvetica-Light" font-size="35.0" fill="#FEFFFF" transform="matrix(1.00, 0.00, -0.00, -1.00, 244.2, 452.0)">s</text><text xml:space="preserve" font-family="Helvetica-Light" font-size="35.0" fill="#FEFFFF" transform="matrix(1.00, 0.00, -0.00, -1.00, 261.7, 452.0)"> </text><text xml:space="preserve" font-family="Helvetica-Light" font-size="35.0" fill="#FEFFFF" transform="matrix(1.00, 0.00, -0.00, -1.00, 271.5, 452.0)">e</text><text xml:space="preserve" font-family="Helvetica-Light" font-size="35.0" fill="#FEFFFF" transform="matrix(1.00, 0.00, -0.00, -1.00, 290.9, 452.0)">l</text><text xml:space="preserve" font-family="Helvetica-Light" font-size="35.0" fill="#FEFFFF" transform="matrix(1.00, 0.00, -0.00, -1.00, 298.7, 452.0)">e</text><text xml:space="preserve" font-family="Helvetica-Light" font-size="35.0" fill="#FEFFFF" transform="matrix(1.00, 0.00, -0.00, -1.00, 318.1, 452.0)">m</text><text xml:space="preserve" font-family="Helvetica-Light" font-size="35.0" fill="#FEFFFF" transform="matrix(1.00, 0.00, -0.00, -1.00, 347.3, 452.0)">e</text><text xml:space="preserve" font-family="Helvetica-Light" font-size="35.0" fill="#FEFFFF" transform="matrix(1.00, 0.00, -0.00, -1.00, 366.8, 452.0)">n</text><text xml:space="preserve" font-family="Helvetica-Light" font-size="35.0" fill="#FEFFFF" transform="matrix(1.00, 0.00, -0.00, -1.00, 386.2, 452.0)">t</text><text xml:space="preserve" font-family="Helvetica-Light" font-size="35.0" fill="#FEFFFF" transform="matrix(1.00, 0.00, -0.00, -1.00, 396.0, 452.0)">s</text><text xml:space="preserve" font-family="Helvetica-Light" font-size="35.0" fill="#FEFFFF" transform="matrix(1.00, 0.00, -0.00, -1.00, 413.5, 452.0)"> </text><text xml:space="preserve" font-family="Helvetica-Light" font-size="35.0" fill="#FEFFFF" transform="matrix(1.00, 0.00, -0.00, -1.00, 423.2, 452.0)">i</text><text xml:space="preserve" font-family="Helvetica-Light" font-size="35.0" fill="#FEFFFF" transform="matrix(1.00, 0.00, -0.00, -1.00, 431.0, 452.0)">n</text><text xml:space="preserve" font-family="Helvetica-Light" font-size="35.0" fill="#FEFFFF" transform="matrix(1.00, 0.00, -0.00, -1.00, 450.4, 452.0)"> </text><text xml:space="preserve" font-family="Helvetica-Light" font-size="35.0" fill="#FEFFFF" transform="matrix(1.00, 0.00, -0.00, -1.00, 460.1, 452.0)">l</text><text xml:space="preserve" font-family="Helvetica-Light" font-size="35.0" fill="#FEFFFF" transform="matrix(1.00, 0.00, -0.00, -1.00, 467.9, 452.0)">i</text><text xml:space="preserve" font-family="Helvetica-Light" font-size="35.0" fill="#FEFFFF" transform="matrix(1.00, 0.00, -0.00, -1.00, 475.7, 452.0)">s</text><text xml:space="preserve" font-family="Helvetica-Light" font-size="35.0" fill="#FEFFFF" transform="matrix(1.00, 0.00, -0.00, -1.00, 493.2, 452.0)">t</text><text xml:space="preserve" font-family="Helvetica-Light" font-size="35.0" fill="#FEFFFF" transform="matrix(1.00, 0.00, -0.00, -1.00, 502.9, 452.0)"> </text><text xml:space="preserve" font-family="Helvetica-Light" font-size="35.0" fill="#FEFFFF" transform="matrix(1.00, 0.00, -0.00, -1.00, 512.6, 452.0)">a</text><text xml:space="preserve" font-family="Helvetica-Light" font-size="35.0" fill="#FEFFFF" transform="matrix(1.00, 0.00, -0.00, -1.00, 532.1, 452.0)">n</text><text xml:space="preserve" font-family="Helvetica-Light" font-size="35.0" fill="#FEFFFF" transform="matrix(1.00, 0.00, -0.00, -1.00, 551.6, 452.0)">d</text><text xml:space="preserve" font-family="Helvetica-Light" font-size="35.0" fill="#FEFFFF" transform="matrix(1.00, 0.00, -0.00, -1.00, 572.9, 452.0)"> </text><text xml:space="preserve" font-family="Helvetica-Light" font-size="35.0" fill="#FEFFFF" transform="matrix(1.00, 0.00, -0.00, -1.00, 582.7, 452.0)">r</text><text xml:space="preserve" font-family="Helvetica-Light" font-size="35.0" fill="#FEFFFF" transform="matrix(1.00, 0.00, -0.00, -1.00, 593.7, 452.0)">e</text><text xml:space="preserve" font-family="Helvetica-Light" font-size="35.0" fill="#FEFFFF" transform="matrix(1.00, 0.00, -0.00, -1.00, 613.2, 452.0)">p</text><text xml:space="preserve" font-family="Helvetica-Light" font-size="35.0" fill="#FEFFFF" transform="matrix(1.00, 0.00, -0.00, -1.00, 634.5, 452.0)">e</text><text xml:space="preserve" font-family="Helvetica-Light" font-size="35.0" fill="#FEFFFF" transform="matrix(1.00, 0.00, -0.00, -1.00, 654.0, 452.0)">a</text><text xml:space="preserve" font-family="Helvetica-Light" font-size="35.0" fill="#FEFFFF" transform="matrix(1.00, 0.00, -0.00, -1.00, 673.5, 452.0)">t</text><text xml:space="preserve" font-family="Helvetica-Light" font-size="35.0" fill="#FEFFFF" transform="matrix(1.00, 0.00, -0.00, -1.00, 683.2, 452.0)">e</text><text xml:space="preserve" font-family="Helvetica-Light" font-size="35.0" fill="#FEFFFF" transform="matrix(1.00, 0.00, -0.00, -1.00, 702.7, 452.0)">d</text><text xml:space="preserve" font-family="Helvetica-Light" font-size="35.0" fill="#FEFFFF" transform="matrix(1.00, 0.00, -0.00, -1.00, 724.0, 452.0)">l</text><text xml:space="preserve" font-family="Helvetica-Light" font-size="35.0" fill="#FEFFFF" transform="matrix(1.00, 0.00, -0.00, -1.00, 731.8, 452.0)">y</text><text xml:space="preserve" font-family="Helvetica-Light" font-size="35.0" fill="#FEFFFF" transform="matrix(1.00, 0.00, -0.00, -1.00, 749.3, 452.0)"> </text><text xml:space="preserve" font-family="Helvetica-Light" font-size="35.0" fill="#FEFFFF" transform="matrix(1.00, 0.00, -0.00, -1.00, 759.0, 452.0)">c</text><text xml:space="preserve" font-family="Helvetica-Light" font-size="35.0" fill="#FEFFFF" transform="matrix(1.00, 0.00, -0.00, -1.00, 778.5, 452.0)">a</text><text xml:space="preserve" font-family="Helvetica-Light" font-size="35.0" fill="#FEFFFF" transform="matrix(1.00, 0.00, -0.00, -1.00, 798.0, 452.0)">l</text><text xml:space="preserve" font-family="Helvetica-Light" font-size="35.0" fill="#FEFFFF" transform="matrix(1.00, 0.00, -0.00, -1.00, 805.7, 452.0)">l</text><text xml:space="preserve" font-family="Helvetica-Light" font-size="35.0" fill="#FEFFFF" transform="matrix(1.00, 0.00, -0.00, -1.00, 813.5, 452.0)">s</text><text xml:space="preserve" font-family="Helvetica-Light" font-size="35.0" fill="#FEFFFF" transform="matrix(1.00, 0.00, -0.00, -1.00, 831.0, 452.0)"> </text><text xml:space="preserve" font-family="Helvetica-Light" font-size="35.0" fill="#FEFFFF" transform="matrix(1.00, 0.00, -0.00, -1.00, 840.7, 452.0)">t</text><text xml:space="preserve" font-family="Helvetica-Light" font-size="35.0" fill="#FEFFFF" transform="matrix(1.00, 0.00, -0.00, -1.00, 850.5, 452.0)">h</text><text xml:space="preserve" font-family="Helvetica-Light" font-size="35.0" fill="#FEFFFF" transform="matrix(1.00, 0.00, -0.00, -1.00, 869.9, 452.0)">e</text><text xml:space="preserve" font-family="Helvetica-Light" font-size="35.0" fill="#FEFFFF" transform="matrix(1.00, 0.00, -0.00, -1.00, 889.4, 452.0)"> </text><text xml:space="preserve" font-family="Helvetica-Light" font-size="35.0" fill="#FEFFFF" transform="matrix(1.00, 0.00, -0.00, -1.00, 145.0, 410.0)">a</text><text xml:space="preserve" font-family="Helvetica-Light" font-size="35.0" fill="#FEFFFF" transform="matrix(1.00, 0.00, -0.00, -1.00, 164.5, 410.0)">c</text><text xml:space="preserve" font-family="Helvetica-Light" font-size="35.0" fill="#FEFFFF" transform="matrix(1.00, 0.00, -0.00, -1.00, 183.9, 410.0)">c</text><text xml:space="preserve" font-family="Helvetica-Light" font-size="35.0" fill="#FEFFFF" transform="matrix(1.00, 0.00, -0.00, -1.00, 203.4, 410.0)">u</text><text xml:space="preserve" font-family="Helvetica-Light" font-size="35.0" fill="#FEFFFF" transform="matrix(1.00, 0.00, -0.00, -1.00, 222.8, 410.0)">m</text><text xml:space="preserve" font-family="Helvetica-Light" font-size="35.0" fill="#FEFFFF" transform="matrix(1.00, 0.00, -0.00, -1.00, 252.0, 410.0)">u</text><text xml:space="preserve" font-family="Helvetica-Light" font-size="35.0" fill="#FEFFFF" transform="matrix(1.00, 0.00, -0.00, -1.00, 271.5, 410.0)">l</text><text xml:space="preserve" font-family="Helvetica-Light" font-size="35.0" fill="#FEFFFF" transform="matrix(1.00, 0.00, -0.00, -1.00, 279.2, 410.0)">a</text><text xml:space="preserve" font-family="Helvetica-Light" font-size="35.0" fill="#FEFFFF" transform="matrix(1.00, 0.00, -0.00, -1.00, 298.7, 410.0)">t</text><text xml:space="preserve" font-family="Helvetica-Light" font-size="35.0" fill="#FEFFFF" transform="matrix(1.00, 0.00, -0.00, -1.00, 308.4, 410.0)">o</text><text xml:space="preserve" font-family="Helvetica-Light" font-size="35.0" fill="#FEFFFF" transform="matrix(1.00, 0.00, -0.00, -1.00, 327.9, 410.0)">r</text><text xml:space="preserve" font-family="Helvetica-Light" font-size="35.0" fill="#FEFFFF" transform="matrix(1.00, 0.00, -0.00, -1.00, 339.5, 410.0)"> </text><text xml:space="preserve" font-family="Helvetica-Light" font-size="35.0" fill="#FEFFFF" transform="matrix(1.00, 0.00, -0.00, -1.00, 349.3, 410.0)">f</text><text xml:space="preserve" font-family="Helvetica-Light" font-size="35.0" fill="#FEFFFF" transform="matrix(1.00, 0.00, -0.00, -1.00, 359.0, 410.0)">u</text><text xml:space="preserve" font-family="Helvetica-Light" font-size="35.0" fill="#FEFFFF" transform="matrix(1.00, 0.00, -0.00, -1.00, 378.5, 410.0)">n</text><text xml:space="preserve" font-family="Helvetica-Light" font-size="35.0" fill="#FEFFFF" transform="matrix(1.00, 0.00, -0.00, -1.00, 397.9, 410.0)">c</text><text xml:space="preserve" font-family="Helvetica-Light" font-size="35.0" fill="#FEFFFF" transform="matrix(1.00, 0.00, -0.00, -1.00, 417.4, 410.0)">t</text><text xml:space="preserve" font-family="Helvetica-Light" font-size="35.0" fill="#FEFFFF" transform="matrix(1.00, 0.00, -0.00, -1.00, 427.1, 410.0)">i</text><text xml:space="preserve" font-family="Helvetica-Light" font-size="35.0" fill="#FEFFFF" transform="matrix(1.00, 0.00, -0.00, -1.00, 434.9, 410.0)">o</text><text xml:space="preserve" font-family="Helvetica-Light" font-size="35.0" fill="#FEFFFF" transform="matrix(1.00, 0.00, -0.00, -1.00, 454.3, 410.0)">n</text><text xml:space="preserve" font-family="Helvetica-Light" font-size="35.0" fill="#FEFFFF" transform="matrix(1.00, 0.00, -0.00, -1.00, 473.8, 410.0)"> </text><text xml:space="preserve" font-family="Helvetica-Light" font-size="35.0" fill="#FEFFFF" transform="matrix(1.00, 0.00, -0.00, -1.00, 483.5, 410.0)"> </text><text xml:space="preserve" font-family="Helvetica-Light" font-size="26.2" fill="#FEFFFF" transform="matrix(1.00, 0.00, -0.00, -1.00, 105.8, 329.5)">•</text><text xml:space="preserve" font-family="Helvetica-Light" font-size="35.0" fill="#FEFFFF" transform="matrix(1.00, 0.00, -0.00, -1.00, 145.0, 326.0)">T</text><text xml:space="preserve" font-family="Helvetica-Light" font-size="35.0" fill="#FEFFFF" transform="matrix(1.00, 0.00, -0.00, -1.00, 164.5, 326.0)">h</text><text xml:space="preserve" font-family="Helvetica-Light" font-size="35.0" fill="#FEFFFF" transform="matrix(1.00, 0.00, -0.00, -1.00, 183.9, 326.0)">e</text><text xml:space="preserve" font-family="Helvetica-Light" font-size="35.0" fill="#FEFFFF" transform="matrix(1.00, 0.00, -0.00, -1.00, 203.4, 326.0)"> </text><text xml:space="preserve" font-family="Helvetica-Light" font-size="35.0" fill="#FEFFFF" transform="matrix(1.00, 0.00, -0.00, -1.00, 213.1, 326.0)">a</text><text xml:space="preserve" font-family="Helvetica-Light" font-size="35.0" fill="#FEFFFF" transform="matrix(1.00, 0.00, -0.00, -1.00, 232.6, 326.0)">c</text><text xml:space="preserve" font-family="Helvetica-Light" font-size="35.0" fill="#FEFFFF" transform="matrix(1.00, 0.00, -0.00, -1.00, 252.0, 326.0)">c</text><text xml:space="preserve" font-family="Helvetica-Light" font-size="35.0" fill="#FEFFFF" transform="matrix(1.00, 0.00, -0.00, -1.00, 271.5, 326.0)">u</text><text xml:space="preserve" font-family="Helvetica-Light" font-size="35.0" fill="#FEFFFF" transform="matrix(1.00, 0.00, -0.00, -1.00, 291.0, 326.0)">m</text><text xml:space="preserve" font-family="Helvetica-Light" font-size="35.0" fill="#FEFFFF" transform="matrix(1.00, 0.00, -0.00, -1.00, 320.1, 326.0)">u</text><text xml:space="preserve" font-family="Helvetica-Light" font-size="35.0" fill="#FEFFFF" transform="matrix(1.00, 0.00, -0.00, -1.00, 339.6, 326.0)">l</text><text xml:space="preserve" font-family="Helvetica-Light" font-size="35.0" fill="#FEFFFF" transform="matrix(1.00, 0.00, -0.00, -1.00, 347.3, 326.0)">a</text><text xml:space="preserve" font-family="Helvetica-Light" font-size="35.0" fill="#FEFFFF" transform="matrix(1.00, 0.00, -0.00, -1.00, 366.8, 326.0)">t</text><text xml:space="preserve" font-family="Helvetica-Light" font-size="35.0" fill="#FEFFFF" transform="matrix(1.00, 0.00, -0.00, -1.00, 376.5, 326.0)">o</text><text xml:space="preserve" font-family="Helvetica-Light" font-size="35.0" fill="#FEFFFF" transform="matrix(1.00, 0.00, -0.00, -1.00, 396.0, 326.0)">r</text><text xml:space="preserve" font-family="Helvetica-Light" font-size="35.0" fill="#FEFFFF" transform="matrix(1.00, 0.00, -0.00, -1.00, 407.6, 326.0)"> </text><text xml:space="preserve" font-family="Helvetica-Light" font-size="35.0" fill="#FEFFFF" transform="matrix(1.00, 0.00, -0.00, -1.00, 417.4, 326.0)">f</text><text xml:space="preserve" font-family="Helvetica-Light" font-size="35.0" fill="#FEFFFF" transform="matrix(1.00, 0.00, -0.00, -1.00, 427.1, 326.0)">u</text><text xml:space="preserve" font-family="Helvetica-Light" font-size="35.0" fill="#FEFFFF" transform="matrix(1.00, 0.00, -0.00, -1.00, 446.6, 326.0)">n</text><text xml:space="preserve" font-family="Helvetica-Light" font-size="35.0" fill="#FEFFFF" transform="matrix(1.00, 0.00, -0.00, -1.00, 466.0, 326.0)">c</text><text xml:space="preserve" font-family="Helvetica-Light" font-size="35.0" fill="#FEFFFF" transform="matrix(1.00, 0.00, -0.00, -1.00, 485.5, 326.0)">t</text><text xml:space="preserve" font-family="Helvetica-Light" font-size="35.0" fill="#FEFFFF" transform="matrix(1.00, 0.00, -0.00, -1.00, 495.2, 326.0)">i</text><text xml:space="preserve" font-family="Helvetica-Light" font-size="35.0" fill="#FEFFFF" transform="matrix(1.00, 0.00, -0.00, -1.00, 503.0, 326.0)">o</text><text xml:space="preserve" font-family="Helvetica-Light" font-size="35.0" fill="#FEFFFF" transform="matrix(1.00, 0.00, -0.00, -1.00, 522.4, 326.0)">n</text><text xml:space="preserve" font-family="Helvetica-Light" font-size="35.0" fill="#FEFFFF" transform="matrix(1.00, 0.00, -0.00, -1.00, 541.9, 326.0)"> </text><text xml:space="preserve" font-family="Helvetica-Light" font-size="35.0" fill="#FEFFFF" transform="matrix(1.00, 0.00, -0.00, -1.00, 551.6, 326.0)">t</text><text xml:space="preserve" font-family="Helvetica-Light" font-size="35.0" fill="#FEFFFF" transform="matrix(1.00, 0.00, -0.00, -1.00, 561.4, 326.0)">a</text><text xml:space="preserve" font-family="Helvetica-Light" font-size="35.0" fill="#FEFFFF" transform="matrix(1.00, 0.00, -0.00, -1.00, 580.8, 326.0)">k</text><text xml:space="preserve" font-family="Helvetica-Light" font-size="35.0" fill="#FEFFFF" transform="matrix(1.00, 0.00, -0.00, -1.00, 598.3, 326.0)">e</text><text xml:space="preserve" font-family="Helvetica-Light" font-size="35.0" fill="#FEFFFF" transform="matrix(1.00, 0.00, -0.00, -1.00, 617.8, 326.0)">s</text><text xml:space="preserve" font-family="Helvetica-Light" font-size="35.0" fill="#FEFFFF" transform="matrix(1.00, 0.00, -0.00, -1.00, 635.3, 326.0)"> </text><text xml:space="preserve" font-family="Helvetica-Light" font-size="35.0" fill="#FEFFFF" transform="matrix(1.00, 0.00, -0.00, -1.00, 645.0, 326.0)">i</text><text xml:space="preserve" font-family="Helvetica-Light" font-size="35.0" fill="#FEFFFF" transform="matrix(1.00, 0.00, -0.00, -1.00, 652.8, 326.0)">n</text><text xml:space="preserve" font-family="Helvetica-Light" font-size="35.0" fill="#FEFFFF" transform="matrix(1.00, 0.00, -0.00, -1.00, 672.2, 326.0)"> </text><text xml:space="preserve" font-family="Helvetica-Light" font-size="35.0" fill="#FEFFFF" transform="matrix(1.00, 0.00, -0.00, -1.00, 682.0, 326.0)">2</text><text xml:space="preserve" font-family="Helvetica-Light" font-size="35.0" fill="#FEFFFF" transform="matrix(1.00, 0.00, -0.00, -1.00, 701.4, 326.0)"> </text><text xml:space="preserve" font-family="Helvetica-Light" font-size="35.0" fill="#FEFFFF" transform="matrix(1.00, 0.00, -0.00, -1.00, 711.2, 326.0)">a</text><text xml:space="preserve" font-family="Helvetica-Light" font-size="35.0" fill="#FEFFFF" transform="matrix(1.00, 0.00, -0.00, -1.00, 730.6, 326.0)">r</text><text xml:space="preserve" font-family="Helvetica-Light" font-size="35.0" fill="#FEFFFF" transform="matrix(1.00, 0.00, -0.00, -1.00, 742.3, 326.0)">g</text><text xml:space="preserve" font-family="Helvetica-Light" font-size="35.0" fill="#FEFFFF" transform="matrix(1.00, 0.00, -0.00, -1.00, 763.7, 326.0)">u</text><text xml:space="preserve" font-family="Helvetica-Light" font-size="35.0" fill="#FEFFFF" transform="matrix(1.00, 0.00, -0.00, -1.00, 783.1, 326.0)">m</text><text xml:space="preserve" font-family="Helvetica-Light" font-size="35.0" fill="#FEFFFF" transform="matrix(1.00, 0.00, -0.00, -1.00, 812.3, 326.0)">e</text><text xml:space="preserve" font-family="Helvetica-Light" font-size="35.0" fill="#FEFFFF" transform="matrix(1.00, 0.00, -0.00, -1.00, 831.7, 326.0)">n</text><text xml:space="preserve" font-family="Helvetica-Light" font-size="35.0" fill="#FEFFFF" transform="matrix(1.00, 0.00, -0.00, -1.00, 851.2, 326.0)">t</text><text xml:space="preserve" font-family="Helvetica-Light" font-size="35.0" fill="#FEFFFF" transform="matrix(1.00, 0.00, -0.00, -1.00, 860.9, 326.0)">s</text><text xml:space="preserve" font-family="Helvetica-Light" font-size="35.0" fill="#FEFFFF" transform="matrix(1.00, 0.00, -0.00, -1.00, 878.4, 326.0)"> </text><text xml:space="preserve" font-family="Helvetica-Light" font-size="26.2" fill="#FEFFFF" transform="matrix(1.00, 0.00, -0.00, -1.00, 105.8, 245.5)">•</text><text xml:space="preserve" font-family="Helvetica-Light" font-size="35.0" fill="#FEFFFF" transform="matrix(1.00, 0.00, -0.00, -1.00, 145.0, 242.0)">M</text><text xml:space="preserve" font-family="Helvetica-Light" font-size="35.0" fill="#FEFFFF" transform="matrix(1.00, 0.00, -0.00, -1.00, 174.2, 242.0)">a</text><text xml:space="preserve" font-family="Helvetica-Light" font-size="35.0" fill="#FEFFFF" transform="matrix(1.00, 0.00, -0.00, -1.00, 193.6, 242.0)">p</text><text xml:space="preserve" font-family="Helvetica-Light" font-size="35.0" fill="#FEFFFF" transform="matrix(1.00, 0.00, -0.00, -1.00, 215.0, 242.0)"> </text><text xml:space="preserve" font-family="Helvetica-Light" font-size="35.0" fill="#FEFFFF" transform="matrix(1.00, 0.00, -0.00, -1.00, 224.7, 242.0)">r</text><text xml:space="preserve" font-family="Helvetica-Light" font-size="35.0" fill="#FEFFFF" transform="matrix(1.00, 0.00, -0.00, -1.00, 235.8, 242.0)">e</text><text xml:space="preserve" font-family="Helvetica-Light" font-size="35.0" fill="#FEFFFF" transform="matrix(1.00, 0.00, -0.00, -1.00, 255.2, 242.0)">t</text><text xml:space="preserve" font-family="Helvetica-Light" font-size="35.0" fill="#FEFFFF" transform="matrix(1.00, 0.00, -0.00, -1.00, 264.9, 242.0)">u</text><text xml:space="preserve" font-family="Helvetica-Light" font-size="35.0" fill="#FEFFFF" transform="matrix(1.00, 0.00, -0.00, -1.00, 284.4, 242.0)">r</text><text xml:space="preserve" font-family="Helvetica-Light" font-size="35.0" fill="#FEFFFF" transform="matrix(1.00, 0.00, -0.00, -1.00, 296.7, 242.0)">n</text><text xml:space="preserve" font-family="Helvetica-Light" font-size="35.0" fill="#FEFFFF" transform="matrix(1.00, 0.00, -0.00, -1.00, 316.1, 242.0)">s</text><text xml:space="preserve" font-family="Helvetica-Light" font-size="35.0" fill="#FEFFFF" transform="matrix(1.00, 0.00, -0.00, -1.00, 333.6, 242.0)"> </text><text xml:space="preserve" font-family="Helvetica-Light" font-size="35.0" fill="#FEFFFF" transform="matrix(1.00, 0.00, -0.00, -1.00, 343.4, 242.0)">a</text><text xml:space="preserve" font-family="Helvetica-Light" font-size="35.0" fill="#FEFFFF" transform="matrix(1.00, 0.00, -0.00, -1.00, 362.8, 242.0)"> </text><text xml:space="preserve" font-family="Helvetica-Light" font-size="35.0" fill="#FEFFFF" transform="matrix(1.00, 0.00, -0.00, -1.00, 372.6, 242.0)">s</text><text xml:space="preserve" font-family="Helvetica-Light" font-size="35.0" fill="#FEFFFF" transform="matrix(1.00, 0.00, -0.00, -1.00, 390.1, 242.0)">i</text><text xml:space="preserve" font-family="Helvetica-Light" font-size="35.0" fill="#FEFFFF" transform="matrix(1.00, 0.00, -0.00, -1.00, 397.8, 242.0)">n</text><text xml:space="preserve" font-family="Helvetica-Light" font-size="35.0" fill="#FEFFFF" transform="matrix(1.00, 0.00, -0.00, -1.00, 417.3, 242.0)">g</text><text xml:space="preserve" font-family="Helvetica-Light" font-size="35.0" fill="#FEFFFF" transform="matrix(1.00, 0.00, -0.00, -1.00, 438.7, 242.0)">l</text><text xml:space="preserve" font-family="Helvetica-Light" font-size="35.0" fill="#FEFFFF" transform="matrix(1.00, 0.00, -0.00, -1.00, 446.5, 242.0)">e</text><text xml:space="preserve" font-family="Helvetica-Light" font-size="35.0" fill="#FEFFFF" transform="matrix(1.00, 0.00, -0.00, -1.00, 465.9, 242.0)"> </text><text xml:space="preserve" font-family="Helvetica-Light" font-size="35.0" fill="#FEFFFF" transform="matrix(1.00, 0.00, -0.00, -1.00, 475.6, 242.0)">v</text><text xml:space="preserve" font-family="Helvetica-Light" font-size="35.0" fill="#FEFFFF" transform="matrix(1.00, 0.00, -0.00, -1.00, 493.1, 242.0)">a</text><text xml:space="preserve" font-family="Helvetica-Light" font-size="35.0" fill="#FEFFFF" transform="matrix(1.00, 0.00, -0.00, -1.00, 512.6, 242.0)">l</text><text xml:space="preserve" font-family="Helvetica-Light" font-size="35.0" fill="#FEFFFF" transform="matrix(1.00, 0.00, -0.00, -1.00, 520.4, 242.0)">u</text><text xml:space="preserve" font-family="Helvetica-Light" font-size="35.0" fill="#FEFFFF" transform="matrix(1.00, 0.00, -0.00, -1.00, 539.8, 242.0)">e</text><text xml:space="preserve" font-family="Helvetica-Light" font-size="35.0" fill="#FEFFFF" transform="matrix(1.00, 0.00, -0.00, -1.00, 559.3, 242.0)"> </text><text xml:space="preserve" font-family="Helvetica-Light" font-size="26.2" fill="#FEFFFF" transform="matrix(1.00, 0.00, -0.00, -1.00, 105.8, 161.5)">•</text><text xml:space="preserve" font-family="Helvetica-Light" font-size="35.0" fill="#FEFFFF" transform="matrix(1.00, 0.00, -0.00, -1.00, 145.0, 158.0)">I</text><text xml:space="preserve" font-family="Helvetica-Light" font-size="35.0" fill="#FEFFFF" transform="matrix(1.00, 0.00, -0.00, -1.00, 154.7, 158.0)">f</text><text xml:space="preserve" font-family="Helvetica-Light" font-size="35.0" fill="#FEFFFF" transform="matrix(1.00, 0.00, -0.00, -1.00, 164.5, 158.0)"> </text><text xml:space="preserve" font-family="Helvetica-Light" font-size="35.0" fill="#FEFFFF" transform="matrix(1.00, 0.00, -0.00, -1.00, 174.2, 158.0)">z</text><text xml:space="preserve" font-family="Helvetica-Light" font-size="35.0" fill="#FEFFFF" transform="matrix(1.00, 0.00, -0.00, -1.00, 191.7, 158.0)">e</text><text xml:space="preserve" font-family="Helvetica-Light" font-size="35.0" fill="#FEFFFF" transform="matrix(1.00, 0.00, -0.00, -1.00, 211.2, 158.0)">r</text><text xml:space="preserve" font-family="Helvetica-Light" font-size="35.0" fill="#FEFFFF" transform="matrix(1.00, 0.00, -0.00, -1.00, 222.2, 158.0)">o</text><text xml:space="preserve" font-family="Helvetica-Light" font-size="35.0" fill="#FEFFFF" transform="matrix(1.00, 0.00, -0.00, -1.00, 241.6, 158.0)">_</text><text xml:space="preserve" font-family="Helvetica-Light" font-size="35.0" fill="#FEFFFF" transform="matrix(1.00, 0.00, -0.00, -1.00, 259.1, 158.0)">v</text><text xml:space="preserve" font-family="Helvetica-Light" font-size="35.0" fill="#FEFFFF" transform="matrix(1.00, 0.00, -0.00, -1.00, 276.6, 158.0)">a</text><text xml:space="preserve" font-family="Helvetica-Light" font-size="35.0" fill="#FEFFFF" transform="matrix(1.00, 0.00, -0.00, -1.00, 296.1, 158.0)">l</text><text xml:space="preserve" font-family="Helvetica-Light" font-size="35.0" fill="#FEFFFF" transform="matrix(1.00, 0.00, -0.00, -1.00, 303.9, 158.0)">u</text><text xml:space="preserve" font-family="Helvetica-Light" font-size="35.0" fill="#FEFFFF" transform="matrix(1.00, 0.00, -0.00, -1.00, 323.3, 158.0)">e</text><text xml:space="preserve" font-family="Helvetica-Light" font-size="35.0" fill="#FEFFFF" transform="matrix(1.00, 0.00, -0.00, -1.00, 342.8, 158.0)"> </text><text xml:space="preserve" font-family="Helvetica-Light" font-size="35.0" fill="#FEFFFF" transform="matrix(1.00, 0.00, -0.00, -1.00, 352.5, 158.0)">i</text><text xml:space="preserve" font-family="Helvetica-Light" font-size="35.0" fill="#FEFFFF" transform="matrix(1.00, 0.00, -0.00, -1.00, 360.3, 158.0)">s</text><text xml:space="preserve" font-family="Helvetica-Light" font-size="35.0" fill="#FEFFFF" transform="matrix(1.00, 0.00, -0.00, -1.00, 377.8, 158.0)"> </text><text xml:space="preserve" font-family="Helvetica-Light" font-size="35.0" fill="#FEFFFF" transform="matrix(1.00, 0.00, -0.00, -1.00, 387.5, 158.0)">p</text><text xml:space="preserve" font-family="Helvetica-Light" font-size="35.0" fill="#FEFFFF" transform="matrix(1.00, 0.00, -0.00, -1.00, 408.9, 158.0)">a</text><text xml:space="preserve" font-family="Helvetica-Light" font-size="35.0" fill="#FEFFFF" transform="matrix(1.00, 0.00, -0.00, -1.00, 428.4, 158.0)">s</text><text xml:space="preserve" font-family="Helvetica-Light" font-size="35.0" fill="#FEFFFF" transform="matrix(1.00, 0.00, -0.00, -1.00, 445.9, 158.0)">s</text><text xml:space="preserve" font-family="Helvetica-Light" font-size="35.0" fill="#FEFFFF" transform="matrix(1.00, 0.00, -0.00, -1.00, 463.4, 158.0)">e</text><text xml:space="preserve" font-family="Helvetica-Light" font-size="35.0" fill="#FEFFFF" transform="matrix(1.00, 0.00, -0.00, -1.00, 482.8, 158.0)">d</text><text xml:space="preserve" font-family="Helvetica-Light" font-size="35.0" fill="#FEFFFF" transform="matrix(1.00, 0.00, -0.00, -1.00, 504.2, 158.0)"> </text><text xml:space="preserve" font-family="Helvetica-Light" font-size="35.0" fill="#FEFFFF" transform="matrix(1.00, 0.00, -0.00, -1.00, 513.9, 158.0)">i</text><text xml:space="preserve" font-family="Helvetica-Light" font-size="35.0" fill="#FEFFFF" transform="matrix(1.00, 0.00, -0.00, -1.00, 521.7, 158.0)">n</text><text xml:space="preserve" font-family="Helvetica-Light" font-size="35.0" fill="#FEFFFF" transform="matrix(1.00, 0.00, -0.00, -1.00, 541.2, 158.0)">,</text><text xml:space="preserve" font-family="Helvetica-Light" font-size="35.0" fill="#FEFFFF" transform="matrix(1.00, 0.00, -0.00, -1.00, 550.9, 158.0)"> </text><text xml:space="preserve" font-family="Helvetica-Light" font-size="35.0" fill="#FEFFFF" transform="matrix(1.00, 0.00, -0.00, -1.00, 560.6, 158.0)">w</text><text xml:space="preserve" font-family="Helvetica-Light" font-size="35.0" fill="#FEFFFF" transform="matrix(1.00, 0.00, -0.00, -1.00, 585.9, 158.0)">e</text><text xml:space="preserve" font-family="Helvetica-Light" font-size="35.0" fill="#FEFFFF" transform="matrix(1.00, 0.00, -0.00, -1.00, 605.4, 158.0)"> </text><text xml:space="preserve" font-family="Helvetica-Light" font-size="35.0" fill="#FEFFFF" transform="matrix(1.00, 0.00, -0.00, -1.00, 615.1, 158.0)">c</text><text xml:space="preserve" font-family="Helvetica-Light" font-size="35.0" fill="#FEFFFF" transform="matrix(1.00, 0.00, -0.00, -1.00, 634.5, 158.0)">a</text><text xml:space="preserve" font-family="Helvetica-Light" font-size="35.0" fill="#FEFFFF" transform="matrix(1.00, 0.00, -0.00, -1.00, 654.0, 158.0)">l</text><text xml:space="preserve" font-family="Helvetica-Light" font-size="35.0" fill="#FEFFFF" transform="matrix(1.00, 0.00, -0.00, -1.00, 661.8, 158.0)">l</text><text xml:space="preserve" font-family="Helvetica-Light" font-size="35.0" fill="#FEFFFF" transform="matrix(1.00, 0.00, -0.00, -1.00, 669.5, 158.0)"> </text><text xml:space="preserve" font-family="Helvetica-Light" font-size="35.0" fill="#FEFFFF" transform="matrix(1.00, 0.00, -0.00, -1.00, 145.0, 116.0)">a</text><text xml:space="preserve" font-family="Helvetica-Light" font-size="35.0" fill="#FEFFFF" transform="matrix(1.00, 0.00, -0.00, -1.00, 164.5, 116.0)">c</text><text xml:space="preserve" font-family="Helvetica-Light" font-size="35.0" fill="#FEFFFF" transform="matrix(1.00, 0.00, -0.00, -1.00, 183.9, 116.0)">c</text><text xml:space="preserve" font-family="Helvetica-Light" font-size="35.0" fill="#FEFFFF" transform="matrix(1.00, 0.00, -0.00, -1.00, 203.4, 116.0)">u</text><text xml:space="preserve" font-family="Helvetica-Light" font-size="35.0" fill="#FEFFFF" transform="matrix(1.00, 0.00, -0.00, -1.00, 222.8, 116.0)">m</text><text xml:space="preserve" font-family="Helvetica-Light" font-size="35.0" fill="#FEFFFF" transform="matrix(1.00, 0.00, -0.00, -1.00, 252.0, 116.0)">(</text><text xml:space="preserve" font-family="Helvetica-Light" font-size="35.0" fill="#FEFFFF" transform="matrix(1.00, 0.00, -0.00, -1.00, 263.6, 116.0)">z</text><text xml:space="preserve" font-family="Helvetica-Light" font-size="35.0" fill="#FEFFFF" transform="matrix(1.00, 0.00, -0.00, -1.00, 281.1, 116.0)">e</text><text xml:space="preserve" font-family="Helvetica-Light" font-size="35.0" fill="#FEFFFF" transform="matrix(1.00, 0.00, -0.00, -1.00, 300.6, 116.0)">r</text><text xml:space="preserve" font-family="Helvetica-Light" font-size="35.0" fill="#FEFFFF" transform="matrix(1.00, 0.00, -0.00, -1.00, 311.6, 116.0)">o</text><text xml:space="preserve" font-family="Helvetica-Light" font-size="35.0" fill="#FEFFFF" transform="matrix(1.00, 0.00, -0.00, -1.00, 331.1, 116.0)">_</text><text xml:space="preserve" font-family="Helvetica-Light" font-size="35.0" fill="#FEFFFF" transform="matrix(1.00, 0.00, -0.00, -1.00, 348.6, 116.0)">v</text><text xml:space="preserve" font-family="Helvetica-Light" font-size="35.0" fill="#FEFFFF" transform="matrix(1.00, 0.00, -0.00, -1.00, 366.1, 116.0)">a</text><text xml:space="preserve" font-family="Helvetica-Light" font-size="35.0" fill="#FEFFFF" transform="matrix(1.00, 0.00, -0.00, -1.00, 385.6, 116.0)">l</text><text xml:space="preserve" font-family="Helvetica-Light" font-size="35.0" fill="#FEFFFF" transform="matrix(1.00, 0.00, -0.00, -1.00, 393.3, 116.0)">u</text><text xml:space="preserve" font-family="Helvetica-Light" font-size="35.0" fill="#FEFFFF" transform="matrix(1.00, 0.00, -0.00, -1.00, 412.8, 116.0)">e</text><text xml:space="preserve" font-family="Helvetica-Light" font-size="35.0" fill="#FEFFFF" transform="matrix(1.00, 0.00, -0.00, -1.00, 432.2, 116.0)">,</text><text xml:space="preserve" font-family="Helvetica-Light" font-size="35.0" fill="#FEFFFF" transform="matrix(1.00, 0.00, -0.00, -1.00, 442.0, 116.0)"> </text><text xml:space="preserve" font-family="Helvetica-Light" font-size="35.0" fill="#FEFFFF" transform="matrix(1.00, 0.00, -0.00, -1.00, 451.7, 116.0)">l</text><text xml:space="preserve" font-family="Helvetica-Light" font-size="35.0" fill="#FEFFFF" transform="matrix(1.00, 0.00, -0.00, -1.00, 459.5, 116.0)">s</text><text xml:space="preserve" font-family="Helvetica-Light" font-size="35.0" fill="#FEFFFF" transform="matrix(1.00, 0.00, -0.00, -1.00, 477.0, 116.0)">t</text><text xml:space="preserve" font-family="Helvetica-Light" font-size="35.0" fill="#FEFFFF" transform="matrix(1.00, 0.00, -0.00, -1.00, 486.7, 116.0)">[</text><text xml:space="preserve" font-family="Helvetica-Light" font-size="35.0" fill="#FEFFFF" transform="matrix(1.00, 0.00, -0.00, -1.00, 498.4, 116.0)">0</text><text xml:space="preserve" font-family="Helvetica-Light" font-size="35.0" fill="#FEFFFF" transform="matrix(1.00, 0.00, -0.00, -1.00, 517.8, 116.0)">]</text><text xml:space="preserve" font-family="Helvetica-Light" font-size="35.0" fill="#FEFFFF" transform="matrix(1.00, 0.00, -0.00, -1.00, 529.5, 116.0)">)</text><text xml:space="preserve" font-family="Helvetica-Light" font-size="35.0" fill="#FEFFFF" transform="matrix(1.00, 0.00, -0.00, -1.00, 541.1, 116.0)"> </text><text xml:space="preserve" font-family="Helvetica-Light" font-size="35.0" fill="#FEFFFF" transform="matrix(1.00, 0.00, -0.00, -1.00, 550.9, 116.0)">ﬁ</text><text xml:space="preserve" font-family="Helvetica-Light" font-size="35.0" fill="#FEFFFF" transform="matrix(1.00, 0.00, -0.00, -1.00, 568.4, 116.0)">r</text><text xml:space="preserve" font-family="Helvetica-Light" font-size="35.0" fill="#FEFFFF" transform="matrix(1.00, 0.00, -0.00, -1.00, 580.0, 116.0)">s</text><text xml:space="preserve" font-family="Helvetica-Light" font-size="35.0" fill="#FEFFFF" transform="matrix(1.00, 0.00, -0.00, -1.00, 597.5, 116.0)">t</text><text xml:space="preserve" font-family="Helvetica-Light" font-size="35.0" fill="#FEFFFF" transform="matrix(1.00, 0.00, -0.00, -1.00, 607.2, 116.0)">.</text><text xml:space="preserve" font-family="Helvetica-Light" font-size="18.0" fill="#FEFFFF" transform="matrix(1.00, 0.00, -0.00, -1.00, 501.0, 18.0)">3</text><text xml:space="preserve" font-family="Helvetica-Light" font-size="18.0" fill="#FEFFFF" transform="matrix(1.00, 0.00, -0.00, -1.00, 511.0, 18.0)">9</text></g></svg>