<?xml version="1.0" encoding="UTF-8" standalone="no"?><svg xmlns="http://www.w3.org/2000/svg" xmlns:xlink="http://www.w3.org/1999/xlink" clip-rule="evenodd" stroke-miterlimit="4.00" viewBox="0 0 1024 768"><desc>SVG generated by Keynote</desc><defs></defs><g transform="matrix(1.00, 0.00, -0.00, -1.00, 0.0, 768.0)"><g><clipPath id="clip-9"><path d="M 0.0 768.0 L 1024.0 768.0 L 1024.0 0.0 L 0.0 0.0 Z M 0.0 768.0 "></path></clipPath><g clip-path="url(#clip-9)"><image xlink:href="../../06DBE9C8-52A0-453A-A7BF-EBF58CF01F35/assets/E7ABA782A15EA3475B4CFCC80A2FEB63.jpeg" width="1024.00" height="768.00" transform="matrix(1.00, 0.00, -0.00, -1.00, 0.0, 768.0)"></image></g></g><text xml:space="preserve" font-family="Helvetica-Light" font-size="80.0" fill="#FEFFFF" transform="matrix(1.00, 0.00, -0.00, -1.00, 174.0, 622.0)">B</text><text xml:space="preserve" font-family="Helvetica-Light" font-size="80.0" fill="#FEFFFF" transform="matrix(1.00, 0.00, -0.00, -1.00, 227.4, 622.0)">o</text><text xml:space="preserve" font-family="Helvetica-Light" font-size="80.0" fill="#FEFFFF" transform="matrix(1.00, 0.00, -0.00, -1.00, 271.8, 622.0)">o</text><text xml:space="preserve" font-family="Helvetica-Light" font-size="80.0" fill="#FEFFFF" transform="matrix(1.00, 0.00, -0.00, -1.00, 316.3, 622.0)">l</text><text xml:space="preserve" font-family="Helvetica-Light" font-size="80.0" fill="#FEFFFF" transform="matrix(1.00, 0.00, -0.00, -1.00, 334.1, 622.0)">e</text><text xml:space="preserve" font-family="Helvetica-Light" font-size="80.0" fill="#FEFFFF" transform="matrix(1.00, 0.00, -0.00, -1.00, 378.6, 622.0)">a</text><text xml:space="preserve" font-family="Helvetica-Light" font-size="80.0" fill="#FEFFFF" transform="matrix(1.00, 0.00, -0.00, -1.00, 423.0, 622.0)">n</text><text xml:space="preserve" font-family="Helvetica-Light" font-size="80.0" fill="#FEFFFF" transform="matrix(1.00, 0.00, -0.00, -1.00, 467.5, 622.0)"> </text><text xml:space="preserve" font-family="Helvetica-Light" font-size="80.0" fill="#FEFFFF" transform="matrix(1.00, 0.00, -0.00, -1.00, 489.8, 622.0)">O</text><text xml:space="preserve" font-family="Helvetica-Light" font-size="80.0" fill="#FEFFFF" transform="matrix(1.00, 0.00, -0.00, -1.00, 552.0, 622.0)">p</text><text xml:space="preserve" font-family="Helvetica-Light" font-size="80.0" fill="#FEFFFF" transform="matrix(1.00, 0.00, -0.00, -1.00, 600.9, 622.0)">e</text><text xml:space="preserve" font-family="Helvetica-Light" font-size="80.0" fill="#FEFFFF" transform="matrix(1.00, 0.00, -0.00, -1.00, 645.4, 622.0)">r</text><text xml:space="preserve" font-family="Helvetica-Light" font-size="80.0" fill="#FEFFFF" transform="matrix(1.00, 0.00, -0.00, -1.00, 672.0, 622.0)">a</text><text xml:space="preserve" font-family="Helvetica-Light" font-size="80.0" fill="#FEFFFF" transform="matrix(1.00, 0.00, -0.00, -1.00, 716.5, 622.0)">t</text><text xml:space="preserve" font-family="Helvetica-Light" font-size="80.0" fill="#FEFFFF" transform="matrix(1.00, 0.00, -0.00, -1.00, 738.7, 622.0)">o</text><text xml:space="preserve" font-family="Helvetica-Light" font-size="80.0" fill="#FEFFFF" transform="matrix(1.00, 0.00, -0.00, -1.00, 783.2, 622.0)">r</text><text xml:space="preserve" font-family="Helvetica-Light" font-size="80.0" fill="#FEFFFF" transform="matrix(1.00, 0.00, -0.00, -1.00, 809.8, 622.0)">s</text><text xml:space="preserve" font-family="Helvetica-Light" font-size="24.0" fill="#FEFFFF" transform="matrix(1.00, 0.00, -0.00, -1.00, 79.0, 502.6)">•</text><text xml:space="preserve" font-family="Helvetica-Light" font-size="32.0" fill="#FEFFFF" transform="matrix(1.00, 0.00, -0.00, -1.00, 115.0, 500.0)">a</text><text xml:space="preserve" font-family="Helvetica-Light" font-size="32.0" fill="#FEFFFF" transform="matrix(1.00, 0.00, -0.00, -1.00, 132.8, 500.0)">n</text><text xml:space="preserve" font-family="Helvetica-Light" font-size="32.0" fill="#FEFFFF" transform="matrix(1.00, 0.00, -0.00, -1.00, 150.6, 500.0)">d</text><text xml:space="preserve" font-family="Helvetica-Light" font-size="32.0" fill="#FEFFFF" transform="matrix(1.00, 0.00, -0.00, -1.00, 170.1, 500.0)">/</text><text xml:space="preserve" font-family="Helvetica-Light" font-size="32.0" fill="#FEFFFF" transform="matrix(1.00, 0.00, -0.00, -1.00, 179.0, 500.0)">o</text><text xml:space="preserve" font-family="Helvetica-Light" font-size="32.0" fill="#FEFFFF" transform="matrix(1.00, 0.00, -0.00, -1.00, 196.8, 500.0)">r</text><text xml:space="preserve" font-family="Helvetica-Light" font-size="32.0" fill="#FEFFFF" transform="matrix(1.00, 0.00, -0.00, -1.00, 207.5, 500.0)"> </text><text xml:space="preserve" font-family="Helvetica-Light" font-size="32.0" fill="#FEFFFF" transform="matrix(1.00, 0.00, -0.00, -1.00, 216.4, 500.0)">u</text><text xml:space="preserve" font-family="Helvetica-Light" font-size="32.0" fill="#FEFFFF" transform="matrix(1.00, 0.00, -0.00, -1.00, 234.2, 500.0)">s</text><text xml:space="preserve" font-family="Helvetica-Light" font-size="32.0" fill="#FEFFFF" transform="matrix(1.00, 0.00, -0.00, -1.00, 250.2, 500.0)">e</text><text xml:space="preserve" font-family="Helvetica-Light" font-size="32.0" fill="#FEFFFF" transform="matrix(1.00, 0.00, -0.00, -1.00, 268.0, 500.0)">s</text><text xml:space="preserve" font-family="Helvetica-Light" font-size="32.0" fill="#FEFFFF" transform="matrix(1.00, 0.00, -0.00, -1.00, 284.0, 500.0)"> </text><text xml:space="preserve" font-family="Helvetica-Light" font-size="32.0" fill="#FEFFFF" transform="matrix(1.00, 0.00, -0.00, -1.00, 292.9, 500.0)">t</text><text xml:space="preserve" font-family="Helvetica-Light" font-size="32.0" fill="#FEFFFF" transform="matrix(1.00, 0.00, -0.00, -1.00, 301.8, 500.0)">h</text><text xml:space="preserve" font-family="Helvetica-Light" font-size="32.0" fill="#FEFFFF" transform="matrix(1.00, 0.00, -0.00, -1.00, 319.5, 500.0)">e</text><text xml:space="preserve" font-family="Helvetica-Light" font-size="32.0" fill="#FEFFFF" transform="matrix(1.00, 0.00, -0.00, -1.00, 337.3, 500.0)"> </text><text xml:space="preserve" font-family="Helvetica-Light" font-size="32.0" fill="#FEFFFF" transform="matrix(1.00, 0.00, -0.00, -1.00, 346.2, 500.0)">b</text><text xml:space="preserve" font-family="Helvetica-Light" font-size="32.0" fill="#FEFFFF" transform="matrix(1.00, 0.00, -0.00, -1.00, 365.8, 500.0)">o</text><text xml:space="preserve" font-family="Helvetica-Light" font-size="32.0" fill="#FEFFFF" transform="matrix(1.00, 0.00, -0.00, -1.00, 383.6, 500.0)">o</text><text xml:space="preserve" font-family="Helvetica-Light" font-size="32.0" fill="#FEFFFF" transform="matrix(1.00, 0.00, -0.00, -1.00, 401.4, 500.0)">l</text><text xml:space="preserve" font-family="Helvetica-Light" font-size="32.0" fill="#FEFFFF" transform="matrix(1.00, 0.00, -0.00, -1.00, 408.5, 500.0)">(</text><text xml:space="preserve" font-family="Helvetica-Light" font-size="32.0" fill="#FEFFFF" transform="matrix(1.00, 0.00, -0.00, -1.00, 419.1, 500.0)">x</text><text xml:space="preserve" font-family="Helvetica-Light" font-size="32.0" fill="#FEFFFF" transform="matrix(1.00, 0.00, -0.00, -1.00, 435.1, 500.0)">)</text><text xml:space="preserve" font-family="Helvetica-Light" font-size="32.0" fill="#FEFFFF" transform="matrix(1.00, 0.00, -0.00, -1.00, 445.8, 500.0)"> </text><text xml:space="preserve" font-family="Helvetica-Light" font-size="32.0" fill="#FEFFFF" transform="matrix(1.00, 0.00, -0.00, -1.00, 454.7, 500.0)">f</text><text xml:space="preserve" font-family="Helvetica-Light" font-size="32.0" fill="#FEFFFF" transform="matrix(1.00, 0.00, -0.00, -1.00, 463.6, 500.0)">u</text><text xml:space="preserve" font-family="Helvetica-Light" font-size="32.0" fill="#FEFFFF" transform="matrix(1.00, 0.00, -0.00, -1.00, 481.4, 500.0)">n</text><text xml:space="preserve" font-family="Helvetica-Light" font-size="32.0" fill="#FEFFFF" transform="matrix(1.00, 0.00, -0.00, -1.00, 499.2, 500.0)">c</text><text xml:space="preserve" font-family="Helvetica-Light" font-size="32.0" fill="#FEFFFF" transform="matrix(1.00, 0.00, -0.00, -1.00, 517.0, 500.0)">t</text><text xml:space="preserve" font-family="Helvetica-Light" font-size="32.0" fill="#FEFFFF" transform="matrix(1.00, 0.00, -0.00, -1.00, 525.8, 500.0)">i</text><text xml:space="preserve" font-family="Helvetica-Light" font-size="32.0" fill="#FEFFFF" transform="matrix(1.00, 0.00, -0.00, -1.00, 533.0, 500.0)">o</text><text xml:space="preserve" font-family="Helvetica-Light" font-size="32.0" fill="#FEFFFF" transform="matrix(1.00, 0.00, -0.00, -1.00, 550.7, 500.0)">n</text><text xml:space="preserve" font-family="Helvetica-Light" font-size="32.0" fill="#FEFFFF" transform="matrix(1.00, 0.00, -0.00, -1.00, 568.5, 500.0)"> </text><text xml:space="preserve" font-family="Helvetica-Light" font-size="32.0" fill="#FEFFFF" transform="matrix(1.00, 0.00, -0.00, -1.00, 577.4, 500.0)">t</text><text xml:space="preserve" font-family="Helvetica-Light" font-size="32.0" fill="#FEFFFF" transform="matrix(1.00, 0.00, -0.00, -1.00, 586.3, 500.0)">o</text><text xml:space="preserve" font-family="Helvetica-Light" font-size="32.0" fill="#FEFFFF" transform="matrix(1.00, 0.00, -0.00, -1.00, 604.1, 500.0)"> </text><text xml:space="preserve" font-family="Helvetica-Light" font-size="32.0" fill="#FEFFFF" transform="matrix(1.00, 0.00, -0.00, -1.00, 613.0, 500.0)">d</text><text xml:space="preserve" font-family="Helvetica-Light" font-size="32.0" fill="#FEFFFF" transform="matrix(1.00, 0.00, -0.00, -1.00, 632.6, 500.0)">e</text><text xml:space="preserve" font-family="Helvetica-Light" font-size="32.0" fill="#FEFFFF" transform="matrix(1.00, 0.00, -0.00, -1.00, 650.4, 500.0)">t</text><text xml:space="preserve" font-family="Helvetica-Light" font-size="32.0" fill="#FEFFFF" transform="matrix(1.00, 0.00, -0.00, -1.00, 659.3, 500.0)">e</text><text xml:space="preserve" font-family="Helvetica-Light" font-size="32.0" fill="#FEFFFF" transform="matrix(1.00, 0.00, -0.00, -1.00, 677.0, 500.0)">r</text><text xml:space="preserve" font-family="Helvetica-Light" font-size="32.0" fill="#FEFFFF" transform="matrix(1.00, 0.00, -0.00, -1.00, 688.3, 500.0)">m</text><text xml:space="preserve" font-family="Helvetica-Light" font-size="32.0" fill="#FEFFFF" transform="matrix(1.00, 0.00, -0.00, -1.00, 714.9, 500.0)">i</text><text xml:space="preserve" font-family="Helvetica-Light" font-size="32.0" fill="#FEFFFF" transform="matrix(1.00, 0.00, -0.00, -1.00, 722.0, 500.0)">n</text><text xml:space="preserve" font-family="Helvetica-Light" font-size="32.0" fill="#FEFFFF" transform="matrix(1.00, 0.00, -0.00, -1.00, 739.8, 500.0)">e</text><text xml:space="preserve" font-family="Helvetica-Light" font-size="32.0" fill="#FEFFFF" transform="matrix(1.00, 0.00, -0.00, -1.00, 757.6, 500.0)"> </text><text xml:space="preserve" font-family="Helvetica-Light" font-size="32.0" fill="#FEFFFF" transform="matrix(1.00, 0.00, -0.00, -1.00, 766.5, 500.0)">T</text><text xml:space="preserve" font-family="Helvetica-Light" font-size="32.0" fill="#FEFFFF" transform="matrix(1.00, 0.00, -0.00, -1.00, 781.4, 500.0)">r</text><text xml:space="preserve" font-family="Helvetica-Light" font-size="32.0" fill="#FEFFFF" transform="matrix(1.00, 0.00, -0.00, -1.00, 792.0, 500.0)">u</text><text xml:space="preserve" font-family="Helvetica-Light" font-size="32.0" fill="#FEFFFF" transform="matrix(1.00, 0.00, -0.00, -1.00, 809.8, 500.0)">e</text><text xml:space="preserve" font-family="Helvetica-Light" font-size="32.0" fill="#FEFFFF" transform="matrix(1.00, 0.00, -0.00, -1.00, 827.6, 500.0)">/</text><text xml:space="preserve" font-family="Helvetica-Light" font-size="32.0" fill="#FEFFFF" transform="matrix(1.00, 0.00, -0.00, -1.00, 836.5, 500.0)">F</text><text xml:space="preserve" font-family="Helvetica-Light" font-size="32.0" fill="#FEFFFF" transform="matrix(1.00, 0.00, -0.00, -1.00, 854.3, 500.0)">a</text><text xml:space="preserve" font-family="Helvetica-Light" font-size="32.0" fill="#FEFFFF" transform="matrix(1.00, 0.00, -0.00, -1.00, 872.1, 500.0)">l</text><text xml:space="preserve" font-family="Helvetica-Light" font-size="32.0" fill="#FEFFFF" transform="matrix(1.00, 0.00, -0.00, -1.00, 879.2, 500.0)">s</text><text xml:space="preserve" font-family="Helvetica-Light" font-size="32.0" fill="#FEFFFF" transform="matrix(1.00, 0.00, -0.00, -1.00, 895.2, 500.0)">e</text><text xml:space="preserve" font-family="Helvetica-Light" font-size="32.0" fill="#FEFFFF" transform="matrix(1.00, 0.00, -0.00, -1.00, 913.0, 500.0)"> </text><text xml:space="preserve" font-family="Helvetica-Light" font-size="32.0" fill="#FEFFFF" transform="matrix(1.00, 0.00, -0.00, -1.00, 115.0, 462.0)">v</text><text xml:space="preserve" font-family="Helvetica-Light" font-size="32.0" fill="#FEFFFF" transform="matrix(1.00, 0.00, -0.00, -1.00, 131.0, 462.0)">a</text><text xml:space="preserve" font-family="Helvetica-Light" font-size="32.0" fill="#FEFFFF" transform="matrix(1.00, 0.00, -0.00, -1.00, 148.8, 462.0)">l</text><text xml:space="preserve" font-family="Helvetica-Light" font-size="32.0" fill="#FEFFFF" transform="matrix(1.00, 0.00, -0.00, -1.00, 155.9, 462.0)">u</text><text xml:space="preserve" font-family="Helvetica-Light" font-size="32.0" fill="#FEFFFF" transform="matrix(1.00, 0.00, -0.00, -1.00, 173.7, 462.0)">e</text><text xml:space="preserve" font-family="Helvetica-Light" font-size="32.0" fill="#FEFFFF" transform="matrix(1.00, 0.00, -0.00, -1.00, 191.5, 462.0)">s</text><text xml:space="preserve" font-family="Helvetica-Light" font-size="32.0" fill="#FEFFFF" transform="matrix(1.00, 0.00, -0.00, -1.00, 207.5, 462.0)"> </text><text xml:space="preserve" font-family="Helvetica-Light" font-size="24.0" fill="#FEFFFF" transform="matrix(1.00, 0.00, -0.00, -1.00, 79.0, 384.6)">•</text><text xml:space="preserve" font-family="Helvetica-Light" font-size="32.0" fill="#FEFFFF" transform="matrix(1.00, 0.00, -0.00, -1.00, 115.0, 382.0)">d</text><text xml:space="preserve" font-family="Helvetica-Light" font-size="32.0" fill="#FEFFFF" transform="matrix(1.00, 0.00, -0.00, -1.00, 134.6, 382.0)">o</text><text xml:space="preserve" font-family="Helvetica-Light" font-size="32.0" fill="#FEFFFF" transform="matrix(1.00, 0.00, -0.00, -1.00, 152.3, 382.0)"> </text><text xml:space="preserve" font-family="Helvetica-Light" font-size="32.0" fill="#FEFFFF" transform="matrix(1.00, 0.00, -0.00, -1.00, 161.2, 382.0)">n</text><text xml:space="preserve" font-family="Helvetica-Light" font-size="32.0" fill="#FEFFFF" transform="matrix(1.00, 0.00, -0.00, -1.00, 179.0, 382.0)">o</text><text xml:space="preserve" font-family="Helvetica-Light" font-size="32.0" fill="#FEFFFF" transform="matrix(1.00, 0.00, -0.00, -1.00, 196.8, 382.0)">t</text><text xml:space="preserve" font-family="Helvetica-Light" font-size="32.0" fill="#FEFFFF" transform="matrix(1.00, 0.00, -0.00, -1.00, 205.7, 382.0)"> </text><text xml:space="preserve" font-family="Helvetica-Light" font-size="32.0" fill="#FEFFFF" transform="matrix(1.00, 0.00, -0.00, -1.00, 214.6, 382.0)">h</text><text xml:space="preserve" font-family="Helvetica-Light" font-size="32.0" fill="#FEFFFF" transform="matrix(1.00, 0.00, -0.00, -1.00, 232.4, 382.0)">a</text><text xml:space="preserve" font-family="Helvetica-Light" font-size="32.0" fill="#FEFFFF" transform="matrix(1.00, 0.00, -0.00, -1.00, 250.2, 382.0)">v</text><text xml:space="preserve" font-family="Helvetica-Light" font-size="32.0" fill="#FEFFFF" transform="matrix(1.00, 0.00, -0.00, -1.00, 266.2, 382.0)">e</text><text xml:space="preserve" font-family="Helvetica-Light" font-size="32.0" fill="#FEFFFF" transform="matrix(1.00, 0.00, -0.00, -1.00, 284.0, 382.0)"> </text><text xml:space="preserve" font-family="Helvetica-Light" font-size="32.0" fill="#FEFFFF" transform="matrix(1.00, 0.00, -0.00, -1.00, 292.9, 382.0)">t</text><text xml:space="preserve" font-family="Helvetica-Light" font-size="32.0" fill="#FEFFFF" transform="matrix(1.00, 0.00, -0.00, -1.00, 301.8, 382.0)">o</text><text xml:space="preserve" font-family="Helvetica-Light" font-size="32.0" fill="#FEFFFF" transform="matrix(1.00, 0.00, -0.00, -1.00, 319.6, 382.0)"> </text><text xml:space="preserve" font-family="Helvetica-Light" font-size="32.0" fill="#FEFFFF" transform="matrix(1.00, 0.00, -0.00, -1.00, 328.5, 382.0)">r</text><text xml:space="preserve" font-family="Helvetica-Light" font-size="32.0" fill="#FEFFFF" transform="matrix(1.00, 0.00, -0.00, -1.00, 338.6, 382.0)">e</text><text xml:space="preserve" font-family="Helvetica-Light" font-size="32.0" fill="#FEFFFF" transform="matrix(1.00, 0.00, -0.00, -1.00, 356.3, 382.0)">t</text><text xml:space="preserve" font-family="Helvetica-Light" font-size="32.0" fill="#FEFFFF" transform="matrix(1.00, 0.00, -0.00, -1.00, 365.2, 382.0)">u</text><text xml:space="preserve" font-family="Helvetica-Light" font-size="32.0" fill="#FEFFFF" transform="matrix(1.00, 0.00, -0.00, -1.00, 383.0, 382.0)">r</text><text xml:space="preserve" font-family="Helvetica-Light" font-size="32.0" fill="#FEFFFF" transform="matrix(1.00, 0.00, -0.00, -1.00, 394.3, 382.0)">n</text><text xml:space="preserve" font-family="Helvetica-Light" font-size="32.0" fill="#FEFFFF" transform="matrix(1.00, 0.00, -0.00, -1.00, 412.1, 382.0)"> </text><text xml:space="preserve" font-family="Helvetica-Light" font-size="32.0" fill="#FEFFFF" transform="matrix(1.00, 0.00, -0.00, -1.00, 421.0, 382.0)">T</text><text xml:space="preserve" font-family="Helvetica-Light" font-size="32.0" fill="#FEFFFF" transform="matrix(1.00, 0.00, -0.00, -1.00, 435.8, 382.0)">r</text><text xml:space="preserve" font-family="Helvetica-Light" font-size="32.0" fill="#FEFFFF" transform="matrix(1.00, 0.00, -0.00, -1.00, 446.5, 382.0)">u</text><text xml:space="preserve" font-family="Helvetica-Light" font-size="32.0" fill="#FEFFFF" transform="matrix(1.00, 0.00, -0.00, -1.00, 464.2, 382.0)">e</text><text xml:space="preserve" font-family="Helvetica-Light" font-size="32.0" fill="#FEFFFF" transform="matrix(1.00, 0.00, -0.00, -1.00, 482.0, 382.0)">/</text><text xml:space="preserve" font-family="Helvetica-Light" font-size="32.0" fill="#FEFFFF" transform="matrix(1.00, 0.00, -0.00, -1.00, 490.9, 382.0)">F</text><text xml:space="preserve" font-family="Helvetica-Light" font-size="32.0" fill="#FEFFFF" transform="matrix(1.00, 0.00, -0.00, -1.00, 508.7, 382.0)">a</text><text xml:space="preserve" font-family="Helvetica-Light" font-size="32.0" fill="#FEFFFF" transform="matrix(1.00, 0.00, -0.00, -1.00, 526.5, 382.0)">l</text><text xml:space="preserve" font-family="Helvetica-Light" font-size="32.0" fill="#FEFFFF" transform="matrix(1.00, 0.00, -0.00, -1.00, 533.6, 382.0)">s</text><text xml:space="preserve" font-family="Helvetica-Light" font-size="32.0" fill="#FEFFFF" transform="matrix(1.00, 0.00, -0.00, -1.00, 549.6, 382.0)">e</text><text xml:space="preserve" font-family="Helvetica-Light" font-size="32.0" fill="#FEFFFF" transform="matrix(1.00, 0.00, -0.00, -1.00, 567.4, 382.0)"> </text><text xml:space="preserve" font-family="Helvetica-Light" font-size="24.0" fill="#FEFFFF" transform="matrix(1.00, 0.00, -0.00, -1.00, 79.0, 304.6)">•</text><text xml:space="preserve" font-family="Helvetica-Light" font-size="32.0" fill="#FEFFFF" transform="matrix(1.00, 0.00, -0.00, -1.00, 115.0, 302.0)">F</text><text xml:space="preserve" font-family="Helvetica-Light" font-size="32.0" fill="#FEFFFF" transform="matrix(1.00, 0.00, -0.00, -1.00, 132.8, 302.0)">a</text><text xml:space="preserve" font-family="Helvetica-Light" font-size="32.0" fill="#FEFFFF" transform="matrix(1.00, 0.00, -0.00, -1.00, 150.6, 302.0)">l</text><text xml:space="preserve" font-family="Helvetica-Light" font-size="32.0" fill="#FEFFFF" transform="matrix(1.00, 0.00, -0.00, -1.00, 157.7, 302.0)">s</text><text xml:space="preserve" font-family="Helvetica-Light" font-size="32.0" fill="#FEFFFF" transform="matrix(1.00, 0.00, -0.00, -1.00, 173.7, 302.0)">e</text><text xml:space="preserve" font-family="Helvetica-Light" font-size="32.0" fill="#FEFFFF" transform="matrix(1.00, 0.00, -0.00, -1.00, 191.5, 302.0)"> </text><text xml:space="preserve" font-family="Helvetica-Light" font-size="32.0" fill="#FEFFFF" transform="matrix(1.00, 0.00, -0.00, -1.00, 200.4, 302.0)">v</text><text xml:space="preserve" font-family="Helvetica-Light" font-size="32.0" fill="#FEFFFF" transform="matrix(1.00, 0.00, -0.00, -1.00, 216.4, 302.0)">a</text><text xml:space="preserve" font-family="Helvetica-Light" font-size="32.0" fill="#FEFFFF" transform="matrix(1.00, 0.00, -0.00, -1.00, 234.2, 302.0)">l</text><text xml:space="preserve" font-family="Helvetica-Light" font-size="32.0" fill="#FEFFFF" transform="matrix(1.00, 0.00, -0.00, -1.00, 241.3, 302.0)">u</text><text xml:space="preserve" font-family="Helvetica-Light" font-size="32.0" fill="#FEFFFF" transform="matrix(1.00, 0.00, -0.00, -1.00, 259.1, 302.0)">e</text><text xml:space="preserve" font-family="Helvetica-Light" font-size="32.0" fill="#FEFFFF" transform="matrix(1.00, 0.00, -0.00, -1.00, 276.9, 302.0)">s</text><text xml:space="preserve" font-family="Helvetica-Light" font-size="32.0" fill="#FEFFFF" transform="matrix(1.00, 0.00, -0.00, -1.00, 292.9, 302.0)">:</text><text xml:space="preserve" font-family="Helvetica-Light" font-size="32.0" fill="#FEFFFF" transform="matrix(1.00, 0.00, -0.00, -1.00, 301.8, 302.0)"> </text><text xml:space="preserve" font-family="Helvetica-Light" font-size="32.0" fill="#FEFFFF" transform="matrix(1.00, 0.00, -0.00, -1.00, 310.6, 302.0)">F</text><text xml:space="preserve" font-family="Helvetica-Light" font-size="32.0" fill="#FEFFFF" transform="matrix(1.00, 0.00, -0.00, -1.00, 328.4, 302.0)">a</text><text xml:space="preserve" font-family="Helvetica-Light" font-size="32.0" fill="#FEFFFF" transform="matrix(1.00, 0.00, -0.00, -1.00, 346.2, 302.0)">l</text><text xml:space="preserve" font-family="Helvetica-Light" font-size="32.0" fill="#FEFFFF" transform="matrix(1.00, 0.00, -0.00, -1.00, 353.3, 302.0)">s</text><text xml:space="preserve" font-family="Helvetica-Light" font-size="32.0" fill="#FEFFFF" transform="matrix(1.00, 0.00, -0.00, -1.00, 369.3, 302.0)">e</text><text xml:space="preserve" font-family="Helvetica-Light" font-size="32.0" fill="#FEFFFF" transform="matrix(1.00, 0.00, -0.00, -1.00, 387.1, 302.0)">,</text><text xml:space="preserve" font-family="Helvetica-Light" font-size="32.0" fill="#FEFFFF" transform="matrix(1.00, 0.00, -0.00, -1.00, 396.0, 302.0)"> </text><text xml:space="preserve" font-family="Helvetica-Light" font-size="32.0" fill="#FEFFFF" transform="matrix(1.00, 0.00, -0.00, -1.00, 404.9, 302.0)">0</text><text xml:space="preserve" font-family="Helvetica-Light" font-size="32.0" fill="#FEFFFF" transform="matrix(1.00, 0.00, -0.00, -1.00, 422.7, 302.0)">,</text><text xml:space="preserve" font-family="Helvetica-Light" font-size="32.0" fill="#FEFFFF" transform="matrix(1.00, 0.00, -0.00, -1.00, 431.6, 302.0)"> </text><text xml:space="preserve" font-family="Helvetica-Light" font-size="32.0" fill="#FEFFFF" transform="matrix(1.00, 0.00, -0.00, -1.00, 440.5, 302.0)">N</text><text xml:space="preserve" font-family="Helvetica-Light" font-size="32.0" fill="#FEFFFF" transform="matrix(1.00, 0.00, -0.00, -1.00, 463.6, 302.0)">o</text><text xml:space="preserve" font-family="Helvetica-Light" font-size="32.0" fill="#FEFFFF" transform="matrix(1.00, 0.00, -0.00, -1.00, 481.4, 302.0)">n</text><text xml:space="preserve" font-family="Helvetica-Light" font-size="32.0" fill="#FEFFFF" transform="matrix(1.00, 0.00, -0.00, -1.00, 499.2, 302.0)">e</text><text xml:space="preserve" font-family="Helvetica-Light" font-size="32.0" fill="#FEFFFF" transform="matrix(1.00, 0.00, -0.00, -1.00, 517.0, 302.0)">,</text><text xml:space="preserve" font-family="Helvetica-Light" font-size="32.0" fill="#FEFFFF" transform="matrix(1.00, 0.00, -0.00, -1.00, 525.9, 302.0)"> </text><text xml:space="preserve" font-family="Helvetica-Light" font-size="32.0" fill="#FEFFFF" transform="matrix(1.00, 0.00, -0.00, -1.00, 534.8, 302.0)">“</text><text xml:space="preserve" font-family="Helvetica-Light" font-size="32.0" fill="#FEFFFF" transform="matrix(1.00, 0.00, -0.00, -1.00, 547.2, 302.0)">”</text><text xml:space="preserve" font-family="Helvetica-Light" font-size="32.0" fill="#FEFFFF" transform="matrix(1.00, 0.00, -0.00, -1.00, 559.7, 302.0)">,</text><text xml:space="preserve" font-family="Helvetica-Light" font-size="32.0" fill="#FEFFFF" transform="matrix(1.00, 0.00, -0.00, -1.00, 568.6, 302.0)"> </text><text xml:space="preserve" font-family="Helvetica-Light" font-size="32.0" fill="#FEFFFF" transform="matrix(1.00, 0.00, -0.00, -1.00, 577.5, 302.0)">[</text><text xml:space="preserve" font-family="Helvetica-Light" font-size="32.0" fill="#FEFFFF" transform="matrix(1.00, 0.00, -0.00, -1.00, 588.1, 302.0)">]</text><text xml:space="preserve" font-family="Helvetica-Light" font-size="32.0" fill="#FEFFFF" transform="matrix(1.00, 0.00, -0.00, -1.00, 598.8, 302.0)">…</text><text xml:space="preserve" font-family="Helvetica-Light" font-size="32.0" fill="#FEFFFF" transform="matrix(1.00, 0.00, -0.00, -1.00, 630.8, 302.0)"> </text><text xml:space="preserve" font-family="Helvetica-Light" font-size="24.0" fill="#FEFFFF" transform="matrix(1.00, 0.00, -0.00, -1.00, 79.0, 224.6)">•</text><text xml:space="preserve" font-family="Helvetica-Light" font-size="32.0" fill="#FEFFFF" transform="matrix(1.00, 0.00, -0.00, -1.00, 115.0, 222.0)">T</text><text xml:space="preserve" font-family="Helvetica-Light" font-size="32.0" fill="#FEFFFF" transform="matrix(1.00, 0.00, -0.00, -1.00, 129.8, 222.0)">r</text><text xml:space="preserve" font-family="Helvetica-Light" font-size="32.0" fill="#FEFFFF" transform="matrix(1.00, 0.00, -0.00, -1.00, 140.5, 222.0)">u</text><text xml:space="preserve" font-family="Helvetica-Light" font-size="32.0" fill="#FEFFFF" transform="matrix(1.00, 0.00, -0.00, -1.00, 158.3, 222.0)">e</text><text xml:space="preserve" font-family="Helvetica-Light" font-size="32.0" fill="#FEFFFF" transform="matrix(1.00, 0.00, -0.00, -1.00, 176.1, 222.0)"> </text><text xml:space="preserve" font-family="Helvetica-Light" font-size="32.0" fill="#FEFFFF" transform="matrix(1.00, 0.00, -0.00, -1.00, 185.0, 222.0)">v</text><text xml:space="preserve" font-family="Helvetica-Light" font-size="32.0" fill="#FEFFFF" transform="matrix(1.00, 0.00, -0.00, -1.00, 201.0, 222.0)">a</text><text xml:space="preserve" font-family="Helvetica-Light" font-size="32.0" fill="#FEFFFF" transform="matrix(1.00, 0.00, -0.00, -1.00, 218.8, 222.0)">l</text><text xml:space="preserve" font-family="Helvetica-Light" font-size="32.0" fill="#FEFFFF" transform="matrix(1.00, 0.00, -0.00, -1.00, 225.9, 222.0)">u</text><text xml:space="preserve" font-family="Helvetica-Light" font-size="32.0" fill="#FEFFFF" transform="matrix(1.00, 0.00, -0.00, -1.00, 243.7, 222.0)">e</text><text xml:space="preserve" font-family="Helvetica-Light" font-size="32.0" fill="#FEFFFF" transform="matrix(1.00, 0.00, -0.00, -1.00, 261.5, 222.0)">s</text><text xml:space="preserve" font-family="Helvetica-Light" font-size="32.0" fill="#FEFFFF" transform="matrix(1.00, 0.00, -0.00, -1.00, 277.5, 222.0)">:</text><text xml:space="preserve" font-family="Helvetica-Light" font-size="32.0" fill="#FEFFFF" transform="matrix(1.00, 0.00, -0.00, -1.00, 286.4, 222.0)"> </text><text xml:space="preserve" font-family="Helvetica-Light" font-size="32.0" fill="#FEFFFF" transform="matrix(1.00, 0.00, -0.00, -1.00, 295.3, 222.0)">T</text><text xml:space="preserve" font-family="Helvetica-Light" font-size="32.0" fill="#FEFFFF" transform="matrix(1.00, 0.00, -0.00, -1.00, 310.1, 222.0)">r</text><text xml:space="preserve" font-family="Helvetica-Light" font-size="32.0" fill="#FEFFFF" transform="matrix(1.00, 0.00, -0.00, -1.00, 320.8, 222.0)">u</text><text xml:space="preserve" font-family="Helvetica-Light" font-size="32.0" fill="#FEFFFF" transform="matrix(1.00, 0.00, -0.00, -1.00, 338.6, 222.0)">e</text><text xml:space="preserve" font-family="Helvetica-Light" font-size="32.0" fill="#FEFFFF" transform="matrix(1.00, 0.00, -0.00, -1.00, 356.3, 222.0)">,</text><text xml:space="preserve" font-family="Helvetica-Light" font-size="32.0" fill="#FEFFFF" transform="matrix(1.00, 0.00, -0.00, -1.00, 365.2, 222.0)"> </text><text xml:space="preserve" font-family="Helvetica-Light" font-size="32.0" fill="#FEFFFF" transform="matrix(1.00, 0.00, -0.00, -1.00, 374.1, 222.0)">n</text><text xml:space="preserve" font-family="Helvetica-Light" font-size="32.0" fill="#FEFFFF" transform="matrix(1.00, 0.00, -0.00, -1.00, 391.9, 222.0)">o</text><text xml:space="preserve" font-family="Helvetica-Light" font-size="32.0" fill="#FEFFFF" transform="matrix(1.00, 0.00, -0.00, -1.00, 409.7, 222.0)">n</text><text xml:space="preserve" font-family="Helvetica-Light" font-size="32.0" fill="#FEFFFF" transform="matrix(1.00, 0.00, -0.00, -1.00, 427.5, 222.0)">-</text><text xml:space="preserve" font-family="Helvetica-Light" font-size="32.0" fill="#FEFFFF" transform="matrix(1.00, 0.00, -0.00, -1.00, 438.2, 222.0)">z</text><text xml:space="preserve" font-family="Helvetica-Light" font-size="32.0" fill="#FEFFFF" transform="matrix(1.00, 0.00, -0.00, -1.00, 454.2, 222.0)">e</text><text xml:space="preserve" font-family="Helvetica-Light" font-size="32.0" fill="#FEFFFF" transform="matrix(1.00, 0.00, -0.00, -1.00, 472.0, 222.0)">r</text><text xml:space="preserve" font-family="Helvetica-Light" font-size="32.0" fill="#FEFFFF" transform="matrix(1.00, 0.00, -0.00, -1.00, 482.0, 222.0)">o</text><text xml:space="preserve" font-family="Helvetica-Light" font-size="32.0" fill="#FEFFFF" transform="matrix(1.00, 0.00, -0.00, -1.00, 499.8, 222.0)"> </text><text xml:space="preserve" font-family="Helvetica-Light" font-size="32.0" fill="#FEFFFF" transform="matrix(1.00, 0.00, -0.00, -1.00, 508.7, 222.0)">i</text><text xml:space="preserve" font-family="Helvetica-Light" font-size="32.0" fill="#FEFFFF" transform="matrix(1.00, 0.00, -0.00, -1.00, 515.8, 222.0)">n</text><text xml:space="preserve" font-family="Helvetica-Light" font-size="32.0" fill="#FEFFFF" transform="matrix(1.00, 0.00, -0.00, -1.00, 533.6, 222.0)">t</text><text xml:space="preserve" font-family="Helvetica-Light" font-size="32.0" fill="#FEFFFF" transform="matrix(1.00, 0.00, -0.00, -1.00, 542.5, 222.0)">e</text><text xml:space="preserve" font-family="Helvetica-Light" font-size="32.0" fill="#FEFFFF" transform="matrix(1.00, 0.00, -0.00, -1.00, 560.3, 222.0)">g</text><text xml:space="preserve" font-family="Helvetica-Light" font-size="32.0" fill="#FEFFFF" transform="matrix(1.00, 0.00, -0.00, -1.00, 579.9, 222.0)">e</text><text xml:space="preserve" font-family="Helvetica-Light" font-size="32.0" fill="#FEFFFF" transform="matrix(1.00, 0.00, -0.00, -1.00, 597.7, 222.0)">r</text><text xml:space="preserve" font-family="Helvetica-Light" font-size="32.0" fill="#FEFFFF" transform="matrix(1.00, 0.00, -0.00, -1.00, 608.3, 222.0)">s</text><text xml:space="preserve" font-family="Helvetica-Light" font-size="32.0" fill="#FEFFFF" transform="matrix(1.00, 0.00, -0.00, -1.00, 624.3, 222.0)">,</text><text xml:space="preserve" font-family="Helvetica-Light" font-size="32.0" fill="#FEFFFF" transform="matrix(1.00, 0.00, -0.00, -1.00, 633.2, 222.0)"> </text><text xml:space="preserve" font-family="Helvetica-Light" font-size="32.0" fill="#FEFFFF" transform="matrix(1.00, 0.00, -0.00, -1.00, 642.1, 222.0)">a</text><text xml:space="preserve" font-family="Helvetica-Light" font-size="32.0" fill="#FEFFFF" transform="matrix(1.00, 0.00, -0.00, -1.00, 659.9, 222.0)">l</text><text xml:space="preserve" font-family="Helvetica-Light" font-size="32.0" fill="#FEFFFF" transform="matrix(1.00, 0.00, -0.00, -1.00, 667.0, 222.0)">m</text><text xml:space="preserve" font-family="Helvetica-Light" font-size="32.0" fill="#FEFFFF" transform="matrix(1.00, 0.00, -0.00, -1.00, 693.7, 222.0)">o</text><text xml:space="preserve" font-family="Helvetica-Light" font-size="32.0" fill="#FEFFFF" transform="matrix(1.00, 0.00, -0.00, -1.00, 711.4, 222.0)">s</text><text xml:space="preserve" font-family="Helvetica-Light" font-size="32.0" fill="#FEFFFF" transform="matrix(1.00, 0.00, -0.00, -1.00, 727.4, 222.0)">t</text><text xml:space="preserve" font-family="Helvetica-Light" font-size="32.0" fill="#FEFFFF" transform="matrix(1.00, 0.00, -0.00, -1.00, 736.3, 222.0)"> </text><text xml:space="preserve" font-family="Helvetica-Light" font-size="32.0" fill="#FEFFFF" transform="matrix(1.00, 0.00, -0.00, -1.00, 745.2, 222.0)">e</text><text xml:space="preserve" font-family="Helvetica-Light" font-size="32.0" fill="#FEFFFF" transform="matrix(1.00, 0.00, -0.00, -1.00, 763.0, 222.0)">v</text><text xml:space="preserve" font-family="Helvetica-Light" font-size="32.0" fill="#FEFFFF" transform="matrix(1.00, 0.00, -0.00, -1.00, 779.0, 222.0)">e</text><text xml:space="preserve" font-family="Helvetica-Light" font-size="32.0" fill="#FEFFFF" transform="matrix(1.00, 0.00, -0.00, -1.00, 796.8, 222.0)">r</text><text xml:space="preserve" font-family="Helvetica-Light" font-size="32.0" fill="#FEFFFF" transform="matrix(1.00, 0.00, -0.00, -1.00, 808.1, 222.0)">y</text><text xml:space="preserve" font-family="Helvetica-Light" font-size="32.0" fill="#FEFFFF" transform="matrix(1.00, 0.00, -0.00, -1.00, 824.1, 222.0)">t</text><text xml:space="preserve" font-family="Helvetica-Light" font-size="32.0" fill="#FEFFFF" transform="matrix(1.00, 0.00, -0.00, -1.00, 833.0, 222.0)">h</text><text xml:space="preserve" font-family="Helvetica-Light" font-size="32.0" fill="#FEFFFF" transform="matrix(1.00, 0.00, -0.00, -1.00, 850.7, 222.0)">i</text><text xml:space="preserve" font-family="Helvetica-Light" font-size="32.0" fill="#FEFFFF" transform="matrix(1.00, 0.00, -0.00, -1.00, 857.8, 222.0)">n</text><text xml:space="preserve" font-family="Helvetica-Light" font-size="32.0" fill="#FEFFFF" transform="matrix(1.00, 0.00, -0.00, -1.00, 875.6, 222.0)">g</text><text xml:space="preserve" font-family="Helvetica-Light" font-size="32.0" fill="#FEFFFF" transform="matrix(1.00, 0.00, -0.00, -1.00, 895.2, 222.0)"> </text><text xml:space="preserve" font-family="Helvetica-Light" font-size="32.0" fill="#FEFFFF" transform="matrix(1.00, 0.00, -0.00, -1.00, 115.0, 184.0)">e</text><text xml:space="preserve" font-family="Helvetica-Light" font-size="32.0" fill="#FEFFFF" transform="matrix(1.00, 0.00, -0.00, -1.00, 132.8, 184.0)">l</text><text xml:space="preserve" font-family="Helvetica-Light" font-size="32.0" fill="#FEFFFF" transform="matrix(1.00, 0.00, -0.00, -1.00, 139.9, 184.0)">s</text><text xml:space="preserve" font-family="Helvetica-Light" font-size="32.0" fill="#FEFFFF" transform="matrix(1.00, 0.00, -0.00, -1.00, 155.9, 184.0)">e</text></g></svg>