<?xml version="1.0" encoding="UTF-8" standalone="no"?><svg xmlns="http://www.w3.org/2000/svg" xmlns:xlink="http://www.w3.org/1999/xlink" clip-rule="evenodd" stroke-miterlimit="4.00" viewBox="0 0 1024 768"><desc>SVG generated by Keynote</desc><defs></defs><g transform="matrix(1.00, 0.00, -0.00, -1.00, 0.0, 768.0)"><g><clipPath id="clip-8"><path d="M 0.0 768.0 L 1024.0 768.0 L 1024.0 0.0 L 0.0 0.0 Z M 0.0 768.0 "></path></clipPath><g clip-path="url(#clip-8)"><image xlink:href="../../06DBE9C8-52A0-453A-A7BF-EBF58CF01F35/assets/E7ABA782A15EA3475B4CFCC80A2FEB63.jpeg" width="1024.00" height="768.00" transform="matrix(1.00, 0.00, -0.00, -1.00, 0.0, 768.0)"></image></g></g><text xml:space="preserve" font-family="Helvetica-Light" font-size="80.0" fill="#FEFFFF" transform="matrix(1.00, 0.00, -0.00, -1.00, 174.0, 622.0)">B</text><text xml:space="preserve" font-family="Helvetica-Light" font-size="80.0" fill="#FEFFFF" transform="matrix(1.00, 0.00, -0.00, -1.00, 227.4, 622.0)">o</text><text xml:space="preserve" font-family="Helvetica-Light" font-size="80.0" fill="#FEFFFF" transform="matrix(1.00, 0.00, -0.00, -1.00, 271.8, 622.0)">o</text><text xml:space="preserve" font-family="Helvetica-Light" font-size="80.0" fill="#FEFFFF" transform="matrix(1.00, 0.00, -0.00, -1.00, 316.3, 622.0)">l</text><text xml:space="preserve" font-family="Helvetica-Light" font-size="80.0" fill="#FEFFFF" transform="matrix(1.00, 0.00, -0.00, -1.00, 334.1, 622.0)">e</text><text xml:space="preserve" font-family="Helvetica-Light" font-size="80.0" fill="#FEFFFF" transform="matrix(1.00, 0.00, -0.00, -1.00, 378.6, 622.0)">a</text><text xml:space="preserve" font-family="Helvetica-Light" font-size="80.0" fill="#FEFFFF" transform="matrix(1.00, 0.00, -0.00, -1.00, 423.0, 622.0)">n</text><text xml:space="preserve" font-family="Helvetica-Light" font-size="80.0" fill="#FEFFFF" transform="matrix(1.00, 0.00, -0.00, -1.00, 467.5, 622.0)"> </text><text xml:space="preserve" font-family="Helvetica-Light" font-size="80.0" fill="#FEFFFF" transform="matrix(1.00, 0.00, -0.00, -1.00, 489.8, 622.0)">O</text><text xml:space="preserve" font-family="Helvetica-Light" font-size="80.0" fill="#FEFFFF" transform="matrix(1.00, 0.00, -0.00, -1.00, 552.0, 622.0)">p</text><text xml:space="preserve" font-family="Helvetica-Light" font-size="80.0" fill="#FEFFFF" transform="matrix(1.00, 0.00, -0.00, -1.00, 600.9, 622.0)">e</text><text xml:space="preserve" font-family="Helvetica-Light" font-size="80.0" fill="#FEFFFF" transform="matrix(1.00, 0.00, -0.00, -1.00, 645.4, 622.0)">r</text><text xml:space="preserve" font-family="Helvetica-Light" font-size="80.0" fill="#FEFFFF" transform="matrix(1.00, 0.00, -0.00, -1.00, 672.0, 622.0)">a</text><text xml:space="preserve" font-family="Helvetica-Light" font-size="80.0" fill="#FEFFFF" transform="matrix(1.00, 0.00, -0.00, -1.00, 716.5, 622.0)">t</text><text xml:space="preserve" font-family="Helvetica-Light" font-size="80.0" fill="#FEFFFF" transform="matrix(1.00, 0.00, -0.00, -1.00, 738.7, 622.0)">o</text><text xml:space="preserve" font-family="Helvetica-Light" font-size="80.0" fill="#FEFFFF" transform="matrix(1.00, 0.00, -0.00, -1.00, 783.2, 622.0)">r</text><text xml:space="preserve" font-family="Helvetica-Light" font-size="80.0" fill="#FEFFFF" transform="matrix(1.00, 0.00, -0.00, -1.00, 809.8, 622.0)">s</text><text xml:space="preserve" font-family="Helvetica-Light" font-size="22.5" fill="#FEFFFF" transform="matrix(1.00, 0.00, -0.00, -1.00, 79.0, 503.2)">•</text><text xml:space="preserve" font-family="Helvetica-Light" font-size="30.0" fill="#FEFFFF" transform="matrix(1.00, 0.00, -0.00, -1.00, 115.0, 500.0)">n</text><text xml:space="preserve" font-family="Helvetica-Light" font-size="30.0" fill="#FEFFFF" transform="matrix(1.00, 0.00, -0.00, -1.00, 131.7, 500.0)">o</text><text xml:space="preserve" font-family="Helvetica-Light" font-size="30.0" fill="#FEFFFF" transform="matrix(1.00, 0.00, -0.00, -1.00, 148.4, 500.0)">t</text><text xml:space="preserve" font-family="Helvetica-Light" font-size="30.0" fill="#FEFFFF" transform="matrix(1.00, 0.00, -0.00, -1.00, 156.7, 500.0)">:</text><text xml:space="preserve" font-family="Helvetica-Light" font-size="30.0" fill="#FEFFFF" transform="matrix(1.00, 0.00, -0.00, -1.00, 165.0, 500.0)"> </text><text xml:space="preserve" font-family="Helvetica-Light" font-size="30.0" fill="#FEFFFF" transform="matrix(1.00, 0.00, -0.00, -1.00, 173.4, 500.0)">r</text><text xml:space="preserve" font-family="Helvetica-Light" font-size="30.0" fill="#FEFFFF" transform="matrix(1.00, 0.00, -0.00, -1.00, 182.8, 500.0)">e</text><text xml:space="preserve" font-family="Helvetica-Light" font-size="30.0" fill="#FEFFFF" transform="matrix(1.00, 0.00, -0.00, -1.00, 199.5, 500.0)">t</text><text xml:space="preserve" font-family="Helvetica-Light" font-size="30.0" fill="#FEFFFF" transform="matrix(1.00, 0.00, -0.00, -1.00, 207.8, 500.0)">u</text><text xml:space="preserve" font-family="Helvetica-Light" font-size="30.0" fill="#FEFFFF" transform="matrix(1.00, 0.00, -0.00, -1.00, 224.5, 500.0)">r</text><text xml:space="preserve" font-family="Helvetica-Light" font-size="30.0" fill="#FEFFFF" transform="matrix(1.00, 0.00, -0.00, -1.00, 235.1, 500.0)">n</text><text xml:space="preserve" font-family="Helvetica-Light" font-size="30.0" fill="#FEFFFF" transform="matrix(1.00, 0.00, -0.00, -1.00, 251.7, 500.0)">s</text><text xml:space="preserve" font-family="Helvetica-Light" font-size="30.0" fill="#FEFFFF" transform="matrix(1.00, 0.00, -0.00, -1.00, 266.7, 500.0)"> </text><text xml:space="preserve" font-family="Helvetica-Light" font-size="30.0" fill="#FEFFFF" transform="matrix(1.00, 0.00, -0.00, -1.00, 275.1, 500.0)">t</text><text xml:space="preserve" font-family="Helvetica-Light" font-size="30.0" fill="#FEFFFF" transform="matrix(1.00, 0.00, -0.00, -1.00, 283.4, 500.0)">h</text><text xml:space="preserve" font-family="Helvetica-Light" font-size="30.0" fill="#FEFFFF" transform="matrix(1.00, 0.00, -0.00, -1.00, 300.1, 500.0)">e</text><text xml:space="preserve" font-family="Helvetica-Light" font-size="30.0" fill="#FEFFFF" transform="matrix(1.00, 0.00, -0.00, -1.00, 316.8, 500.0)"> </text><text xml:space="preserve" font-family="Helvetica-Light" font-size="30.0" fill="#FEFFFF" transform="matrix(1.00, 0.00, -0.00, -1.00, 325.1, 500.0)">o</text><text xml:space="preserve" font-family="Helvetica-Light" font-size="30.0" fill="#FEFFFF" transform="matrix(1.00, 0.00, -0.00, -1.00, 341.8, 500.0)">p</text><text xml:space="preserve" font-family="Helvetica-Light" font-size="30.0" fill="#FEFFFF" transform="matrix(1.00, 0.00, -0.00, -1.00, 360.1, 500.0)">p</text><text xml:space="preserve" font-family="Helvetica-Light" font-size="30.0" fill="#FEFFFF" transform="matrix(1.00, 0.00, -0.00, -1.00, 378.5, 500.0)">o</text><text xml:space="preserve" font-family="Helvetica-Light" font-size="30.0" fill="#FEFFFF" transform="matrix(1.00, 0.00, -0.00, -1.00, 395.1, 500.0)">s</text><text xml:space="preserve" font-family="Helvetica-Light" font-size="30.0" fill="#FEFFFF" transform="matrix(1.00, 0.00, -0.00, -1.00, 410.1, 500.0)">i</text><text xml:space="preserve" font-family="Helvetica-Light" font-size="30.0" fill="#FEFFFF" transform="matrix(1.00, 0.00, -0.00, -1.00, 416.8, 500.0)">t</text><text xml:space="preserve" font-family="Helvetica-Light" font-size="30.0" fill="#FEFFFF" transform="matrix(1.00, 0.00, -0.00, -1.00, 425.1, 500.0)">e</text><text xml:space="preserve" font-family="Helvetica-Light" font-size="30.0" fill="#FEFFFF" transform="matrix(1.00, 0.00, -0.00, -1.00, 441.8, 500.0)"> </text><text xml:space="preserve" font-family="Helvetica-Light" font-size="22.5" fill="#FEFFFF" transform="matrix(1.00, 0.00, -0.00, -1.00, 115.0, 425.2)">•</text><text xml:space="preserve" font-family="Helvetica-Light" font-size="30.0" fill="#FEFFFF" transform="matrix(1.00, 0.00, -0.00, -1.00, 151.0, 422.0)">a</text><text xml:space="preserve" font-family="Helvetica-Light" font-size="30.0" fill="#FEFFFF" transform="matrix(1.00, 0.00, -0.00, -1.00, 167.7, 422.0)">l</text><text xml:space="preserve" font-family="Helvetica-Light" font-size="30.0" fill="#FEFFFF" transform="matrix(1.00, 0.00, -0.00, -1.00, 174.3, 422.0)">w</text><text xml:space="preserve" font-family="Helvetica-Light" font-size="30.0" fill="#FEFFFF" transform="matrix(1.00, 0.00, -0.00, -1.00, 196.0, 422.0)">a</text><text xml:space="preserve" font-family="Helvetica-Light" font-size="30.0" fill="#FEFFFF" transform="matrix(1.00, 0.00, -0.00, -1.00, 212.7, 422.0)">y</text><text xml:space="preserve" font-family="Helvetica-Light" font-size="30.0" fill="#FEFFFF" transform="matrix(1.00, 0.00, -0.00, -1.00, 227.7, 422.0)">s</text><text xml:space="preserve" font-family="Helvetica-Light" font-size="30.0" fill="#FEFFFF" transform="matrix(1.00, 0.00, -0.00, -1.00, 242.7, 422.0)"> </text><text xml:space="preserve" font-family="Helvetica-Light" font-size="30.0" fill="#FEFFFF" transform="matrix(1.00, 0.00, -0.00, -1.00, 251.0, 422.0)">r</text><text xml:space="preserve" font-family="Helvetica-Light" font-size="30.0" fill="#FEFFFF" transform="matrix(1.00, 0.00, -0.00, -1.00, 260.5, 422.0)">e</text><text xml:space="preserve" font-family="Helvetica-Light" font-size="30.0" fill="#FEFFFF" transform="matrix(1.00, 0.00, -0.00, -1.00, 277.1, 422.0)">t</text><text xml:space="preserve" font-family="Helvetica-Light" font-size="30.0" fill="#FEFFFF" transform="matrix(1.00, 0.00, -0.00, -1.00, 285.5, 422.0)">u</text><text xml:space="preserve" font-family="Helvetica-Light" font-size="30.0" fill="#FEFFFF" transform="matrix(1.00, 0.00, -0.00, -1.00, 302.2, 422.0)">r</text><text xml:space="preserve" font-family="Helvetica-Light" font-size="30.0" fill="#FEFFFF" transform="matrix(1.00, 0.00, -0.00, -1.00, 312.7, 422.0)">n</text><text xml:space="preserve" font-family="Helvetica-Light" font-size="30.0" fill="#FEFFFF" transform="matrix(1.00, 0.00, -0.00, -1.00, 329.4, 422.0)">s</text><text xml:space="preserve" font-family="Helvetica-Light" font-size="30.0" fill="#FEFFFF" transform="matrix(1.00, 0.00, -0.00, -1.00, 344.4, 422.0)"> </text><text xml:space="preserve" font-family="Helvetica-Light" font-size="30.0" fill="#FEFFFF" transform="matrix(1.00, 0.00, -0.00, -1.00, 352.7, 422.0)">T</text><text xml:space="preserve" font-family="Helvetica-Light" font-size="30.0" fill="#FEFFFF" transform="matrix(1.00, 0.00, -0.00, -1.00, 366.6, 422.0)">r</text><text xml:space="preserve" font-family="Helvetica-Light" font-size="30.0" fill="#FEFFFF" transform="matrix(1.00, 0.00, -0.00, -1.00, 376.6, 422.0)">u</text><text xml:space="preserve" font-family="Helvetica-Light" font-size="30.0" fill="#FEFFFF" transform="matrix(1.00, 0.00, -0.00, -1.00, 393.3, 422.0)">e</text><text xml:space="preserve" font-family="Helvetica-Light" font-size="30.0" fill="#FEFFFF" transform="matrix(1.00, 0.00, -0.00, -1.00, 410.0, 422.0)"> </text><text xml:space="preserve" font-family="Helvetica-Light" font-size="30.0" fill="#FEFFFF" transform="matrix(1.00, 0.00, -0.00, -1.00, 418.3, 422.0)">o</text><text xml:space="preserve" font-family="Helvetica-Light" font-size="30.0" fill="#FEFFFF" transform="matrix(1.00, 0.00, -0.00, -1.00, 435.0, 422.0)">r</text><text xml:space="preserve" font-family="Helvetica-Light" font-size="30.0" fill="#FEFFFF" transform="matrix(1.00, 0.00, -0.00, -1.00, 445.0, 422.0)"> </text><text xml:space="preserve" font-family="Helvetica-Light" font-size="30.0" fill="#FEFFFF" transform="matrix(1.00, 0.00, -0.00, -1.00, 453.3, 422.0)">F</text><text xml:space="preserve" font-family="Helvetica-Light" font-size="30.0" fill="#FEFFFF" transform="matrix(1.00, 0.00, -0.00, -1.00, 470.0, 422.0)">a</text><text xml:space="preserve" font-family="Helvetica-Light" font-size="30.0" fill="#FEFFFF" transform="matrix(1.00, 0.00, -0.00, -1.00, 486.7, 422.0)">l</text><text xml:space="preserve" font-family="Helvetica-Light" font-size="30.0" fill="#FEFFFF" transform="matrix(1.00, 0.00, -0.00, -1.00, 493.4, 422.0)">s</text><text xml:space="preserve" font-family="Helvetica-Light" font-size="30.0" fill="#FEFFFF" transform="matrix(1.00, 0.00, -0.00, -1.00, 508.4, 422.0)">e</text><text xml:space="preserve" font-family="Helvetica-Light" font-size="30.0" fill="#FEFFFF" transform="matrix(1.00, 0.00, -0.00, -1.00, 525.0, 422.0)"> </text><text xml:space="preserve" font-family="Helvetica-Light" font-size="22.5" fill="#FEFFFF" transform="matrix(1.00, 0.00, -0.00, -1.00, 79.0, 347.2)">•</text><text xml:space="preserve" font-family="Helvetica-Light" font-size="30.0" fill="#FEFFFF" transform="matrix(1.00, 0.00, -0.00, -1.00, 115.0, 344.0)">a</text><text xml:space="preserve" font-family="Helvetica-Light" font-size="30.0" fill="#FEFFFF" transform="matrix(1.00, 0.00, -0.00, -1.00, 131.7, 344.0)">n</text><text xml:space="preserve" font-family="Helvetica-Light" font-size="30.0" fill="#FEFFFF" transform="matrix(1.00, 0.00, -0.00, -1.00, 148.4, 344.0)">d</text><text xml:space="preserve" font-family="Helvetica-Light" font-size="30.0" fill="#FEFFFF" transform="matrix(1.00, 0.00, -0.00, -1.00, 166.7, 344.0)">:</text><text xml:space="preserve" font-family="Helvetica-Light" font-size="30.0" fill="#FEFFFF" transform="matrix(1.00, 0.00, -0.00, -1.00, 175.0, 344.0)"> </text><text xml:space="preserve" font-family="Helvetica-Light" font-size="30.0" fill="#FEFFFF" transform="matrix(1.00, 0.00, -0.00, -1.00, 183.4, 344.0)">r</text><text xml:space="preserve" font-family="Helvetica-Light" font-size="30.0" fill="#FEFFFF" transform="matrix(1.00, 0.00, -0.00, -1.00, 192.8, 344.0)">e</text><text xml:space="preserve" font-family="Helvetica-Light" font-size="30.0" fill="#FEFFFF" transform="matrix(1.00, 0.00, -0.00, -1.00, 209.5, 344.0)">t</text><text xml:space="preserve" font-family="Helvetica-Light" font-size="30.0" fill="#FEFFFF" transform="matrix(1.00, 0.00, -0.00, -1.00, 217.8, 344.0)">u</text><text xml:space="preserve" font-family="Helvetica-Light" font-size="30.0" fill="#FEFFFF" transform="matrix(1.00, 0.00, -0.00, -1.00, 234.5, 344.0)">r</text><text xml:space="preserve" font-family="Helvetica-Light" font-size="30.0" fill="#FEFFFF" transform="matrix(1.00, 0.00, -0.00, -1.00, 245.1, 344.0)">n</text><text xml:space="preserve" font-family="Helvetica-Light" font-size="30.0" fill="#FEFFFF" transform="matrix(1.00, 0.00, -0.00, -1.00, 261.7, 344.0)">s</text><text xml:space="preserve" font-family="Helvetica-Light" font-size="30.0" fill="#FEFFFF" transform="matrix(1.00, 0.00, -0.00, -1.00, 276.7, 344.0)"> </text><text xml:space="preserve" font-family="Helvetica-Light" font-size="30.0" fill="#FEFFFF" transform="matrix(1.00, 0.00, -0.00, -1.00, 285.1, 344.0)">t</text><text xml:space="preserve" font-family="Helvetica-Light" font-size="30.0" fill="#FEFFFF" transform="matrix(1.00, 0.00, -0.00, -1.00, 293.4, 344.0)">h</text><text xml:space="preserve" font-family="Helvetica-Light" font-size="30.0" fill="#FEFFFF" transform="matrix(1.00, 0.00, -0.00, -1.00, 310.1, 344.0)">e</text><text xml:space="preserve" font-family="Helvetica-Light" font-size="30.0" fill="#FEFFFF" transform="matrix(1.00, 0.00, -0.00, -1.00, 326.8, 344.0)"> </text><text xml:space="preserve" font-family="Helvetica-Light" font-size="30.0" fill="#FEFFFF" transform="matrix(1.00, 0.00, -0.00, -1.00, 335.1, 344.0)">ﬁ</text><text xml:space="preserve" font-family="Helvetica-Light" font-size="30.0" fill="#FEFFFF" transform="matrix(1.00, 0.00, -0.00, -1.00, 350.1, 344.0)">r</text><text xml:space="preserve" font-family="Helvetica-Light" font-size="30.0" fill="#FEFFFF" transform="matrix(1.00, 0.00, -0.00, -1.00, 360.1, 344.0)">s</text><text xml:space="preserve" font-family="Helvetica-Light" font-size="30.0" fill="#FEFFFF" transform="matrix(1.00, 0.00, -0.00, -1.00, 375.1, 344.0)">t</text><text xml:space="preserve" font-family="Helvetica-Light" font-size="30.0" fill="#FEFFFF" transform="matrix(1.00, 0.00, -0.00, -1.00, 383.4, 344.0)"> </text><text xml:space="preserve" font-family="Helvetica-Light" font-size="30.0" fill="#FEFFFF" transform="matrix(1.00, 0.00, -0.00, -1.00, 391.8, 344.0)">F</text><text xml:space="preserve" font-family="Helvetica-Light" font-size="30.0" fill="#FEFFFF" transform="matrix(1.00, 0.00, -0.00, -1.00, 408.5, 344.0)">a</text><text xml:space="preserve" font-family="Helvetica-Light" font-size="30.0" fill="#FEFFFF" transform="matrix(1.00, 0.00, -0.00, -1.00, 425.1, 344.0)">l</text><text xml:space="preserve" font-family="Helvetica-Light" font-size="30.0" fill="#FEFFFF" transform="matrix(1.00, 0.00, -0.00, -1.00, 431.8, 344.0)">s</text><text xml:space="preserve" font-family="Helvetica-Light" font-size="30.0" fill="#FEFFFF" transform="matrix(1.00, 0.00, -0.00, -1.00, 446.8, 344.0)">e</text><text xml:space="preserve" font-family="Helvetica-Light" font-size="30.0" fill="#FEFFFF" transform="matrix(1.00, 0.00, -0.00, -1.00, 463.5, 344.0)"> </text><text xml:space="preserve" font-family="Helvetica-Light" font-size="30.0" fill="#FEFFFF" transform="matrix(1.00, 0.00, -0.00, -1.00, 471.8, 344.0)">v</text><text xml:space="preserve" font-family="Helvetica-Light" font-size="30.0" fill="#FEFFFF" transform="matrix(1.00, 0.00, -0.00, -1.00, 486.8, 344.0)">a</text><text xml:space="preserve" font-family="Helvetica-Light" font-size="30.0" fill="#FEFFFF" transform="matrix(1.00, 0.00, -0.00, -1.00, 503.5, 344.0)">l</text><text xml:space="preserve" font-family="Helvetica-Light" font-size="30.0" fill="#FEFFFF" transform="matrix(1.00, 0.00, -0.00, -1.00, 510.2, 344.0)">u</text><text xml:space="preserve" font-family="Helvetica-Light" font-size="30.0" fill="#FEFFFF" transform="matrix(1.00, 0.00, -0.00, -1.00, 526.8, 344.0)">e</text><text xml:space="preserve" font-family="Helvetica-Light" font-size="30.0" fill="#FEFFFF" transform="matrix(1.00, 0.00, -0.00, -1.00, 543.5, 344.0)"> </text><text xml:space="preserve" font-family="Helvetica-Light" font-size="30.0" fill="#FEFFFF" transform="matrix(1.00, 0.00, -0.00, -1.00, 551.9, 344.0)">(</text><text xml:space="preserve" font-family="Helvetica-Light" font-size="30.0" fill="#FEFFFF" transform="matrix(1.00, 0.00, -0.00, -1.00, 561.9, 344.0)">s</text><text xml:space="preserve" font-family="Helvetica-Light" font-size="30.0" fill="#FEFFFF" transform="matrix(1.00, 0.00, -0.00, -1.00, 576.9, 344.0)">h</text><text xml:space="preserve" font-family="Helvetica-Light" font-size="30.0" fill="#FEFFFF" transform="matrix(1.00, 0.00, -0.00, -1.00, 593.5, 344.0)">o</text><text xml:space="preserve" font-family="Helvetica-Light" font-size="30.0" fill="#FEFFFF" transform="matrix(1.00, 0.00, -0.00, -1.00, 610.2, 344.0)">r</text><text xml:space="preserve" font-family="Helvetica-Light" font-size="30.0" fill="#FEFFFF" transform="matrix(1.00, 0.00, -0.00, -1.00, 620.7, 344.0)">t</text><text xml:space="preserve" font-family="Helvetica-Light" font-size="30.0" fill="#FEFFFF" transform="matrix(1.00, 0.00, -0.00, -1.00, 629.1, 344.0)">-</text><text xml:space="preserve" font-family="Helvetica-Light" font-size="30.0" fill="#FEFFFF" transform="matrix(1.00, 0.00, -0.00, -1.00, 639.1, 344.0)">c</text><text xml:space="preserve" font-family="Helvetica-Light" font-size="30.0" fill="#FEFFFF" transform="matrix(1.00, 0.00, -0.00, -1.00, 655.8, 344.0)">i</text><text xml:space="preserve" font-family="Helvetica-Light" font-size="30.0" fill="#FEFFFF" transform="matrix(1.00, 0.00, -0.00, -1.00, 662.4, 344.0)">r</text><text xml:space="preserve" font-family="Helvetica-Light" font-size="30.0" fill="#FEFFFF" transform="matrix(1.00, 0.00, -0.00, -1.00, 671.9, 344.0)">c</text><text xml:space="preserve" font-family="Helvetica-Light" font-size="30.0" fill="#FEFFFF" transform="matrix(1.00, 0.00, -0.00, -1.00, 688.5, 344.0)">u</text><text xml:space="preserve" font-family="Helvetica-Light" font-size="30.0" fill="#FEFFFF" transform="matrix(1.00, 0.00, -0.00, -1.00, 705.2, 344.0)">i</text><text xml:space="preserve" font-family="Helvetica-Light" font-size="30.0" fill="#FEFFFF" transform="matrix(1.00, 0.00, -0.00, -1.00, 711.9, 344.0)">t</text><text xml:space="preserve" font-family="Helvetica-Light" font-size="30.0" fill="#FEFFFF" transform="matrix(1.00, 0.00, -0.00, -1.00, 720.2, 344.0)">i</text><text xml:space="preserve" font-family="Helvetica-Light" font-size="30.0" fill="#FEFFFF" transform="matrix(1.00, 0.00, -0.00, -1.00, 726.9, 344.0)">n</text><text xml:space="preserve" font-family="Helvetica-Light" font-size="30.0" fill="#FEFFFF" transform="matrix(1.00, 0.00, -0.00, -1.00, 743.6, 344.0)">g</text><text xml:space="preserve" font-family="Helvetica-Light" font-size="30.0" fill="#FEFFFF" transform="matrix(1.00, 0.00, -0.00, -1.00, 761.9, 344.0)">)</text><text xml:space="preserve" font-family="Helvetica-Light" font-size="30.0" fill="#FEFFFF" transform="matrix(1.00, 0.00, -0.00, -1.00, 771.9, 344.0)"> </text><text xml:space="preserve" font-family="Helvetica-Light" font-size="22.5" fill="#FEFFFF" transform="matrix(1.00, 0.00, -0.00, -1.00, 115.0, 269.2)">•</text><text xml:space="preserve" font-family="Helvetica-Light" font-size="30.0" fill="#FEFFFF" transform="matrix(1.00, 0.00, -0.00, -1.00, 151.0, 266.0)">i</text><text xml:space="preserve" font-family="Helvetica-Light" font-size="30.0" fill="#FEFFFF" transform="matrix(1.00, 0.00, -0.00, -1.00, 157.7, 266.0)">f</text><text xml:space="preserve" font-family="Helvetica-Light" font-size="30.0" fill="#FEFFFF" transform="matrix(1.00, 0.00, -0.00, -1.00, 166.0, 266.0)"> </text><text xml:space="preserve" font-family="Helvetica-Light" font-size="30.0" fill="#FEFFFF" transform="matrix(1.00, 0.00, -0.00, -1.00, 174.3, 266.0)">a</text><text xml:space="preserve" font-family="Helvetica-Light" font-size="30.0" fill="#FEFFFF" transform="matrix(1.00, 0.00, -0.00, -1.00, 191.0, 266.0)">l</text><text xml:space="preserve" font-family="Helvetica-Light" font-size="30.0" fill="#FEFFFF" transform="matrix(1.00, 0.00, -0.00, -1.00, 197.7, 266.0)">l</text><text xml:space="preserve" font-family="Helvetica-Light" font-size="30.0" fill="#FEFFFF" transform="matrix(1.00, 0.00, -0.00, -1.00, 204.3, 266.0)"> </text><text xml:space="preserve" font-family="Helvetica-Light" font-size="30.0" fill="#FEFFFF" transform="matrix(1.00, 0.00, -0.00, -1.00, 212.7, 266.0)">T</text><text xml:space="preserve" font-family="Helvetica-Light" font-size="30.0" fill="#FEFFFF" transform="matrix(1.00, 0.00, -0.00, -1.00, 226.6, 266.0)">r</text><text xml:space="preserve" font-family="Helvetica-Light" font-size="30.0" fill="#FEFFFF" transform="matrix(1.00, 0.00, -0.00, -1.00, 236.6, 266.0)">u</text><text xml:space="preserve" font-family="Helvetica-Light" font-size="30.0" fill="#FEFFFF" transform="matrix(1.00, 0.00, -0.00, -1.00, 253.3, 266.0)">e</text><text xml:space="preserve" font-family="Helvetica-Light" font-size="30.0" fill="#FEFFFF" transform="matrix(1.00, 0.00, -0.00, -1.00, 269.9, 266.0)"> </text><text xml:space="preserve" font-family="Helvetica-Light" font-size="30.0" fill="#FEFFFF" transform="matrix(1.00, 0.00, -0.00, -1.00, 278.3, 266.0)">-</text><text xml:space="preserve" font-family="Helvetica-Light" font-size="30.0" fill="#FEFFFF" transform="matrix(1.00, 0.00, -0.00, -1.00, 288.3, 266.0)">&gt;</text><text xml:space="preserve" font-family="Helvetica-Light" font-size="30.0" fill="#FEFFFF" transform="matrix(1.00, 0.00, -0.00, -1.00, 308.1, 266.0)"> </text><text xml:space="preserve" font-family="Helvetica-Light" font-size="30.0" fill="#FEFFFF" transform="matrix(1.00, 0.00, -0.00, -1.00, 316.4, 266.0)">e</text><text xml:space="preserve" font-family="Helvetica-Light" font-size="30.0" fill="#FEFFFF" transform="matrix(1.00, 0.00, -0.00, -1.00, 333.1, 266.0)">v</text><text xml:space="preserve" font-family="Helvetica-Light" font-size="30.0" fill="#FEFFFF" transform="matrix(1.00, 0.00, -0.00, -1.00, 348.1, 266.0)">a</text><text xml:space="preserve" font-family="Helvetica-Light" font-size="30.0" fill="#FEFFFF" transform="matrix(1.00, 0.00, -0.00, -1.00, 364.8, 266.0)">l</text><text xml:space="preserve" font-family="Helvetica-Light" font-size="30.0" fill="#FEFFFF" transform="matrix(1.00, 0.00, -0.00, -1.00, 371.4, 266.0)">u</text><text xml:space="preserve" font-family="Helvetica-Light" font-size="30.0" fill="#FEFFFF" transform="matrix(1.00, 0.00, -0.00, -1.00, 388.1, 266.0)">a</text><text xml:space="preserve" font-family="Helvetica-Light" font-size="30.0" fill="#FEFFFF" transform="matrix(1.00, 0.00, -0.00, -1.00, 404.8, 266.0)">t</text><text xml:space="preserve" font-family="Helvetica-Light" font-size="30.0" fill="#FEFFFF" transform="matrix(1.00, 0.00, -0.00, -1.00, 413.1, 266.0)">e</text><text xml:space="preserve" font-family="Helvetica-Light" font-size="30.0" fill="#FEFFFF" transform="matrix(1.00, 0.00, -0.00, -1.00, 429.8, 266.0)">s</text><text xml:space="preserve" font-family="Helvetica-Light" font-size="30.0" fill="#FEFFFF" transform="matrix(1.00, 0.00, -0.00, -1.00, 444.8, 266.0)"> </text><text xml:space="preserve" font-family="Helvetica-Light" font-size="30.0" fill="#FEFFFF" transform="matrix(1.00, 0.00, -0.00, -1.00, 453.2, 266.0)">t</text><text xml:space="preserve" font-family="Helvetica-Light" font-size="30.0" fill="#FEFFFF" transform="matrix(1.00, 0.00, -0.00, -1.00, 461.5, 266.0)">h</text><text xml:space="preserve" font-family="Helvetica-Light" font-size="30.0" fill="#FEFFFF" transform="matrix(1.00, 0.00, -0.00, -1.00, 478.2, 266.0)">e</text><text xml:space="preserve" font-family="Helvetica-Light" font-size="30.0" fill="#FEFFFF" transform="matrix(1.00, 0.00, -0.00, -1.00, 494.9, 266.0)"> </text><text xml:space="preserve" font-family="Helvetica-Light" font-size="30.0" fill="#FEFFFF" transform="matrix(1.00, 0.00, -0.00, -1.00, 503.2, 266.0)">l</text><text xml:space="preserve" font-family="Helvetica-Light" font-size="30.0" fill="#FEFFFF" transform="matrix(1.00, 0.00, -0.00, -1.00, 509.9, 266.0)">a</text><text xml:space="preserve" font-family="Helvetica-Light" font-size="30.0" fill="#FEFFFF" transform="matrix(1.00, 0.00, -0.00, -1.00, 526.5, 266.0)">s</text><text xml:space="preserve" font-family="Helvetica-Light" font-size="30.0" fill="#FEFFFF" transform="matrix(1.00, 0.00, -0.00, -1.00, 541.5, 266.0)">t</text><text xml:space="preserve" font-family="Helvetica-Light" font-size="30.0" fill="#FEFFFF" transform="matrix(1.00, 0.00, -0.00, -1.00, 549.9, 266.0)"> </text><text xml:space="preserve" font-family="Helvetica-Light" font-size="30.0" fill="#FEFFFF" transform="matrix(1.00, 0.00, -0.00, -1.00, 558.2, 266.0)">v</text><text xml:space="preserve" font-family="Helvetica-Light" font-size="30.0" fill="#FEFFFF" transform="matrix(1.00, 0.00, -0.00, -1.00, 573.2, 266.0)">a</text><text xml:space="preserve" font-family="Helvetica-Light" font-size="30.0" fill="#FEFFFF" transform="matrix(1.00, 0.00, -0.00, -1.00, 589.9, 266.0)">l</text><text xml:space="preserve" font-family="Helvetica-Light" font-size="30.0" fill="#FEFFFF" transform="matrix(1.00, 0.00, -0.00, -1.00, 596.6, 266.0)">u</text><text xml:space="preserve" font-family="Helvetica-Light" font-size="30.0" fill="#FEFFFF" transform="matrix(1.00, 0.00, -0.00, -1.00, 613.2, 266.0)">e</text><text xml:space="preserve" font-family="Helvetica-Light" font-size="30.0" fill="#FEFFFF" transform="matrix(1.00, 0.00, -0.00, -1.00, 629.9, 266.0)"> </text><text xml:space="preserve" font-family="Helvetica-Light" font-size="22.5" fill="#FEFFFF" transform="matrix(1.00, 0.00, -0.00, -1.00, 79.0, 191.2)">•</text><text xml:space="preserve" font-family="Helvetica-Light" font-size="30.0" fill="#FEFFFF" transform="matrix(1.00, 0.00, -0.00, -1.00, 115.0, 188.0)">o</text><text xml:space="preserve" font-family="Helvetica-Light" font-size="30.0" fill="#FEFFFF" transform="matrix(1.00, 0.00, -0.00, -1.00, 131.7, 188.0)">r</text><text xml:space="preserve" font-family="Helvetica-Light" font-size="30.0" fill="#FEFFFF" transform="matrix(1.00, 0.00, -0.00, -1.00, 141.7, 188.0)">:</text><text xml:space="preserve" font-family="Helvetica-Light" font-size="30.0" fill="#FEFFFF" transform="matrix(1.00, 0.00, -0.00, -1.00, 150.0, 188.0)"> </text><text xml:space="preserve" font-family="Helvetica-Light" font-size="30.0" fill="#FEFFFF" transform="matrix(1.00, 0.00, -0.00, -1.00, 158.4, 188.0)">r</text><text xml:space="preserve" font-family="Helvetica-Light" font-size="30.0" fill="#FEFFFF" transform="matrix(1.00, 0.00, -0.00, -1.00, 167.8, 188.0)">e</text><text xml:space="preserve" font-family="Helvetica-Light" font-size="30.0" fill="#FEFFFF" transform="matrix(1.00, 0.00, -0.00, -1.00, 184.5, 188.0)">t</text><text xml:space="preserve" font-family="Helvetica-Light" font-size="30.0" fill="#FEFFFF" transform="matrix(1.00, 0.00, -0.00, -1.00, 192.8, 188.0)">u</text><text xml:space="preserve" font-family="Helvetica-Light" font-size="30.0" fill="#FEFFFF" transform="matrix(1.00, 0.00, -0.00, -1.00, 209.5, 188.0)">r</text><text xml:space="preserve" font-family="Helvetica-Light" font-size="30.0" fill="#FEFFFF" transform="matrix(1.00, 0.00, -0.00, -1.00, 220.0, 188.0)">n</text><text xml:space="preserve" font-family="Helvetica-Light" font-size="30.0" fill="#FEFFFF" transform="matrix(1.00, 0.00, -0.00, -1.00, 236.7, 188.0)">s</text><text xml:space="preserve" font-family="Helvetica-Light" font-size="30.0" fill="#FEFFFF" transform="matrix(1.00, 0.00, -0.00, -1.00, 251.7, 188.0)"> </text><text xml:space="preserve" font-family="Helvetica-Light" font-size="30.0" fill="#FEFFFF" transform="matrix(1.00, 0.00, -0.00, -1.00, 260.1, 188.0)">t</text><text xml:space="preserve" font-family="Helvetica-Light" font-size="30.0" fill="#FEFFFF" transform="matrix(1.00, 0.00, -0.00, -1.00, 268.4, 188.0)">h</text><text xml:space="preserve" font-family="Helvetica-Light" font-size="30.0" fill="#FEFFFF" transform="matrix(1.00, 0.00, -0.00, -1.00, 285.1, 188.0)">e</text><text xml:space="preserve" font-family="Helvetica-Light" font-size="30.0" fill="#FEFFFF" transform="matrix(1.00, 0.00, -0.00, -1.00, 301.8, 188.0)"> </text><text xml:space="preserve" font-family="Helvetica-Light" font-size="30.0" fill="#FEFFFF" transform="matrix(1.00, 0.00, -0.00, -1.00, 310.1, 188.0)">ﬁ</text><text xml:space="preserve" font-family="Helvetica-Light" font-size="30.0" fill="#FEFFFF" transform="matrix(1.00, 0.00, -0.00, -1.00, 325.1, 188.0)">r</text><text xml:space="preserve" font-family="Helvetica-Light" font-size="30.0" fill="#FEFFFF" transform="matrix(1.00, 0.00, -0.00, -1.00, 335.1, 188.0)">s</text><text xml:space="preserve" font-family="Helvetica-Light" font-size="30.0" fill="#FEFFFF" transform="matrix(1.00, 0.00, -0.00, -1.00, 350.1, 188.0)">t</text><text xml:space="preserve" font-family="Helvetica-Light" font-size="30.0" fill="#FEFFFF" transform="matrix(1.00, 0.00, -0.00, -1.00, 358.4, 188.0)"> </text><text xml:space="preserve" font-family="Helvetica-Light" font-size="30.0" fill="#FEFFFF" transform="matrix(1.00, 0.00, -0.00, -1.00, 366.8, 188.0)">T</text><text xml:space="preserve" font-family="Helvetica-Light" font-size="30.0" fill="#FEFFFF" transform="matrix(1.00, 0.00, -0.00, -1.00, 380.7, 188.0)">r</text><text xml:space="preserve" font-family="Helvetica-Light" font-size="30.0" fill="#FEFFFF" transform="matrix(1.00, 0.00, -0.00, -1.00, 390.7, 188.0)">u</text><text xml:space="preserve" font-family="Helvetica-Light" font-size="30.0" fill="#FEFFFF" transform="matrix(1.00, 0.00, -0.00, -1.00, 407.4, 188.0)">e</text><text xml:space="preserve" font-family="Helvetica-Light" font-size="30.0" fill="#FEFFFF" transform="matrix(1.00, 0.00, -0.00, -1.00, 424.0, 188.0)"> </text><text xml:space="preserve" font-family="Helvetica-Light" font-size="30.0" fill="#FEFFFF" transform="matrix(1.00, 0.00, -0.00, -1.00, 432.4, 188.0)">v</text><text xml:space="preserve" font-family="Helvetica-Light" font-size="30.0" fill="#FEFFFF" transform="matrix(1.00, 0.00, -0.00, -1.00, 447.4, 188.0)">a</text><text xml:space="preserve" font-family="Helvetica-Light" font-size="30.0" fill="#FEFFFF" transform="matrix(1.00, 0.00, -0.00, -1.00, 464.1, 188.0)">l</text><text xml:space="preserve" font-family="Helvetica-Light" font-size="30.0" fill="#FEFFFF" transform="matrix(1.00, 0.00, -0.00, -1.00, 470.7, 188.0)">u</text><text xml:space="preserve" font-family="Helvetica-Light" font-size="30.0" fill="#FEFFFF" transform="matrix(1.00, 0.00, -0.00, -1.00, 487.4, 188.0)">e</text><text xml:space="preserve" font-family="Helvetica-Light" font-size="30.0" fill="#FEFFFF" transform="matrix(1.00, 0.00, -0.00, -1.00, 504.1, 188.0)"> </text><text xml:space="preserve" font-family="Helvetica-Light" font-size="22.5" fill="#FEFFFF" transform="matrix(1.00, 0.00, -0.00, -1.00, 115.0, 113.2)">•</text><text xml:space="preserve" font-family="Helvetica-Light" font-size="30.0" fill="#FEFFFF" transform="matrix(1.00, 0.00, -0.00, -1.00, 151.0, 110.0)">i</text><text xml:space="preserve" font-family="Helvetica-Light" font-size="30.0" fill="#FEFFFF" transform="matrix(1.00, 0.00, -0.00, -1.00, 157.7, 110.0)">f</text><text xml:space="preserve" font-family="Helvetica-Light" font-size="30.0" fill="#FEFFFF" transform="matrix(1.00, 0.00, -0.00, -1.00, 166.0, 110.0)"> </text><text xml:space="preserve" font-family="Helvetica-Light" font-size="30.0" fill="#FEFFFF" transform="matrix(1.00, 0.00, -0.00, -1.00, 174.3, 110.0)">a</text><text xml:space="preserve" font-family="Helvetica-Light" font-size="30.0" fill="#FEFFFF" transform="matrix(1.00, 0.00, -0.00, -1.00, 191.0, 110.0)">l</text><text xml:space="preserve" font-family="Helvetica-Light" font-size="30.0" fill="#FEFFFF" transform="matrix(1.00, 0.00, -0.00, -1.00, 197.7, 110.0)">l</text><text xml:space="preserve" font-family="Helvetica-Light" font-size="30.0" fill="#FEFFFF" transform="matrix(1.00, 0.00, -0.00, -1.00, 204.3, 110.0)"> </text><text xml:space="preserve" font-family="Helvetica-Light" font-size="30.0" fill="#FEFFFF" transform="matrix(1.00, 0.00, -0.00, -1.00, 212.7, 110.0)">F</text><text xml:space="preserve" font-family="Helvetica-Light" font-size="30.0" fill="#FEFFFF" transform="matrix(1.00, 0.00, -0.00, -1.00, 229.4, 110.0)">a</text><text xml:space="preserve" font-family="Helvetica-Light" font-size="30.0" fill="#FEFFFF" transform="matrix(1.00, 0.00, -0.00, -1.00, 246.0, 110.0)">l</text><text xml:space="preserve" font-family="Helvetica-Light" font-size="30.0" fill="#FEFFFF" transform="matrix(1.00, 0.00, -0.00, -1.00, 252.7, 110.0)">s</text><text xml:space="preserve" font-family="Helvetica-Light" font-size="30.0" fill="#FEFFFF" transform="matrix(1.00, 0.00, -0.00, -1.00, 267.7, 110.0)">e</text><text xml:space="preserve" font-family="Helvetica-Light" font-size="30.0" fill="#FEFFFF" transform="matrix(1.00, 0.00, -0.00, -1.00, 284.4, 110.0)"> </text><text xml:space="preserve" font-family="Helvetica-Light" font-size="30.0" fill="#FEFFFF" transform="matrix(1.00, 0.00, -0.00, -1.00, 292.7, 110.0)">-</text><text xml:space="preserve" font-family="Helvetica-Light" font-size="30.0" fill="#FEFFFF" transform="matrix(1.00, 0.00, -0.00, -1.00, 302.7, 110.0)">&gt;</text><text xml:space="preserve" font-family="Helvetica-Light" font-size="30.0" fill="#FEFFFF" transform="matrix(1.00, 0.00, -0.00, -1.00, 322.5, 110.0)"> </text><text xml:space="preserve" font-family="Helvetica-Light" font-size="30.0" fill="#FEFFFF" transform="matrix(1.00, 0.00, -0.00, -1.00, 330.9, 110.0)">e</text><text xml:space="preserve" font-family="Helvetica-Light" font-size="30.0" fill="#FEFFFF" transform="matrix(1.00, 0.00, -0.00, -1.00, 347.5, 110.0)">v</text><text xml:space="preserve" font-family="Helvetica-Light" font-size="30.0" fill="#FEFFFF" transform="matrix(1.00, 0.00, -0.00, -1.00, 362.5, 110.0)">a</text><text xml:space="preserve" font-family="Helvetica-Light" font-size="30.0" fill="#FEFFFF" transform="matrix(1.00, 0.00, -0.00, -1.00, 379.2, 110.0)">l</text><text xml:space="preserve" font-family="Helvetica-Light" font-size="30.0" fill="#FEFFFF" transform="matrix(1.00, 0.00, -0.00, -1.00, 385.9, 110.0)">u</text><text xml:space="preserve" font-family="Helvetica-Light" font-size="30.0" fill="#FEFFFF" transform="matrix(1.00, 0.00, -0.00, -1.00, 402.6, 110.0)">a</text><text xml:space="preserve" font-family="Helvetica-Light" font-size="30.0" fill="#FEFFFF" transform="matrix(1.00, 0.00, -0.00, -1.00, 419.2, 110.0)">t</text><text xml:space="preserve" font-family="Helvetica-Light" font-size="30.0" fill="#FEFFFF" transform="matrix(1.00, 0.00, -0.00, -1.00, 427.6, 110.0)">e</text><text xml:space="preserve" font-family="Helvetica-Light" font-size="30.0" fill="#FEFFFF" transform="matrix(1.00, 0.00, -0.00, -1.00, 444.2, 110.0)">s</text><text xml:space="preserve" font-family="Helvetica-Light" font-size="30.0" fill="#FEFFFF" transform="matrix(1.00, 0.00, -0.00, -1.00, 459.2, 110.0)"> </text><text xml:space="preserve" font-family="Helvetica-Light" font-size="30.0" fill="#FEFFFF" transform="matrix(1.00, 0.00, -0.00, -1.00, 467.6, 110.0)">t</text><text xml:space="preserve" font-family="Helvetica-Light" font-size="30.0" fill="#FEFFFF" transform="matrix(1.00, 0.00, -0.00, -1.00, 475.9, 110.0)">h</text><text xml:space="preserve" font-family="Helvetica-Light" font-size="30.0" fill="#FEFFFF" transform="matrix(1.00, 0.00, -0.00, -1.00, 492.6, 110.0)">e</text><text xml:space="preserve" font-family="Helvetica-Light" font-size="30.0" fill="#FEFFFF" transform="matrix(1.00, 0.00, -0.00, -1.00, 509.3, 110.0)"> </text><text xml:space="preserve" font-family="Helvetica-Light" font-size="30.0" fill="#FEFFFF" transform="matrix(1.00, 0.00, -0.00, -1.00, 517.6, 110.0)">l</text><text xml:space="preserve" font-family="Helvetica-Light" font-size="30.0" fill="#FEFFFF" transform="matrix(1.00, 0.00, -0.00, -1.00, 524.3, 110.0)">a</text><text xml:space="preserve" font-family="Helvetica-Light" font-size="30.0" fill="#FEFFFF" transform="matrix(1.00, 0.00, -0.00, -1.00, 541.0, 110.0)">s</text><text xml:space="preserve" font-family="Helvetica-Light" font-size="30.0" fill="#FEFFFF" transform="matrix(1.00, 0.00, -0.00, -1.00, 556.0, 110.0)">t</text><text xml:space="preserve" font-family="Helvetica-Light" font-size="30.0" fill="#FEFFFF" transform="matrix(1.00, 0.00, -0.00, -1.00, 564.3, 110.0)"> </text><text xml:space="preserve" font-family="Helvetica-Light" font-size="30.0" fill="#FEFFFF" transform="matrix(1.00, 0.00, -0.00, -1.00, 572.6, 110.0)">v</text><text xml:space="preserve" font-family="Helvetica-Light" font-size="30.0" fill="#FEFFFF" transform="matrix(1.00, 0.00, -0.00, -1.00, 587.6, 110.0)">a</text><text xml:space="preserve" font-family="Helvetica-Light" font-size="30.0" fill="#FEFFFF" transform="matrix(1.00, 0.00, -0.00, -1.00, 604.3, 110.0)">l</text><text xml:space="preserve" font-family="Helvetica-Light" font-size="30.0" fill="#FEFFFF" transform="matrix(1.00, 0.00, -0.00, -1.00, 611.0, 110.0)">u</text><text xml:space="preserve" font-family="Helvetica-Light" font-size="30.0" fill="#FEFFFF" transform="matrix(1.00, 0.00, -0.00, -1.00, 627.7, 110.0)">e</text></g></svg>