<?xml version="1.0" encoding="UTF-8" standalone="no"?><svg xmlns="http://www.w3.org/2000/svg" xmlns:xlink="http://www.w3.org/1999/xlink" clip-rule="evenodd" stroke-miterlimit="4.00" viewBox="0 0 1024 768"><desc>SVG generated by Keynote</desc><defs></defs><g transform="matrix(1.00, 0.00, -0.00, -1.00, 0.0, 768.0)"><g><clipPath id="clip-144"><path d="M 0.0 768.0 L 1024.0 768.0 L 1024.0 0.0 L 0.0 0.0 Z M 0.0 768.0 "></path></clipPath><g clip-path="url(#clip-144)"><image xlink:href="../../06DBE9C8-52A0-453A-A7BF-EBF58CF01F35/assets/E7ABA782A15EA3475B4CFCC80A2FEB63.jpeg" width="1024.00" height="768.00" transform="matrix(1.00, 0.00, -0.00, -1.00, 0.0, 768.0)"></image></g></g><text xml:space="preserve" font-family="Helvetica-Light" font-size="80.0" fill="#FEFFFF" transform="matrix(1.00, 0.00, -0.00, -1.00, 259.0, 622.0)">L</text><text xml:space="preserve" font-family="Helvetica-Light" font-size="80.0" fill="#FEFFFF" transform="matrix(1.00, 0.00, -0.00, -1.00, 303.5, 622.0)">i</text><text xml:space="preserve" font-family="Helvetica-Light" font-size="80.0" fill="#FEFFFF" transform="matrix(1.00, 0.00, -0.00, -1.00, 321.2, 622.0)">s</text><text xml:space="preserve" font-family="Helvetica-Light" font-size="80.0" fill="#FEFFFF" transform="matrix(1.00, 0.00, -0.00, -1.00, 361.2, 622.0)">t</text><text xml:space="preserve" font-family="Helvetica-Light" font-size="80.0" fill="#FEFFFF" transform="matrix(1.00, 0.00, -0.00, -1.00, 383.5, 622.0)"> </text><text xml:space="preserve" font-family="Helvetica-Light" font-size="80.0" fill="#FEFFFF" transform="matrix(1.00, 0.00, -0.00, -1.00, 405.7, 622.0)">O</text><text xml:space="preserve" font-family="Helvetica-Light" font-size="80.0" fill="#FEFFFF" transform="matrix(1.00, 0.00, -0.00, -1.00, 468.0, 622.0)">p</text><text xml:space="preserve" font-family="Helvetica-Light" font-size="80.0" fill="#FEFFFF" transform="matrix(1.00, 0.00, -0.00, -1.00, 516.8, 622.0)">e</text><text xml:space="preserve" font-family="Helvetica-Light" font-size="80.0" fill="#FEFFFF" transform="matrix(1.00, 0.00, -0.00, -1.00, 561.3, 622.0)">r</text><text xml:space="preserve" font-family="Helvetica-Light" font-size="80.0" fill="#FEFFFF" transform="matrix(1.00, 0.00, -0.00, -1.00, 588.0, 622.0)">a</text><text xml:space="preserve" font-family="Helvetica-Light" font-size="80.0" fill="#FEFFFF" transform="matrix(1.00, 0.00, -0.00, -1.00, 632.4, 622.0)">t</text><text xml:space="preserve" font-family="Helvetica-Light" font-size="80.0" fill="#FEFFFF" transform="matrix(1.00, 0.00, -0.00, -1.00, 654.7, 622.0)">o</text><text xml:space="preserve" font-family="Helvetica-Light" font-size="80.0" fill="#FEFFFF" transform="matrix(1.00, 0.00, -0.00, -1.00, 699.2, 622.0)">r</text><text xml:space="preserve" font-family="Helvetica-Light" font-size="80.0" fill="#FEFFFF" transform="matrix(1.00, 0.00, -0.00, -1.00, 725.8, 622.0)">s</text><text xml:space="preserve" font-family="Helvetica-Light" font-size="26.2" fill="#FEFFFF" transform="matrix(1.00, 0.00, -0.00, -1.00, 69.8, 539.5)">•</text><text xml:space="preserve" font-family="Helvetica-Light" font-size="35.0" fill="#FEFFFF" transform="matrix(1.00, 0.00, -0.00, -1.00, 109.0, 536.0)">l</text><text xml:space="preserve" font-family="Helvetica-Light" font-size="35.0" fill="#FEFFFF" transform="matrix(1.00, 0.00, -0.00, -1.00, 116.8, 536.0)">i</text><text xml:space="preserve" font-family="Helvetica-Light" font-size="35.0" fill="#FEFFFF" transform="matrix(1.00, 0.00, -0.00, -1.00, 124.5, 536.0)">s</text><text xml:space="preserve" font-family="Helvetica-Light" font-size="35.0" fill="#FEFFFF" transform="matrix(1.00, 0.00, -0.00, -1.00, 142.0, 536.0)">t</text><text xml:space="preserve" font-family="Helvetica-Light" font-size="35.0" fill="#FEFFFF" transform="matrix(1.00, 0.00, -0.00, -1.00, 151.8, 536.0)">(</text><text xml:space="preserve" font-family="Helvetica-Light" font-size="35.0" fill="#FEFFFF" transform="matrix(1.00, 0.00, -0.00, -1.00, 163.4, 536.0)">l</text><text xml:space="preserve" font-family="Helvetica-Light" font-size="35.0" fill="#FEFFFF" transform="matrix(1.00, 0.00, -0.00, -1.00, 171.2, 536.0)">s</text><text xml:space="preserve" font-family="Helvetica-Light" font-size="35.0" fill="#FEFFFF" transform="matrix(1.00, 0.00, -0.00, -1.00, 188.7, 536.0)">t</text><text xml:space="preserve" font-family="Helvetica-Light" font-size="35.0" fill="#FEFFFF" transform="matrix(1.00, 0.00, -0.00, -1.00, 198.4, 536.0)">)</text><text xml:space="preserve" font-family="Helvetica-Light" font-size="35.0" fill="#FEFFFF" transform="matrix(1.00, 0.00, -0.00, -1.00, 210.1, 536.0)"> </text><text xml:space="preserve" font-family="Helvetica-Light" font-size="26.2" fill="#FEFFFF" transform="matrix(1.00, 0.00, -0.00, -1.00, 105.8, 455.5)">•</text><text xml:space="preserve" font-family="Helvetica-Light" font-size="35.0" fill="#FEFFFF" transform="matrix(1.00, 0.00, -0.00, -1.00, 145.0, 452.0)">c</text><text xml:space="preserve" font-family="Helvetica-Light" font-size="35.0" fill="#FEFFFF" transform="matrix(1.00, 0.00, -0.00, -1.00, 164.5, 452.0)">r</text><text xml:space="preserve" font-family="Helvetica-Light" font-size="35.0" fill="#FEFFFF" transform="matrix(1.00, 0.00, -0.00, -1.00, 175.5, 452.0)">e</text><text xml:space="preserve" font-family="Helvetica-Light" font-size="35.0" fill="#FEFFFF" transform="matrix(1.00, 0.00, -0.00, -1.00, 194.9, 452.0)">a</text><text xml:space="preserve" font-family="Helvetica-Light" font-size="35.0" fill="#FEFFFF" transform="matrix(1.00, 0.00, -0.00, -1.00, 214.4, 452.0)">t</text><text xml:space="preserve" font-family="Helvetica-Light" font-size="35.0" fill="#FEFFFF" transform="matrix(1.00, 0.00, -0.00, -1.00, 224.1, 452.0)">e</text><text xml:space="preserve" font-family="Helvetica-Light" font-size="35.0" fill="#FEFFFF" transform="matrix(1.00, 0.00, -0.00, -1.00, 243.6, 452.0)">s</text><text xml:space="preserve" font-family="Helvetica-Light" font-size="35.0" fill="#FEFFFF" transform="matrix(1.00, 0.00, -0.00, -1.00, 261.1, 452.0)"> </text><text xml:space="preserve" font-family="Helvetica-Light" font-size="35.0" fill="#FEFFFF" transform="matrix(1.00, 0.00, -0.00, -1.00, 270.8, 452.0)">a</text><text xml:space="preserve" font-family="Helvetica-Light" font-size="35.0" fill="#FEFFFF" transform="matrix(1.00, 0.00, -0.00, -1.00, 290.3, 452.0)"> </text><text xml:space="preserve" font-family="Helvetica-Light" font-size="35.0" fill="#FEFFFF" transform="matrix(1.00, 0.00, -0.00, -1.00, 300.0, 452.0)">c</text><text xml:space="preserve" font-family="Helvetica-Light" font-size="35.0" fill="#FEFFFF" transform="matrix(1.00, 0.00, -0.00, -1.00, 319.5, 452.0)">o</text><text xml:space="preserve" font-family="Helvetica-Light" font-size="35.0" fill="#FEFFFF" transform="matrix(1.00, 0.00, -0.00, -1.00, 338.9, 452.0)">p</text><text xml:space="preserve" font-family="Helvetica-Light" font-size="35.0" fill="#FEFFFF" transform="matrix(1.00, 0.00, -0.00, -1.00, 360.3, 452.0)">y</text><text xml:space="preserve" font-family="Helvetica-Light" font-size="35.0" fill="#FEFFFF" transform="matrix(1.00, 0.00, -0.00, -1.00, 377.8, 452.0)"> </text><text xml:space="preserve" font-family="Helvetica-Light" font-size="35.0" fill="#FEFFFF" transform="matrix(1.00, 0.00, -0.00, -1.00, 387.5, 452.0)">o</text><text xml:space="preserve" font-family="Helvetica-Light" font-size="35.0" fill="#FEFFFF" transform="matrix(1.00, 0.00, -0.00, -1.00, 407.0, 452.0)">f</text><text xml:space="preserve" font-family="Helvetica-Light" font-size="35.0" fill="#FEFFFF" transform="matrix(1.00, 0.00, -0.00, -1.00, 416.7, 452.0)"> </text><text xml:space="preserve" font-family="Helvetica-Light" font-size="35.0" fill="#FEFFFF" transform="matrix(1.00, 0.00, -0.00, -1.00, 426.5, 452.0)">l</text><text xml:space="preserve" font-family="Helvetica-Light" font-size="35.0" fill="#FEFFFF" transform="matrix(1.00, 0.00, -0.00, -1.00, 434.2, 452.0)">s</text><text xml:space="preserve" font-family="Helvetica-Light" font-size="35.0" fill="#FEFFFF" transform="matrix(1.00, 0.00, -0.00, -1.00, 451.7, 452.0)">t</text><text xml:space="preserve" font-family="Helvetica-Light" font-size="35.0" fill="#FEFFFF" transform="matrix(1.00, 0.00, -0.00, -1.00, 461.5, 452.0)"> </text><text xml:space="preserve" font-family="Helvetica-Light" font-size="18.0" fill="#FEFFFF" transform="matrix(1.00, 0.00, -0.00, -1.00, 501.0, 18.0)">3</text><text xml:space="preserve" font-family="Helvetica-Light" font-size="18.0" fill="#FEFFFF" transform="matrix(1.00, 0.00, -0.00, -1.00, 511.0, 18.0)">6</text><text xml:space="preserve" font-family="Helvetica-Light" font-size="35.0" fill="#FEFFFF" transform="matrix(1.00, 0.00, -0.00, -1.00, 63.0, 311.0)">&gt;</text><text xml:space="preserve" font-family="Helvetica-Light" font-size="35.0" fill="#FEFFFF" transform="matrix(1.00, 0.00, -0.00, -1.00, 86.1, 311.0)">&gt;</text><text xml:space="preserve" font-family="Helvetica-Light" font-size="35.0" fill="#FEFFFF" transform="matrix(1.00, 0.00, -0.00, -1.00, 109.2, 311.0)">&gt;</text><text xml:space="preserve" font-family="Helvetica-Light" font-size="35.0" fill="#FEFFFF" transform="matrix(1.00, 0.00, -0.00, -1.00, 132.3, 311.0)"> </text><text xml:space="preserve" font-family="Helvetica-Light" font-size="35.0" fill="#FEFFFF" transform="matrix(1.00, 0.00, -0.00, -1.00, 142.0, 311.0)">p</text><text xml:space="preserve" font-family="Helvetica-Light" font-size="35.0" fill="#FEFFFF" transform="matrix(1.00, 0.00, -0.00, -1.00, 163.4, 311.0)">r</text><text xml:space="preserve" font-family="Helvetica-Light" font-size="35.0" fill="#FEFFFF" transform="matrix(1.00, 0.00, -0.00, -1.00, 175.1, 311.0)">i</text><text xml:space="preserve" font-family="Helvetica-Light" font-size="35.0" fill="#FEFFFF" transform="matrix(1.00, 0.00, -0.00, -1.00, 182.8, 311.0)">m</text><text xml:space="preserve" font-family="Helvetica-Light" font-size="35.0" fill="#FEFFFF" transform="matrix(1.00, 0.00, -0.00, -1.00, 212.0, 311.0)">e</text><text xml:space="preserve" font-family="Helvetica-Light" font-size="35.0" fill="#FEFFFF" transform="matrix(1.00, 0.00, -0.00, -1.00, 231.5, 311.0)">s</text><text xml:space="preserve" font-family="Helvetica-Light" font-size="35.0" fill="#FEFFFF" transform="matrix(1.00, 0.00, -0.00, -1.00, 249.0, 311.0)"> </text><text xml:space="preserve" font-family="Helvetica-Light" font-size="35.0" fill="#FEFFFF" transform="matrix(1.00, 0.00, -0.00, -1.00, 258.7, 311.0)">=</text><text xml:space="preserve" font-family="Helvetica-Light" font-size="35.0" fill="#FEFFFF" transform="matrix(1.00, 0.00, -0.00, -1.00, 281.8, 311.0)"> </text><text xml:space="preserve" font-family="Helvetica-Light" font-size="35.0" fill="#FEFFFF" transform="matrix(1.00, 0.00, -0.00, -1.00, 291.5, 311.0)">[</text><text xml:space="preserve" font-family="Helvetica-Light" font-size="35.0" fill="#FEFFFF" transform="matrix(1.00, 0.00, -0.00, -1.00, 303.2, 311.0)">3</text><text xml:space="preserve" font-family="Helvetica-Light" font-size="35.0" fill="#FEFFFF" transform="matrix(1.00, 0.00, -0.00, -1.00, 322.6, 311.0)">,</text><text xml:space="preserve" font-family="Helvetica-Light" font-size="35.0" fill="#FEFFFF" transform="matrix(1.00, 0.00, -0.00, -1.00, 332.4, 311.0)"> </text><text xml:space="preserve" font-family="Helvetica-Light" font-size="35.0" fill="#FEFFFF" transform="matrix(1.00, 0.00, -0.00, -1.00, 342.1, 311.0)">5</text><text xml:space="preserve" font-family="Helvetica-Light" font-size="35.0" fill="#FEFFFF" transform="matrix(1.00, 0.00, -0.00, -1.00, 361.6, 311.0)">,</text><text xml:space="preserve" font-family="Helvetica-Light" font-size="35.0" fill="#FEFFFF" transform="matrix(1.00, 0.00, -0.00, -1.00, 371.3, 311.0)"> </text><text xml:space="preserve" font-family="Helvetica-Light" font-size="35.0" fill="#FEFFFF" transform="matrix(1.00, 0.00, -0.00, -1.00, 381.0, 311.0)">7</text><text xml:space="preserve" font-family="Helvetica-Light" font-size="35.0" fill="#FEFFFF" transform="matrix(1.00, 0.00, -0.00, -1.00, 400.5, 311.0)">,</text><text xml:space="preserve" font-family="Helvetica-Light" font-size="35.0" fill="#FEFFFF" transform="matrix(1.00, 0.00, -0.00, -1.00, 410.2, 311.0)"> </text><text xml:space="preserve" font-family="Helvetica-Light" font-size="35.0" fill="#FEFFFF" transform="matrix(1.00, 0.00, -0.00, -1.00, 419.9, 311.0)">1</text><text xml:space="preserve" font-family="Helvetica-Light" font-size="35.0" fill="#FEFFFF" transform="matrix(1.00, 0.00, -0.00, -1.00, 439.4, 311.0)">1</text><text xml:space="preserve" font-family="Helvetica-Light" font-size="35.0" fill="#FEFFFF" transform="matrix(1.00, 0.00, -0.00, -1.00, 458.9, 311.0)">,</text><text xml:space="preserve" font-family="Helvetica-Light" font-size="35.0" fill="#FEFFFF" transform="matrix(1.00, 0.00, -0.00, -1.00, 468.6, 311.0)"> </text><text xml:space="preserve" font-family="Helvetica-Light" font-size="35.0" fill="#FEFFFF" transform="matrix(1.00, 0.00, -0.00, -1.00, 478.3, 311.0)">1</text><text xml:space="preserve" font-family="Helvetica-Light" font-size="35.0" fill="#FEFFFF" transform="matrix(1.00, 0.00, -0.00, -1.00, 497.8, 311.0)">3</text><text xml:space="preserve" font-family="Helvetica-Light" font-size="35.0" fill="#FEFFFF" transform="matrix(1.00, 0.00, -0.00, -1.00, 517.2, 311.0)">]</text><text xml:space="preserve" font-family="Helvetica-Light" font-size="35.0" fill="#FEFFFF" transform="matrix(1.00, 0.00, -0.00, -1.00, 528.9, 311.0)"> </text><text xml:space="preserve" font-family="Helvetica-Light" font-size="35.0" fill="#FEFFFF" transform="matrix(1.00, 0.00, -0.00, -1.00, 63.0, 269.0)">&gt;</text><text xml:space="preserve" font-family="Helvetica-Light" font-size="35.0" fill="#FEFFFF" transform="matrix(1.00, 0.00, -0.00, -1.00, 86.1, 269.0)">&gt;</text><text xml:space="preserve" font-family="Helvetica-Light" font-size="35.0" fill="#FEFFFF" transform="matrix(1.00, 0.00, -0.00, -1.00, 109.2, 269.0)">&gt;</text><text xml:space="preserve" font-family="Helvetica-Light" font-size="35.0" fill="#FEFFFF" transform="matrix(1.00, 0.00, -0.00, -1.00, 132.3, 269.0)"> </text><text xml:space="preserve" font-family="Helvetica-Light" font-size="35.0" fill="#FEFFFF" transform="matrix(1.00, 0.00, -0.00, -1.00, 142.0, 269.0)">l</text><text xml:space="preserve" font-family="Helvetica-Light" font-size="35.0" fill="#FEFFFF" transform="matrix(1.00, 0.00, -0.00, -1.00, 149.8, 269.0)">i</text><text xml:space="preserve" font-family="Helvetica-Light" font-size="35.0" fill="#FEFFFF" transform="matrix(1.00, 0.00, -0.00, -1.00, 157.6, 269.0)">s</text><text xml:space="preserve" font-family="Helvetica-Light" font-size="35.0" fill="#FEFFFF" transform="matrix(1.00, 0.00, -0.00, -1.00, 175.1, 269.0)">t</text><text xml:space="preserve" font-family="Helvetica-Light" font-size="35.0" fill="#FEFFFF" transform="matrix(1.00, 0.00, -0.00, -1.00, 184.8, 269.0)">(</text><text xml:space="preserve" font-family="Helvetica-Light" font-size="35.0" fill="#FEFFFF" transform="matrix(1.00, 0.00, -0.00, -1.00, 196.5, 269.0)">p</text><text xml:space="preserve" font-family="Helvetica-Light" font-size="35.0" fill="#FEFFFF" transform="matrix(1.00, 0.00, -0.00, -1.00, 217.8, 269.0)">r</text><text xml:space="preserve" font-family="Helvetica-Light" font-size="35.0" fill="#FEFFFF" transform="matrix(1.00, 0.00, -0.00, -1.00, 229.5, 269.0)">i</text><text xml:space="preserve" font-family="Helvetica-Light" font-size="35.0" fill="#FEFFFF" transform="matrix(1.00, 0.00, -0.00, -1.00, 237.3, 269.0)">m</text><text xml:space="preserve" font-family="Helvetica-Light" font-size="35.0" fill="#FEFFFF" transform="matrix(1.00, 0.00, -0.00, -1.00, 266.4, 269.0)">e</text><text xml:space="preserve" font-family="Helvetica-Light" font-size="35.0" fill="#FEFFFF" transform="matrix(1.00, 0.00, -0.00, -1.00, 285.9, 269.0)">s</text><text xml:space="preserve" font-family="Helvetica-Light" font-size="35.0" fill="#FEFFFF" transform="matrix(1.00, 0.00, -0.00, -1.00, 303.4, 269.0)">)</text><text xml:space="preserve" font-family="Helvetica-Light" font-size="35.0" fill="#FEFFFF" transform="matrix(1.00, 0.00, -0.00, -1.00, 315.0, 269.0)"> </text><text xml:space="preserve" font-family="Helvetica-Light" font-size="35.0" fill="#FEFFFF" transform="matrix(1.00, 0.00, -0.00, -1.00, 63.0, 227.0)">[</text><text xml:space="preserve" font-family="Helvetica-Light" font-size="35.0" fill="#FEFFFF" transform="matrix(1.00, 0.00, -0.00, -1.00, 74.7, 227.0)">3</text><text xml:space="preserve" font-family="Helvetica-Light" font-size="35.0" fill="#FEFFFF" transform="matrix(1.00, 0.00, -0.00, -1.00, 94.1, 227.0)">,</text><text xml:space="preserve" font-family="Helvetica-Light" font-size="35.0" fill="#FEFFFF" transform="matrix(1.00, 0.00, -0.00, -1.00, 103.8, 227.0)"> </text><text xml:space="preserve" font-family="Helvetica-Light" font-size="35.0" fill="#FEFFFF" transform="matrix(1.00, 0.00, -0.00, -1.00, 113.6, 227.0)">5</text><text xml:space="preserve" font-family="Helvetica-Light" font-size="35.0" fill="#FEFFFF" transform="matrix(1.00, 0.00, -0.00, -1.00, 133.0, 227.0)">,</text><text xml:space="preserve" font-family="Helvetica-Light" font-size="35.0" fill="#FEFFFF" transform="matrix(1.00, 0.00, -0.00, -1.00, 142.8, 227.0)"> </text><text xml:space="preserve" font-family="Helvetica-Light" font-size="35.0" fill="#FEFFFF" transform="matrix(1.00, 0.00, -0.00, -1.00, 152.5, 227.0)">7</text><text xml:space="preserve" font-family="Helvetica-Light" font-size="35.0" fill="#FEFFFF" transform="matrix(1.00, 0.00, -0.00, -1.00, 172.0, 227.0)">,</text><text xml:space="preserve" font-family="Helvetica-Light" font-size="35.0" fill="#FEFFFF" transform="matrix(1.00, 0.00, -0.00, -1.00, 181.7, 227.0)"> </text><text xml:space="preserve" font-family="Helvetica-Light" font-size="35.0" fill="#FEFFFF" transform="matrix(1.00, 0.00, -0.00, -1.00, 191.4, 227.0)">1</text><text xml:space="preserve" font-family="Helvetica-Light" font-size="35.0" fill="#FEFFFF" transform="matrix(1.00, 0.00, -0.00, -1.00, 210.9, 227.0)">1</text><text xml:space="preserve" font-family="Helvetica-Light" font-size="35.0" fill="#FEFFFF" transform="matrix(1.00, 0.00, -0.00, -1.00, 230.3, 227.0)">,</text><text xml:space="preserve" font-family="Helvetica-Light" font-size="35.0" fill="#FEFFFF" transform="matrix(1.00, 0.00, -0.00, -1.00, 240.1, 227.0)"> </text><text xml:space="preserve" font-family="Helvetica-Light" font-size="35.0" fill="#FEFFFF" transform="matrix(1.00, 0.00, -0.00, -1.00, 249.8, 227.0)">1</text><text xml:space="preserve" font-family="Helvetica-Light" font-size="35.0" fill="#FEFFFF" transform="matrix(1.00, 0.00, -0.00, -1.00, 269.3, 227.0)">3</text><text xml:space="preserve" font-family="Helvetica-Light" font-size="35.0" fill="#FEFFFF" transform="matrix(1.00, 0.00, -0.00, -1.00, 288.7, 227.0)">]</text></g></svg>